<?xml version="1.0" encoding="UTF-8"?>
<svg id="favicon" xmlns="http://www.w3.org/2000/svg" viewBox="0 0 16 16">
  <defs>
    <style>
      .cls-1 {
        fill: #f14724;
      }
    </style>
  </defs>
  <path class="cls-1" d="m7.76,15.45c.15.07.32.07.47,0,1.11-.5,5.76-2.86,5.76-7.03V3.84c0-.21-.18-.41-.39-.44-3.13-.42-4.66-1.93-5.27-2.74-.17-.23-.51-.23-.68,0-.61.81-2.14,2.31-5.27,2.74-.21.03-.39.22-.39.44v4.58c0,4.17,4.65,6.52,5.76,7.03Zm-1.33-9.52c.6-.72,1.12-1.34.92-1.94-.03-.08,0-.17.07-.23.07-.05.16-.06.23-.01,1.25.78,1.9,2.77,1.94,4.06.16-.2.35-.53.34-.89,0-.09.05-.17.13-.2.08-.03.17-.01.23.05.76.82.76,1.85.76,2.18,0,1.03-.49,2.09-1.46,3.15-.04.05-.11.07-.17.07-.04,0-.08-.01-.12-.03-.09-.06-.13-.17-.09-.27.11-.29.17-.59.17-.87,0-.16,0-.63-.23-1.05-.07.35-.3.6-.31.61l-.22.24.02-.32c.04-.74-.27-1.87-.77-2.39.01.39-.24.75-.52,1.17-.34.49-.72,1.04-.72,1.75,0,.28.06.57.17.87.04.1,0,.21-.09.27-.09.06-.21.04-.29-.04-.97-1.07-1.46-2.13-1.46-3.15,0-1.25.79-2.19,1.48-3.03Z"/>
</svg>