<?xml version="1.0" encoding="UTF-8"?>
<svg id="narrow_white" xmlns="http://www.w3.org/2000/svg" viewBox="0 0 160 160">
  <defs>
    <style>
      .cls-1 {
        fill: #f14724;
      }

      .cls-2 {
        fill: #f2f2f2;
        fill-rule: evenodd;
      }
    </style>
  </defs>
  <path class="cls-1" d="m51.12,113.34c.58.26,1.24.26,1.82,0,4.27-1.93,22.1-10.96,22.1-26.93v-17.55c0-.82-.68-1.56-1.49-1.67-12-1.62-17.87-7.38-20.22-10.49-.66-.87-1.94-.87-2.6,0-2.35,3.11-8.21,8.87-20.22,10.49-.81.11-1.49.85-1.49,1.67v17.55c0,15.97,17.83,25,22.1,26.93Zm-5.1-36.48c2.3-2.76,4.28-5.14,3.52-7.44-.11-.32,0-.66.26-.87.26-.21.61-.22.89-.05,4.81,2.97,7.3,10.61,7.45,15.55.6-.78,1.34-2.02,1.31-3.4,0-.33.19-.63.5-.76.31-.12.65-.05.87.19,2.9,3.13,2.9,7.08,2.9,8.37,0,3.93-1.89,8-5.61,12.09-.17.19-.4.29-.64.29-.16,0-.31-.04-.46-.13-.36-.22-.5-.64-.35-1.03.43-1.13.64-2.25.64-3.33,0-.62,0-2.43-.89-4.03-.26,1.34-1.14,2.31-1.18,2.36l-.84.91.06-1.24c.14-2.85-1.02-7.17-2.93-9.17.05,1.49-.91,2.88-2.01,4.47-1.29,1.88-2.76,4-2.76,6.7,0,1.08.22,2.2.64,3.32.15.39,0,.82-.36,1.04-.36.22-.81.16-1.09-.16-3.72-4.09-5.61-8.16-5.61-12.09,0-4.78,3.02-8.4,5.68-11.6Z"/>
  <path class="cls-2" d="m149.68,83.38c-15.6,2.11-29.3,8.08-39.86,14.22-1.37-6.56-7.85-11.75-17.66-15.19-3.63-1.27-7.78-2.34-12.32-3.18l-1.49,1.14c.54,1.56.88,3.17,1.04,4.78,14.81,2.82,24.78,8.26,24.78,15.1,0,7.8-12.96,13.77-31.25,16.13-3.16.41-6.48.71-9.93.89-2.6.14-5.26.21-7.98.21-1.91,0-3.8-.04-5.65-.1-2-.07-3.96-.19-5.88-.34-21.59-1.69-37.63-8.1-37.63-16.79,0-5.84,7.26-10.65,18.58-13.69-.31-1.28-.37-2.59-.2-3.87.11-.79.3-1.56.57-2.31-2.48.6-4.8,1.28-6.94,2.03-9.67,3.39-19.91,9.66-17.53,21.34,3.34,16.26,20.05,29.91,43.15,33.36,1.92.29,3.88.5,5.88.64,1.85.13,3.73.2,5.65.2,2.73,0,5.39-.14,7.98-.4,3.44-.35,6.76-.92,9.93-1.69,16.69-4.06,29.26-13.66,34.58-25.42,11.65-6.67,29.42-14.62,49.52-15.96,6.19-.41,2.17-12.23-7.35-11.12Zm-86.68-22.54c-.71-2.15-.59-4.3,0-6.46,2.95-10.78,17.72-21.56,0-32.34h0s0,0,0,0c.71,2.15.59,4.3,0,6.45-2.94,10.78-17.72,21.56,0,32.34Zm-19.51,0c-.71-2.15-.59-4.3,0-6.46,1.09-3.99,3.8-7.98,5.88-11.97,2.71-5.19,4.36-10.38,0-15.58-1.34-1.6-3.25-3.2-5.88-4.8h0s0,0,0,0c.71,2.15.59,4.3,0,6.45-2.94,10.78-17.72,21.56,0,32.34Z"/>
</svg>