<?xml version="1.0" encoding="UTF-8"?>
<svg id="logo" xmlns="http://www.w3.org/2000/svg" viewBox="0 0 500 181.45">
  <defs>
    <style>
      .cls-1 {
        font-family: FenwickRg-Regular, Fenwick;
        font-size: 100px;
      }

      .cls-1, .cls-2 {
        fill: #0e2430;
      }

      .cls-3 {
        fill: #f14724;
      }

      .cls-2 {
        fill-rule: evenodd;
      }
    </style>
  </defs>
  <g id="colored">
    <path class="cls-3" d="m79.87,142.82c.91.41,1.93.41,2.84,0,6.67-3.02,34.53-17.13,34.53-42.08v-27.43c0-1.28-1.06-2.43-2.33-2.61-18.76-2.54-27.92-11.53-31.59-16.39-1.03-1.36-3.04-1.36-4.06,0-3.67,4.86-12.83,13.86-31.59,16.39-1.27.17-2.32,1.32-2.32,2.61v27.43c0,24.96,27.86,39.06,34.53,42.08Zm-7.97-56.99c3.59-4.31,6.68-8.02,5.5-11.62-.16-.5,0-1.03.41-1.36.41-.32.96-.35,1.39-.08,7.52,4.65,11.4,16.58,11.63,24.3.94-1.22,2.09-3.16,2.05-5.32-.01-.52.3-.99.78-1.19.48-.19,1.01-.07,1.36.3,4.54,4.89,4.54,11.06,4.54,13.08,0,6.15-2.95,12.5-8.76,18.89-.27.3-.63.45-1,.45-.24,0-.49-.07-.71-.2-.56-.34-.78-1.01-.55-1.62.66-1.76,1-3.51,1-5.2,0-.97,0-3.8-1.39-6.3-.4,2.1-1.78,3.61-1.84,3.68l-1.31,1.42.09-1.93c.21-4.45-1.6-11.21-4.58-14.33.08,2.32-1.42,4.5-3.14,6.99-2.02,2.93-4.31,6.25-4.31,10.47,0,1.68.34,3.43,1,5.19.23.61,0,1.28-.56,1.62-.56.35-1.26.25-1.71-.24-5.81-6.39-8.76-12.75-8.76-18.89,0-7.46,4.71-13.12,8.87-18.12Z"/>
    <path class="cls-2" d="m233.88,96.01c-24.37,3.29-45.78,12.63-62.28,22.22-2.14-10.26-12.27-18.36-27.59-23.73-5.67-1.98-12.15-3.66-19.24-4.97l-2.32,1.77c.84,2.44,1.37,4.95,1.62,7.47,23.13,4.41,38.72,12.9,38.72,23.6,0,12.19-20.25,21.52-48.83,25.2-4.94.64-10.13,1.1-15.51,1.39-4.06.22-8.23.33-12.47.33-2.99,0-5.93-.06-8.83-.16-3.12-.12-6.19-.29-9.19-.53-33.73-2.64-58.8-12.66-58.8-26.23,0-9.13,11.34-16.65,29.04-21.4-.48-1.99-.58-4.05-.32-6.05.17-1.23.46-2.44.9-3.6-3.87.94-7.5,2-10.84,3.18-15.12,5.3-31.1,15.09-27.4,33.35,5.21,25.41,31.32,46.73,67.42,52.13,3,.45,6.06.78,9.19,1.01,2.89.2,5.83.31,8.83.31,4.26,0,8.42-.21,12.47-.62,5.38-.54,10.56-1.44,15.51-2.64,26.08-6.35,45.72-21.35,54.03-39.72,18.21-10.41,45.97-22.84,77.38-24.93,9.68-.64,3.39-19.12-11.49-17.37ZM98.45,60.78c-1.1-3.36-.92-6.72,0-10.09,4.6-16.85,27.68-33.69,0-50.54h0s0,0,0,0c1.1,3.36.92,6.72,0,10.09-4.6,16.85-27.68,33.69,0,50.54Zm-30.49,0c-1.1-3.36-.92-6.73,0-10.09,1.7-6.23,5.93-12.47,9.19-18.7,4.24-8.11,6.81-16.22,0-24.34-2.1-2.5-5.08-5-9.19-7.49h0s0,0,0,0c1.1,3.36.92,6.72,0,10.09-4.6,16.85-27.68,33.69,0,50.54Z"/>
    <text class="cls-1" transform="translate(184.7 86.5)"><tspan x="0" y="0">Saute</tspan></text>
  </g>
</svg>