<?xml version="1.0" encoding="UTF-8"?>
<svg id="diffsync" xmlns="http://www.w3.org/2000/svg" viewBox="0 0 400 287">
  <defs>
    <style>
      .cls-1 {
        fill: #f04e23;
      }

      .cls-2 {
        fill: #fff;
      }

      .cls-3 {
        fill: #2ac3e9;
      }
    </style>
  </defs>
  <g id="Layer_5" data-name="Layer 5">
    <g>
      <path class="cls-3" d="m200.94,130.48c1.02,0,2.05-.15,3.07-.47,5.42-1.7,8.44-7.46,6.75-12.88-1.27-4.06-1.91-8.26-1.91-12.49,0-22.23,17.54-40.39,39.51-41.48v13.1c0,2.16,1.18,4.15,3.08,5.19.88.49,1.86.73,2.84.73,1.11,0,2.22-.32,3.19-.94l36.61-23.48c1.7-1.09,2.72-2.96,2.72-4.98s-1.03-3.89-2.72-4.97l-36.61-23.48c-1.82-1.17-4.13-1.25-6.03-.21-1.9,1.04-3.08,3.02-3.08,5.19v13.29c-33.3,1.11-60.07,28.47-60.07,62.04,0,6.31.96,12.58,2.85,18.63,1.37,4.4,5.43,7.22,9.81,7.22Z"/>
      <path class="cls-1" d="m290.1,92.14c1.27,4.06,1.91,8.26,1.91,12.49,0,22.24-17.57,40.41-39.55,41.48v-13.08c0-2.16-1.18-4.15-3.08-5.19-1.89-1.04-4.21-.95-6.03.21l-36.61,23.48c-1.7,1.09-2.72,2.96-2.72,4.97s1.02,3.89,2.72,4.98l36.61,23.48c.97.62,2.08.94,3.19.94.97,0,1.95-.24,2.84-.73,1.9-1.03,3.08-3.02,3.08-5.19v-13.32c33.32-1.08,60.12-28.46,60.12-62.05,0-6.32-.96-12.59-2.85-18.63-1.7-5.42-7.46-8.43-12.88-6.75-5.42,1.7-8.44,7.47-6.75,12.88Z"/>
      <path class="cls-2" d="m320.8,149.59c-10.72,16.81-27.36,29.66-47.45,35.31-1.47,8.05-6.5,15.07-13.68,18.98-4,2.2-8.54,3.37-13.12,3.37-5.22,0-10.31-1.49-14.71-4.31l-36.6-23.47c-7.86-5.03-12.55-13.61-12.55-22.94,0-3.2.57-6.34,1.7-9.38-6.51-3.98-11.32-10.14-13.62-17.51-2.54-8.11-3.82-16.52-3.82-24.99,0-13.27,3.17-25.92,8.8-37.22-6.75-2.23-13.94-3.47-21.43-3.47-37.77,0-68.4,30.62-68.4,68.4,0,2.9.24,5.74.59,8.55-23.97,6.26-41.68,28-41.68,53.93,0,30.82,24.99,55.81,55.81,55.81h187.56c30.82,0,55.81-24.99,55.81-55.81,0-18.63-9.17-35.09-23.2-45.22Z"/>
    </g>
  </g>
</svg>