<?xml version="1.0" encoding="UTF-8"?>
<svg id="batch" xmlns="http://www.w3.org/2000/svg" xmlns:xlink="http://www.w3.org/1999/xlink" viewBox="0 0 1679.46 1679.46">
  <defs>
    <style>
      .cls-1 {
        stroke-width: 2.5px;
      }

      .cls-1, .cls-2, .cls-3, .cls-4 {
        stroke: #000;
        stroke-miterlimit: 10;
      }

      .cls-1, .cls-3, .cls-5, .cls-4 {
        fill: none;
      }

      .cls-2 {
        fill: #fff;
        stroke-width: 10px;
      }

      .cls-3 {
        stroke-width: 5px;
      }

      .cls-6 {
        clip-path: url(#clippath);
      }

      .cls-5, .cls-7 {
        stroke-width: 0px;
      }

      .cls-4 {
        stroke-width: 7.5px;
      }

      .cls-8 {
        clip-path: url(#clippath-1);
      }

      .cls-9 {
        clip-path: url(#clippath-4);
      }

      .cls-10 {
        clip-path: url(#clippath-3);
      }

      .cls-11 {
        clip-path: url(#clippath-2);
      }

      .cls-12 {
        clip-path: url(#clippath-7);
      }

      .cls-13 {
        clip-path: url(#clippath-8);
      }

      .cls-14 {
        clip-path: url(#clippath-6);
      }

      .cls-15 {
        clip-path: url(#clippath-5);
      }

      .cls-16 {
        clip-path: url(#clippath-9);
      }

      .cls-7 {
        fill: #000;
      }

      .cls-17 {
        clip-path: url(#clippath-10);
      }

      .cls-18 {
        clip-path: url(#clippath-11);
      }
    </style>
    <clipPath id="clippath">
      <rect class="cls-5" x="7.73" y="859.4" width="1664" height="297"/>
    </clipPath>
    <clipPath id="clippath-1">
      <rect class="cls-5" x="7.73" y="859.4" width="1664" height="297"/>
    </clipPath>
    <clipPath id="clippath-2">
      <rect class="cls-5" x="7.73" y="859.4" width="1664" height="297"/>
    </clipPath>
    <clipPath id="clippath-3">
      <rect class="cls-5" x="7.73" y="523.06" width="1664" height="297"/>
    </clipPath>
    <clipPath id="clippath-4">
      <rect class="cls-5" x="7.73" y="523.06" width="1664" height="297"/>
    </clipPath>
    <clipPath id="clippath-5">
      <rect class="cls-5" x="7.73" y="523.06" width="1664" height="297"/>
    </clipPath>
    <clipPath id="clippath-6">
      <rect class="cls-5" x="7.86" y="1195.73" width="1664" height="297"/>
    </clipPath>
    <clipPath id="clippath-7">
      <rect class="cls-5" x="7.86" y="1195.73" width="1664" height="297"/>
    </clipPath>
    <clipPath id="clippath-8">
      <rect class="cls-5" x="7.86" y="1195.73" width="1664" height="297"/>
    </clipPath>
    <clipPath id="clippath-9">
      <rect class="cls-5" x="7.86" y="186.73" width="1664" height="297"/>
    </clipPath>
    <clipPath id="clippath-10">
      <rect class="cls-5" x="7.86" y="186.73" width="1664" height="297"/>
    </clipPath>
    <clipPath id="clippath-11">
      <rect class="cls-5" x="7.86" y="186.73" width="1664" height="297"/>
    </clipPath>
  </defs>
  <g class="cls-6">
    <g class="cls-8">
      <rect class="cls-2" x="17.23" y="867.9" width="1645" height="279"/>
    </g>
    <polygon class="cls-7" points="1180.73 1110.4 1180.73 1125.4 1210.73 1125.4 1210.73 1110.4 1218.73 1110.4 1218.73 1079.4 1172.73 1079.4 1172.73 1110.4 1180.73 1110.4"/>
    <g class="cls-11">
      <path class="cls-7" d="M734.11,1103.44c-3.98,0-7.2-3.22-7.2-7.2s3.22-7.21,7.2-7.21,7.2,3.22,7.2,7.21-3.22,7.2-7.2,7.2"/>
      <path class="cls-7" d="M734.11,1125.07c-3.98,0-7.2-3.22-7.2-7.2s3.22-7.21,7.2-7.21,7.2,3.22,7.2,7.21-3.22,7.2-7.2,7.2"/>
      <path class="cls-7" d="M734.11,1039.55c-3.98,0-7.2-3.22-7.2-7.2s3.22-7.21,7.2-7.21,7.2,3.22,7.2,7.21-3.22,7.2-7.2,7.2"/>
      <path class="cls-7" d="M734.11,1061.17c-3.98,0-7.2-3.22-7.2-7.2s3.22-7.21,7.2-7.21,7.2,3.22,7.2,7.21-3.22,7.2-7.2,7.2"/>
      <path class="cls-7" d="M835.75,1103.44c-3.98,0-7.2-3.22-7.2-7.2s3.22-7.21,7.2-7.21,7.2,3.22,7.2,7.21-3.22,7.2-7.2,7.2"/>
      <path class="cls-7" d="M835.75,1125.07c-3.98,0-7.2-3.22-7.2-7.2s3.22-7.21,7.2-7.21,7.2,3.22,7.2,7.21-3.22,7.2-7.2,7.2"/>
      <path class="cls-7" d="M835.75,1039.55c-3.98,0-7.2-3.22-7.2-7.2s3.22-7.21,7.2-7.21,7.2,3.22,7.2,7.21-3.22,7.2-7.2,7.2"/>
      <path class="cls-7" d="M835.75,1061.17c-3.98,0-7.2-3.22-7.2-7.2s3.22-7.21,7.2-7.21,7.2,3.22,7.2,7.21-3.22,7.2-7.2,7.2"/>
      <polygon class="cls-7" points="146.73 1040.4 146.73 1025.4 116.73 1025.4 116.73 1040.4 108.73 1040.4 108.73 1070.4 154.73 1070.4 154.73 1040.4 146.73 1040.4"/>
      <polygon class="cls-7" points="116.73 1110.4 116.73 1125.4 146.73 1125.4 146.73 1110.4 154.73 1110.4 154.73 1079.4 108.73 1079.4 108.73 1110.4 116.73 1110.4"/>
      <polygon class="cls-7" points="91.73 1040.4 91.73 1025.4 61.73 1025.4 61.73 1040.4 53.73 1040.4 53.73 1070.4 99.73 1070.4 99.73 1040.4 91.73 1040.4"/>
      <polygon class="cls-7" points="61.73 1110.4 61.73 1125.4 91.73 1125.4 91.73 1110.4 99.73 1110.4 99.73 1079.4 53.73 1079.4 53.73 1110.4 61.73 1110.4"/>
      <polygon class="cls-7" points="257.73 1040.4 257.73 1025.4 227.73 1025.4 227.73 1040.4 219.73 1040.4 219.73 1070.4 265.73 1070.4 265.73 1040.4 257.73 1040.4"/>
      <polygon class="cls-7" points="227.73 1110.4 227.73 1125.4 257.73 1125.4 257.73 1110.4 265.73 1110.4 265.73 1079.4 219.73 1079.4 219.73 1110.4 227.73 1110.4"/>
      <polygon class="cls-7" points="202.73 1040.4 202.73 1025.4 172.73 1025.4 172.73 1040.4 164.73 1040.4 164.73 1070.4 210.73 1070.4 210.73 1040.4 202.73 1040.4"/>
      <polygon class="cls-7" points="172.73 1110.4 172.73 1125.4 202.73 1125.4 202.73 1110.4 210.73 1110.4 210.73 1079.4 164.73 1079.4 164.73 1110.4 172.73 1110.4"/>
      <rect class="cls-7" x="311.73" y="1025.4" width="46" height="46"/>
      <rect class="cls-7" x="311.73" y="1079.4" width="46" height="46"/>
      <rect class="cls-7" x="364.73" y="1025.4" width="46" height="46"/>
      <rect class="cls-7" x="364.73" y="1079.4" width="46" height="46"/>
      <rect class="cls-7" x="418.73" y="1025.4" width="46" height="46"/>
      <rect class="cls-7" x="418.73" y="1079.4" width="46" height="46"/>
      <rect class="cls-7" x="471.73" y="1025.4" width="46" height="46"/>
      <rect class="cls-7" x="471.73" y="1079.4" width="46" height="46"/>
      <rect class="cls-7" x="524.73" y="1025.4" width="46" height="46"/>
      <rect class="cls-7" x="524.73" y="1079.4" width="46" height="46"/>
      <rect class="cls-7" x="597.73" y="1025.4" width="46" height="46"/>
      <rect class="cls-7" x="597.73" y="1079.4" width="46" height="46"/>
      <rect class="cls-7" x="650.73" y="1024.4" width="46" height="46"/>
      <rect class="cls-7" x="650.73" y="1079.4" width="46" height="46"/>
      <rect class="cls-7" x="753.73" y="1080.4" width="60" height="44"/>
      <rect class="cls-7" x="753.73" y="1024.4" width="60" height="44"/>
      <path class="cls-7" d="M936.76,1103.44c-3.98,0-7.2-3.22-7.2-7.2s3.22-7.21,7.2-7.21,7.2,3.22,7.2,7.21-3.22,7.2-7.2,7.2"/>
      <path class="cls-7" d="M936.76,1125.07c-3.98,0-7.2-3.22-7.2-7.2s3.22-7.21,7.2-7.21,7.2,3.22,7.2,7.21-3.22,7.2-7.2,7.2"/>
      <path class="cls-7" d="M936.76,1039.55c-3.98,0-7.2-3.22-7.2-7.2s3.22-7.21,7.2-7.21,7.2,3.22,7.2,7.21-3.22,7.2-7.2,7.2"/>
      <path class="cls-7" d="M936.76,1061.17c-3.98,0-7.2-3.22-7.2-7.2s3.22-7.21,7.2-7.21,7.2,3.22,7.2,7.21-3.22,7.2-7.2,7.2"/>
      <path class="cls-7" d="M1411.91,1103.69c-3.98,0-7.2-3.22-7.2-7.2s3.22-7.21,7.2-7.21,7.2,3.22,7.2,7.21-3.22,7.2-7.2,7.2"/>
      <path class="cls-7" d="M1411.91,1125.07c-3.98,0-7.2-3.22-7.2-7.2s3.22-7.21,7.2-7.21,7.2,3.22,7.2,7.21-3.22,7.2-7.2,7.2"/>
      <path class="cls-7" d="M1411.91,1039.55c-3.98,0-7.2-3.22-7.2-7.2s3.22-7.21,7.2-7.21,7.2,3.22,7.2,7.21-3.22,7.2-7.2,7.2"/>
      <path class="cls-7" d="M1411.91,1060.93c-3.98,0-7.2-3.22-7.2-7.2s3.22-7.21,7.2-7.21,7.2,3.22,7.2,7.21-3.22,7.2-7.2,7.2"/>
      <path class="cls-7" d="M1411.91,1082.31c-3.98,0-7.2-3.22-7.2-7.2s3.22-7.21,7.2-7.21,7.2,3.22,7.2,7.21-3.22,7.2-7.2,7.2"/>
      <path class="cls-7" d="M1434.07,1103.69c-3.98,0-7.2-3.22-7.2-7.2s3.22-7.21,7.2-7.21,7.2,3.22,7.2,7.21-3.22,7.2-7.2,7.2"/>
      <path class="cls-7" d="M1434.07,1125.07c-3.98,0-7.2-3.22-7.2-7.2s3.22-7.21,7.2-7.21,7.2,3.22,7.2,7.21-3.22,7.2-7.2,7.2"/>
      <path class="cls-7" d="M1434.07,1060.93c-3.98,0-7.2-3.22-7.2-7.2s3.22-7.21,7.2-7.21,7.2,3.22,7.2,7.21-3.22,7.2-7.2,7.2"/>
      <path class="cls-7" d="M1434.07,1082.31c-3.98,0-7.2-3.22-7.2-7.2s3.22-7.21,7.2-7.21,7.2,3.22,7.2,7.21-3.22,7.2-7.2,7.2"/>
      <path class="cls-7" d="M1131.48,1053.96c0-3.98,3.22-7.2,7.2-7.2s7.21,3.22,7.21,7.2-3.22,7.2-7.21,7.2-7.2-3.22-7.2-7.2"/>
      <path class="cls-7" d="M1109.86,1053.96c0-3.98,3.22-7.2,7.2-7.2s7.21,3.22,7.21,7.2-3.22,7.2-7.21,7.2-7.2-3.22-7.2-7.2"/>
      <rect class="cls-7" x="854.73" y="1080.4" width="60" height="44"/>
      <rect class="cls-7" x="958.73" y="1080.4" width="60" height="44"/>
      <rect class="cls-7" x="1038.73" y="1080.4" width="46" height="44"/>
      <rect class="cls-7" x="1104.73" y="1080.4" width="46" height="44"/>
      <rect class="cls-7" x="1038.73" y="1024.4" width="46" height="44"/>
      <rect class="cls-7" x="854.73" y="1024.4" width="60" height="44"/>
      <rect class="cls-4" x="1242.23" y="1055.9" width="53" height="66"/>
      <path class="cls-4" d="M1336.74,1098.9h33.43c6.35,0,11.81,4.97,11.91,11.32.1,6.44-5.09,11.68-11.5,11.68h-33.43c-6.35,0-11.81-4.97-11.91-11.32-.1-6.44,5.09-11.68,11.5-11.68Z"/>
      <polygon class="cls-7" points="1281.73 1067.4 1275.23 1067.4 1268.73 1067.4 1268.73 1110.4 1275.23 1110.4 1281.73 1110.4 1281.73 1067.4"/>
      <polygon class="cls-1" points="76.73 1009.43 76.73 994.41 63.72 986.9 50.73 994.41 50.73 1009.43 63.72 1016.94 76.73 1009.43"/>
      <polygon class="cls-1" points="111.73 1009.43 111.73 994.41 98.72 986.9 85.73 994.41 85.73 1009.43 98.72 1016.94 111.73 1009.43"/>
      <polygon class="cls-1" points="145.73 1009.43 145.73 994.41 132.72 986.9 119.73 994.41 119.73 1009.43 132.72 1016.94 145.73 1009.43"/>
      <polygon class="cls-1" points="179.73 1009.43 179.73 994.41 166.72 986.9 153.73 994.41 153.73 1009.43 166.72 1016.94 179.73 1009.43"/>
      <polygon class="cls-1" points="214.73 1009.43 214.73 994.41 201.72 986.9 188.73 994.41 188.73 1009.43 201.72 1016.94 214.73 1009.43"/>
      <polygon class="cls-1" points="248.73 1009.43 248.73 994.41 235.72 986.9 222.73 994.41 222.73 1009.43 235.72 1016.94 248.73 1009.43"/>
      <polygon class="cls-1" points="283.73 1009.43 283.73 994.41 270.72 986.9 257.73 994.41 257.73 1009.43 270.72 1016.94 283.73 1009.43"/>
      <polygon class="cls-1" points="317.73 1009.43 317.73 994.41 304.72 986.9 291.73 994.41 291.73 1009.43 304.72 1016.94 317.73 1009.43"/>
      <polygon class="cls-1" points="351.73 1009.43 351.73 994.41 338.72 986.9 325.73 994.41 325.73 1009.43 338.72 1016.94 351.73 1009.43"/>
      <polygon class="cls-1" points="386.73 1009.43 386.73 994.41 373.72 986.9 360.73 994.41 360.73 1009.43 373.72 1016.94 386.73 1009.43"/>
      <polygon class="cls-1" points="420.73 1009.43 420.73 994.41 407.72 986.9 394.73 994.41 394.73 1009.43 407.72 1016.94 420.73 1009.43"/>
      <polygon class="cls-1" points="454.73 1009.43 454.73 994.41 441.72 986.9 428.73 994.41 428.73 1009.43 441.72 1016.94 454.73 1009.43"/>
      <polygon class="cls-1" points="489.73 1009.43 489.73 994.41 476.72 986.9 463.73 994.41 463.73 1009.43 476.72 1016.94 489.73 1009.43"/>
      <polygon class="cls-1" points="523.73 1009.43 523.73 994.41 510.72 986.9 497.73 994.41 497.73 1009.43 510.72 1016.94 523.73 1009.43"/>
      <polygon class="cls-1" points="557.73 1009.43 557.73 994.41 544.72 986.9 531.73 994.41 531.73 1009.43 544.72 1016.94 557.73 1009.43"/>
      <polygon class="cls-1" points="592.73 1009.43 592.73 994.41 579.72 986.9 566.73 994.41 566.73 1009.43 579.72 1016.94 592.73 1009.43"/>
      <polygon class="cls-1" points="626.73 1009.43 626.73 994.41 613.72 986.9 600.73 994.41 600.73 1009.43 613.72 1016.94 626.73 1009.43"/>
      <polygon class="cls-1" points="660.73 1009.43 660.73 994.41 647.72 986.9 634.73 994.41 634.73 1009.43 647.72 1016.94 660.73 1009.43"/>
      <polygon class="cls-1" points="695.73 1009.43 695.73 994.41 682.72 986.9 669.73 994.41 669.73 1009.43 682.72 1016.94 695.73 1009.43"/>
      <polygon class="cls-1" points="729.73 1009.43 729.73 994.41 716.72 986.9 703.73 994.41 703.73 1009.43 716.72 1016.94 729.73 1009.43"/>
      <polygon class="cls-1" points="763.73 1009.43 763.73 994.41 750.72 986.9 737.73 994.41 737.73 1009.43 750.72 1016.94 763.73 1009.43"/>
      <polygon class="cls-1" points="798.73 1009.43 798.73 994.41 785.72 986.9 772.73 994.41 772.73 1009.43 785.72 1016.94 798.73 1009.43"/>
      <polygon class="cls-1" points="832.73 1009.43 832.73 994.41 819.72 986.9 806.73 994.41 806.73 1009.43 819.72 1016.94 832.73 1009.43"/>
      <polygon class="cls-1" points="867.73 1009.43 867.73 994.41 854.72 986.9 841.73 994.41 841.73 1009.43 854.72 1016.94 867.73 1009.43"/>
      <polygon class="cls-1" points="901.73 1009.43 901.73 994.41 888.72 986.9 875.73 994.41 875.73 1009.43 888.72 1016.94 901.73 1009.43"/>
      <polygon class="cls-1" points="935.73 1009.43 935.73 994.41 922.72 986.9 909.73 994.41 909.73 1009.43 922.72 1016.94 935.73 1009.43"/>
      <polygon class="cls-1" points="970.73 1009.43 970.73 994.41 957.72 986.9 944.73 994.41 944.73 1009.43 957.72 1016.94 970.73 1009.43"/>
      <polygon class="cls-1" points="1004.73 1009.43 1004.73 994.41 991.72 986.9 978.73 994.41 978.73 1009.43 991.72 1016.94 1004.73 1009.43"/>
      <polygon class="cls-1" points="59.73 980.8 59.73 965.79 46.72 958.28 33.73 965.79 33.73 980.8 46.72 988.31 59.73 980.8"/>
      <polygon class="cls-1" points="94.73 980.8 94.73 965.79 81.72 958.28 68.73 965.79 68.73 980.8 81.72 988.31 94.73 980.8"/>
      <polygon class="cls-1" points="128.73 980.8 128.73 965.79 115.72 958.28 102.73 965.79 102.73 980.8 115.72 988.31 128.73 980.8"/>
      <polygon class="cls-1" points="162.73 980.8 162.73 965.79 149.72 958.28 136.73 965.79 136.73 980.8 149.72 988.31 162.73 980.8"/>
      <polygon class="cls-1" points="197.73 980.8 197.73 965.79 184.72 958.28 171.73 965.79 171.73 980.8 184.72 988.31 197.73 980.8"/>
      <polygon class="cls-1" points="231.73 980.8 231.73 965.79 218.72 958.28 205.73 965.79 205.73 980.8 218.72 988.31 231.73 980.8"/>
      <polygon class="cls-1" points="265.73 980.8 265.73 965.79 252.72 958.28 239.73 965.79 239.73 980.8 252.72 988.31 265.73 980.8"/>
      <polygon class="cls-1" points="300.73 980.8 300.73 965.79 287.72 958.28 274.73 965.79 274.73 980.8 287.72 988.31 300.73 980.8"/>
      <polygon class="cls-1" points="334.73 980.8 334.73 965.79 321.72 958.28 308.73 965.79 308.73 980.8 321.72 988.31 334.73 980.8"/>
      <polygon class="cls-1" points="368.73 980.8 368.73 965.79 355.72 958.28 342.73 965.79 342.73 980.8 355.72 988.31 368.73 980.8"/>
      <polygon class="cls-1" points="403.73 980.8 403.73 965.79 390.72 958.28 377.73 965.79 377.73 980.8 390.72 988.31 403.73 980.8"/>
      <polygon class="cls-1" points="437.73 980.8 437.73 965.79 424.72 958.28 411.73 965.79 411.73 980.8 424.72 988.31 437.73 980.8"/>
      <polygon class="cls-1" points="471.73 980.8 471.73 965.79 458.72 958.28 445.73 965.79 445.73 980.8 458.72 988.31 471.73 980.8"/>
      <polygon class="cls-1" points="506.73 980.8 506.73 965.79 493.72 958.28 480.73 965.79 480.73 980.8 493.72 988.31 506.73 980.8"/>
      <polygon class="cls-1" points="540.73 980.8 540.73 965.79 527.72 958.28 514.73 965.79 514.73 980.8 527.72 988.31 540.73 980.8"/>
      <polygon class="cls-1" points="575.73 980.8 575.73 965.79 562.72 958.28 549.73 965.79 549.73 980.8 562.72 988.31 575.73 980.8"/>
      <polygon class="cls-1" points="609.73 980.8 609.73 965.79 596.72 958.28 583.73 965.79 583.73 980.8 596.72 988.31 609.73 980.8"/>
      <polygon class="cls-1" points="643.73 980.8 643.73 965.79 630.72 958.28 617.73 965.79 617.73 980.8 630.72 988.31 643.73 980.8"/>
      <polygon class="cls-1" points="678.73 980.8 678.73 965.79 665.72 958.28 652.73 965.79 652.73 980.8 665.72 988.31 678.73 980.8"/>
      <polygon class="cls-1" points="712.73 980.8 712.73 965.79 699.72 958.28 686.73 965.79 686.73 980.8 699.72 988.31 712.73 980.8"/>
      <polygon class="cls-1" points="746.73 980.8 746.73 965.79 733.72 958.28 720.73 965.79 720.73 980.8 733.72 988.31 746.73 980.8"/>
      <polygon class="cls-1" points="781.73 980.8 781.73 965.79 768.72 958.28 755.73 965.79 755.73 980.8 768.72 988.31 781.73 980.8"/>
      <polygon class="cls-1" points="815.73 980.8 815.73 965.79 802.72 958.28 789.73 965.79 789.73 980.8 802.72 988.31 815.73 980.8"/>
      <polygon class="cls-1" points="849.73 980.8 849.73 965.79 836.72 958.28 823.73 965.79 823.73 980.8 836.72 988.31 849.73 980.8"/>
      <polygon class="cls-1" points="884.73 980.8 884.73 965.79 871.72 958.28 858.73 965.79 858.73 980.8 871.72 988.31 884.73 980.8"/>
      <polygon class="cls-1" points="918.73 980.8 918.73 965.79 905.72 958.28 892.73 965.79 892.73 980.8 905.72 988.31 918.73 980.8"/>
      <polygon class="cls-1" points="952.73 980.8 952.73 965.79 939.72 958.28 926.73 965.79 926.73 980.8 939.72 988.31 952.73 980.8"/>
      <polygon class="cls-1" points="987.73 980.8 987.73 965.79 974.72 958.28 961.73 965.79 961.73 980.8 974.72 988.31 987.73 980.8"/>
      <polygon class="cls-1" points="1038.73 1009.43 1038.73 994.41 1025.72 986.9 1012.73 994.41 1012.73 1009.43 1025.72 1016.94 1038.73 1009.43"/>
      <polygon class="cls-1" points="1072.73 1009.43 1072.73 994.41 1059.72 986.9 1046.73 994.41 1046.73 1009.43 1059.72 1016.94 1072.73 1009.43"/>
      <polygon class="cls-1" points="1107.73 1009.43 1107.73 994.41 1094.72 986.9 1081.73 994.41 1081.73 1009.43 1094.72 1016.94 1107.73 1009.43"/>
      <polygon class="cls-1" points="1141.73 1009.43 1141.73 994.41 1128.72 986.9 1115.73 994.41 1115.73 1009.43 1128.72 1016.94 1141.73 1009.43"/>
      <polygon class="cls-1" points="1175.73 1009.43 1175.73 994.41 1162.72 986.9 1149.73 994.41 1149.73 1009.43 1162.72 1016.94 1175.73 1009.43"/>
      <polygon class="cls-1" points="1210.73 1009.43 1210.73 994.41 1197.72 986.9 1184.73 994.41 1184.73 1009.43 1197.72 1016.94 1210.73 1009.43"/>
      <polygon class="cls-1" points="1244.73 1009.43 1244.73 994.41 1231.72 986.9 1218.73 994.41 1218.73 1009.43 1231.72 1016.94 1244.73 1009.43"/>
      <polygon class="cls-1" points="1278.73 1009.43 1278.73 994.41 1265.72 986.9 1252.73 994.41 1252.73 1009.43 1265.72 1016.94 1278.73 1009.43"/>
      <polygon class="cls-1" points="1313.73 1009.43 1313.73 994.41 1300.72 986.9 1287.73 994.41 1287.73 1009.43 1300.72 1016.94 1313.73 1009.43"/>
      <polygon class="cls-1" points="1347.73 1009.43 1347.73 994.41 1334.72 986.9 1321.73 994.41 1321.73 1009.43 1334.72 1016.94 1347.73 1009.43"/>
      <polygon class="cls-1" points="1381.73 1009.43 1381.73 994.41 1368.72 986.9 1355.73 994.41 1355.73 1009.43 1368.72 1016.94 1381.73 1009.43"/>
      <polygon class="cls-1" points="1416.73 1009.43 1416.73 994.41 1403.72 986.9 1390.73 994.41 1390.73 1009.43 1403.72 1016.94 1416.73 1009.43"/>
      <polygon class="cls-1" points="1450.73 1009.43 1450.73 994.41 1437.72 986.9 1424.73 994.41 1424.73 1009.43 1437.72 1016.94 1450.73 1009.43"/>
      <polygon class="cls-1" points="1485.73 1009.43 1485.73 994.41 1472.72 986.9 1459.73 994.41 1459.73 1009.43 1472.72 1016.94 1485.73 1009.43"/>
      <polygon class="cls-1" points="1519.73 1009.43 1519.73 994.41 1506.72 986.9 1493.73 994.41 1493.73 1009.43 1506.72 1016.94 1519.73 1009.43"/>
      <polygon class="cls-1" points="1553.73 1009.43 1553.73 994.41 1540.72 986.9 1527.73 994.41 1527.73 1009.43 1540.72 1016.94 1553.73 1009.43"/>
      <polygon class="cls-1" points="1588.73 1009.43 1588.73 994.41 1575.72 986.9 1562.73 994.41 1562.73 1009.43 1575.72 1016.94 1588.73 1009.43"/>
      <polygon class="cls-1" points="1622.73 1009.43 1622.73 994.41 1609.72 986.9 1596.73 994.41 1596.73 1009.43 1609.72 1016.94 1622.73 1009.43"/>
      <polygon class="cls-1" points="1021.73 980.8 1021.73 965.79 1008.72 958.28 995.73 965.79 995.73 980.8 1008.72 988.31 1021.73 980.8"/>
      <polygon class="cls-1" points="1055.73 980.8 1055.73 965.79 1042.72 958.28 1029.73 965.79 1029.73 980.8 1042.72 988.31 1055.73 980.8"/>
      <polygon class="cls-1" points="1089.73 980.8 1089.73 965.79 1076.72 958.28 1063.73 965.79 1063.73 980.8 1076.72 988.31 1089.73 980.8"/>
      <polygon class="cls-1" points="1124.73 980.8 1124.73 965.79 1111.72 958.28 1098.73 965.79 1098.73 980.8 1111.72 988.31 1124.73 980.8"/>
      <polygon class="cls-1" points="1158.73 980.8 1158.73 965.79 1145.72 958.28 1132.73 965.79 1132.73 980.8 1145.72 988.31 1158.73 980.8"/>
      <polygon class="cls-1" points="1193.73 980.8 1193.73 965.79 1180.72 958.28 1167.73 965.79 1167.73 980.8 1180.72 988.31 1193.73 980.8"/>
      <polygon class="cls-1" points="1227.73 980.8 1227.73 965.79 1214.72 958.28 1201.73 965.79 1201.73 980.8 1214.72 988.31 1227.73 980.8"/>
      <polygon class="cls-1" points="1261.73 980.8 1261.73 965.79 1248.72 958.28 1235.73 965.79 1235.73 980.8 1248.72 988.31 1261.73 980.8"/>
      <polygon class="cls-1" points="1296.73 980.8 1296.73 965.79 1283.72 958.28 1270.73 965.79 1270.73 980.8 1283.72 988.31 1296.73 980.8"/>
      <polygon class="cls-1" points="1330.73 980.8 1330.73 965.79 1317.72 958.28 1304.73 965.79 1304.73 980.8 1317.72 988.31 1330.73 980.8"/>
      <polygon class="cls-1" points="1364.73 980.8 1364.73 965.79 1351.72 958.28 1338.73 965.79 1338.73 980.8 1351.72 988.31 1364.73 980.8"/>
      <polygon class="cls-1" points="1399.73 980.8 1399.73 965.79 1386.72 958.28 1373.73 965.79 1373.73 980.8 1386.72 988.31 1399.73 980.8"/>
      <polygon class="cls-1" points="1433.73 980.8 1433.73 965.79 1420.72 958.28 1407.73 965.79 1407.73 980.8 1420.72 988.31 1433.73 980.8"/>
      <polygon class="cls-1" points="1467.73 980.8 1467.73 965.79 1454.72 958.28 1441.73 965.79 1441.73 980.8 1454.72 988.31 1467.73 980.8"/>
      <polygon class="cls-1" points="1502.73 980.8 1502.73 965.79 1489.72 958.28 1476.73 965.79 1476.73 980.8 1489.72 988.31 1502.73 980.8"/>
      <polygon class="cls-1" points="1536.73 980.8 1536.73 965.79 1523.72 958.28 1510.73 965.79 1510.73 980.8 1523.72 988.31 1536.73 980.8"/>
      <polygon class="cls-1" points="1570.73 980.8 1570.73 965.79 1557.72 958.28 1544.73 965.79 1544.73 980.8 1557.72 988.31 1570.73 980.8"/>
      <polygon class="cls-1" points="1605.73 980.8 1605.73 965.79 1592.72 958.28 1579.73 965.79 1579.73 980.8 1592.72 988.31 1605.73 980.8"/>
      <polygon class="cls-1" points="1639.73 980.8 1639.73 965.79 1626.72 958.28 1613.73 965.79 1613.73 980.8 1626.72 988.31 1639.73 980.8"/>
      <polygon class="cls-1" points="1538.73 1069.02 1538.73 1054.01 1525.72 1046.49 1512.73 1054.01 1512.73 1069.02 1525.72 1076.53 1538.73 1069.02"/>
      <polygon class="cls-1" points="1520.73 1096.96 1520.73 1081.95 1507.72 1074.44 1494.73 1081.95 1494.73 1096.96 1507.72 1104.47 1520.73 1096.96"/>
      <polygon class="cls-1" points="1520.73 1040.39 1520.73 1025.38 1507.72 1017.87 1494.73 1025.38 1494.73 1040.39 1507.72 1047.91 1520.73 1040.39"/>
      <polygon class="cls-1" points="1579.73 1069.02 1579.73 1054.01 1592.74 1046.49 1605.73 1054.01 1605.73 1069.02 1592.74 1076.53 1579.73 1069.02"/>
      <polygon class="cls-1" points="1596.73 1096.96 1596.73 1081.95 1609.74 1074.44 1622.73 1081.95 1622.73 1096.96 1609.74 1104.47 1596.73 1096.96"/>
      <polygon class="cls-1" points="1596.73 1040.39 1596.73 1025.38 1609.74 1017.87 1622.73 1025.38 1622.73 1040.39 1609.74 1047.91 1596.73 1040.39"/>
      <rect class="cls-3" x="44.23" y="893.9" width="199" height="53"/>
      <polygon class="cls-7" points="161.94 907.65 154.05 899.76 146.15 907.65 150.09 911.58 130.29 931.38 138.18 939.27 146.07 931.38 142.14 927.45 161.94 907.65"/>
      <rect class="cls-7" x="118.3" y="908.02" width="28" height="11.16" transform="translate(-607.26 361.14) rotate(-45)"/>
      <rect class="cls-7" x="145.92" y="919.84" width="28" height="11.16" transform="translate(-607.53 384.13) rotate(-45)"/>
    </g>
  </g>
  <g class="cls-10">
    <g class="cls-9">
      <rect class="cls-2" x="17.23" y="531.56" width="1645" height="279"/>
    </g>
    <polygon class="cls-7" points="1180.73 774.06 1180.73 789.06 1210.73 789.06 1210.73 774.06 1218.73 774.06 1218.73 743.06 1172.73 743.06 1172.73 774.06 1180.73 774.06"/>
    <g class="cls-15">
      <path class="cls-7" d="M734.11,767.11c-3.98,0-7.2-3.22-7.2-7.2s3.22-7.21,7.2-7.21,7.2,3.22,7.2,7.21-3.22,7.2-7.2,7.2"/>
      <path class="cls-7" d="M734.11,788.73c-3.98,0-7.2-3.22-7.2-7.2s3.22-7.21,7.2-7.21,7.2,3.22,7.2,7.21-3.22,7.2-7.2,7.2"/>
      <path class="cls-7" d="M734.11,703.21c-3.98,0-7.2-3.22-7.2-7.2s3.22-7.21,7.2-7.21,7.2,3.22,7.2,7.21-3.22,7.2-7.2,7.2"/>
      <path class="cls-7" d="M734.11,724.84c-3.98,0-7.2-3.22-7.2-7.2s3.22-7.21,7.2-7.21,7.2,3.22,7.2,7.21-3.22,7.2-7.2,7.2"/>
      <path class="cls-7" d="M835.75,767.11c-3.98,0-7.2-3.22-7.2-7.2s3.22-7.21,7.2-7.21,7.2,3.22,7.2,7.21-3.22,7.2-7.2,7.2"/>
      <path class="cls-7" d="M835.75,788.73c-3.98,0-7.2-3.22-7.2-7.2s3.22-7.21,7.2-7.21,7.2,3.22,7.2,7.21-3.22,7.2-7.2,7.2"/>
      <path class="cls-7" d="M835.75,703.21c-3.98,0-7.2-3.22-7.2-7.2s3.22-7.21,7.2-7.21,7.2,3.22,7.2,7.21-3.22,7.2-7.2,7.2"/>
      <path class="cls-7" d="M835.75,724.84c-3.98,0-7.2-3.22-7.2-7.2s3.22-7.21,7.2-7.21,7.2,3.22,7.2,7.21-3.22,7.2-7.2,7.2"/>
      <polygon class="cls-7" points="146.73 704.06 146.73 689.06 116.73 689.06 116.73 704.06 108.73 704.06 108.73 734.06 154.73 734.06 154.73 704.06 146.73 704.06"/>
      <polygon class="cls-7" points="116.73 774.06 116.73 789.06 146.73 789.06 146.73 774.06 154.73 774.06 154.73 743.06 108.73 743.06 108.73 774.06 116.73 774.06"/>
      <polygon class="cls-7" points="91.73 704.06 91.73 689.06 61.73 689.06 61.73 704.06 53.73 704.06 53.73 734.06 99.73 734.06 99.73 704.06 91.73 704.06"/>
      <polygon class="cls-7" points="61.73 774.06 61.73 789.06 91.73 789.06 91.73 774.06 99.73 774.06 99.73 743.06 53.73 743.06 53.73 774.06 61.73 774.06"/>
      <polygon class="cls-7" points="257.73 704.06 257.73 689.06 227.73 689.06 227.73 704.06 219.73 704.06 219.73 734.06 265.73 734.06 265.73 704.06 257.73 704.06"/>
      <polygon class="cls-7" points="227.73 774.06 227.73 789.06 257.73 789.06 257.73 774.06 265.73 774.06 265.73 743.06 219.73 743.06 219.73 774.06 227.73 774.06"/>
      <polygon class="cls-7" points="202.73 704.06 202.73 689.06 172.73 689.06 172.73 704.06 164.73 704.06 164.73 734.06 210.73 734.06 210.73 704.06 202.73 704.06"/>
      <polygon class="cls-7" points="172.73 774.06 172.73 789.06 202.73 789.06 202.73 774.06 210.73 774.06 210.73 743.06 164.73 743.06 164.73 774.06 172.73 774.06"/>
      <rect class="cls-7" x="311.73" y="689.06" width="46" height="46"/>
      <rect class="cls-7" x="311.73" y="743.06" width="46" height="46"/>
      <rect class="cls-7" x="364.73" y="689.06" width="46" height="46"/>
      <rect class="cls-7" x="364.73" y="743.06" width="46" height="46"/>
      <rect class="cls-7" x="418.73" y="689.06" width="46" height="46"/>
      <rect class="cls-7" x="418.73" y="743.06" width="46" height="46"/>
      <rect class="cls-7" x="471.73" y="689.06" width="46" height="46"/>
      <rect class="cls-7" x="471.73" y="743.06" width="46" height="46"/>
      <rect class="cls-7" x="524.73" y="689.06" width="46" height="46"/>
      <rect class="cls-7" x="524.73" y="743.06" width="46" height="46"/>
      <rect class="cls-7" x="597.73" y="689.06" width="46" height="46"/>
      <rect class="cls-7" x="597.73" y="743.06" width="46" height="46"/>
      <rect class="cls-7" x="650.73" y="688.06" width="46" height="46"/>
      <rect class="cls-7" x="650.73" y="743.06" width="46" height="46"/>
      <rect class="cls-7" x="753.73" y="744.06" width="60" height="44"/>
      <rect class="cls-7" x="753.73" y="688.06" width="60" height="44"/>
      <path class="cls-7" d="M936.76,767.11c-3.98,0-7.2-3.22-7.2-7.2s3.22-7.21,7.2-7.21,7.2,3.22,7.2,7.21-3.22,7.2-7.2,7.2"/>
      <path class="cls-7" d="M936.76,788.73c-3.98,0-7.2-3.22-7.2-7.2s3.22-7.21,7.2-7.21,7.2,3.22,7.2,7.21-3.22,7.2-7.2,7.2"/>
      <path class="cls-7" d="M936.76,703.21c-3.98,0-7.2-3.22-7.2-7.2s3.22-7.21,7.2-7.21,7.2,3.22,7.2,7.21-3.22,7.2-7.2,7.2"/>
      <path class="cls-7" d="M936.76,724.84c-3.98,0-7.2-3.22-7.2-7.2s3.22-7.21,7.2-7.21,7.2,3.22,7.2,7.21-3.22,7.2-7.2,7.2"/>
      <path class="cls-7" d="M1411.91,767.35c-3.98,0-7.2-3.22-7.2-7.2s3.22-7.21,7.2-7.21,7.2,3.22,7.2,7.21-3.22,7.2-7.2,7.2"/>
      <path class="cls-7" d="M1411.91,788.73c-3.98,0-7.2-3.22-7.2-7.2s3.22-7.21,7.2-7.21,7.2,3.22,7.2,7.21-3.22,7.2-7.2,7.2"/>
      <path class="cls-7" d="M1411.91,703.21c-3.98,0-7.2-3.22-7.2-7.2s3.22-7.21,7.2-7.21,7.2,3.22,7.2,7.21-3.22,7.2-7.2,7.2"/>
      <path class="cls-7" d="M1411.91,724.59c-3.98,0-7.2-3.22-7.2-7.2s3.22-7.21,7.2-7.21,7.2,3.22,7.2,7.21-3.22,7.2-7.2,7.2"/>
      <path class="cls-7" d="M1411.91,745.97c-3.98,0-7.2-3.22-7.2-7.2s3.22-7.21,7.2-7.21,7.2,3.22,7.2,7.21-3.22,7.2-7.2,7.2"/>
      <path class="cls-7" d="M1434.07,767.35c-3.98,0-7.2-3.22-7.2-7.2s3.22-7.21,7.2-7.21,7.2,3.22,7.2,7.21-3.22,7.2-7.2,7.2"/>
      <path class="cls-7" d="M1434.07,788.73c-3.98,0-7.2-3.22-7.2-7.2s3.22-7.21,7.2-7.21,7.2,3.22,7.2,7.21-3.22,7.2-7.2,7.2"/>
      <path class="cls-7" d="M1434.07,724.59c-3.98,0-7.2-3.22-7.2-7.2s3.22-7.21,7.2-7.21,7.2,3.22,7.2,7.21-3.22,7.2-7.2,7.2"/>
      <path class="cls-7" d="M1434.07,745.97c-3.98,0-7.2-3.22-7.2-7.2s3.22-7.21,7.2-7.21,7.2,3.22,7.2,7.21-3.22,7.2-7.2,7.2"/>
      <path class="cls-7" d="M1131.48,717.63c0-3.98,3.22-7.2,7.2-7.2s7.21,3.22,7.21,7.2-3.22,7.2-7.21,7.2-7.2-3.22-7.2-7.2"/>
      <path class="cls-7" d="M1109.86,717.63c0-3.98,3.22-7.2,7.2-7.2s7.21,3.22,7.21,7.2-3.22,7.2-7.21,7.2-7.2-3.22-7.2-7.2"/>
      <rect class="cls-7" x="854.73" y="744.06" width="60" height="44"/>
      <rect class="cls-7" x="958.73" y="744.06" width="60" height="44"/>
      <rect class="cls-7" x="1038.73" y="744.06" width="46" height="44"/>
      <rect class="cls-7" x="1104.73" y="744.06" width="46" height="44"/>
      <rect class="cls-7" x="1038.73" y="688.06" width="46" height="44"/>
      <rect class="cls-7" x="854.73" y="688.06" width="60" height="44"/>
      <rect class="cls-4" x="1242.23" y="719.56" width="53" height="66"/>
      <path class="cls-4" d="M1336.74,762.56h33.43c6.35,0,11.81,4.97,11.91,11.32.1,6.44-5.09,11.68-11.5,11.68h-33.43c-6.35,0-11.81-4.97-11.91-11.32-.1-6.44,5.09-11.68,11.5-11.68Z"/>
      <polygon class="cls-7" points="1281.73 731.06 1275.23 731.06 1268.73 731.06 1268.73 774.06 1275.23 774.06 1281.73 774.06 1281.73 731.06"/>
      <polygon class="cls-1" points="76.73 673.09 76.73 658.08 63.72 650.57 50.73 658.08 50.73 673.09 63.72 680.6 76.73 673.09"/>
      <polygon class="cls-1" points="111.73 673.09 111.73 658.08 98.72 650.57 85.73 658.08 85.73 673.09 98.72 680.6 111.73 673.09"/>
      <polygon class="cls-1" points="145.73 673.09 145.73 658.08 132.72 650.57 119.73 658.08 119.73 673.09 132.72 680.6 145.73 673.09"/>
      <polygon class="cls-1" points="179.73 673.09 179.73 658.08 166.72 650.57 153.73 658.08 153.73 673.09 166.72 680.6 179.73 673.09"/>
      <polygon class="cls-1" points="214.73 673.09 214.73 658.08 201.72 650.57 188.73 658.08 188.73 673.09 201.72 680.6 214.73 673.09"/>
      <polygon class="cls-1" points="248.73 673.09 248.73 658.08 235.72 650.57 222.73 658.08 222.73 673.09 235.72 680.6 248.73 673.09"/>
      <polygon class="cls-1" points="283.73 673.09 283.73 658.08 270.72 650.57 257.73 658.08 257.73 673.09 270.72 680.6 283.73 673.09"/>
      <polygon class="cls-1" points="317.73 673.09 317.73 658.08 304.72 650.57 291.73 658.08 291.73 673.09 304.72 680.6 317.73 673.09"/>
      <polygon class="cls-1" points="351.73 673.09 351.73 658.08 338.72 650.57 325.73 658.08 325.73 673.09 338.72 680.6 351.73 673.09"/>
      <polygon class="cls-1" points="386.73 673.09 386.73 658.08 373.72 650.57 360.73 658.08 360.73 673.09 373.72 680.6 386.73 673.09"/>
      <polygon class="cls-1" points="420.73 673.09 420.73 658.08 407.72 650.57 394.73 658.08 394.73 673.09 407.72 680.6 420.73 673.09"/>
      <polygon class="cls-1" points="454.73 673.09 454.73 658.08 441.72 650.57 428.73 658.08 428.73 673.09 441.72 680.6 454.73 673.09"/>
      <polygon class="cls-1" points="489.73 673.09 489.73 658.08 476.72 650.57 463.73 658.08 463.73 673.09 476.72 680.6 489.73 673.09"/>
      <polygon class="cls-1" points="523.73 673.09 523.73 658.08 510.72 650.57 497.73 658.08 497.73 673.09 510.72 680.6 523.73 673.09"/>
      <polygon class="cls-1" points="557.73 673.09 557.73 658.08 544.72 650.57 531.73 658.08 531.73 673.09 544.72 680.6 557.73 673.09"/>
      <polygon class="cls-1" points="592.73 673.09 592.73 658.08 579.72 650.57 566.73 658.08 566.73 673.09 579.72 680.6 592.73 673.09"/>
      <polygon class="cls-1" points="626.73 673.09 626.73 658.08 613.72 650.57 600.73 658.08 600.73 673.09 613.72 680.6 626.73 673.09"/>
      <polygon class="cls-1" points="660.73 673.09 660.73 658.08 647.72 650.57 634.73 658.08 634.73 673.09 647.72 680.6 660.73 673.09"/>
      <polygon class="cls-1" points="695.73 673.09 695.73 658.08 682.72 650.57 669.73 658.08 669.73 673.09 682.72 680.6 695.73 673.09"/>
      <polygon class="cls-1" points="729.73 673.09 729.73 658.08 716.72 650.57 703.73 658.08 703.73 673.09 716.72 680.6 729.73 673.09"/>
      <polygon class="cls-1" points="763.73 673.09 763.73 658.08 750.72 650.57 737.73 658.08 737.73 673.09 750.72 680.6 763.73 673.09"/>
      <polygon class="cls-1" points="798.73 673.09 798.73 658.08 785.72 650.57 772.73 658.08 772.73 673.09 785.72 680.6 798.73 673.09"/>
      <polygon class="cls-1" points="832.73 673.09 832.73 658.08 819.72 650.57 806.73 658.08 806.73 673.09 819.72 680.6 832.73 673.09"/>
      <polygon class="cls-1" points="867.73 673.09 867.73 658.08 854.72 650.57 841.73 658.08 841.73 673.09 854.72 680.6 867.73 673.09"/>
      <polygon class="cls-1" points="901.73 673.09 901.73 658.08 888.72 650.57 875.73 658.08 875.73 673.09 888.72 680.6 901.73 673.09"/>
      <polygon class="cls-1" points="935.73 673.09 935.73 658.08 922.72 650.57 909.73 658.08 909.73 673.09 922.72 680.6 935.73 673.09"/>
      <polygon class="cls-1" points="970.73 673.09 970.73 658.08 957.72 650.57 944.73 658.08 944.73 673.09 957.72 680.6 970.73 673.09"/>
      <polygon class="cls-1" points="1004.73 673.09 1004.73 658.08 991.72 650.57 978.73 658.08 978.73 673.09 991.72 680.6 1004.73 673.09"/>
      <polygon class="cls-1" points="59.73 644.47 59.73 629.46 46.72 621.94 33.73 629.46 33.73 644.47 46.72 651.98 59.73 644.47"/>
      <polygon class="cls-1" points="94.73 644.47 94.73 629.46 81.72 621.94 68.73 629.46 68.73 644.47 81.72 651.98 94.73 644.47"/>
      <polygon class="cls-1" points="128.73 644.47 128.73 629.46 115.72 621.94 102.73 629.46 102.73 644.47 115.72 651.98 128.73 644.47"/>
      <polygon class="cls-1" points="162.73 644.47 162.73 629.46 149.72 621.94 136.73 629.46 136.73 644.47 149.72 651.98 162.73 644.47"/>
      <polygon class="cls-1" points="197.73 644.47 197.73 629.46 184.72 621.94 171.73 629.46 171.73 644.47 184.72 651.98 197.73 644.47"/>
      <polygon class="cls-1" points="231.73 644.47 231.73 629.46 218.72 621.94 205.73 629.46 205.73 644.47 218.72 651.98 231.73 644.47"/>
      <polygon class="cls-1" points="265.73 644.47 265.73 629.46 252.72 621.94 239.73 629.46 239.73 644.47 252.72 651.98 265.73 644.47"/>
      <polygon class="cls-1" points="300.73 644.47 300.73 629.46 287.72 621.94 274.73 629.46 274.73 644.47 287.72 651.98 300.73 644.47"/>
      <polygon class="cls-1" points="334.73 644.47 334.73 629.46 321.72 621.94 308.73 629.46 308.73 644.47 321.72 651.98 334.73 644.47"/>
      <polygon class="cls-1" points="368.73 644.47 368.73 629.46 355.72 621.94 342.73 629.46 342.73 644.47 355.72 651.98 368.73 644.47"/>
      <polygon class="cls-1" points="403.73 644.47 403.73 629.46 390.72 621.94 377.73 629.46 377.73 644.47 390.72 651.98 403.73 644.47"/>
      <polygon class="cls-1" points="437.73 644.47 437.73 629.46 424.72 621.94 411.73 629.46 411.73 644.47 424.72 651.98 437.73 644.47"/>
      <polygon class="cls-1" points="471.73 644.47 471.73 629.46 458.72 621.94 445.73 629.46 445.73 644.47 458.72 651.98 471.73 644.47"/>
      <polygon class="cls-1" points="506.73 644.47 506.73 629.46 493.72 621.94 480.73 629.46 480.73 644.47 493.72 651.98 506.73 644.47"/>
      <polygon class="cls-1" points="540.73 644.47 540.73 629.46 527.72 621.94 514.73 629.46 514.73 644.47 527.72 651.98 540.73 644.47"/>
      <polygon class="cls-1" points="575.73 644.47 575.73 629.46 562.72 621.94 549.73 629.46 549.73 644.47 562.72 651.98 575.73 644.47"/>
      <polygon class="cls-1" points="609.73 644.47 609.73 629.46 596.72 621.94 583.73 629.46 583.73 644.47 596.72 651.98 609.73 644.47"/>
      <polygon class="cls-1" points="643.73 644.47 643.73 629.46 630.72 621.94 617.73 629.46 617.73 644.47 630.72 651.98 643.73 644.47"/>
      <polygon class="cls-1" points="678.73 644.47 678.73 629.46 665.72 621.94 652.73 629.46 652.73 644.47 665.72 651.98 678.73 644.47"/>
      <polygon class="cls-1" points="712.73 644.47 712.73 629.46 699.72 621.94 686.73 629.46 686.73 644.47 699.72 651.98 712.73 644.47"/>
      <polygon class="cls-1" points="746.73 644.47 746.73 629.46 733.72 621.94 720.73 629.46 720.73 644.47 733.72 651.98 746.73 644.47"/>
      <polygon class="cls-1" points="781.73 644.47 781.73 629.46 768.72 621.94 755.73 629.46 755.73 644.47 768.72 651.98 781.73 644.47"/>
      <polygon class="cls-1" points="815.73 644.47 815.73 629.46 802.72 621.94 789.73 629.46 789.73 644.47 802.72 651.98 815.73 644.47"/>
      <polygon class="cls-1" points="849.73 644.47 849.73 629.46 836.72 621.94 823.73 629.46 823.73 644.47 836.72 651.98 849.73 644.47"/>
      <polygon class="cls-1" points="884.73 644.47 884.73 629.46 871.72 621.94 858.73 629.46 858.73 644.47 871.72 651.98 884.73 644.47"/>
      <polygon class="cls-1" points="918.73 644.47 918.73 629.46 905.72 621.94 892.73 629.46 892.73 644.47 905.72 651.98 918.73 644.47"/>
      <polygon class="cls-1" points="952.73 644.47 952.73 629.46 939.72 621.94 926.73 629.46 926.73 644.47 939.72 651.98 952.73 644.47"/>
      <polygon class="cls-1" points="987.73 644.47 987.73 629.46 974.72 621.94 961.73 629.46 961.73 644.47 974.72 651.98 987.73 644.47"/>
      <polygon class="cls-1" points="1038.73 673.09 1038.73 658.08 1025.72 650.57 1012.73 658.08 1012.73 673.09 1025.72 680.6 1038.73 673.09"/>
      <polygon class="cls-1" points="1072.73 673.09 1072.73 658.08 1059.72 650.57 1046.73 658.08 1046.73 673.09 1059.72 680.6 1072.73 673.09"/>
      <polygon class="cls-1" points="1107.73 673.09 1107.73 658.08 1094.72 650.57 1081.73 658.08 1081.73 673.09 1094.72 680.6 1107.73 673.09"/>
      <polygon class="cls-1" points="1141.73 673.09 1141.73 658.08 1128.72 650.57 1115.73 658.08 1115.73 673.09 1128.72 680.6 1141.73 673.09"/>
      <polygon class="cls-1" points="1175.73 673.09 1175.73 658.08 1162.72 650.57 1149.73 658.08 1149.73 673.09 1162.72 680.6 1175.73 673.09"/>
      <polygon class="cls-1" points="1210.73 673.09 1210.73 658.08 1197.72 650.57 1184.73 658.08 1184.73 673.09 1197.72 680.6 1210.73 673.09"/>
      <polygon class="cls-1" points="1244.73 673.09 1244.73 658.08 1231.72 650.57 1218.73 658.08 1218.73 673.09 1231.72 680.6 1244.73 673.09"/>
      <polygon class="cls-1" points="1278.73 673.09 1278.73 658.08 1265.72 650.57 1252.73 658.08 1252.73 673.09 1265.72 680.6 1278.73 673.09"/>
      <polygon class="cls-1" points="1313.73 673.09 1313.73 658.08 1300.72 650.57 1287.73 658.08 1287.73 673.09 1300.72 680.6 1313.73 673.09"/>
      <polygon class="cls-1" points="1347.73 673.09 1347.73 658.08 1334.72 650.57 1321.73 658.08 1321.73 673.09 1334.72 680.6 1347.73 673.09"/>
      <polygon class="cls-1" points="1381.73 673.09 1381.73 658.08 1368.72 650.57 1355.73 658.08 1355.73 673.09 1368.72 680.6 1381.73 673.09"/>
      <polygon class="cls-1" points="1416.73 673.09 1416.73 658.08 1403.72 650.57 1390.73 658.08 1390.73 673.09 1403.72 680.6 1416.73 673.09"/>
      <polygon class="cls-1" points="1450.73 673.09 1450.73 658.08 1437.72 650.57 1424.73 658.08 1424.73 673.09 1437.72 680.6 1450.73 673.09"/>
      <polygon class="cls-1" points="1485.73 673.09 1485.73 658.08 1472.72 650.57 1459.73 658.08 1459.73 673.09 1472.72 680.6 1485.73 673.09"/>
      <polygon class="cls-1" points="1519.73 673.09 1519.73 658.08 1506.72 650.57 1493.73 658.08 1493.73 673.09 1506.72 680.6 1519.73 673.09"/>
      <polygon class="cls-1" points="1553.73 673.09 1553.73 658.08 1540.72 650.57 1527.73 658.08 1527.73 673.09 1540.72 680.6 1553.73 673.09"/>
      <polygon class="cls-1" points="1588.73 673.09 1588.73 658.08 1575.72 650.57 1562.73 658.08 1562.73 673.09 1575.72 680.6 1588.73 673.09"/>
      <polygon class="cls-1" points="1622.73 673.09 1622.73 658.08 1609.72 650.57 1596.73 658.08 1596.73 673.09 1609.72 680.6 1622.73 673.09"/>
      <polygon class="cls-1" points="1021.73 644.47 1021.73 629.46 1008.72 621.94 995.73 629.46 995.73 644.47 1008.72 651.98 1021.73 644.47"/>
      <polygon class="cls-1" points="1055.73 644.47 1055.73 629.46 1042.72 621.94 1029.73 629.46 1029.73 644.47 1042.72 651.98 1055.73 644.47"/>
      <polygon class="cls-1" points="1089.73 644.47 1089.73 629.46 1076.72 621.94 1063.73 629.46 1063.73 644.47 1076.72 651.98 1089.73 644.47"/>
      <polygon class="cls-1" points="1124.73 644.47 1124.73 629.46 1111.72 621.94 1098.73 629.46 1098.73 644.47 1111.72 651.98 1124.73 644.47"/>
      <polygon class="cls-1" points="1158.73 644.47 1158.73 629.46 1145.72 621.94 1132.73 629.46 1132.73 644.47 1145.72 651.98 1158.73 644.47"/>
      <polygon class="cls-1" points="1193.73 644.47 1193.73 629.46 1180.72 621.94 1167.73 629.46 1167.73 644.47 1180.72 651.98 1193.73 644.47"/>
      <polygon class="cls-1" points="1227.73 644.47 1227.73 629.46 1214.72 621.94 1201.73 629.46 1201.73 644.47 1214.72 651.98 1227.73 644.47"/>
      <polygon class="cls-1" points="1261.73 644.47 1261.73 629.46 1248.72 621.94 1235.73 629.46 1235.73 644.47 1248.72 651.98 1261.73 644.47"/>
      <polygon class="cls-1" points="1296.73 644.47 1296.73 629.46 1283.72 621.94 1270.73 629.46 1270.73 644.47 1283.72 651.98 1296.73 644.47"/>
      <polygon class="cls-1" points="1330.73 644.47 1330.73 629.46 1317.72 621.94 1304.73 629.46 1304.73 644.47 1317.72 651.98 1330.73 644.47"/>
      <polygon class="cls-1" points="1364.73 644.47 1364.73 629.46 1351.72 621.94 1338.73 629.46 1338.73 644.47 1351.72 651.98 1364.73 644.47"/>
      <polygon class="cls-1" points="1399.73 644.47 1399.73 629.46 1386.72 621.94 1373.73 629.46 1373.73 644.47 1386.72 651.98 1399.73 644.47"/>
      <polygon class="cls-1" points="1433.73 644.47 1433.73 629.46 1420.72 621.94 1407.73 629.46 1407.73 644.47 1420.72 651.98 1433.73 644.47"/>
      <polygon class="cls-1" points="1467.73 644.47 1467.73 629.46 1454.72 621.94 1441.73 629.46 1441.73 644.47 1454.72 651.98 1467.73 644.47"/>
      <polygon class="cls-1" points="1502.73 644.47 1502.73 629.46 1489.72 621.94 1476.73 629.46 1476.73 644.47 1489.72 651.98 1502.73 644.47"/>
      <polygon class="cls-1" points="1536.73 644.47 1536.73 629.46 1523.72 621.94 1510.73 629.46 1510.73 644.47 1523.72 651.98 1536.73 644.47"/>
      <polygon class="cls-1" points="1570.73 644.47 1570.73 629.46 1557.72 621.94 1544.73 629.46 1544.73 644.47 1557.72 651.98 1570.73 644.47"/>
      <polygon class="cls-1" points="1605.73 644.47 1605.73 629.46 1592.72 621.94 1579.73 629.46 1579.73 644.47 1592.72 651.98 1605.73 644.47"/>
      <polygon class="cls-1" points="1639.73 644.47 1639.73 629.46 1626.72 621.94 1613.73 629.46 1613.73 644.47 1626.72 651.98 1639.73 644.47"/>
      <polygon class="cls-1" points="1538.73 732.68 1538.73 717.67 1525.72 710.16 1512.73 717.67 1512.73 732.68 1525.72 740.2 1538.73 732.68"/>
      <polygon class="cls-1" points="1520.73 760.63 1520.73 745.61 1507.72 738.1 1494.73 745.61 1494.73 760.63 1507.72 768.14 1520.73 760.63"/>
      <polygon class="cls-1" points="1520.73 704.06 1520.73 689.05 1507.72 681.54 1494.73 689.05 1494.73 704.06 1507.72 711.57 1520.73 704.06"/>
      <polygon class="cls-1" points="1579.73 732.68 1579.73 717.67 1592.74 710.16 1605.73 717.67 1605.73 732.68 1592.74 740.2 1579.73 732.68"/>
      <polygon class="cls-1" points="1596.73 760.63 1596.73 745.61 1609.74 738.1 1622.73 745.61 1622.73 760.63 1609.74 768.14 1596.73 760.63"/>
      <polygon class="cls-1" points="1596.73 704.06 1596.73 689.05 1609.74 681.54 1622.73 689.05 1622.73 704.06 1609.74 711.57 1596.73 704.06"/>
      <rect class="cls-3" x="44.23" y="557.56" width="199" height="53"/>
      <polygon class="cls-7" points="161.94 571.32 154.05 563.43 146.15 571.32 150.09 575.24 130.29 595.04 138.18 602.93 146.07 595.04 142.14 591.12 161.94 571.32"/>
      <rect class="cls-7" x="118.3" y="571.69" width="28" height="11.16" transform="translate(-369.44 262.63) rotate(-45)"/>
      <rect class="cls-7" x="145.92" y="583.51" width="28" height="11.16" transform="translate(-369.71 285.62) rotate(-45)"/>
    </g>
  </g>
  <g class="cls-14">
    <g class="cls-12">
      <rect class="cls-2" x="17.36" y="1204.23" width="1645" height="279"/>
    </g>
    <polygon class="cls-7" points="1180.86 1446.73 1180.86 1461.73 1210.86 1461.73 1210.86 1446.73 1218.86 1446.73 1218.86 1415.73 1172.86 1415.73 1172.86 1446.73 1180.86 1446.73"/>
    <g class="cls-13">
      <path class="cls-7" d="M734.24,1439.78c-3.98,0-7.2-3.22-7.2-7.2s3.22-7.21,7.2-7.21,7.2,3.22,7.2,7.21-3.22,7.2-7.2,7.2"/>
      <path class="cls-7" d="M734.24,1461.4c-3.98,0-7.2-3.22-7.2-7.2s3.22-7.21,7.2-7.21,7.2,3.22,7.2,7.21-3.22,7.2-7.2,7.2"/>
      <path class="cls-7" d="M734.24,1375.88c-3.98,0-7.2-3.22-7.2-7.2s3.22-7.21,7.2-7.21,7.2,3.22,7.2,7.21-3.22,7.2-7.2,7.2"/>
      <path class="cls-7" d="M734.24,1397.5c-3.98,0-7.2-3.22-7.2-7.2s3.22-7.21,7.2-7.21,7.2,3.22,7.2,7.21-3.22,7.2-7.2,7.2"/>
      <path class="cls-7" d="M835.87,1439.78c-3.98,0-7.2-3.22-7.2-7.2s3.22-7.21,7.2-7.21,7.2,3.22,7.2,7.21-3.22,7.2-7.2,7.2"/>
      <path class="cls-7" d="M835.87,1461.4c-3.98,0-7.2-3.22-7.2-7.2s3.22-7.21,7.2-7.21,7.2,3.22,7.2,7.21-3.22,7.2-7.2,7.2"/>
      <path class="cls-7" d="M835.87,1375.88c-3.98,0-7.2-3.22-7.2-7.2s3.22-7.21,7.2-7.21,7.2,3.22,7.2,7.21-3.22,7.2-7.2,7.2"/>
      <path class="cls-7" d="M835.87,1397.5c-3.98,0-7.2-3.22-7.2-7.2s3.22-7.21,7.2-7.21,7.2,3.22,7.2,7.21-3.22,7.2-7.2,7.2"/>
      <polygon class="cls-7" points="146.86 1376.73 146.86 1361.73 116.86 1361.73 116.86 1376.73 108.86 1376.73 108.86 1406.73 154.86 1406.73 154.86 1376.73 146.86 1376.73"/>
      <polygon class="cls-7" points="116.86 1446.73 116.86 1461.73 146.86 1461.73 146.86 1446.73 154.86 1446.73 154.86 1415.73 108.86 1415.73 108.86 1446.73 116.86 1446.73"/>
      <polygon class="cls-7" points="91.86 1376.73 91.86 1361.73 61.86 1361.73 61.86 1376.73 53.86 1376.73 53.86 1406.73 99.86 1406.73 99.86 1376.73 91.86 1376.73"/>
      <polygon class="cls-7" points="61.86 1446.73 61.86 1461.73 91.86 1461.73 91.86 1446.73 99.86 1446.73 99.86 1415.73 53.86 1415.73 53.86 1446.73 61.86 1446.73"/>
      <polygon class="cls-7" points="257.86 1376.73 257.86 1361.73 227.86 1361.73 227.86 1376.73 219.86 1376.73 219.86 1406.73 265.86 1406.73 265.86 1376.73 257.86 1376.73"/>
      <polygon class="cls-7" points="227.86 1446.73 227.86 1461.73 257.86 1461.73 257.86 1446.73 265.86 1446.73 265.86 1415.73 219.86 1415.73 219.86 1446.73 227.86 1446.73"/>
      <polygon class="cls-7" points="202.86 1376.73 202.86 1361.73 172.86 1361.73 172.86 1376.73 164.86 1376.73 164.86 1406.73 210.86 1406.73 210.86 1376.73 202.86 1376.73"/>
      <polygon class="cls-7" points="172.86 1446.73 172.86 1461.73 202.86 1461.73 202.86 1446.73 210.86 1446.73 210.86 1415.73 164.86 1415.73 164.86 1446.73 172.86 1446.73"/>
      <rect class="cls-7" x="311.86" y="1361.73" width="46" height="46"/>
      <rect class="cls-7" x="311.86" y="1415.73" width="46" height="46"/>
      <rect class="cls-7" x="364.86" y="1361.73" width="46" height="46"/>
      <rect class="cls-7" x="364.86" y="1415.73" width="46" height="46"/>
      <rect class="cls-7" x="418.86" y="1361.73" width="46" height="46"/>
      <rect class="cls-7" x="418.86" y="1415.73" width="46" height="46"/>
      <rect class="cls-7" x="471.86" y="1361.73" width="46" height="46"/>
      <rect class="cls-7" x="471.86" y="1415.73" width="46" height="46"/>
      <rect class="cls-7" x="524.86" y="1361.73" width="46" height="46"/>
      <rect class="cls-7" x="524.86" y="1415.73" width="46" height="46"/>
      <rect class="cls-7" x="597.86" y="1361.73" width="46" height="46"/>
      <rect class="cls-7" x="597.86" y="1415.73" width="46" height="46"/>
      <rect class="cls-7" x="650.86" y="1360.73" width="46" height="46"/>
      <rect class="cls-7" x="650.86" y="1415.73" width="46" height="46"/>
      <rect class="cls-7" x="753.86" y="1416.73" width="60" height="44"/>
      <rect class="cls-7" x="753.86" y="1360.73" width="60" height="44"/>
      <path class="cls-7" d="M936.89,1439.78c-3.98,0-7.2-3.22-7.2-7.2s3.22-7.21,7.2-7.21,7.2,3.22,7.2,7.21-3.22,7.2-7.2,7.2"/>
      <path class="cls-7" d="M936.89,1461.4c-3.98,0-7.2-3.22-7.2-7.2s3.22-7.21,7.2-7.21,7.2,3.22,7.2,7.21-3.22,7.2-7.2,7.2"/>
      <path class="cls-7" d="M936.89,1375.88c-3.98,0-7.2-3.22-7.2-7.2s3.22-7.21,7.2-7.21,7.2,3.22,7.2,7.21-3.22,7.2-7.2,7.2"/>
      <path class="cls-7" d="M936.89,1397.5c-3.98,0-7.2-3.22-7.2-7.2s3.22-7.21,7.2-7.21,7.2,3.22,7.2,7.21-3.22,7.2-7.2,7.2"/>
      <path class="cls-7" d="M1412.04,1440.02c-3.98,0-7.2-3.22-7.2-7.2s3.22-7.21,7.2-7.21,7.2,3.22,7.2,7.21-3.22,7.2-7.2,7.2"/>
      <path class="cls-7" d="M1412.04,1461.4c-3.98,0-7.2-3.22-7.2-7.2s3.22-7.21,7.2-7.21,7.2,3.22,7.2,7.21-3.22,7.2-7.2,7.2"/>
      <path class="cls-7" d="M1412.04,1375.88c-3.98,0-7.2-3.22-7.2-7.2s3.22-7.21,7.2-7.21,7.2,3.22,7.2,7.21-3.22,7.2-7.2,7.2"/>
      <path class="cls-7" d="M1412.04,1397.26c-3.98,0-7.2-3.22-7.2-7.2s3.22-7.21,7.2-7.21,7.2,3.22,7.2,7.21-3.22,7.2-7.2,7.2"/>
      <path class="cls-7" d="M1412.04,1418.64c-3.98,0-7.2-3.22-7.2-7.2s3.22-7.21,7.2-7.21,7.2,3.22,7.2,7.21-3.22,7.2-7.2,7.2"/>
      <path class="cls-7" d="M1434.2,1440.02c-3.98,0-7.2-3.22-7.2-7.2s3.22-7.21,7.2-7.21,7.2,3.22,7.2,7.21-3.22,7.2-7.2,7.2"/>
      <path class="cls-7" d="M1434.2,1461.4c-3.98,0-7.2-3.22-7.2-7.2s3.22-7.21,7.2-7.21,7.2,3.22,7.2,7.21-3.22,7.2-7.2,7.2"/>
      <path class="cls-7" d="M1434.2,1397.26c-3.98,0-7.2-3.22-7.2-7.2s3.22-7.21,7.2-7.21,7.2,3.22,7.2,7.21-3.22,7.2-7.2,7.2"/>
      <path class="cls-7" d="M1434.2,1418.64c-3.98,0-7.2-3.22-7.2-7.2s3.22-7.21,7.2-7.21,7.2,3.22,7.2,7.21-3.22,7.2-7.2,7.2"/>
      <path class="cls-7" d="M1131.61,1390.3c0-3.98,3.22-7.2,7.2-7.2s7.21,3.22,7.21,7.2-3.22,7.2-7.21,7.2-7.2-3.22-7.2-7.2"/>
      <path class="cls-7" d="M1109.98,1390.3c0-3.98,3.22-7.2,7.2-7.2s7.21,3.22,7.21,7.2-3.22,7.2-7.21,7.2-7.2-3.22-7.2-7.2"/>
      <rect class="cls-7" x="854.86" y="1416.73" width="60" height="44"/>
      <rect class="cls-7" x="958.86" y="1416.73" width="60" height="44"/>
      <rect class="cls-7" x="1038.86" y="1416.73" width="46" height="44"/>
      <rect class="cls-7" x="1104.86" y="1416.73" width="46" height="44"/>
      <rect class="cls-7" x="1038.86" y="1360.73" width="46" height="44"/>
      <rect class="cls-7" x="854.86" y="1360.73" width="60" height="44"/>
      <rect class="cls-4" x="1242.36" y="1392.23" width="53" height="66"/>
      <path class="cls-4" d="M1336.87,1435.23h33.43c6.35,0,11.81,4.97,11.91,11.32.1,6.44-5.09,11.68-11.5,11.68h-33.43c-6.35,0-11.81-4.97-11.91-11.32-.1-6.44,5.09-11.68,11.5-11.68Z"/>
      <polygon class="cls-7" points="1281.86 1403.73 1275.36 1403.73 1268.86 1403.73 1268.86 1446.73 1275.36 1446.73 1281.86 1446.73 1281.86 1403.73"/>
      <polygon class="cls-1" points="76.86 1345.76 76.86 1330.75 63.85 1323.23 50.86 1330.75 50.86 1345.76 63.85 1353.27 76.86 1345.76"/>
      <polygon class="cls-1" points="111.86 1345.76 111.86 1330.75 98.85 1323.23 85.86 1330.75 85.86 1345.76 98.85 1353.27 111.86 1345.76"/>
      <polygon class="cls-1" points="145.86 1345.76 145.86 1330.75 132.85 1323.23 119.86 1330.75 119.86 1345.76 132.85 1353.27 145.86 1345.76"/>
      <polygon class="cls-1" points="179.86 1345.76 179.86 1330.75 166.85 1323.23 153.86 1330.75 153.86 1345.76 166.85 1353.27 179.86 1345.76"/>
      <polygon class="cls-1" points="214.86 1345.76 214.86 1330.75 201.85 1323.23 188.86 1330.75 188.86 1345.76 201.85 1353.27 214.86 1345.76"/>
      <polygon class="cls-1" points="248.86 1345.76 248.86 1330.75 235.85 1323.23 222.86 1330.75 222.86 1345.76 235.85 1353.27 248.86 1345.76"/>
      <polygon class="cls-1" points="283.86 1345.76 283.86 1330.75 270.85 1323.23 257.86 1330.75 257.86 1345.76 270.85 1353.27 283.86 1345.76"/>
      <polygon class="cls-1" points="317.86 1345.76 317.86 1330.75 304.85 1323.23 291.86 1330.75 291.86 1345.76 304.85 1353.27 317.86 1345.76"/>
      <polygon class="cls-1" points="351.86 1345.76 351.86 1330.75 338.85 1323.23 325.86 1330.75 325.86 1345.76 338.85 1353.27 351.86 1345.76"/>
      <polygon class="cls-1" points="386.86 1345.76 386.86 1330.75 373.85 1323.23 360.86 1330.75 360.86 1345.76 373.85 1353.27 386.86 1345.76"/>
      <polygon class="cls-1" points="420.86 1345.76 420.86 1330.75 407.85 1323.23 394.86 1330.75 394.86 1345.76 407.85 1353.27 420.86 1345.76"/>
      <polygon class="cls-1" points="454.86 1345.76 454.86 1330.75 441.85 1323.23 428.86 1330.75 428.86 1345.76 441.85 1353.27 454.86 1345.76"/>
      <polygon class="cls-1" points="489.86 1345.76 489.86 1330.75 476.85 1323.23 463.86 1330.75 463.86 1345.76 476.85 1353.27 489.86 1345.76"/>
      <polygon class="cls-1" points="523.86 1345.76 523.86 1330.75 510.85 1323.23 497.86 1330.75 497.86 1345.76 510.85 1353.27 523.86 1345.76"/>
      <polygon class="cls-1" points="557.86 1345.76 557.86 1330.75 544.85 1323.23 531.86 1330.75 531.86 1345.76 544.85 1353.27 557.86 1345.76"/>
      <polygon class="cls-1" points="592.86 1345.76 592.86 1330.75 579.85 1323.23 566.86 1330.75 566.86 1345.76 579.85 1353.27 592.86 1345.76"/>
      <polygon class="cls-1" points="626.86 1345.76 626.86 1330.75 613.85 1323.23 600.86 1330.75 600.86 1345.76 613.85 1353.27 626.86 1345.76"/>
      <polygon class="cls-1" points="660.86 1345.76 660.86 1330.75 647.85 1323.23 634.86 1330.75 634.86 1345.76 647.85 1353.27 660.86 1345.76"/>
      <polygon class="cls-1" points="695.86 1345.76 695.86 1330.75 682.85 1323.23 669.86 1330.75 669.86 1345.76 682.85 1353.27 695.86 1345.76"/>
      <polygon class="cls-1" points="729.86 1345.76 729.86 1330.75 716.85 1323.23 703.86 1330.75 703.86 1345.76 716.85 1353.27 729.86 1345.76"/>
      <polygon class="cls-1" points="763.86 1345.76 763.86 1330.75 750.85 1323.23 737.86 1330.75 737.86 1345.76 750.85 1353.27 763.86 1345.76"/>
      <polygon class="cls-1" points="798.86 1345.76 798.86 1330.75 785.85 1323.23 772.86 1330.75 772.86 1345.76 785.85 1353.27 798.86 1345.76"/>
      <polygon class="cls-1" points="832.86 1345.76 832.86 1330.75 819.85 1323.23 806.86 1330.75 806.86 1345.76 819.85 1353.27 832.86 1345.76"/>
      <polygon class="cls-1" points="867.86 1345.76 867.86 1330.75 854.85 1323.23 841.86 1330.75 841.86 1345.76 854.85 1353.27 867.86 1345.76"/>
      <polygon class="cls-1" points="901.86 1345.76 901.86 1330.75 888.85 1323.23 875.86 1330.75 875.86 1345.76 888.85 1353.27 901.86 1345.76"/>
      <polygon class="cls-1" points="935.86 1345.76 935.86 1330.75 922.85 1323.23 909.86 1330.75 909.86 1345.76 922.85 1353.27 935.86 1345.76"/>
      <polygon class="cls-1" points="970.86 1345.76 970.86 1330.75 957.85 1323.23 944.86 1330.75 944.86 1345.76 957.85 1353.27 970.86 1345.76"/>
      <polygon class="cls-1" points="1004.86 1345.76 1004.86 1330.75 991.85 1323.23 978.86 1330.75 978.86 1345.76 991.85 1353.27 1004.86 1345.76"/>
      <polygon class="cls-1" points="59.86 1317.13 59.86 1302.12 46.85 1294.61 33.86 1302.12 33.86 1317.13 46.85 1324.65 59.86 1317.13"/>
      <polygon class="cls-1" points="94.86 1317.13 94.86 1302.12 81.85 1294.61 68.86 1302.12 68.86 1317.13 81.85 1324.65 94.86 1317.13"/>
      <polygon class="cls-1" points="128.86 1317.13 128.86 1302.12 115.85 1294.61 102.86 1302.12 102.86 1317.13 115.85 1324.65 128.86 1317.13"/>
      <polygon class="cls-1" points="162.86 1317.13 162.86 1302.12 149.85 1294.61 136.86 1302.12 136.86 1317.13 149.85 1324.65 162.86 1317.13"/>
      <polygon class="cls-1" points="197.86 1317.13 197.86 1302.12 184.85 1294.61 171.86 1302.12 171.86 1317.13 184.85 1324.65 197.86 1317.13"/>
      <polygon class="cls-1" points="231.86 1317.13 231.86 1302.12 218.85 1294.61 205.86 1302.12 205.86 1317.13 218.85 1324.65 231.86 1317.13"/>
      <polygon class="cls-1" points="265.86 1317.13 265.86 1302.12 252.85 1294.61 239.86 1302.12 239.86 1317.13 252.85 1324.65 265.86 1317.13"/>
      <polygon class="cls-1" points="300.86 1317.13 300.86 1302.12 287.85 1294.61 274.86 1302.12 274.86 1317.13 287.85 1324.65 300.86 1317.13"/>
      <polygon class="cls-1" points="334.86 1317.13 334.86 1302.12 321.85 1294.61 308.86 1302.12 308.86 1317.13 321.85 1324.65 334.86 1317.13"/>
      <polygon class="cls-1" points="368.86 1317.13 368.86 1302.12 355.85 1294.61 342.86 1302.12 342.86 1317.13 355.85 1324.65 368.86 1317.13"/>
      <polygon class="cls-1" points="403.86 1317.13 403.86 1302.12 390.85 1294.61 377.86 1302.12 377.86 1317.13 390.85 1324.65 403.86 1317.13"/>
      <polygon class="cls-1" points="437.86 1317.13 437.86 1302.12 424.85 1294.61 411.86 1302.12 411.86 1317.13 424.85 1324.65 437.86 1317.13"/>
      <polygon class="cls-1" points="471.86 1317.13 471.86 1302.12 458.85 1294.61 445.86 1302.12 445.86 1317.13 458.85 1324.65 471.86 1317.13"/>
      <polygon class="cls-1" points="506.86 1317.13 506.86 1302.12 493.85 1294.61 480.86 1302.12 480.86 1317.13 493.85 1324.65 506.86 1317.13"/>
      <polygon class="cls-1" points="540.86 1317.13 540.86 1302.12 527.85 1294.61 514.86 1302.12 514.86 1317.13 527.85 1324.65 540.86 1317.13"/>
      <polygon class="cls-1" points="575.86 1317.13 575.86 1302.12 562.85 1294.61 549.86 1302.12 549.86 1317.13 562.85 1324.65 575.86 1317.13"/>
      <polygon class="cls-1" points="609.86 1317.13 609.86 1302.12 596.85 1294.61 583.86 1302.12 583.86 1317.13 596.85 1324.65 609.86 1317.13"/>
      <polygon class="cls-1" points="643.86 1317.13 643.86 1302.12 630.85 1294.61 617.86 1302.12 617.86 1317.13 630.85 1324.65 643.86 1317.13"/>
      <polygon class="cls-1" points="678.86 1317.13 678.86 1302.12 665.85 1294.61 652.86 1302.12 652.86 1317.13 665.85 1324.65 678.86 1317.13"/>
      <polygon class="cls-1" points="712.86 1317.13 712.86 1302.12 699.85 1294.61 686.86 1302.12 686.86 1317.13 699.85 1324.65 712.86 1317.13"/>
      <polygon class="cls-1" points="746.86 1317.13 746.86 1302.12 733.85 1294.61 720.86 1302.12 720.86 1317.13 733.85 1324.65 746.86 1317.13"/>
      <polygon class="cls-1" points="781.86 1317.13 781.86 1302.12 768.85 1294.61 755.86 1302.12 755.86 1317.13 768.85 1324.65 781.86 1317.13"/>
      <polygon class="cls-1" points="815.86 1317.13 815.86 1302.12 802.85 1294.61 789.86 1302.12 789.86 1317.13 802.85 1324.65 815.86 1317.13"/>
      <polygon class="cls-1" points="849.86 1317.13 849.86 1302.12 836.85 1294.61 823.86 1302.12 823.86 1317.13 836.85 1324.65 849.86 1317.13"/>
      <polygon class="cls-1" points="884.86 1317.13 884.86 1302.12 871.85 1294.61 858.86 1302.12 858.86 1317.13 871.85 1324.65 884.86 1317.13"/>
      <polygon class="cls-1" points="918.86 1317.13 918.86 1302.12 905.85 1294.61 892.86 1302.12 892.86 1317.13 905.85 1324.65 918.86 1317.13"/>
      <polygon class="cls-1" points="952.86 1317.13 952.86 1302.12 939.85 1294.61 926.86 1302.12 926.86 1317.13 939.85 1324.65 952.86 1317.13"/>
      <polygon class="cls-1" points="987.86 1317.13 987.86 1302.12 974.85 1294.61 961.86 1302.12 961.86 1317.13 974.85 1324.65 987.86 1317.13"/>
      <polygon class="cls-1" points="1038.86 1345.76 1038.86 1330.75 1025.85 1323.23 1012.86 1330.75 1012.86 1345.76 1025.85 1353.27 1038.86 1345.76"/>
      <polygon class="cls-1" points="1072.86 1345.76 1072.86 1330.75 1059.85 1323.23 1046.86 1330.75 1046.86 1345.76 1059.85 1353.27 1072.86 1345.76"/>
      <polygon class="cls-1" points="1107.86 1345.76 1107.86 1330.75 1094.85 1323.23 1081.86 1330.75 1081.86 1345.76 1094.85 1353.27 1107.86 1345.76"/>
      <polygon class="cls-1" points="1141.86 1345.76 1141.86 1330.75 1128.85 1323.23 1115.86 1330.75 1115.86 1345.76 1128.85 1353.27 1141.86 1345.76"/>
      <polygon class="cls-1" points="1175.86 1345.76 1175.86 1330.75 1162.85 1323.23 1149.86 1330.75 1149.86 1345.76 1162.85 1353.27 1175.86 1345.76"/>
      <polygon class="cls-1" points="1210.86 1345.76 1210.86 1330.75 1197.85 1323.23 1184.86 1330.75 1184.86 1345.76 1197.85 1353.27 1210.86 1345.76"/>
      <polygon class="cls-1" points="1244.86 1345.76 1244.86 1330.75 1231.85 1323.23 1218.86 1330.75 1218.86 1345.76 1231.85 1353.27 1244.86 1345.76"/>
      <polygon class="cls-1" points="1278.86 1345.76 1278.86 1330.75 1265.85 1323.23 1252.86 1330.75 1252.86 1345.76 1265.85 1353.27 1278.86 1345.76"/>
      <polygon class="cls-1" points="1313.86 1345.76 1313.86 1330.75 1300.85 1323.23 1287.86 1330.75 1287.86 1345.76 1300.85 1353.27 1313.86 1345.76"/>
      <polygon class="cls-1" points="1347.86 1345.76 1347.86 1330.75 1334.85 1323.23 1321.86 1330.75 1321.86 1345.76 1334.85 1353.27 1347.86 1345.76"/>
      <polygon class="cls-1" points="1381.86 1345.76 1381.86 1330.75 1368.85 1323.23 1355.86 1330.75 1355.86 1345.76 1368.85 1353.27 1381.86 1345.76"/>
      <polygon class="cls-1" points="1416.86 1345.76 1416.86 1330.75 1403.85 1323.23 1390.86 1330.75 1390.86 1345.76 1403.85 1353.27 1416.86 1345.76"/>
      <polygon class="cls-1" points="1450.86 1345.76 1450.86 1330.75 1437.85 1323.23 1424.86 1330.75 1424.86 1345.76 1437.85 1353.27 1450.86 1345.76"/>
      <polygon class="cls-1" points="1485.86 1345.76 1485.86 1330.75 1472.85 1323.23 1459.86 1330.75 1459.86 1345.76 1472.85 1353.27 1485.86 1345.76"/>
      <polygon class="cls-1" points="1519.86 1345.76 1519.86 1330.75 1506.85 1323.23 1493.86 1330.75 1493.86 1345.76 1506.85 1353.27 1519.86 1345.76"/>
      <polygon class="cls-1" points="1553.86 1345.76 1553.86 1330.75 1540.85 1323.23 1527.86 1330.75 1527.86 1345.76 1540.85 1353.27 1553.86 1345.76"/>
      <polygon class="cls-1" points="1588.86 1345.76 1588.86 1330.75 1575.85 1323.23 1562.86 1330.75 1562.86 1345.76 1575.85 1353.27 1588.86 1345.76"/>
      <polygon class="cls-1" points="1622.86 1345.76 1622.86 1330.75 1609.85 1323.23 1596.86 1330.75 1596.86 1345.76 1609.85 1353.27 1622.86 1345.76"/>
      <polygon class="cls-1" points="1021.86 1317.13 1021.86 1302.12 1008.85 1294.61 995.86 1302.12 995.86 1317.13 1008.85 1324.65 1021.86 1317.13"/>
      <polygon class="cls-1" points="1055.86 1317.13 1055.86 1302.12 1042.85 1294.61 1029.86 1302.12 1029.86 1317.13 1042.85 1324.65 1055.86 1317.13"/>
      <polygon class="cls-1" points="1089.86 1317.13 1089.86 1302.12 1076.85 1294.61 1063.86 1302.12 1063.86 1317.13 1076.85 1324.65 1089.86 1317.13"/>
      <polygon class="cls-1" points="1124.86 1317.13 1124.86 1302.12 1111.85 1294.61 1098.86 1302.12 1098.86 1317.13 1111.85 1324.65 1124.86 1317.13"/>
      <polygon class="cls-1" points="1158.86 1317.13 1158.86 1302.12 1145.85 1294.61 1132.86 1302.12 1132.86 1317.13 1145.85 1324.65 1158.86 1317.13"/>
      <polygon class="cls-1" points="1193.86 1317.13 1193.86 1302.12 1180.85 1294.61 1167.86 1302.12 1167.86 1317.13 1180.85 1324.65 1193.86 1317.13"/>
      <polygon class="cls-1" points="1227.86 1317.13 1227.86 1302.12 1214.85 1294.61 1201.86 1302.12 1201.86 1317.13 1214.85 1324.65 1227.86 1317.13"/>
      <polygon class="cls-1" points="1261.86 1317.13 1261.86 1302.12 1248.85 1294.61 1235.86 1302.12 1235.86 1317.13 1248.85 1324.65 1261.86 1317.13"/>
      <polygon class="cls-1" points="1296.86 1317.13 1296.86 1302.12 1283.85 1294.61 1270.86 1302.12 1270.86 1317.13 1283.85 1324.65 1296.86 1317.13"/>
      <polygon class="cls-1" points="1330.86 1317.13 1330.86 1302.12 1317.85 1294.61 1304.86 1302.12 1304.86 1317.13 1317.85 1324.65 1330.86 1317.13"/>
      <polygon class="cls-1" points="1364.86 1317.13 1364.86 1302.12 1351.85 1294.61 1338.86 1302.12 1338.86 1317.13 1351.85 1324.65 1364.86 1317.13"/>
      <polygon class="cls-1" points="1399.86 1317.13 1399.86 1302.12 1386.85 1294.61 1373.86 1302.12 1373.86 1317.13 1386.85 1324.65 1399.86 1317.13"/>
      <polygon class="cls-1" points="1433.86 1317.13 1433.86 1302.12 1420.85 1294.61 1407.86 1302.12 1407.86 1317.13 1420.85 1324.65 1433.86 1317.13"/>
      <polygon class="cls-1" points="1467.86 1317.13 1467.86 1302.12 1454.85 1294.61 1441.86 1302.12 1441.86 1317.13 1454.85 1324.65 1467.86 1317.13"/>
      <polygon class="cls-1" points="1502.86 1317.13 1502.86 1302.12 1489.85 1294.61 1476.86 1302.12 1476.86 1317.13 1489.85 1324.65 1502.86 1317.13"/>
      <polygon class="cls-1" points="1536.86 1317.13 1536.86 1302.12 1523.85 1294.61 1510.86 1302.12 1510.86 1317.13 1523.85 1324.65 1536.86 1317.13"/>
      <polygon class="cls-1" points="1570.86 1317.13 1570.86 1302.12 1557.85 1294.61 1544.86 1302.12 1544.86 1317.13 1557.85 1324.65 1570.86 1317.13"/>
      <polygon class="cls-1" points="1605.86 1317.13 1605.86 1302.12 1592.85 1294.61 1579.86 1302.12 1579.86 1317.13 1592.85 1324.65 1605.86 1317.13"/>
      <polygon class="cls-1" points="1639.86 1317.13 1639.86 1302.12 1626.85 1294.61 1613.86 1302.12 1613.86 1317.13 1626.85 1324.65 1639.86 1317.13"/>
      <polygon class="cls-1" points="1538.86 1405.35 1538.86 1390.34 1525.85 1382.83 1512.86 1390.34 1512.86 1405.35 1525.85 1412.86 1538.86 1405.35"/>
      <polygon class="cls-1" points="1520.86 1433.29 1520.86 1418.28 1507.85 1410.77 1494.86 1418.28 1494.86 1433.29 1507.85 1440.81 1520.86 1433.29"/>
      <polygon class="cls-1" points="1520.86 1376.73 1520.86 1361.72 1507.85 1354.2 1494.86 1361.72 1494.86 1376.73 1507.85 1384.24 1520.86 1376.73"/>
      <polygon class="cls-1" points="1579.86 1405.35 1579.86 1390.34 1592.86 1382.83 1605.86 1390.34 1605.86 1405.35 1592.86 1412.86 1579.86 1405.35"/>
      <polygon class="cls-1" points="1596.86 1433.29 1596.86 1418.28 1609.86 1410.77 1622.86 1418.28 1622.86 1433.29 1609.86 1440.81 1596.86 1433.29"/>
      <polygon class="cls-1" points="1596.86 1376.73 1596.86 1361.72 1609.86 1354.2 1622.86 1361.72 1622.86 1376.73 1609.86 1384.24 1596.86 1376.73"/>
      <rect class="cls-3" x="44.36" y="1230.23" width="199" height="53"/>
      <polygon class="cls-7" points="162.07 1243.98 154.18 1236.09 146.27 1243.98 150.21 1247.91 130.41 1267.71 138.3 1275.6 146.19 1267.71 142.27 1263.78 162.07 1243.98"/>
      <rect class="cls-7" x="118.43" y="1244.35" width="28" height="11.16" transform="translate(-845.05 459.74) rotate(-45)"/>
      <rect class="cls-7" x="146.04" y="1256.17" width="28" height="11.16" transform="translate(-845.32 482.73) rotate(-45)"/>
    </g>
  </g>
  <g class="cls-16">
    <g class="cls-17">
      <rect class="cls-2" x="17.36" y="195.23" width="1645" height="279"/>
    </g>
    <polygon class="cls-7" points="1180.86 437.73 1180.86 452.73 1210.86 452.73 1210.86 437.73 1218.86 437.73 1218.86 406.73 1172.86 406.73 1172.86 437.73 1180.86 437.73"/>
    <g class="cls-18">
      <path class="cls-7" d="M734.24,430.78c-3.98,0-7.2-3.22-7.2-7.2s3.22-7.21,7.2-7.21,7.2,3.22,7.2,7.21-3.22,7.2-7.2,7.2"/>
      <path class="cls-7" d="M734.24,452.4c-3.98,0-7.2-3.22-7.2-7.2s3.22-7.21,7.2-7.21,7.2,3.22,7.2,7.21-3.22,7.2-7.2,7.2"/>
      <path class="cls-7" d="M734.24,366.88c-3.98,0-7.2-3.22-7.2-7.2s3.22-7.21,7.2-7.21,7.2,3.22,7.2,7.21-3.22,7.2-7.2,7.2"/>
      <path class="cls-7" d="M734.24,388.5c-3.98,0-7.2-3.22-7.2-7.2s3.22-7.21,7.2-7.21,7.2,3.22,7.2,7.21-3.22,7.2-7.2,7.2"/>
      <path class="cls-7" d="M835.87,430.78c-3.98,0-7.2-3.22-7.2-7.2s3.22-7.21,7.2-7.21,7.2,3.22,7.2,7.21-3.22,7.2-7.2,7.2"/>
      <path class="cls-7" d="M835.87,452.4c-3.98,0-7.2-3.22-7.2-7.2s3.22-7.21,7.2-7.21,7.2,3.22,7.2,7.21-3.22,7.2-7.2,7.2"/>
      <path class="cls-7" d="M835.87,366.88c-3.98,0-7.2-3.22-7.2-7.2s3.22-7.21,7.2-7.21,7.2,3.22,7.2,7.21-3.22,7.2-7.2,7.2"/>
      <path class="cls-7" d="M835.87,388.5c-3.98,0-7.2-3.22-7.2-7.2s3.22-7.21,7.2-7.21,7.2,3.22,7.2,7.21-3.22,7.2-7.2,7.2"/>
      <polygon class="cls-7" points="146.86 367.73 146.86 352.73 116.86 352.73 116.86 367.73 108.86 367.73 108.86 397.73 154.86 397.73 154.86 367.73 146.86 367.73"/>
      <polygon class="cls-7" points="116.86 437.73 116.86 452.73 146.86 452.73 146.86 437.73 154.86 437.73 154.86 406.73 108.86 406.73 108.86 437.73 116.86 437.73"/>
      <polygon class="cls-7" points="91.86 367.73 91.86 352.73 61.86 352.73 61.86 367.73 53.86 367.73 53.86 397.73 99.86 397.73 99.86 367.73 91.86 367.73"/>
      <polygon class="cls-7" points="61.86 437.73 61.86 452.73 91.86 452.73 91.86 437.73 99.86 437.73 99.86 406.73 53.86 406.73 53.86 437.73 61.86 437.73"/>
      <polygon class="cls-7" points="257.86 367.73 257.86 352.73 227.86 352.73 227.86 367.73 219.86 367.73 219.86 397.73 265.86 397.73 265.86 367.73 257.86 367.73"/>
      <polygon class="cls-7" points="227.86 437.73 227.86 452.73 257.86 452.73 257.86 437.73 265.86 437.73 265.86 406.73 219.86 406.73 219.86 437.73 227.86 437.73"/>
      <polygon class="cls-7" points="202.86 367.73 202.86 352.73 172.86 352.73 172.86 367.73 164.86 367.73 164.86 397.73 210.86 397.73 210.86 367.73 202.86 367.73"/>
      <polygon class="cls-7" points="172.86 437.73 172.86 452.73 202.86 452.73 202.86 437.73 210.86 437.73 210.86 406.73 164.86 406.73 164.86 437.73 172.86 437.73"/>
      <rect class="cls-7" x="311.86" y="352.73" width="46" height="46"/>
      <rect class="cls-7" x="311.86" y="406.73" width="46" height="46"/>
      <rect class="cls-7" x="364.86" y="352.73" width="46" height="46"/>
      <rect class="cls-7" x="364.86" y="406.73" width="46" height="46"/>
      <rect class="cls-7" x="418.86" y="352.73" width="46" height="46"/>
      <rect class="cls-7" x="418.86" y="406.73" width="46" height="46"/>
      <rect class="cls-7" x="471.86" y="352.73" width="46" height="46"/>
      <rect class="cls-7" x="471.86" y="406.73" width="46" height="46"/>
      <rect class="cls-7" x="524.86" y="352.73" width="46" height="46"/>
      <rect class="cls-7" x="524.86" y="406.73" width="46" height="46"/>
      <rect class="cls-7" x="597.86" y="352.73" width="46" height="46"/>
      <rect class="cls-7" x="597.86" y="406.73" width="46" height="46"/>
      <rect class="cls-7" x="650.86" y="351.73" width="46" height="46"/>
      <rect class="cls-7" x="650.86" y="406.73" width="46" height="46"/>
      <rect class="cls-7" x="753.86" y="407.73" width="60" height="44"/>
      <rect class="cls-7" x="753.86" y="351.73" width="60" height="44"/>
      <path class="cls-7" d="M936.89,430.78c-3.98,0-7.2-3.22-7.2-7.2s3.22-7.21,7.2-7.21,7.2,3.22,7.2,7.21-3.22,7.2-7.2,7.2"/>
      <path class="cls-7" d="M936.89,452.4c-3.98,0-7.2-3.22-7.2-7.2s3.22-7.21,7.2-7.21,7.2,3.22,7.2,7.21-3.22,7.2-7.2,7.2"/>
      <path class="cls-7" d="M936.89,366.88c-3.98,0-7.2-3.22-7.2-7.2s3.22-7.21,7.2-7.21,7.2,3.22,7.2,7.21-3.22,7.2-7.2,7.2"/>
      <path class="cls-7" d="M936.89,388.5c-3.98,0-7.2-3.22-7.2-7.2s3.22-7.21,7.2-7.21,7.2,3.22,7.2,7.21-3.22,7.2-7.2,7.2"/>
      <path class="cls-7" d="M1412.04,431.02c-3.98,0-7.2-3.22-7.2-7.2s3.22-7.21,7.2-7.21,7.2,3.22,7.2,7.21-3.22,7.2-7.2,7.2"/>
      <path class="cls-7" d="M1412.04,452.4c-3.98,0-7.2-3.22-7.2-7.2s3.22-7.21,7.2-7.21,7.2,3.22,7.2,7.21-3.22,7.2-7.2,7.2"/>
      <path class="cls-7" d="M1412.04,366.88c-3.98,0-7.2-3.22-7.2-7.2s3.22-7.21,7.2-7.21,7.2,3.22,7.2,7.21-3.22,7.2-7.2,7.2"/>
      <path class="cls-7" d="M1412.04,388.26c-3.98,0-7.2-3.22-7.2-7.2s3.22-7.21,7.2-7.21,7.2,3.22,7.2,7.21-3.22,7.2-7.2,7.2"/>
      <path class="cls-7" d="M1412.04,409.64c-3.98,0-7.2-3.22-7.2-7.2s3.22-7.21,7.2-7.21,7.2,3.22,7.2,7.21-3.22,7.2-7.2,7.2"/>
      <path class="cls-7" d="M1434.2,431.02c-3.98,0-7.2-3.22-7.2-7.2s3.22-7.21,7.2-7.21,7.2,3.22,7.2,7.21-3.22,7.2-7.2,7.2"/>
      <path class="cls-7" d="M1434.2,452.4c-3.98,0-7.2-3.22-7.2-7.2s3.22-7.21,7.2-7.21,7.2,3.22,7.2,7.21-3.22,7.2-7.2,7.2"/>
      <path class="cls-7" d="M1434.2,388.26c-3.98,0-7.2-3.22-7.2-7.2s3.22-7.21,7.2-7.21,7.2,3.22,7.2,7.21-3.22,7.2-7.2,7.2"/>
      <path class="cls-7" d="M1434.2,409.64c-3.98,0-7.2-3.22-7.2-7.2s3.22-7.21,7.2-7.21,7.2,3.22,7.2,7.21-3.22,7.2-7.2,7.2"/>
      <path class="cls-7" d="M1131.61,381.3c0-3.98,3.22-7.2,7.2-7.2s7.21,3.22,7.21,7.2-3.22,7.2-7.21,7.2-7.2-3.22-7.2-7.2"/>
      <path class="cls-7" d="M1109.98,381.3c0-3.98,3.22-7.2,7.2-7.2s7.21,3.22,7.21,7.2-3.22,7.2-7.21,7.2-7.2-3.22-7.2-7.2"/>
      <rect class="cls-7" x="854.86" y="407.73" width="60" height="44"/>
      <rect class="cls-7" x="958.86" y="407.73" width="60" height="44"/>
      <rect class="cls-7" x="1038.86" y="407.73" width="46" height="44"/>
      <rect class="cls-7" x="1104.86" y="407.73" width="46" height="44"/>
      <rect class="cls-7" x="1038.86" y="351.73" width="46" height="44"/>
      <rect class="cls-7" x="854.86" y="351.73" width="60" height="44"/>
      <rect class="cls-4" x="1242.36" y="383.23" width="53" height="66"/>
      <path class="cls-4" d="M1336.87,426.23h33.43c6.35,0,11.81,4.97,11.91,11.32.1,6.44-5.09,11.68-11.5,11.68h-33.43c-6.35,0-11.81-4.97-11.91-11.32-.1-6.44,5.09-11.68,11.5-11.68Z"/>
      <polygon class="cls-7" points="1281.86 394.73 1275.36 394.73 1268.86 394.73 1268.86 437.73 1275.36 437.73 1281.86 437.73 1281.86 394.73"/>
      <polygon class="cls-1" points="76.86 336.76 76.86 321.75 63.85 314.23 50.86 321.75 50.86 336.76 63.85 344.27 76.86 336.76"/>
      <polygon class="cls-1" points="111.86 336.76 111.86 321.75 98.85 314.23 85.86 321.75 85.86 336.76 98.85 344.27 111.86 336.76"/>
      <polygon class="cls-1" points="145.86 336.76 145.86 321.75 132.85 314.23 119.86 321.75 119.86 336.76 132.85 344.27 145.86 336.76"/>
      <polygon class="cls-1" points="179.86 336.76 179.86 321.75 166.85 314.23 153.86 321.75 153.86 336.76 166.85 344.27 179.86 336.76"/>
      <polygon class="cls-1" points="214.86 336.76 214.86 321.75 201.85 314.23 188.86 321.75 188.86 336.76 201.85 344.27 214.86 336.76"/>
      <polygon class="cls-1" points="248.86 336.76 248.86 321.75 235.85 314.23 222.86 321.75 222.86 336.76 235.85 344.27 248.86 336.76"/>
      <polygon class="cls-1" points="283.86 336.76 283.86 321.75 270.85 314.23 257.86 321.75 257.86 336.76 270.85 344.27 283.86 336.76"/>
      <polygon class="cls-1" points="317.86 336.76 317.86 321.75 304.85 314.23 291.86 321.75 291.86 336.76 304.85 344.27 317.86 336.76"/>
      <polygon class="cls-1" points="351.86 336.76 351.86 321.75 338.85 314.23 325.86 321.75 325.86 336.76 338.85 344.27 351.86 336.76"/>
      <polygon class="cls-1" points="386.86 336.76 386.86 321.75 373.85 314.23 360.86 321.75 360.86 336.76 373.85 344.27 386.86 336.76"/>
      <polygon class="cls-1" points="420.86 336.76 420.86 321.75 407.85 314.23 394.86 321.75 394.86 336.76 407.85 344.27 420.86 336.76"/>
      <polygon class="cls-1" points="454.86 336.76 454.86 321.75 441.85 314.23 428.86 321.75 428.86 336.76 441.85 344.27 454.86 336.76"/>
      <polygon class="cls-1" points="489.86 336.76 489.86 321.75 476.85 314.23 463.86 321.75 463.86 336.76 476.85 344.27 489.86 336.76"/>
      <polygon class="cls-1" points="523.86 336.76 523.86 321.75 510.85 314.23 497.86 321.75 497.86 336.76 510.85 344.27 523.86 336.76"/>
      <polygon class="cls-1" points="557.86 336.76 557.86 321.75 544.85 314.23 531.86 321.75 531.86 336.76 544.85 344.27 557.86 336.76"/>
      <polygon class="cls-1" points="592.86 336.76 592.86 321.75 579.85 314.23 566.86 321.75 566.86 336.76 579.85 344.27 592.86 336.76"/>
      <polygon class="cls-1" points="626.86 336.76 626.86 321.75 613.85 314.23 600.86 321.75 600.86 336.76 613.85 344.27 626.86 336.76"/>
      <polygon class="cls-1" points="660.86 336.76 660.86 321.75 647.85 314.23 634.86 321.75 634.86 336.76 647.85 344.27 660.86 336.76"/>
      <polygon class="cls-1" points="695.86 336.76 695.86 321.75 682.85 314.23 669.86 321.75 669.86 336.76 682.85 344.27 695.86 336.76"/>
      <polygon class="cls-1" points="729.86 336.76 729.86 321.75 716.85 314.23 703.86 321.75 703.86 336.76 716.85 344.27 729.86 336.76"/>
      <polygon class="cls-1" points="763.86 336.76 763.86 321.75 750.85 314.23 737.86 321.75 737.86 336.76 750.85 344.27 763.86 336.76"/>
      <polygon class="cls-1" points="798.86 336.76 798.86 321.75 785.85 314.23 772.86 321.75 772.86 336.76 785.85 344.27 798.86 336.76"/>
      <polygon class="cls-1" points="832.86 336.76 832.86 321.75 819.85 314.23 806.86 321.75 806.86 336.76 819.85 344.27 832.86 336.76"/>
      <polygon class="cls-1" points="867.86 336.76 867.86 321.75 854.85 314.23 841.86 321.75 841.86 336.76 854.85 344.27 867.86 336.76"/>
      <polygon class="cls-1" points="901.86 336.76 901.86 321.75 888.85 314.23 875.86 321.75 875.86 336.76 888.85 344.27 901.86 336.76"/>
      <polygon class="cls-1" points="935.86 336.76 935.86 321.75 922.85 314.23 909.86 321.75 909.86 336.76 922.85 344.27 935.86 336.76"/>
      <polygon class="cls-1" points="970.86 336.76 970.86 321.75 957.85 314.23 944.86 321.75 944.86 336.76 957.85 344.27 970.86 336.76"/>
      <polygon class="cls-1" points="1004.86 336.76 1004.86 321.75 991.85 314.23 978.86 321.75 978.86 336.76 991.85 344.27 1004.86 336.76"/>
      <polygon class="cls-1" points="59.86 308.13 59.86 293.12 46.85 285.61 33.86 293.12 33.86 308.13 46.85 315.65 59.86 308.13"/>
      <polygon class="cls-1" points="94.86 308.13 94.86 293.12 81.85 285.61 68.86 293.12 68.86 308.13 81.85 315.65 94.86 308.13"/>
      <polygon class="cls-1" points="128.86 308.13 128.86 293.12 115.85 285.61 102.86 293.12 102.86 308.13 115.85 315.65 128.86 308.13"/>
      <polygon class="cls-1" points="162.86 308.13 162.86 293.12 149.85 285.61 136.86 293.12 136.86 308.13 149.85 315.65 162.86 308.13"/>
      <polygon class="cls-1" points="197.86 308.13 197.86 293.12 184.85 285.61 171.86 293.12 171.86 308.13 184.85 315.65 197.86 308.13"/>
      <polygon class="cls-1" points="231.86 308.13 231.86 293.12 218.85 285.61 205.86 293.12 205.86 308.13 218.85 315.65 231.86 308.13"/>
      <polygon class="cls-1" points="265.86 308.13 265.86 293.12 252.85 285.61 239.86 293.12 239.86 308.13 252.85 315.65 265.86 308.13"/>
      <polygon class="cls-1" points="300.86 308.13 300.86 293.12 287.85 285.61 274.86 293.12 274.86 308.13 287.85 315.65 300.86 308.13"/>
      <polygon class="cls-1" points="334.86 308.13 334.86 293.12 321.85 285.61 308.86 293.12 308.86 308.13 321.85 315.65 334.86 308.13"/>
      <polygon class="cls-1" points="368.86 308.13 368.86 293.12 355.85 285.61 342.86 293.12 342.86 308.13 355.85 315.65 368.86 308.13"/>
      <polygon class="cls-1" points="403.86 308.13 403.86 293.12 390.85 285.61 377.86 293.12 377.86 308.13 390.85 315.65 403.86 308.13"/>
      <polygon class="cls-1" points="437.86 308.13 437.86 293.12 424.85 285.61 411.86 293.12 411.86 308.13 424.85 315.65 437.86 308.13"/>
      <polygon class="cls-1" points="471.86 308.13 471.86 293.12 458.85 285.61 445.86 293.12 445.86 308.13 458.85 315.65 471.86 308.13"/>
      <polygon class="cls-1" points="506.86 308.13 506.86 293.12 493.85 285.61 480.86 293.12 480.86 308.13 493.85 315.65 506.86 308.13"/>
      <polygon class="cls-1" points="540.86 308.13 540.86 293.12 527.85 285.61 514.86 293.12 514.86 308.13 527.85 315.65 540.86 308.13"/>
      <polygon class="cls-1" points="575.86 308.13 575.86 293.12 562.85 285.61 549.86 293.12 549.86 308.13 562.85 315.65 575.86 308.13"/>
      <polygon class="cls-1" points="609.86 308.13 609.86 293.12 596.85 285.61 583.86 293.12 583.86 308.13 596.85 315.65 609.86 308.13"/>
      <polygon class="cls-1" points="643.86 308.13 643.86 293.12 630.85 285.61 617.86 293.12 617.86 308.13 630.85 315.65 643.86 308.13"/>
      <polygon class="cls-1" points="678.86 308.13 678.86 293.12 665.85 285.61 652.86 293.12 652.86 308.13 665.85 315.65 678.86 308.13"/>
      <polygon class="cls-1" points="712.86 308.13 712.86 293.12 699.85 285.61 686.86 293.12 686.86 308.13 699.85 315.65 712.86 308.13"/>
      <polygon class="cls-1" points="746.86 308.13 746.86 293.12 733.85 285.61 720.86 293.12 720.86 308.13 733.85 315.65 746.86 308.13"/>
      <polygon class="cls-1" points="781.86 308.13 781.86 293.12 768.85 285.61 755.86 293.12 755.86 308.13 768.85 315.65 781.86 308.13"/>
      <polygon class="cls-1" points="815.86 308.13 815.86 293.12 802.85 285.61 789.86 293.12 789.86 308.13 802.85 315.65 815.86 308.13"/>
      <polygon class="cls-1" points="849.86 308.13 849.86 293.12 836.85 285.61 823.86 293.12 823.86 308.13 836.85 315.65 849.86 308.13"/>
      <polygon class="cls-1" points="884.86 308.13 884.86 293.12 871.85 285.61 858.86 293.12 858.86 308.13 871.85 315.65 884.86 308.13"/>
      <polygon class="cls-1" points="918.86 308.13 918.86 293.12 905.85 285.61 892.86 293.12 892.86 308.13 905.85 315.65 918.86 308.13"/>
      <polygon class="cls-1" points="952.86 308.13 952.86 293.12 939.85 285.61 926.86 293.12 926.86 308.13 939.85 315.65 952.86 308.13"/>
      <polygon class="cls-1" points="987.86 308.13 987.86 293.12 974.85 285.61 961.86 293.12 961.86 308.13 974.85 315.65 987.86 308.13"/>
      <polygon class="cls-1" points="1038.86 336.76 1038.86 321.75 1025.85 314.23 1012.86 321.75 1012.86 336.76 1025.85 344.27 1038.86 336.76"/>
      <polygon class="cls-1" points="1072.86 336.76 1072.86 321.75 1059.85 314.23 1046.86 321.75 1046.86 336.76 1059.85 344.27 1072.86 336.76"/>
      <polygon class="cls-1" points="1107.86 336.76 1107.86 321.75 1094.85 314.23 1081.86 321.75 1081.86 336.76 1094.85 344.27 1107.86 336.76"/>
      <polygon class="cls-1" points="1141.86 336.76 1141.86 321.75 1128.85 314.23 1115.86 321.75 1115.86 336.76 1128.85 344.27 1141.86 336.76"/>
      <polygon class="cls-1" points="1175.86 336.76 1175.86 321.75 1162.85 314.23 1149.86 321.75 1149.86 336.76 1162.85 344.27 1175.86 336.76"/>
      <polygon class="cls-1" points="1210.86 336.76 1210.86 321.75 1197.85 314.23 1184.86 321.75 1184.86 336.76 1197.85 344.27 1210.86 336.76"/>
      <polygon class="cls-1" points="1244.86 336.76 1244.86 321.75 1231.85 314.23 1218.86 321.75 1218.86 336.76 1231.85 344.27 1244.86 336.76"/>
      <polygon class="cls-1" points="1278.86 336.76 1278.86 321.75 1265.85 314.23 1252.86 321.75 1252.86 336.76 1265.85 344.27 1278.86 336.76"/>
      <polygon class="cls-1" points="1313.86 336.76 1313.86 321.75 1300.85 314.23 1287.86 321.75 1287.86 336.76 1300.85 344.27 1313.86 336.76"/>
      <polygon class="cls-1" points="1347.86 336.76 1347.86 321.75 1334.85 314.23 1321.86 321.75 1321.86 336.76 1334.85 344.27 1347.86 336.76"/>
      <polygon class="cls-1" points="1381.86 336.76 1381.86 321.75 1368.85 314.23 1355.86 321.75 1355.86 336.76 1368.85 344.27 1381.86 336.76"/>
      <polygon class="cls-1" points="1416.86 336.76 1416.86 321.75 1403.85 314.23 1390.86 321.75 1390.86 336.76 1403.85 344.27 1416.86 336.76"/>
      <polygon class="cls-1" points="1450.86 336.76 1450.86 321.75 1437.85 314.23 1424.86 321.75 1424.86 336.76 1437.85 344.27 1450.86 336.76"/>
      <polygon class="cls-1" points="1485.86 336.76 1485.86 321.75 1472.85 314.23 1459.86 321.75 1459.86 336.76 1472.85 344.27 1485.86 336.76"/>
      <polygon class="cls-1" points="1519.86 336.76 1519.86 321.75 1506.85 314.23 1493.86 321.75 1493.86 336.76 1506.85 344.27 1519.86 336.76"/>
      <polygon class="cls-1" points="1553.86 336.76 1553.86 321.75 1540.85 314.23 1527.86 321.75 1527.86 336.76 1540.85 344.27 1553.86 336.76"/>
      <polygon class="cls-1" points="1588.86 336.76 1588.86 321.75 1575.85 314.23 1562.86 321.75 1562.86 336.76 1575.85 344.27 1588.86 336.76"/>
      <polygon class="cls-1" points="1622.86 336.76 1622.86 321.75 1609.85 314.23 1596.86 321.75 1596.86 336.76 1609.85 344.27 1622.86 336.76"/>
      <polygon class="cls-1" points="1021.86 308.13 1021.86 293.12 1008.85 285.61 995.86 293.12 995.86 308.13 1008.85 315.65 1021.86 308.13"/>
      <polygon class="cls-1" points="1055.86 308.13 1055.86 293.12 1042.85 285.61 1029.86 293.12 1029.86 308.13 1042.85 315.65 1055.86 308.13"/>
      <polygon class="cls-1" points="1089.86 308.13 1089.86 293.12 1076.85 285.61 1063.86 293.12 1063.86 308.13 1076.85 315.65 1089.86 308.13"/>
      <polygon class="cls-1" points="1124.86 308.13 1124.86 293.12 1111.85 285.61 1098.86 293.12 1098.86 308.13 1111.85 315.65 1124.86 308.13"/>
      <polygon class="cls-1" points="1158.86 308.13 1158.86 293.12 1145.85 285.61 1132.86 293.12 1132.86 308.13 1145.85 315.65 1158.86 308.13"/>
      <polygon class="cls-1" points="1193.86 308.13 1193.86 293.12 1180.85 285.61 1167.86 293.12 1167.86 308.13 1180.85 315.65 1193.86 308.13"/>
      <polygon class="cls-1" points="1227.86 308.13 1227.86 293.12 1214.85 285.61 1201.86 293.12 1201.86 308.13 1214.85 315.65 1227.86 308.13"/>
      <polygon class="cls-1" points="1261.86 308.13 1261.86 293.12 1248.85 285.61 1235.86 293.12 1235.86 308.13 1248.85 315.65 1261.86 308.13"/>
      <polygon class="cls-1" points="1296.86 308.13 1296.86 293.12 1283.85 285.61 1270.86 293.12 1270.86 308.13 1283.85 315.65 1296.86 308.13"/>
      <polygon class="cls-1" points="1330.86 308.13 1330.86 293.12 1317.85 285.61 1304.86 293.12 1304.86 308.13 1317.85 315.65 1330.86 308.13"/>
      <polygon class="cls-1" points="1364.86 308.13 1364.86 293.12 1351.85 285.61 1338.86 293.12 1338.86 308.13 1351.85 315.65 1364.86 308.13"/>
      <polygon class="cls-1" points="1399.86 308.13 1399.86 293.12 1386.85 285.61 1373.86 293.12 1373.86 308.13 1386.85 315.65 1399.86 308.13"/>
      <polygon class="cls-1" points="1433.86 308.13 1433.86 293.12 1420.85 285.61 1407.86 293.12 1407.86 308.13 1420.85 315.65 1433.86 308.13"/>
      <polygon class="cls-1" points="1467.86 308.13 1467.86 293.12 1454.85 285.61 1441.86 293.12 1441.86 308.13 1454.85 315.65 1467.86 308.13"/>
      <polygon class="cls-1" points="1502.86 308.13 1502.86 293.12 1489.85 285.61 1476.86 293.12 1476.86 308.13 1489.85 315.65 1502.86 308.13"/>
      <polygon class="cls-1" points="1536.86 308.13 1536.86 293.12 1523.85 285.61 1510.86 293.12 1510.86 308.13 1523.85 315.65 1536.86 308.13"/>
      <polygon class="cls-1" points="1570.86 308.13 1570.86 293.12 1557.85 285.61 1544.86 293.12 1544.86 308.13 1557.85 315.65 1570.86 308.13"/>
      <polygon class="cls-1" points="1605.86 308.13 1605.86 293.12 1592.85 285.61 1579.86 293.12 1579.86 308.13 1592.85 315.65 1605.86 308.13"/>
      <polygon class="cls-1" points="1639.86 308.13 1639.86 293.12 1626.85 285.61 1613.86 293.12 1613.86 308.13 1626.85 315.65 1639.86 308.13"/>
      <polygon class="cls-1" points="1538.86 396.35 1538.86 381.34 1525.85 373.83 1512.86 381.34 1512.86 396.35 1525.85 403.86 1538.86 396.35"/>
      <polygon class="cls-1" points="1520.86 424.29 1520.86 409.28 1507.85 401.77 1494.86 409.28 1494.86 424.29 1507.85 431.81 1520.86 424.29"/>
      <polygon class="cls-1" points="1520.86 367.73 1520.86 352.72 1507.85 345.2 1494.86 352.72 1494.86 367.73 1507.85 375.24 1520.86 367.73"/>
      <polygon class="cls-1" points="1579.86 396.35 1579.86 381.34 1592.86 373.83 1605.86 381.34 1605.86 396.35 1592.86 403.86 1579.86 396.35"/>
      <polygon class="cls-1" points="1596.86 424.29 1596.86 409.28 1609.86 401.77 1622.86 409.28 1622.86 424.29 1609.86 431.81 1596.86 424.29"/>
      <polygon class="cls-1" points="1596.86 367.73 1596.86 352.72 1609.86 345.2 1622.86 352.72 1622.86 367.73 1609.86 375.24 1596.86 367.73"/>
      <rect class="cls-3" x="44.36" y="221.23" width="199" height="53"/>
      <polygon class="cls-7" points="162.07 234.98 154.18 227.09 146.27 234.98 150.21 238.91 130.41 258.71 138.3 266.6 146.19 258.71 142.27 254.78 162.07 234.98"/>
      <rect class="cls-7" x="118.43" y="235.35" width="28" height="11.16" transform="translate(-131.58 164.21) rotate(-45)"/>
      <rect class="cls-7" x="146.04" y="247.17" width="28" height="11.16" transform="translate(-131.85 187.2) rotate(-45)"/>
    </g>
  </g>
</svg>