<?xml version="1.0" encoding="UTF-8"?>
<svg id="check" xmlns="http://www.w3.org/2000/svg" viewBox="0 0 265 265">
  <defs>
    <style>
      .cls-1 {
        fill: #fff;
        stroke: #97ca55;
        stroke-miterlimit: 10;
      }

      .cls-2 {
        fill: #97ca55;
        stroke-width: 0px;
      }
    </style>
  </defs>
  <path class="cls-1" d="M112.09,134.24s42.42-76.7,123.52-110.86c4.67-1.97,10.06-.96,13.78,2.48h0c5.93,5.47,5.51,14.96-.88,19.88-24.88,19.11-80.72,68.71-114.43,150.35-3.92,9.48-13.19,15.64-23.44,15.64h0c-9.95,0-18.97-5.8-23.11-14.85l-37.43-81.91c-3.48-7.61-.39-16.62,7.04-20.49h0c6.11-3.19,13.6-2.02,18.45,2.89l36.5,36.87h0Z"/>
  <path class="cls-2" d="M234.33,85.19c6.75,14.42,10.54,30.5,10.54,47.44,0,61.89-50.35,112.24-112.24,112.24S20.39,194.52,20.39,132.63,70.74,20.4,132.63,20.4c16.98,0,33.09,3.8,47.53,10.58,5.93-4.18,12.17-8.22,18.7-12.06C179.4,7.54,156.76,1,132.63,1,60.05,1,1,60.05,1,132.63s59.05,131.64,131.63,131.64,131.63-59.05,131.63-131.64c0-22.01-5.44-42.77-15.03-61.02-4.49,3.85-9.52,8.38-14.9,13.58h0Z"/>
</svg>