<?xml version="1.0" encoding="UTF-8"?>
<svg id="check" xmlns="http://www.w3.org/2000/svg" viewBox="0 0 265 265">
  <defs>
    <style>
      .cls-1 {
        stroke-width: 0px;
      }

      .cls-1, .cls-2 {
        fill: #d96704;
      }

      .cls-2 {
        stroke: #fff;
        stroke-miterlimit: 10;
      }
    </style>
  </defs>
  <path class="cls-2" d="M112.06,134.1s42.22-76.33,122.93-110.33c4.65-1.96,10.01-.96,13.71,2.47h0c5.9,5.44,5.48,14.89-.88,19.78-24.76,19.02-80.33,68.38-113.88,149.63-3.9,9.43-13.13,15.57-23.33,15.57h0c-9.9,0-18.88-5.77-23-14.78l-37.25-81.52c-3.46-7.57-.39-16.54,7.01-20.39h0c6.08-3.17,13.53-2.01,18.36,2.88l36.33,36.69h0Z"/>
  <path class="cls-1" d="M233.71,85.28c6.72,14.35,10.49,30.35,10.49,47.21,0,61.59-50.11,111.7-111.7,111.7S20.8,194.09,20.8,132.5,70.91,20.8,132.5,20.8c16.9,0,32.93,3.78,47.3,10.53,5.9-4.16,12.11-8.18,18.61-12C179.05,8,156.51,1.5,132.5,1.5,60.27,1.5,1.5,60.26,1.5,132.5s58.77,131.01,131,131.01,131-58.77,131-131.01c0-21.9-5.41-42.57-14.96-60.73-4.47,3.83-9.47,8.34-14.83,13.52h0Z"/>
</svg>