<?xml version="1.0" encoding="UTF-8"?>
<svg id="Dry_Run" data-name="Dry Run" xmlns="http://www.w3.org/2000/svg" viewBox="0 0 1679.46 1679.46">
  <defs>
    <style>
      .cls-1 {
        fill: #2e547a;
      }

      .cls-1, .cls-2, .cls-3, .cls-4, .cls-5, .cls-6, .cls-7 {
        stroke-width: 0px;
      }

      .cls-8 {
        font-size: 64px;
      }

      .cls-8, .cls-9 {
        fill: #000;
      }

      .cls-8, .cls-10 {
        font-family: MyriadPro-Regular, 'Myriad Pro';
      }

      .cls-11 {
        letter-spacing: 0em;
      }

      .cls-9 {
        font-family: MonaspaceArgonVar-Medium, 'Monaspace Argon Var';
        font-size: 114px;
        font-variation-settings: 'wght' 500, 'wdth' 100, 'slnt' 0;
        font-weight: 500;
      }

      .cls-2 {
        fill: #bcbec0;
      }

      .cls-12 {
        letter-spacing: 0em;
      }

      .cls-10 {
        fill: red;
        font-size: 128px;
      }

      .cls-13 {
        letter-spacing: 0em;
      }

      .cls-14 {
        letter-spacing: -.01em;
      }

      .cls-3 {
        fill: #4e4e4e;
      }

      .cls-4 {
        fill: #233f5c;
      }

      .cls-5 {
        fill: #01a64f;
      }

      .cls-6 {
        fill: #fff;
      }

      .cls-7 {
        fill: #f15b5a;
      }
    </style>
  </defs>
  <path class="cls-3" d="M1167.6,1526.48H189.05c-36.96,0-66.93-29.97-66.93-66.93V218.23c0-36.96,29.96-66.93,66.93-66.93h978.64c36.96,0,66.93,29.97,66.93,66.93v1241.38c0,36.93-30,66.86-67.02,66.86h0Z"/>
  <path class="cls-6" d="M187.92,1477.03c-9.02,0-16.35-7.34-16.35-16.35V217.09c0-9.02,7.31-16.34,16.34-16.34h977.85c9.02,0,16.34,7.31,16.34,16.34v1243.61c0,9.02-7.31,16.34-16.34,16.34H187.92Z"/>
  <path class="cls-4" d="M875.14,256.38h-396.63c-9.09,0-16.46-7.37-16.46-16.46v-87.6c0-9.09,7.37-16.46,16.46-16.46h396.63c9.09,0,16.46,7.37,16.46,16.46v87.46c0,9.17-7.37,16.6-16.46,16.6h0Z"/>
  <path class="cls-1" d="M678.02,132.12c-13.97,0-25.28-11.31-25.28-25.28s11.31-25.28,25.28-25.28,25.28,11.31,25.28,25.28-11.31,25.28-25.28,25.28h0ZM495.17,135.86h365.7c-18.7-88.41-347.01-88.41-365.7,0h0Z"/>
  <path class="cls-7" d="M588.6,488.99c0,88.27-71.56,159.82-159.82,159.82s-159.82-71.56-159.82-159.82,71.56-159.82,159.82-159.82,159.82,71.55,159.82,159.82h0Z"/>
  <polygon class="cls-2" points="1129.55 379.99 783.44 379.99 783.44 355.26 1129.55 355.26 1129.55 379.99 1129.55 379.99"/>
  <polygon class="cls-2" points="1129.55 429.43 656.74 429.43 656.74 404.71 1129.55 404.71 1129.55 429.43 1129.55 429.43"/>
  <polygon class="cls-2" points="1129.55 475.78 656.74 475.78 656.74 451.06 1129.55 451.06 1129.55 475.78 1129.55 475.78"/>
  <polygon class="cls-2" points="1129.55 522.14 656.74 522.14 656.74 497.42 1129.55 497.42 1129.55 522.14 1129.55 522.14"/>
  <polygon class="cls-2" points="1129.55 571.58 656.74 571.58 656.74 546.86 1129.55 546.86 1129.55 571.58 1129.55 571.58"/>
  <polygon class="cls-2" points="1129.55 1245.26 378.62 1245.26 378.62 1220.54 1129.55 1220.54 1129.55 1245.26 1129.55 1245.26"/>
  <polygon class="cls-2" points="1129.55 1291.62 251.92 1291.62 251.92 1266.89 1129.55 1266.89 1129.55 1291.62 1129.55 1291.62"/>
  <polygon class="cls-2" points="1129.55 1337.97 251.92 1337.97 251.92 1313.25 1129.55 1313.25 1129.55 1337.97 1129.55 1337.97"/>
  <polygon class="cls-2" points="1002.85 1384.32 251.92 1384.32 251.92 1359.6 1002.85 1359.6 1002.85 1384.32 1002.85 1384.32"/>
  <polygon class="cls-2" points="965.77 617.94 653.65 617.94 653.65 593.22 965.77 593.22 965.77 617.94 965.77 617.94"/>
  <path class="cls-2" d="M381.71,828.97v-.89h-84.25c-4.67,0-8.45-3.82-8.46-8.52v-84.93c0-4.71,3.79-8.52,8.46-8.53h84.25c5.12,0,9.26,3.83,9.27,8.54v85.11c-.01,4.72-4.15,8.54-9.27,8.54v2.59c6.83,0,12.36-5.79,12.36-12.93v-85.11c0-7.14-5.79-12.93-12.93-12.93h-85.28c-7.2,0-13.04,5.8-13.04,12.96v85.32c0,7.16,5.84,12.96,13.04,12.96h85.85v-2.2h0Z"/>
  <path class="cls-2" d="M381.71,989.66v-3.98h-84.25c-4.67,0-8.45-3.81-8.46-8.52v-84.93c0-4.71,3.79-8.52,8.46-8.53h84.25c5.12,0,9.26,3.83,9.27,8.54v85.11c-.01,4.72-4.15,8.54-9.27,8.54v5.68c6.83,0,12.36-5.79,12.36-12.93v-85.11c0-7.14-5.53-12.93-12.36-12.93h-85.85c-7.2,0-13.04,5.8-13.04,12.96v85.32c0,7.16,5.84,12.96,13.04,12.96h85.85v-2.2h0Z"/>
  <path class="cls-2" d="M381.71,1147.26v-.89h-84.25c-4.67,0-8.45-3.82-8.46-8.53v-84.93c0-4.71,3.79-8.52,8.46-8.52h84.25c5.12,0,9.26,3.83,9.27,8.54v85.11c-.01,4.72-4.15,8.54-9.27,8.54v2.59c6.83,0,12.36-5.79,12.36-12.93v-85.11c0-7.14-5.53-12.93-12.36-12.93h-85.85c-7.2,0-13.04,5.8-13.04,12.96v85.32c0,7.16,5.84,12.96,13.04,12.96h85.85v-2.2h0Z"/>
  <polygon class="cls-5" points="381.22 748.59 376.1 742.93 322.8 801.8 300.15 776.79 295.03 782.45 322.8 813.11 322.8 813.11 322.8 813.11 381.22 748.59 381.22 748.59"/>
  <polygon class="cls-5" points="381.22 905.7 376.1 900.04 322.8 958.91 300.15 933.9 295.03 939.56 322.8 970.23 322.8 970.23 322.8 970.23 381.22 905.7 381.22 905.7"/>
  <polygon class="cls-5" points="381.22 1063.31 376.1 1057.65 322.8 1116.52 300.15 1091.51 295.03 1097.17 322.8 1127.83 322.8 1127.83 322.8 1127.83 381.22 1063.31 381.22 1063.31"/>
  <path class="cls-2" d="M835.98,828.97v-.89h-84.25c-4.67,0-8.45-3.82-8.46-8.52v-84.93c0-4.71,3.79-8.52,8.46-8.53h84.25c5.12,0,9.26,3.83,9.27,8.54v85.11c-.01,4.72-4.15,8.54-9.27,8.54v2.59c6.83,0,12.36-5.79,12.36-12.93v-85.11c0-7.14-5.79-12.93-12.93-12.93h-85.28c-7.2,0-13.04,5.8-13.04,12.96v85.32c0,7.16,5.84,12.96,13.04,12.96h85.85v-2.2h0Z"/>
  <path class="cls-2" d="M835.98,989.66v-3.98h-84.25c-4.67,0-8.45-3.81-8.46-8.52v-84.93c0-4.71,3.79-8.52,8.46-8.53h84.25c5.12,0,9.26,3.83,9.27,8.54v85.11c-.01,4.72-4.15,8.54-9.27,8.54v5.68c6.83,0,12.36-5.79,12.36-12.93v-85.11c0-7.14-5.53-12.93-12.36-12.93h-85.85c-7.2,0-13.04,5.8-13.04,12.96v85.32c0,7.16,5.84,12.96,13.04,12.96h85.85v-2.2h0Z"/>
  <path class="cls-2" d="M835.98,1147.26v-.89h-84.25c-4.67,0-8.45-3.82-8.46-8.53v-84.93c0-4.71,3.79-8.52,8.46-8.52h84.25c5.12,0,9.26,3.83,9.27,8.54v85.11c-.01,4.72-4.15,8.54-9.27,8.54v2.59c6.83,0,12.36-5.79,12.36-12.93v-85.11c0-7.14-5.53-12.93-12.36-12.93h-85.85c-7.2,0-13.04,5.8-13.04,12.96v85.32c0,7.16,5.84,12.96,13.04,12.96h85.85v-2.2h0Z"/>
  <polygon class="cls-5" points="835.49 748.59 830.37 742.93 777.07 801.8 754.42 776.79 749.3 782.45 777.06 813.11 777.07 813.11 777.07 813.11 835.49 748.59 835.49 748.59"/>
  <text class="cls-9" transform="translate(323.23 459.07)"><tspan x="0" y="0">Dry</tspan><tspan x="0" y="136.8">Run</tspan></text>
  <text class="cls-8" transform="translate(403.95 794.81)"><tspan x="0" y="0">Snapshots</tspan></text>
  <text class="cls-8" transform="translate(403.94 914.39)"><tspan class="cls-11" x="0" y="0">R</tspan><tspan x="34.69" y="0">eadiness</tspan><tspan x="0" y="76.8">Checks</tspan></text>
  <text class="cls-8" transform="translate(403.94 1115.09)"><tspan class="cls-14" x="0" y="0">C</tspan><tspan x="36.42" y="0">onfig</tspan></text>
  <text class="cls-8" transform="translate(873.22 756.41)"><tspan class="cls-11" x="0" y="0">D</tspan><tspan class="cls-13" x="42.88" y="0">o</tspan><tspan x="77.57" y="0">wnload</tspan><tspan class="cls-12" x="0" y="76.8">I</tspan><tspan x="15.94" y="76.8">mage</tspan></text>
  <text class="cls-8" transform="translate(860.79 952.79)"><tspan class="cls-12" x="0" y="0">I</tspan><tspan x="15.94" y="0">nstall</tspan></text>
  <text class="cls-8" transform="translate(865.7 1115.09)"><tspan class="cls-11" x="0" y="0">R</tspan><tspan x="34.69" y="0">eboot</tspan></text>
  <text class="cls-10" transform="translate(765.2 970.67)"><tspan x="0" y="0">x</tspan></text>
  <text class="cls-10" transform="translate(765.2 1128.01)"><tspan x="0" y="0">x</tspan></text>
</svg>