<?xml version="1.0" encoding="UTF-8"?>
<svg id="firewall" xmlns="http://www.w3.org/2000/svg" xmlns:xlink="http://www.w3.org/1999/xlink" viewBox="0 0 1679.46 1679.46">
  <defs>
    <style>
      .cls-1 {
        stroke-width: 2.5px;
      }

      .cls-1, .cls-2, .cls-3, .cls-4 {
        stroke: #000;
        stroke-miterlimit: 10;
      }

      .cls-1, .cls-3, .cls-5, .cls-4 {
        fill: none;
      }

      .cls-2 {
        fill: #fff;
        stroke-width: 10px;
      }

      .cls-3 {
        stroke-width: 5px;
      }

      .cls-6 {
        clip-path: url(#clippath);
      }

      .cls-5, .cls-7 {
        stroke-width: 0px;
      }

      .cls-4 {
        stroke-width: 7.5px;
      }

      .cls-8 {
        clip-path: url(#clippath-1);
      }

      .cls-9 {
        clip-path: url(#clippath-2);
      }

      .cls-7 {
        fill: #000;
      }
    </style>
    <clipPath id="clippath">
      <rect class="cls-5" x="7.73" y="691.23" width="1664" height="297"/>
    </clipPath>
    <clipPath id="clippath-1">
      <rect class="cls-5" x="7.73" y="691.23" width="1664" height="297"/>
    </clipPath>
    <clipPath id="clippath-2">
      <rect class="cls-5" x="7.73" y="691.23" width="1664" height="297"/>
    </clipPath>
  </defs>
  <g class="cls-6">
    <g class="cls-8">
      <rect class="cls-2" x="17.23" y="699.73" width="1645" height="279"/>
    </g>
    <polygon class="cls-7" points="1180.73 942.23 1180.73 957.23 1210.73 957.23 1210.73 942.23 1218.73 942.23 1218.73 911.23 1172.73 911.23 1172.73 942.23 1180.73 942.23"/>
    <g class="cls-9">
      <path class="cls-7" d="M734.11,935.28c-3.98,0-7.2-3.22-7.2-7.2s3.22-7.21,7.2-7.21,7.2,3.22,7.2,7.21-3.22,7.2-7.2,7.2"/>
      <path class="cls-7" d="M734.11,956.9c-3.98,0-7.2-3.22-7.2-7.2s3.22-7.21,7.2-7.21,7.2,3.22,7.2,7.21-3.22,7.2-7.2,7.2"/>
      <path class="cls-7" d="M734.11,871.38c-3.98,0-7.2-3.22-7.2-7.2s3.22-7.21,7.2-7.21,7.2,3.22,7.2,7.21-3.22,7.2-7.2,7.2"/>
      <path class="cls-7" d="M734.11,893c-3.98,0-7.2-3.22-7.2-7.2s3.22-7.21,7.2-7.21,7.2,3.22,7.2,7.21-3.22,7.2-7.2,7.2"/>
      <path class="cls-7" d="M835.75,935.28c-3.98,0-7.2-3.22-7.2-7.2s3.22-7.21,7.2-7.21,7.2,3.22,7.2,7.21-3.22,7.2-7.2,7.2"/>
      <path class="cls-7" d="M835.75,956.9c-3.98,0-7.2-3.22-7.2-7.2s3.22-7.21,7.2-7.21,7.2,3.22,7.2,7.21-3.22,7.2-7.2,7.2"/>
      <path class="cls-7" d="M835.75,871.38c-3.98,0-7.2-3.22-7.2-7.2s3.22-7.21,7.2-7.21,7.2,3.22,7.2,7.21-3.22,7.2-7.2,7.2"/>
      <path class="cls-7" d="M835.75,893c-3.98,0-7.2-3.22-7.2-7.2s3.22-7.21,7.2-7.21,7.2,3.22,7.2,7.21-3.22,7.2-7.2,7.2"/>
      <polygon class="cls-7" points="146.73 872.23 146.73 857.23 116.73 857.23 116.73 872.23 108.73 872.23 108.73 902.23 154.73 902.23 154.73 872.23 146.73 872.23"/>
      <polygon class="cls-7" points="116.73 942.23 116.73 957.23 146.73 957.23 146.73 942.23 154.73 942.23 154.73 911.23 108.73 911.23 108.73 942.23 116.73 942.23"/>
      <polygon class="cls-7" points="91.73 872.23 91.73 857.23 61.73 857.23 61.73 872.23 53.73 872.23 53.73 902.23 99.73 902.23 99.73 872.23 91.73 872.23"/>
      <polygon class="cls-7" points="61.73 942.23 61.73 957.23 91.73 957.23 91.73 942.23 99.73 942.23 99.73 911.23 53.73 911.23 53.73 942.23 61.73 942.23"/>
      <polygon class="cls-7" points="257.73 872.23 257.73 857.23 227.73 857.23 227.73 872.23 219.73 872.23 219.73 902.23 265.73 902.23 265.73 872.23 257.73 872.23"/>
      <polygon class="cls-7" points="227.73 942.23 227.73 957.23 257.73 957.23 257.73 942.23 265.73 942.23 265.73 911.23 219.73 911.23 219.73 942.23 227.73 942.23"/>
      <polygon class="cls-7" points="202.73 872.23 202.73 857.23 172.73 857.23 172.73 872.23 164.73 872.23 164.73 902.23 210.73 902.23 210.73 872.23 202.73 872.23"/>
      <polygon class="cls-7" points="172.73 942.23 172.73 957.23 202.73 957.23 202.73 942.23 210.73 942.23 210.73 911.23 164.73 911.23 164.73 942.23 172.73 942.23"/>
      <rect class="cls-7" x="311.73" y="857.23" width="46" height="46"/>
      <rect class="cls-7" x="311.73" y="911.23" width="46" height="46"/>
      <rect class="cls-7" x="364.73" y="857.23" width="46" height="46"/>
      <rect class="cls-7" x="364.73" y="911.23" width="46" height="46"/>
      <rect class="cls-7" x="418.73" y="857.23" width="46" height="46"/>
      <rect class="cls-7" x="418.73" y="911.23" width="46" height="46"/>
      <rect class="cls-7" x="471.73" y="857.23" width="46" height="46"/>
      <rect class="cls-7" x="471.73" y="911.23" width="46" height="46"/>
      <rect class="cls-7" x="524.73" y="857.23" width="46" height="46"/>
      <rect class="cls-7" x="524.73" y="911.23" width="46" height="46"/>
      <rect class="cls-7" x="597.73" y="857.23" width="46" height="46"/>
      <rect class="cls-7" x="597.73" y="911.23" width="46" height="46"/>
      <rect class="cls-7" x="650.73" y="856.23" width="46" height="46"/>
      <rect class="cls-7" x="650.73" y="911.23" width="46" height="46"/>
      <rect class="cls-7" x="753.73" y="912.23" width="60" height="44"/>
      <rect class="cls-7" x="753.73" y="856.23" width="60" height="44"/>
      <path class="cls-7" d="M936.76,935.28c-3.98,0-7.2-3.22-7.2-7.2s3.22-7.21,7.2-7.21,7.2,3.22,7.2,7.21-3.22,7.2-7.2,7.2"/>
      <path class="cls-7" d="M936.76,956.9c-3.98,0-7.2-3.22-7.2-7.2s3.22-7.21,7.2-7.21,7.2,3.22,7.2,7.21-3.22,7.2-7.2,7.2"/>
      <path class="cls-7" d="M936.76,871.38c-3.98,0-7.2-3.22-7.2-7.2s3.22-7.21,7.2-7.21,7.2,3.22,7.2,7.21-3.22,7.2-7.2,7.2"/>
      <path class="cls-7" d="M936.76,893c-3.98,0-7.2-3.22-7.2-7.2s3.22-7.21,7.2-7.21,7.2,3.22,7.2,7.21-3.22,7.2-7.2,7.2"/>
      <path class="cls-7" d="M1411.91,935.52c-3.98,0-7.2-3.22-7.2-7.2s3.22-7.21,7.2-7.21,7.2,3.22,7.2,7.21-3.22,7.2-7.2,7.2"/>
      <path class="cls-7" d="M1411.91,956.9c-3.98,0-7.2-3.22-7.2-7.2s3.22-7.21,7.2-7.21,7.2,3.22,7.2,7.21-3.22,7.2-7.2,7.2"/>
      <path class="cls-7" d="M1411.91,871.38c-3.98,0-7.2-3.22-7.2-7.2s3.22-7.21,7.2-7.21,7.2,3.22,7.2,7.21-3.22,7.2-7.2,7.2"/>
      <path class="cls-7" d="M1411.91,892.76c-3.98,0-7.2-3.22-7.2-7.2s3.22-7.21,7.2-7.21,7.2,3.22,7.2,7.21-3.22,7.2-7.2,7.2"/>
      <path class="cls-7" d="M1411.91,914.14c-3.98,0-7.2-3.22-7.2-7.2s3.22-7.21,7.2-7.21,7.2,3.22,7.2,7.21-3.22,7.2-7.2,7.2"/>
      <path class="cls-7" d="M1434.07,935.52c-3.98,0-7.2-3.22-7.2-7.2s3.22-7.21,7.2-7.21,7.2,3.22,7.2,7.21-3.22,7.2-7.2,7.2"/>
      <path class="cls-7" d="M1434.07,956.9c-3.98,0-7.2-3.22-7.2-7.2s3.22-7.21,7.2-7.21,7.2,3.22,7.2,7.21-3.22,7.2-7.2,7.2"/>
      <path class="cls-7" d="M1434.07,892.76c-3.98,0-7.2-3.22-7.2-7.2s3.22-7.21,7.2-7.21,7.2,3.22,7.2,7.21-3.22,7.2-7.2,7.2"/>
      <path class="cls-7" d="M1434.07,914.14c-3.98,0-7.2-3.22-7.2-7.2s3.22-7.21,7.2-7.21,7.2,3.22,7.2,7.21-3.22,7.2-7.2,7.2"/>
      <path class="cls-7" d="M1131.48,885.8c0-3.98,3.22-7.2,7.2-7.2s7.21,3.22,7.21,7.2-3.22,7.2-7.21,7.2-7.2-3.22-7.2-7.2"/>
      <path class="cls-7" d="M1109.86,885.8c0-3.98,3.22-7.2,7.2-7.2s7.21,3.22,7.21,7.2-3.22,7.2-7.21,7.2-7.2-3.22-7.2-7.2"/>
      <rect class="cls-7" x="854.73" y="912.23" width="60" height="44"/>
      <rect class="cls-7" x="958.73" y="912.23" width="60" height="44"/>
      <rect class="cls-7" x="1038.73" y="912.23" width="46" height="44"/>
      <rect class="cls-7" x="1104.73" y="912.23" width="46" height="44"/>
      <rect class="cls-7" x="1038.73" y="856.23" width="46" height="44"/>
      <rect class="cls-7" x="854.73" y="856.23" width="60" height="44"/>
      <rect class="cls-4" x="1242.23" y="887.73" width="53" height="66"/>
      <path class="cls-4" d="M1336.74,930.73h33.43c6.35,0,11.81,4.97,11.91,11.32.1,6.44-5.09,11.68-11.5,11.68h-33.43c-6.35,0-11.81-4.97-11.91-11.32-.1-6.44,5.09-11.68,11.5-11.68Z"/>
      <polygon class="cls-7" points="1281.73 899.23 1275.23 899.23 1268.73 899.23 1268.73 942.23 1275.23 942.23 1281.73 942.23 1281.73 899.23"/>
      <polygon class="cls-1" points="76.73 841.26 76.73 826.25 63.72 818.73 50.73 826.25 50.73 841.26 63.72 848.77 76.73 841.26"/>
      <polygon class="cls-1" points="111.73 841.26 111.73 826.25 98.72 818.73 85.73 826.25 85.73 841.26 98.72 848.77 111.73 841.26"/>
      <polygon class="cls-1" points="145.73 841.26 145.73 826.25 132.72 818.73 119.73 826.25 119.73 841.26 132.72 848.77 145.73 841.26"/>
      <polygon class="cls-1" points="179.73 841.26 179.73 826.25 166.72 818.73 153.73 826.25 153.73 841.26 166.72 848.77 179.73 841.26"/>
      <polygon class="cls-1" points="214.73 841.26 214.73 826.25 201.72 818.73 188.73 826.25 188.73 841.26 201.72 848.77 214.73 841.26"/>
      <polygon class="cls-1" points="248.73 841.26 248.73 826.25 235.72 818.73 222.73 826.25 222.73 841.26 235.72 848.77 248.73 841.26"/>
      <polygon class="cls-1" points="283.73 841.26 283.73 826.25 270.72 818.73 257.73 826.25 257.73 841.26 270.72 848.77 283.73 841.26"/>
      <polygon class="cls-1" points="317.73 841.26 317.73 826.25 304.72 818.73 291.73 826.25 291.73 841.26 304.72 848.77 317.73 841.26"/>
      <polygon class="cls-1" points="351.73 841.26 351.73 826.25 338.72 818.73 325.73 826.25 325.73 841.26 338.72 848.77 351.73 841.26"/>
      <polygon class="cls-1" points="386.73 841.26 386.73 826.25 373.72 818.73 360.73 826.25 360.73 841.26 373.72 848.77 386.73 841.26"/>
      <polygon class="cls-1" points="420.73 841.26 420.73 826.25 407.72 818.73 394.73 826.25 394.73 841.26 407.72 848.77 420.73 841.26"/>
      <polygon class="cls-1" points="454.73 841.26 454.73 826.25 441.72 818.73 428.73 826.25 428.73 841.26 441.72 848.77 454.73 841.26"/>
      <polygon class="cls-1" points="489.73 841.26 489.73 826.25 476.72 818.73 463.73 826.25 463.73 841.26 476.72 848.77 489.73 841.26"/>
      <polygon class="cls-1" points="523.73 841.26 523.73 826.25 510.72 818.73 497.73 826.25 497.73 841.26 510.72 848.77 523.73 841.26"/>
      <polygon class="cls-1" points="557.73 841.26 557.73 826.25 544.72 818.73 531.73 826.25 531.73 841.26 544.72 848.77 557.73 841.26"/>
      <polygon class="cls-1" points="592.73 841.26 592.73 826.25 579.72 818.73 566.73 826.25 566.73 841.26 579.72 848.77 592.73 841.26"/>
      <polygon class="cls-1" points="626.73 841.26 626.73 826.25 613.72 818.73 600.73 826.25 600.73 841.26 613.72 848.77 626.73 841.26"/>
      <polygon class="cls-1" points="660.73 841.26 660.73 826.25 647.72 818.73 634.73 826.25 634.73 841.26 647.72 848.77 660.73 841.26"/>
      <polygon class="cls-1" points="695.73 841.26 695.73 826.25 682.72 818.73 669.73 826.25 669.73 841.26 682.72 848.77 695.73 841.26"/>
      <polygon class="cls-1" points="729.73 841.26 729.73 826.25 716.72 818.73 703.73 826.25 703.73 841.26 716.72 848.77 729.73 841.26"/>
      <polygon class="cls-1" points="763.73 841.26 763.73 826.25 750.72 818.73 737.73 826.25 737.73 841.26 750.72 848.77 763.73 841.26"/>
      <polygon class="cls-1" points="798.73 841.26 798.73 826.25 785.72 818.73 772.73 826.25 772.73 841.26 785.72 848.77 798.73 841.26"/>
      <polygon class="cls-1" points="832.73 841.26 832.73 826.25 819.72 818.73 806.73 826.25 806.73 841.26 819.72 848.77 832.73 841.26"/>
      <polygon class="cls-1" points="867.73 841.26 867.73 826.25 854.72 818.73 841.73 826.25 841.73 841.26 854.72 848.77 867.73 841.26"/>
      <polygon class="cls-1" points="901.73 841.26 901.73 826.25 888.72 818.73 875.73 826.25 875.73 841.26 888.72 848.77 901.73 841.26"/>
      <polygon class="cls-1" points="935.73 841.26 935.73 826.25 922.72 818.73 909.73 826.25 909.73 841.26 922.72 848.77 935.73 841.26"/>
      <polygon class="cls-1" points="970.73 841.26 970.73 826.25 957.72 818.73 944.73 826.25 944.73 841.26 957.72 848.77 970.73 841.26"/>
      <polygon class="cls-1" points="1004.73 841.26 1004.73 826.25 991.72 818.73 978.73 826.25 978.73 841.26 991.72 848.77 1004.73 841.26"/>
      <polygon class="cls-1" points="59.73 812.63 59.73 797.62 46.72 790.11 33.73 797.62 33.73 812.63 46.72 820.15 59.73 812.63"/>
      <polygon class="cls-1" points="94.73 812.63 94.73 797.62 81.72 790.11 68.73 797.62 68.73 812.63 81.72 820.15 94.73 812.63"/>
      <polygon class="cls-1" points="128.73 812.63 128.73 797.62 115.72 790.11 102.73 797.62 102.73 812.63 115.72 820.15 128.73 812.63"/>
      <polygon class="cls-1" points="162.73 812.63 162.73 797.62 149.72 790.11 136.73 797.62 136.73 812.63 149.72 820.15 162.73 812.63"/>
      <polygon class="cls-1" points="197.73 812.63 197.73 797.62 184.72 790.11 171.73 797.62 171.73 812.63 184.72 820.15 197.73 812.63"/>
      <polygon class="cls-1" points="231.73 812.63 231.73 797.62 218.72 790.11 205.73 797.62 205.73 812.63 218.72 820.15 231.73 812.63"/>
      <polygon class="cls-1" points="265.73 812.63 265.73 797.62 252.72 790.11 239.73 797.62 239.73 812.63 252.72 820.15 265.73 812.63"/>
      <polygon class="cls-1" points="300.73 812.63 300.73 797.62 287.72 790.11 274.73 797.62 274.73 812.63 287.72 820.15 300.73 812.63"/>
      <polygon class="cls-1" points="334.73 812.63 334.73 797.62 321.72 790.11 308.73 797.62 308.73 812.63 321.72 820.15 334.73 812.63"/>
      <polygon class="cls-1" points="368.73 812.63 368.73 797.62 355.72 790.11 342.73 797.62 342.73 812.63 355.72 820.15 368.73 812.63"/>
      <polygon class="cls-1" points="403.73 812.63 403.73 797.62 390.72 790.11 377.73 797.62 377.73 812.63 390.72 820.15 403.73 812.63"/>
      <polygon class="cls-1" points="437.73 812.63 437.73 797.62 424.72 790.11 411.73 797.62 411.73 812.63 424.72 820.15 437.73 812.63"/>
      <polygon class="cls-1" points="471.73 812.63 471.73 797.62 458.72 790.11 445.73 797.62 445.73 812.63 458.72 820.15 471.73 812.63"/>
      <polygon class="cls-1" points="506.73 812.63 506.73 797.62 493.72 790.11 480.73 797.62 480.73 812.63 493.72 820.15 506.73 812.63"/>
      <polygon class="cls-1" points="540.73 812.63 540.73 797.62 527.72 790.11 514.73 797.62 514.73 812.63 527.72 820.15 540.73 812.63"/>
      <polygon class="cls-1" points="575.73 812.63 575.73 797.62 562.72 790.11 549.73 797.62 549.73 812.63 562.72 820.15 575.73 812.63"/>
      <polygon class="cls-1" points="609.73 812.63 609.73 797.62 596.72 790.11 583.73 797.62 583.73 812.63 596.72 820.15 609.73 812.63"/>
      <polygon class="cls-1" points="643.73 812.63 643.73 797.62 630.72 790.11 617.73 797.62 617.73 812.63 630.72 820.15 643.73 812.63"/>
      <polygon class="cls-1" points="678.73 812.63 678.73 797.62 665.72 790.11 652.73 797.62 652.73 812.63 665.72 820.15 678.73 812.63"/>
      <polygon class="cls-1" points="712.73 812.63 712.73 797.62 699.72 790.11 686.73 797.62 686.73 812.63 699.72 820.15 712.73 812.63"/>
      <polygon class="cls-1" points="746.73 812.63 746.73 797.62 733.72 790.11 720.73 797.62 720.73 812.63 733.72 820.15 746.73 812.63"/>
      <polygon class="cls-1" points="781.73 812.63 781.73 797.62 768.72 790.11 755.73 797.62 755.73 812.63 768.72 820.15 781.73 812.63"/>
      <polygon class="cls-1" points="815.73 812.63 815.73 797.62 802.72 790.11 789.73 797.62 789.73 812.63 802.72 820.15 815.73 812.63"/>
      <polygon class="cls-1" points="849.73 812.63 849.73 797.62 836.72 790.11 823.73 797.62 823.73 812.63 836.72 820.15 849.73 812.63"/>
      <polygon class="cls-1" points="884.73 812.63 884.73 797.62 871.72 790.11 858.73 797.62 858.73 812.63 871.72 820.15 884.73 812.63"/>
      <polygon class="cls-1" points="918.73 812.63 918.73 797.62 905.72 790.11 892.73 797.62 892.73 812.63 905.72 820.15 918.73 812.63"/>
      <polygon class="cls-1" points="952.73 812.63 952.73 797.62 939.72 790.11 926.73 797.62 926.73 812.63 939.72 820.15 952.73 812.63"/>
      <polygon class="cls-1" points="987.73 812.63 987.73 797.62 974.72 790.11 961.73 797.62 961.73 812.63 974.72 820.15 987.73 812.63"/>
      <polygon class="cls-1" points="1038.73 841.26 1038.73 826.25 1025.72 818.73 1012.73 826.25 1012.73 841.26 1025.72 848.77 1038.73 841.26"/>
      <polygon class="cls-1" points="1072.73 841.26 1072.73 826.25 1059.72 818.73 1046.73 826.25 1046.73 841.26 1059.72 848.77 1072.73 841.26"/>
      <polygon class="cls-1" points="1107.73 841.26 1107.73 826.25 1094.72 818.73 1081.73 826.25 1081.73 841.26 1094.72 848.77 1107.73 841.26"/>
      <polygon class="cls-1" points="1141.73 841.26 1141.73 826.25 1128.72 818.73 1115.73 826.25 1115.73 841.26 1128.72 848.77 1141.73 841.26"/>
      <polygon class="cls-1" points="1175.73 841.26 1175.73 826.25 1162.72 818.73 1149.73 826.25 1149.73 841.26 1162.72 848.77 1175.73 841.26"/>
      <polygon class="cls-1" points="1210.73 841.26 1210.73 826.25 1197.72 818.73 1184.73 826.25 1184.73 841.26 1197.72 848.77 1210.73 841.26"/>
      <polygon class="cls-1" points="1244.73 841.26 1244.73 826.25 1231.72 818.73 1218.73 826.25 1218.73 841.26 1231.72 848.77 1244.73 841.26"/>
      <polygon class="cls-1" points="1278.73 841.26 1278.73 826.25 1265.72 818.73 1252.73 826.25 1252.73 841.26 1265.72 848.77 1278.73 841.26"/>
      <polygon class="cls-1" points="1313.73 841.26 1313.73 826.25 1300.72 818.73 1287.73 826.25 1287.73 841.26 1300.72 848.77 1313.73 841.26"/>
      <polygon class="cls-1" points="1347.73 841.26 1347.73 826.25 1334.72 818.73 1321.73 826.25 1321.73 841.26 1334.72 848.77 1347.73 841.26"/>
      <polygon class="cls-1" points="1381.73 841.26 1381.73 826.25 1368.72 818.73 1355.73 826.25 1355.73 841.26 1368.72 848.77 1381.73 841.26"/>
      <polygon class="cls-1" points="1416.73 841.26 1416.73 826.25 1403.72 818.73 1390.73 826.25 1390.73 841.26 1403.72 848.77 1416.73 841.26"/>
      <polygon class="cls-1" points="1450.73 841.26 1450.73 826.25 1437.72 818.73 1424.73 826.25 1424.73 841.26 1437.72 848.77 1450.73 841.26"/>
      <polygon class="cls-1" points="1485.73 841.26 1485.73 826.25 1472.72 818.73 1459.73 826.25 1459.73 841.26 1472.72 848.77 1485.73 841.26"/>
      <polygon class="cls-1" points="1519.73 841.26 1519.73 826.25 1506.72 818.73 1493.73 826.25 1493.73 841.26 1506.72 848.77 1519.73 841.26"/>
      <polygon class="cls-1" points="1553.73 841.26 1553.73 826.25 1540.72 818.73 1527.73 826.25 1527.73 841.26 1540.72 848.77 1553.73 841.26"/>
      <polygon class="cls-1" points="1588.73 841.26 1588.73 826.25 1575.72 818.73 1562.73 826.25 1562.73 841.26 1575.72 848.77 1588.73 841.26"/>
      <polygon class="cls-1" points="1622.73 841.26 1622.73 826.25 1609.72 818.73 1596.73 826.25 1596.73 841.26 1609.72 848.77 1622.73 841.26"/>
      <polygon class="cls-1" points="1021.73 812.63 1021.73 797.62 1008.72 790.11 995.73 797.62 995.73 812.63 1008.72 820.15 1021.73 812.63"/>
      <polygon class="cls-1" points="1055.73 812.63 1055.73 797.62 1042.72 790.11 1029.73 797.62 1029.73 812.63 1042.72 820.15 1055.73 812.63"/>
      <polygon class="cls-1" points="1089.73 812.63 1089.73 797.62 1076.72 790.11 1063.73 797.62 1063.73 812.63 1076.72 820.15 1089.73 812.63"/>
      <polygon class="cls-1" points="1124.73 812.63 1124.73 797.62 1111.72 790.11 1098.73 797.62 1098.73 812.63 1111.72 820.15 1124.73 812.63"/>
      <polygon class="cls-1" points="1158.73 812.63 1158.73 797.62 1145.72 790.11 1132.73 797.62 1132.73 812.63 1145.72 820.15 1158.73 812.63"/>
      <polygon class="cls-1" points="1193.73 812.63 1193.73 797.62 1180.72 790.11 1167.73 797.62 1167.73 812.63 1180.72 820.15 1193.73 812.63"/>
      <polygon class="cls-1" points="1227.73 812.63 1227.73 797.62 1214.72 790.11 1201.73 797.62 1201.73 812.63 1214.72 820.15 1227.73 812.63"/>
      <polygon class="cls-1" points="1261.73 812.63 1261.73 797.62 1248.72 790.11 1235.73 797.62 1235.73 812.63 1248.72 820.15 1261.73 812.63"/>
      <polygon class="cls-1" points="1296.73 812.63 1296.73 797.62 1283.72 790.11 1270.73 797.62 1270.73 812.63 1283.72 820.15 1296.73 812.63"/>
      <polygon class="cls-1" points="1330.73 812.63 1330.73 797.62 1317.72 790.11 1304.73 797.62 1304.73 812.63 1317.72 820.15 1330.73 812.63"/>
      <polygon class="cls-1" points="1364.73 812.63 1364.73 797.62 1351.72 790.11 1338.73 797.62 1338.73 812.63 1351.72 820.15 1364.73 812.63"/>
      <polygon class="cls-1" points="1399.73 812.63 1399.73 797.62 1386.72 790.11 1373.73 797.62 1373.73 812.63 1386.72 820.15 1399.73 812.63"/>
      <polygon class="cls-1" points="1433.73 812.63 1433.73 797.62 1420.72 790.11 1407.73 797.62 1407.73 812.63 1420.72 820.15 1433.73 812.63"/>
      <polygon class="cls-1" points="1467.73 812.63 1467.73 797.62 1454.72 790.11 1441.73 797.62 1441.73 812.63 1454.72 820.15 1467.73 812.63"/>
      <polygon class="cls-1" points="1502.73 812.63 1502.73 797.62 1489.72 790.11 1476.73 797.62 1476.73 812.63 1489.72 820.15 1502.73 812.63"/>
      <polygon class="cls-1" points="1536.73 812.63 1536.73 797.62 1523.72 790.11 1510.73 797.62 1510.73 812.63 1523.72 820.15 1536.73 812.63"/>
      <polygon class="cls-1" points="1570.73 812.63 1570.73 797.62 1557.72 790.11 1544.73 797.62 1544.73 812.63 1557.72 820.15 1570.73 812.63"/>
      <polygon class="cls-1" points="1605.73 812.63 1605.73 797.62 1592.72 790.11 1579.73 797.62 1579.73 812.63 1592.72 820.15 1605.73 812.63"/>
      <polygon class="cls-1" points="1639.73 812.63 1639.73 797.62 1626.72 790.11 1613.73 797.62 1613.73 812.63 1626.72 820.15 1639.73 812.63"/>
      <polygon class="cls-1" points="1538.73 900.85 1538.73 885.84 1525.72 878.33 1512.73 885.84 1512.73 900.85 1525.72 908.36 1538.73 900.85"/>
      <polygon class="cls-1" points="1520.73 928.79 1520.73 913.78 1507.72 906.27 1494.73 913.78 1494.73 928.79 1507.72 936.31 1520.73 928.79"/>
      <polygon class="cls-1" points="1520.73 872.23 1520.73 857.22 1507.72 849.7 1494.73 857.22 1494.73 872.23 1507.72 879.74 1520.73 872.23"/>
      <polygon class="cls-1" points="1579.73 900.85 1579.73 885.84 1592.74 878.33 1605.73 885.84 1605.73 900.85 1592.74 908.36 1579.73 900.85"/>
      <polygon class="cls-1" points="1596.73 928.79 1596.73 913.78 1609.74 906.27 1622.73 913.78 1622.73 928.79 1609.74 936.31 1596.73 928.79"/>
      <polygon class="cls-1" points="1596.73 872.23 1596.73 857.22 1609.74 849.7 1622.73 857.22 1622.73 872.23 1609.74 879.74 1596.73 872.23"/>
      <rect class="cls-3" x="44.23" y="725.73" width="199" height="53"/>
      <polygon class="cls-7" points="161.94 739.48 154.05 731.59 146.15 739.48 150.09 743.41 130.29 763.21 138.18 771.1 146.07 763.21 142.14 759.28 161.94 739.48"/>
      <rect class="cls-7" x="118.3" y="739.85" width="28" height="11.16" transform="translate(-488.35 311.89) rotate(-45)"/>
      <rect class="cls-7" x="145.92" y="751.67" width="28" height="11.16" transform="translate(-488.62 334.87) rotate(-45)"/>
    </g>
  </g>
</svg>