<?xml version="1.0" encoding="UTF-8"?>
<svg id="firewall_secondary" xmlns="http://www.w3.org/2000/svg" viewBox="0 0 1600 300">
  <defs>
    <style>
      .cls-1 {
        stroke-width: 7.5px;
      }

      .cls-1, .cls-2, .cls-3 {
        fill: none;
      }

      .cls-1, .cls-2, .cls-3, .cls-4 {
        stroke: #888;
        stroke-miterlimit: 10;
      }

      .cls-2 {
        stroke-width: 2.5px;
      }

      .cls-3 {
        stroke-width: 5px;
      }

      .cls-5 {
        fill: #888;
      }

      .cls-5, .cls-6 {
        stroke-width: 0px;
      }

      .cls-6 {
        fill: #f04e23;
      }

      .cls-4 {
        fill: #fff;
        stroke-width: 6px;
      }
    </style>
  </defs>
  <g id="firewall-2" data-name="firewall">
    <rect class="cls-4" x="9.13" y="15.38" width="1581.73" height="268.27"/>
    <rect class="cls-3" x="35.1" y="40.38" width="191.35" height="50.96"/>
    <polygon class="cls-6" points="148.28 53.61 140.69 46.02 133.09 53.61 136.88 57.38 117.84 76.42 125.43 84.01 133.02 76.42 129.24 72.65 148.28 53.61"/>
    <rect class="cls-6" x="106.32" y="53.96" width="26.93" height="10.73" transform="translate(-6.87 102.08) rotate(-45)"/>
    <rect class="cls-6" x="132.87" y="65.33" width="26.93" height="10.73" transform="translate(-7.13 124.18) rotate(-45)"/>
  </g>
  <g id="hexes-2" data-name="hexes">
    <polygon class="cls-2" points="66.35 151.47 66.35 137.04 53.84 129.81 41.35 137.04 41.35 151.47 53.84 158.69 66.35 151.47"/>
    <polygon class="cls-2" points="100 151.47 100 137.04 87.49 129.81 75 137.04 75 151.47 87.49 158.69 100 151.47"/>
    <polygon class="cls-2" points="132.69 151.47 132.69 137.04 120.19 129.81 107.69 137.04 107.69 151.47 120.19 158.69 132.69 151.47"/>
    <polygon class="cls-2" points="165.38 151.47 165.38 137.04 152.88 129.81 140.38 137.04 140.38 151.47 152.88 158.69 165.38 151.47"/>
    <polygon class="cls-2" points="199.04 151.47 199.04 137.04 186.53 129.81 174.04 137.04 174.04 151.47 186.53 158.69 199.04 151.47"/>
    <polygon class="cls-2" points="231.73 151.47 231.73 137.04 219.22 129.81 206.73 137.04 206.73 151.47 219.22 158.69 231.73 151.47"/>
    <polygon class="cls-2" points="265.38 151.47 265.38 137.04 252.88 129.81 240.38 137.04 240.38 151.47 252.88 158.69 265.38 151.47"/>
    <polygon class="cls-2" points="298.08 151.47 298.08 137.04 285.57 129.81 273.08 137.04 273.08 151.47 285.57 158.69 298.08 151.47"/>
    <polygon class="cls-2" points="330.77 151.47 330.77 137.04 318.26 129.81 305.77 137.04 305.77 151.47 318.26 158.69 330.77 151.47"/>
    <polygon class="cls-2" points="364.42 151.47 364.42 137.04 351.92 129.81 339.42 137.04 339.42 151.47 351.92 158.69 364.42 151.47"/>
    <polygon class="cls-2" points="397.12 151.47 397.12 137.04 384.61 129.81 372.12 137.04 372.12 151.47 384.61 158.69 397.12 151.47"/>
    <polygon class="cls-2" points="429.81 151.47 429.81 137.04 417.3 129.81 404.81 137.04 404.81 151.47 417.3 158.69 429.81 151.47"/>
    <polygon class="cls-2" points="463.46 151.47 463.46 137.04 450.96 129.81 438.46 137.04 438.46 151.47 450.96 158.69 463.46 151.47"/>
    <polygon class="cls-2" points="496.15 151.47 496.15 137.04 483.65 129.81 471.15 137.04 471.15 151.47 483.65 158.69 496.15 151.47"/>
    <polygon class="cls-2" points="528.85 151.47 528.85 137.04 516.34 129.81 503.85 137.04 503.85 151.47 516.34 158.69 528.85 151.47"/>
    <polygon class="cls-2" points="562.5 151.47 562.5 137.04 549.99 129.81 537.5 137.04 537.5 151.47 549.99 158.69 562.5 151.47"/>
    <polygon class="cls-2" points="595.19 151.47 595.19 137.04 582.69 129.81 570.19 137.04 570.19 151.47 582.69 158.69 595.19 151.47"/>
    <polygon class="cls-2" points="627.88 151.47 627.88 137.04 615.38 129.81 602.88 137.04 602.88 151.47 615.38 158.69 627.88 151.47"/>
    <polygon class="cls-2" points="661.54 151.47 661.54 137.04 649.03 129.81 636.54 137.04 636.54 151.47 649.03 158.69 661.54 151.47"/>
    <polygon class="cls-2" points="694.23 151.47 694.23 137.04 681.72 129.81 669.23 137.04 669.23 151.47 681.72 158.69 694.23 151.47"/>
    <polygon class="cls-2" points="726.92 151.47 726.92 137.04 714.42 129.81 701.92 137.04 701.92 151.47 714.42 158.69 726.92 151.47"/>
    <polygon class="cls-2" points="760.58 151.47 760.58 137.04 748.07 129.81 735.58 137.04 735.58 151.47 748.07 158.69 760.58 151.47"/>
    <polygon class="cls-2" points="793.27 151.47 793.27 137.04 780.76 129.81 768.27 137.04 768.27 151.47 780.76 158.69 793.27 151.47"/>
    <polygon class="cls-2" points="826.92 151.47 826.92 137.04 814.42 129.81 801.92 137.04 801.92 151.47 814.42 158.69 826.92 151.47"/>
    <polygon class="cls-2" points="859.62 151.47 859.62 137.04 847.11 129.81 834.62 137.04 834.62 151.47 847.11 158.69 859.62 151.47"/>
    <polygon class="cls-2" points="892.31 151.47 892.31 137.04 879.8 129.81 867.31 137.04 867.31 151.47 879.8 158.69 892.31 151.47"/>
    <polygon class="cls-2" points="925.96 151.47 925.96 137.04 913.46 129.81 900.96 137.04 900.96 151.47 913.46 158.69 925.96 151.47"/>
    <polygon class="cls-2" points="958.65 151.47 958.65 137.04 946.15 129.81 933.65 137.04 933.65 151.47 946.15 158.69 958.65 151.47"/>
    <polygon class="cls-2" points="50 123.95 50 109.51 37.49 102.29 25 109.51 25 123.95 37.49 131.17 50 123.95"/>
    <polygon class="cls-2" points="83.65 123.95 83.65 109.51 71.15 102.29 58.65 109.51 58.65 123.95 71.15 131.17 83.65 123.95"/>
    <polygon class="cls-2" points="116.35 123.95 116.35 109.51 103.84 102.29 91.35 109.51 91.35 123.95 103.84 131.17 116.35 123.95"/>
    <polygon class="cls-2" points="149.04 123.95 149.04 109.51 136.53 102.29 124.04 109.51 124.04 123.95 136.53 131.17 149.04 123.95"/>
    <polygon class="cls-2" points="182.69 123.95 182.69 109.51 170.19 102.29 157.69 109.51 157.69 123.95 170.19 131.17 182.69 123.95"/>
    <polygon class="cls-2" points="215.38 123.95 215.38 109.51 202.88 102.29 190.38 109.51 190.38 123.95 202.88 131.17 215.38 123.95"/>
    <polygon class="cls-2" points="248.08 123.95 248.08 109.51 235.57 102.29 223.08 109.51 223.08 123.95 235.57 131.17 248.08 123.95"/>
    <polygon class="cls-2" points="281.73 123.95 281.73 109.51 269.22 102.29 256.73 109.51 256.73 123.95 269.22 131.17 281.73 123.95"/>
    <polygon class="cls-2" points="314.42 123.95 314.42 109.51 301.92 102.29 289.42 109.51 289.42 123.95 301.92 131.17 314.42 123.95"/>
    <polygon class="cls-2" points="347.12 123.95 347.12 109.51 334.61 102.29 322.12 109.51 322.12 123.95 334.61 131.17 347.12 123.95"/>
    <polygon class="cls-2" points="380.77 123.95 380.77 109.51 368.26 102.29 355.77 109.51 355.77 123.95 368.26 131.17 380.77 123.95"/>
    <polygon class="cls-2" points="413.46 123.95 413.46 109.51 400.96 102.29 388.46 109.51 388.46 123.95 400.96 131.17 413.46 123.95"/>
    <polygon class="cls-2" points="446.15 123.95 446.15 109.51 433.65 102.29 421.15 109.51 421.15 123.95 433.65 131.17 446.15 123.95"/>
    <polygon class="cls-2" points="479.81 123.95 479.81 109.51 467.3 102.29 454.81 109.51 454.81 123.95 467.3 131.17 479.81 123.95"/>
    <polygon class="cls-2" points="512.5 123.95 512.5 109.51 499.99 102.29 487.5 109.51 487.5 123.95 499.99 131.17 512.5 123.95"/>
    <polygon class="cls-2" points="546.15 123.95 546.15 109.51 533.65 102.29 521.15 109.51 521.15 123.95 533.65 131.17 546.15 123.95"/>
    <polygon class="cls-2" points="578.85 123.95 578.85 109.51 566.34 102.29 553.85 109.51 553.85 123.95 566.34 131.17 578.85 123.95"/>
    <polygon class="cls-2" points="611.54 123.95 611.54 109.51 599.03 102.29 586.54 109.51 586.54 123.95 599.03 131.17 611.54 123.95"/>
    <polygon class="cls-2" points="645.19 123.95 645.19 109.51 632.69 102.29 620.19 109.51 620.19 123.95 632.69 131.17 645.19 123.95"/>
    <polygon class="cls-2" points="677.88 123.95 677.88 109.51 665.38 102.29 652.88 109.51 652.88 123.95 665.38 131.17 677.88 123.95"/>
    <polygon class="cls-2" points="710.58 123.95 710.58 109.51 698.07 102.29 685.58 109.51 685.58 123.95 698.07 131.17 710.58 123.95"/>
    <polygon class="cls-2" points="744.23 123.95 744.23 109.51 731.72 102.29 719.23 109.51 719.23 123.95 731.72 131.17 744.23 123.95"/>
    <polygon class="cls-2" points="776.92 123.95 776.92 109.51 764.42 102.29 751.92 109.51 751.92 123.95 764.42 131.17 776.92 123.95"/>
    <polygon class="cls-2" points="809.62 123.95 809.62 109.51 797.11 102.29 784.62 109.51 784.62 123.95 797.11 131.17 809.62 123.95"/>
    <polygon class="cls-2" points="843.27 123.95 843.27 109.51 830.76 102.29 818.27 109.51 818.27 123.95 830.76 131.17 843.27 123.95"/>
    <polygon class="cls-2" points="875.96 123.95 875.96 109.51 863.46 102.29 850.96 109.51 850.96 123.95 863.46 131.17 875.96 123.95"/>
    <polygon class="cls-2" points="908.65 123.95 908.65 109.51 896.15 102.29 883.65 109.51 883.65 123.95 896.15 131.17 908.65 123.95"/>
    <polygon class="cls-2" points="942.31 123.95 942.31 109.51 929.8 102.29 917.31 109.51 917.31 123.95 929.8 131.17 942.31 123.95"/>
    <polygon class="cls-2" points="991.35 151.47 991.35 137.04 978.84 129.81 966.35 137.04 966.35 151.47 978.84 158.69 991.35 151.47"/>
    <polygon class="cls-2" points="1024.04 151.47 1024.04 137.04 1011.53 129.81 999.04 137.04 999.04 151.47 1011.53 158.69 1024.04 151.47"/>
    <polygon class="cls-2" points="1057.69 151.47 1057.69 137.04 1045.19 129.81 1032.69 137.04 1032.69 151.47 1045.19 158.69 1057.69 151.47"/>
    <polygon class="cls-2" points="1090.38 151.47 1090.38 137.04 1077.88 129.81 1065.38 137.04 1065.38 151.47 1077.88 158.69 1090.38 151.47"/>
    <polygon class="cls-2" points="1123.08 151.47 1123.08 137.04 1110.57 129.81 1098.08 137.04 1098.08 151.47 1110.57 158.69 1123.08 151.47"/>
    <polygon class="cls-2" points="1156.73 151.47 1156.73 137.04 1144.22 129.81 1131.73 137.04 1131.73 151.47 1144.22 158.69 1156.73 151.47"/>
    <polygon class="cls-2" points="1189.42 151.47 1189.42 137.04 1176.92 129.81 1164.42 137.04 1164.42 151.47 1176.92 158.69 1189.42 151.47"/>
    <polygon class="cls-2" points="1222.12 151.47 1222.12 137.04 1209.61 129.81 1197.12 137.04 1197.12 151.47 1209.61 158.69 1222.12 151.47"/>
    <polygon class="cls-2" points="1255.77 151.47 1255.77 137.04 1243.26 129.81 1230.77 137.04 1230.77 151.47 1243.26 158.69 1255.77 151.47"/>
    <polygon class="cls-2" points="1288.46 151.47 1288.46 137.04 1275.96 129.81 1263.46 137.04 1263.46 151.47 1275.96 158.69 1288.46 151.47"/>
    <polygon class="cls-2" points="1321.15 151.47 1321.15 137.04 1308.65 129.81 1296.15 137.04 1296.15 151.47 1308.65 158.69 1321.15 151.47"/>
    <polygon class="cls-2" points="1354.81 151.47 1354.81 137.04 1342.3 129.81 1329.81 137.04 1329.81 151.47 1342.3 158.69 1354.81 151.47"/>
    <polygon class="cls-2" points="1387.5 151.47 1387.5 137.04 1374.99 129.81 1362.5 137.04 1362.5 151.47 1374.99 158.69 1387.5 151.47"/>
    <polygon class="cls-2" points="1421.15 151.47 1421.15 137.04 1408.65 129.81 1396.15 137.04 1396.15 151.47 1408.65 158.69 1421.15 151.47"/>
    <polygon class="cls-2" points="1453.85 151.47 1453.85 137.04 1441.34 129.81 1428.85 137.04 1428.85 151.47 1441.34 158.69 1453.85 151.47"/>
    <polygon class="cls-2" points="1486.54 151.47 1486.54 137.04 1474.03 129.81 1461.54 137.04 1461.54 151.47 1474.03 158.69 1486.54 151.47"/>
    <polygon class="cls-2" points="1520.19 151.47 1520.19 137.04 1507.69 129.81 1495.19 137.04 1495.19 151.47 1507.69 158.69 1520.19 151.47"/>
    <polygon class="cls-2" points="1552.88 151.47 1552.88 137.04 1540.38 129.81 1527.88 137.04 1527.88 151.47 1540.38 158.69 1552.88 151.47"/>
    <polygon class="cls-2" points="975 123.95 975 109.51 962.49 102.29 950 109.51 950 123.95 962.49 131.17 975 123.95"/>
    <polygon class="cls-2" points="1007.69 123.95 1007.69 109.51 995.19 102.29 982.69 109.51 982.69 123.95 995.19 131.17 1007.69 123.95"/>
    <polygon class="cls-2" points="1040.38 123.95 1040.38 109.51 1027.88 102.29 1015.38 109.51 1015.38 123.95 1027.88 131.17 1040.38 123.95"/>
    <polygon class="cls-2" points="1074.04 123.95 1074.04 109.51 1061.53 102.29 1049.04 109.51 1049.04 123.95 1061.53 131.17 1074.04 123.95"/>
    <polygon class="cls-2" points="1106.73 123.95 1106.73 109.51 1094.22 102.29 1081.73 109.51 1081.73 123.95 1094.22 131.17 1106.73 123.95"/>
    <polygon class="cls-2" points="1140.38 123.95 1140.38 109.51 1127.88 102.29 1115.38 109.51 1115.38 123.95 1127.88 131.17 1140.38 123.95"/>
    <polygon class="cls-2" points="1173.08 123.95 1173.08 109.51 1160.57 102.29 1148.08 109.51 1148.08 123.95 1160.57 131.17 1173.08 123.95"/>
    <polygon class="cls-2" points="1205.77 123.95 1205.77 109.51 1193.26 102.29 1180.77 109.51 1180.77 123.95 1193.26 131.17 1205.77 123.95"/>
    <polygon class="cls-2" points="1239.42 123.95 1239.42 109.51 1226.92 102.29 1214.42 109.51 1214.42 123.95 1226.92 131.17 1239.42 123.95"/>
    <polygon class="cls-2" points="1272.12 123.95 1272.12 109.51 1259.61 102.29 1247.12 109.51 1247.12 123.95 1259.61 131.17 1272.12 123.95"/>
    <polygon class="cls-2" points="1304.81 123.95 1304.81 109.51 1292.3 102.29 1279.81 109.51 1279.81 123.95 1292.3 131.17 1304.81 123.95"/>
    <polygon class="cls-2" points="1338.46 123.95 1338.46 109.51 1325.96 102.29 1313.46 109.51 1313.46 123.95 1325.96 131.17 1338.46 123.95"/>
    <polygon class="cls-2" points="1371.15 123.95 1371.15 109.51 1358.65 102.29 1346.15 109.51 1346.15 123.95 1358.65 131.17 1371.15 123.95"/>
    <polygon class="cls-2" points="1403.85 123.95 1403.85 109.51 1391.34 102.29 1378.85 109.51 1378.85 123.95 1391.34 131.17 1403.85 123.95"/>
    <polygon class="cls-2" points="1437.5 123.95 1437.5 109.51 1424.99 102.29 1412.5 109.51 1412.5 123.95 1424.99 131.17 1437.5 123.95"/>
    <polygon class="cls-2" points="1470.19 123.95 1470.19 109.51 1457.69 102.29 1445.19 109.51 1445.19 123.95 1457.69 131.17 1470.19 123.95"/>
    <polygon class="cls-2" points="1502.88 123.95 1502.88 109.51 1490.38 102.29 1477.88 109.51 1477.88 123.95 1490.38 131.17 1502.88 123.95"/>
    <polygon class="cls-2" points="1536.54 123.95 1536.54 109.51 1524.03 102.29 1511.54 109.51 1511.54 123.95 1524.03 131.17 1536.54 123.95"/>
    <polygon class="cls-2" points="1569.23 123.95 1569.23 109.51 1556.72 102.29 1544.23 109.51 1544.23 123.95 1556.72 131.17 1569.23 123.95"/>
    <polygon class="cls-2" points="1472.12 208.77 1472.12 194.34 1459.61 187.11 1447.12 194.34 1447.12 208.77 1459.61 215.99 1472.12 208.77"/>
    <polygon class="cls-2" points="1454.81 235.64 1454.81 221.2 1442.3 213.98 1429.81 221.2 1429.81 235.64 1442.3 242.86 1454.81 235.64"/>
    <polygon class="cls-2" points="1454.81 181.25 1454.81 166.81 1442.3 159.59 1429.81 166.81 1429.81 181.25 1442.3 188.47 1454.81 181.25"/>
    <polygon class="cls-2" points="1511.54 208.77 1511.54 194.34 1524.04 187.11 1536.54 194.34 1536.54 208.77 1524.04 215.99 1511.54 208.77"/>
    <polygon class="cls-2" points="1527.88 235.64 1527.88 221.2 1540.39 213.98 1552.88 221.2 1552.88 235.64 1540.39 242.86 1527.88 235.64"/>
    <polygon class="cls-2" points="1527.88 181.25 1527.88 166.81 1540.39 159.59 1552.88 166.81 1552.88 181.25 1540.39 188.47 1527.88 181.25"/>
  </g>
  <g id="ports-2" data-name="ports">
    <polygon class="cls-5" points="1127.88 248.56 1127.88 262.98 1156.73 262.98 1156.73 248.56 1164.42 248.56 1164.42 218.75 1120.19 218.75 1120.19 248.56 1127.88 248.56"/>
    <path class="cls-5" d="M698.44,241.87c-3.83,0-6.92-3.1-6.92-6.92s3.1-6.94,6.92-6.94,6.92,3.1,6.92,6.94-3.1,6.92-6.92,6.92"/>
    <path class="cls-5" d="M698.44,262.66c-3.83,0-6.92-3.1-6.92-6.92s3.1-6.94,6.92-6.94,6.92,3.1,6.92,6.94-3.1,6.92-6.92,6.92"/>
    <path class="cls-5" d="M698.44,180.43c-3.83,0-6.92-3.1-6.92-6.92s3.1-6.94,6.92-6.94,6.92,3.1,6.92,6.94-3.1,6.92-6.92,6.92"/>
    <path class="cls-5" d="M698.44,201.23c-3.83,0-6.92-3.1-6.92-6.92s3.1-6.94,6.92-6.94,6.92,3.1,6.92,6.94-3.1,6.92-6.92,6.92"/>
    <path class="cls-5" d="M796.17,241.87c-3.83,0-6.92-3.1-6.92-6.92s3.1-6.94,6.92-6.94,6.92,3.1,6.92,6.94-3.1,6.92-6.92,6.92"/>
    <path class="cls-5" d="M796.17,262.66c-3.83,0-6.92-3.1-6.92-6.92s3.1-6.94,6.92-6.94,6.92,3.1,6.92,6.94-3.1,6.92-6.92,6.92"/>
    <path class="cls-5" d="M796.17,180.43c-3.83,0-6.92-3.1-6.92-6.92s3.1-6.94,6.92-6.94,6.92,3.1,6.92,6.94-3.1,6.92-6.92,6.92"/>
    <path class="cls-5" d="M796.17,201.23c-3.83,0-6.92-3.1-6.92-6.92s3.1-6.94,6.92-6.94,6.92,3.1,6.92,6.94-3.1,6.92-6.92,6.92"/>
    <polygon class="cls-5" points="133.65 181.25 133.65 166.83 104.81 166.83 104.81 181.25 97.12 181.25 97.12 210.1 141.35 210.1 141.35 181.25 133.65 181.25"/>
    <polygon class="cls-5" points="104.81 248.56 104.81 262.98 133.65 262.98 133.65 248.56 141.35 248.56 141.35 218.75 97.12 218.75 97.12 248.56 104.81 248.56"/>
    <polygon class="cls-5" points="80.77 181.25 80.77 166.83 51.92 166.83 51.92 181.25 44.23 181.25 44.23 210.1 88.46 210.1 88.46 181.25 80.77 181.25"/>
    <polygon class="cls-5" points="51.92 248.56 51.92 262.98 80.77 262.98 80.77 248.56 88.46 248.56 88.46 218.75 44.23 218.75 44.23 248.56 51.92 248.56"/>
    <polygon class="cls-5" points="240.38 181.25 240.38 166.83 211.54 166.83 211.54 181.25 203.85 181.25 203.85 210.1 248.08 210.1 248.08 181.25 240.38 181.25"/>
    <polygon class="cls-5" points="211.54 248.56 211.54 262.98 240.38 262.98 240.38 248.56 248.08 248.56 248.08 218.75 203.85 218.75 203.85 248.56 211.54 248.56"/>
    <polygon class="cls-5" points="187.5 181.25 187.5 166.83 158.65 166.83 158.65 181.25 150.96 181.25 150.96 210.1 195.19 210.1 195.19 181.25 187.5 181.25"/>
    <polygon class="cls-5" points="158.65 248.56 158.65 262.98 187.5 262.98 187.5 248.56 195.19 248.56 195.19 218.75 150.96 218.75 150.96 248.56 158.65 248.56"/>
    <rect class="cls-5" x="292.31" y="166.83" width="44.23" height="44.23"/>
    <rect class="cls-5" x="292.31" y="218.75" width="44.23" height="44.23"/>
    <rect class="cls-5" x="343.27" y="166.83" width="44.23" height="44.23"/>
    <rect class="cls-5" x="343.27" y="218.75" width="44.23" height="44.23"/>
    <rect class="cls-5" x="395.19" y="166.83" width="44.23" height="44.23"/>
    <rect class="cls-5" x="395.19" y="218.75" width="44.23" height="44.23"/>
    <rect class="cls-5" x="446.15" y="166.83" width="44.23" height="44.23"/>
    <rect class="cls-5" x="446.15" y="218.75" width="44.23" height="44.23"/>
    <rect class="cls-5" x="497.12" y="166.83" width="44.23" height="44.23"/>
    <rect class="cls-5" x="497.12" y="218.75" width="44.23" height="44.23"/>
    <rect class="cls-5" x="567.31" y="166.83" width="44.23" height="44.23"/>
    <rect class="cls-5" x="567.31" y="218.75" width="44.23" height="44.23"/>
    <rect class="cls-5" x="618.27" y="165.87" width="44.23" height="44.23"/>
    <rect class="cls-5" x="618.27" y="218.75" width="44.23" height="44.23"/>
    <rect class="cls-5" x="717.31" y="219.71" width="57.69" height="42.31"/>
    <rect class="cls-5" x="717.31" y="165.87" width="57.69" height="42.31"/>
    <path class="cls-5" d="M893.3,241.87c-3.83,0-6.92-3.1-6.92-6.92s3.1-6.94,6.92-6.94,6.92,3.1,6.92,6.94-3.1,6.92-6.92,6.92"/>
    <path class="cls-5" d="M893.3,262.66c-3.83,0-6.92-3.1-6.92-6.92s3.1-6.94,6.92-6.94,6.92,3.1,6.92,6.94-3.1,6.92-6.92,6.92"/>
    <path class="cls-5" d="M893.3,180.43c-3.83,0-6.92-3.1-6.92-6.92s3.1-6.94,6.92-6.94,6.92,3.1,6.92,6.94-3.1,6.92-6.92,6.92"/>
    <path class="cls-5" d="M893.3,201.23c-3.83,0-6.92-3.1-6.92-6.92s3.1-6.94,6.92-6.94,6.92,3.1,6.92,6.94-3.1,6.92-6.92,6.92"/>
    <path class="cls-5" d="M1350.17,242.11c-3.83,0-6.92-3.1-6.92-6.92s3.1-6.94,6.92-6.94,6.92,3.1,6.92,6.94-3.1,6.92-6.92,6.92"/>
    <path class="cls-5" d="M1350.17,262.66c-3.83,0-6.92-3.1-6.92-6.92s3.1-6.94,6.92-6.94,6.92,3.1,6.92,6.94-3.1,6.92-6.92,6.92"/>
    <path class="cls-5" d="M1350.17,180.43c-3.83,0-6.92-3.1-6.92-6.92s3.1-6.94,6.92-6.94,6.92,3.1,6.92,6.94-3.1,6.92-6.92,6.92"/>
    <path class="cls-5" d="M1350.17,200.99c-3.83,0-6.92-3.1-6.92-6.92s3.1-6.94,6.92-6.94,6.92,3.1,6.92,6.94-3.1,6.92-6.92,6.92"/>
    <path class="cls-5" d="M1350.17,221.55c-3.83,0-6.92-3.1-6.92-6.92s3.1-6.94,6.92-6.94,6.92,3.1,6.92,6.94-3.1,6.92-6.92,6.92"/>
    <path class="cls-5" d="M1371.48,242.11c-3.83,0-6.92-3.1-6.92-6.92s3.1-6.94,6.92-6.94,6.92,3.1,6.92,6.94-3.1,6.92-6.92,6.92"/>
    <path class="cls-5" d="M1371.48,262.66c-3.83,0-6.92-3.1-6.92-6.92s3.1-6.94,6.92-6.94,6.92,3.1,6.92,6.94-3.1,6.92-6.92,6.92"/>
    <path class="cls-5" d="M1371.48,200.99c-3.83,0-6.92-3.1-6.92-6.92s3.1-6.94,6.92-6.94,6.92,3.1,6.92,6.94-3.1,6.92-6.92,6.92"/>
    <path class="cls-5" d="M1371.48,221.55c-3.83,0-6.92-3.1-6.92-6.92s3.1-6.94,6.92-6.94,6.92,3.1,6.92,6.94-3.1,6.92-6.92,6.92"/>
    <path class="cls-5" d="M1080.53,194.29c0-3.83,3.1-6.92,6.92-6.92s6.94,3.1,6.94,6.92-3.1,6.92-6.94,6.92-6.92-3.1-6.92-6.92"/>
    <path class="cls-5" d="M1059.74,194.29c0-3.83,3.1-6.92,6.92-6.92s6.94,3.1,6.94,6.92-3.1,6.92-6.94,6.92-6.92-3.1-6.92-6.92"/>
    <rect class="cls-5" x="814.42" y="219.71" width="57.69" height="42.31"/>
    <rect class="cls-5" x="914.42" y="219.71" width="57.69" height="42.31"/>
    <rect class="cls-5" x="991.35" y="219.71" width="44.23" height="42.31"/>
    <rect class="cls-5" x="1054.81" y="219.71" width="44.23" height="42.31"/>
    <rect class="cls-5" x="991.35" y="165.87" width="44.23" height="42.31"/>
    <rect class="cls-5" x="814.42" y="165.87" width="57.69" height="42.31"/>
    <rect class="cls-1" x="1187.02" y="196.15" width="50.96" height="63.46"/>
    <path class="cls-1" d="M1277.9,237.5h32.15c6.11,0,11.36,4.78,11.45,10.88.1,6.19-4.89,11.23-11.06,11.23h-32.15c-6.11,0-11.36-4.78-11.45-10.88-.1-6.19,4.89-11.23,11.06-11.23Z"/>
    <polygon class="cls-5" points="1225 207.21 1218.75 207.21 1212.5 207.21 1212.5 248.56 1218.75 248.56 1225 248.56 1225 207.21"/>
  </g>
</svg>