<?xml version="1.0" encoding="UTF-8"?>
<svg id="firewall" xmlns="http://www.w3.org/2000/svg" viewBox="0 0 1600 300">
  <defs>
    <style>
      .cls-1 {
        stroke-width: 2.5px;
      }

      .cls-1, .cls-2, .cls-3 {
        fill: none;
      }

      .cls-1, .cls-2, .cls-3, .cls-4 {
        stroke: #000;
        stroke-miterlimit: 10;
      }

      .cls-2 {
        stroke-width: 5px;
      }

      .cls-3 {
        stroke-width: 7.5px;
      }

      .cls-5 {
        fill: #000;
      }

      .cls-5, .cls-6 {
        stroke-width: 0px;
      }

      .cls-6 {
        fill: #f04e23;
      }

      .cls-4 {
        fill: #fff;
        stroke-width: 6px;
      }
    </style>
  </defs>
  <g id="firewall_outline" data-name="firewall outline">
    <rect class="cls-4" x="9.13" y="15.87" width="1581.73" height="268.27"/>
  </g>
  <g id="hexes">
    <polygon class="cls-1" points="66.35 151.95 66.35 137.52 53.84 130.29 41.35 137.52 41.35 151.95 53.84 159.17 66.35 151.95"/>
    <polygon class="cls-1" points="100 151.95 100 137.52 87.49 130.29 75 137.52 75 151.95 87.49 159.17 100 151.95"/>
    <polygon class="cls-1" points="132.69 151.95 132.69 137.52 120.19 130.29 107.69 137.52 107.69 151.95 120.19 159.17 132.69 151.95"/>
    <polygon class="cls-1" points="165.38 151.95 165.38 137.52 152.88 130.29 140.38 137.52 140.38 151.95 152.88 159.17 165.38 151.95"/>
    <polygon class="cls-1" points="199.04 151.95 199.04 137.52 186.53 130.29 174.04 137.52 174.04 151.95 186.53 159.17 199.04 151.95"/>
    <polygon class="cls-1" points="231.73 151.95 231.73 137.52 219.22 130.29 206.73 137.52 206.73 151.95 219.22 159.17 231.73 151.95"/>
    <polygon class="cls-1" points="265.38 151.95 265.38 137.52 252.88 130.29 240.38 137.52 240.38 151.95 252.88 159.17 265.38 151.95"/>
    <polygon class="cls-1" points="298.08 151.95 298.08 137.52 285.57 130.29 273.08 137.52 273.08 151.95 285.57 159.17 298.08 151.95"/>
    <polygon class="cls-1" points="330.77 151.95 330.77 137.52 318.26 130.29 305.77 137.52 305.77 151.95 318.26 159.17 330.77 151.95"/>
    <polygon class="cls-1" points="364.42 151.95 364.42 137.52 351.92 130.29 339.42 137.52 339.42 151.95 351.92 159.17 364.42 151.95"/>
    <polygon class="cls-1" points="397.12 151.95 397.12 137.52 384.61 130.29 372.12 137.52 372.12 151.95 384.61 159.17 397.12 151.95"/>
    <polygon class="cls-1" points="429.81 151.95 429.81 137.52 417.3 130.29 404.81 137.52 404.81 151.95 417.3 159.17 429.81 151.95"/>
    <polygon class="cls-1" points="463.46 151.95 463.46 137.52 450.96 130.29 438.46 137.52 438.46 151.95 450.96 159.17 463.46 151.95"/>
    <polygon class="cls-1" points="496.15 151.95 496.15 137.52 483.65 130.29 471.15 137.52 471.15 151.95 483.65 159.17 496.15 151.95"/>
    <polygon class="cls-1" points="528.85 151.95 528.85 137.52 516.34 130.29 503.85 137.52 503.85 151.95 516.34 159.17 528.85 151.95"/>
    <polygon class="cls-1" points="562.5 151.95 562.5 137.52 549.99 130.29 537.5 137.52 537.5 151.95 549.99 159.17 562.5 151.95"/>
    <polygon class="cls-1" points="595.19 151.95 595.19 137.52 582.69 130.29 570.19 137.52 570.19 151.95 582.69 159.17 595.19 151.95"/>
    <polygon class="cls-1" points="627.88 151.95 627.88 137.52 615.38 130.29 602.88 137.52 602.88 151.95 615.38 159.17 627.88 151.95"/>
    <polygon class="cls-1" points="661.54 151.95 661.54 137.52 649.03 130.29 636.54 137.52 636.54 151.95 649.03 159.17 661.54 151.95"/>
    <polygon class="cls-1" points="694.23 151.95 694.23 137.52 681.72 130.29 669.23 137.52 669.23 151.95 681.72 159.17 694.23 151.95"/>
    <polygon class="cls-1" points="726.92 151.95 726.92 137.52 714.42 130.29 701.92 137.52 701.92 151.95 714.42 159.17 726.92 151.95"/>
    <polygon class="cls-1" points="760.58 151.95 760.58 137.52 748.07 130.29 735.58 137.52 735.58 151.95 748.07 159.17 760.58 151.95"/>
    <polygon class="cls-1" points="793.27 151.95 793.27 137.52 780.76 130.29 768.27 137.52 768.27 151.95 780.76 159.17 793.27 151.95"/>
    <polygon class="cls-1" points="826.92 151.95 826.92 137.52 814.42 130.29 801.92 137.52 801.92 151.95 814.42 159.17 826.92 151.95"/>
    <polygon class="cls-1" points="859.62 151.95 859.62 137.52 847.11 130.29 834.62 137.52 834.62 151.95 847.11 159.17 859.62 151.95"/>
    <polygon class="cls-1" points="892.31 151.95 892.31 137.52 879.8 130.29 867.31 137.52 867.31 151.95 879.8 159.17 892.31 151.95"/>
    <polygon class="cls-1" points="925.96 151.95 925.96 137.52 913.46 130.29 900.96 137.52 900.96 151.95 913.46 159.17 925.96 151.95"/>
    <polygon class="cls-1" points="958.65 151.95 958.65 137.52 946.15 130.29 933.65 137.52 933.65 151.95 946.15 159.17 958.65 151.95"/>
    <polygon class="cls-1" points="50 124.43 50 109.99 37.49 102.77 25 109.99 25 124.43 37.49 131.65 50 124.43"/>
    <polygon class="cls-1" points="83.65 124.43 83.65 109.99 71.15 102.77 58.65 109.99 58.65 124.43 71.15 131.65 83.65 124.43"/>
    <polygon class="cls-1" points="116.35 124.43 116.35 109.99 103.84 102.77 91.35 109.99 91.35 124.43 103.84 131.65 116.35 124.43"/>
    <polygon class="cls-1" points="149.04 124.43 149.04 109.99 136.53 102.77 124.04 109.99 124.04 124.43 136.53 131.65 149.04 124.43"/>
    <polygon class="cls-1" points="182.69 124.43 182.69 109.99 170.19 102.77 157.69 109.99 157.69 124.43 170.19 131.65 182.69 124.43"/>
    <polygon class="cls-1" points="215.38 124.43 215.38 109.99 202.88 102.77 190.38 109.99 190.38 124.43 202.88 131.65 215.38 124.43"/>
    <polygon class="cls-1" points="248.08 124.43 248.08 109.99 235.57 102.77 223.08 109.99 223.08 124.43 235.57 131.65 248.08 124.43"/>
    <polygon class="cls-1" points="281.73 124.43 281.73 109.99 269.22 102.77 256.73 109.99 256.73 124.43 269.22 131.65 281.73 124.43"/>
    <polygon class="cls-1" points="314.42 124.43 314.42 109.99 301.92 102.77 289.42 109.99 289.42 124.43 301.92 131.65 314.42 124.43"/>
    <polygon class="cls-1" points="347.12 124.43 347.12 109.99 334.61 102.77 322.12 109.99 322.12 124.43 334.61 131.65 347.12 124.43"/>
    <polygon class="cls-1" points="380.77 124.43 380.77 109.99 368.26 102.77 355.77 109.99 355.77 124.43 368.26 131.65 380.77 124.43"/>
    <polygon class="cls-1" points="413.46 124.43 413.46 109.99 400.96 102.77 388.46 109.99 388.46 124.43 400.96 131.65 413.46 124.43"/>
    <polygon class="cls-1" points="446.15 124.43 446.15 109.99 433.65 102.77 421.15 109.99 421.15 124.43 433.65 131.65 446.15 124.43"/>
    <polygon class="cls-1" points="479.81 124.43 479.81 109.99 467.3 102.77 454.81 109.99 454.81 124.43 467.3 131.65 479.81 124.43"/>
    <polygon class="cls-1" points="512.5 124.43 512.5 109.99 499.99 102.77 487.5 109.99 487.5 124.43 499.99 131.65 512.5 124.43"/>
    <polygon class="cls-1" points="546.15 124.43 546.15 109.99 533.65 102.77 521.15 109.99 521.15 124.43 533.65 131.65 546.15 124.43"/>
    <polygon class="cls-1" points="578.85 124.43 578.85 109.99 566.34 102.77 553.85 109.99 553.85 124.43 566.34 131.65 578.85 124.43"/>
    <polygon class="cls-1" points="611.54 124.43 611.54 109.99 599.03 102.77 586.54 109.99 586.54 124.43 599.03 131.65 611.54 124.43"/>
    <polygon class="cls-1" points="645.19 124.43 645.19 109.99 632.69 102.77 620.19 109.99 620.19 124.43 632.69 131.65 645.19 124.43"/>
    <polygon class="cls-1" points="677.88 124.43 677.88 109.99 665.38 102.77 652.88 109.99 652.88 124.43 665.38 131.65 677.88 124.43"/>
    <polygon class="cls-1" points="710.58 124.43 710.58 109.99 698.07 102.77 685.58 109.99 685.58 124.43 698.07 131.65 710.58 124.43"/>
    <polygon class="cls-1" points="744.23 124.43 744.23 109.99 731.72 102.77 719.23 109.99 719.23 124.43 731.72 131.65 744.23 124.43"/>
    <polygon class="cls-1" points="776.92 124.43 776.92 109.99 764.42 102.77 751.92 109.99 751.92 124.43 764.42 131.65 776.92 124.43"/>
    <polygon class="cls-1" points="809.62 124.43 809.62 109.99 797.11 102.77 784.62 109.99 784.62 124.43 797.11 131.65 809.62 124.43"/>
    <polygon class="cls-1" points="843.27 124.43 843.27 109.99 830.76 102.77 818.27 109.99 818.27 124.43 830.76 131.65 843.27 124.43"/>
    <polygon class="cls-1" points="875.96 124.43 875.96 109.99 863.46 102.77 850.96 109.99 850.96 124.43 863.46 131.65 875.96 124.43"/>
    <polygon class="cls-1" points="908.65 124.43 908.65 109.99 896.15 102.77 883.65 109.99 883.65 124.43 896.15 131.65 908.65 124.43"/>
    <polygon class="cls-1" points="942.31 124.43 942.31 109.99 929.8 102.77 917.31 109.99 917.31 124.43 929.8 131.65 942.31 124.43"/>
    <polygon class="cls-1" points="991.35 151.95 991.35 137.52 978.84 130.29 966.35 137.52 966.35 151.95 978.84 159.17 991.35 151.95"/>
    <polygon class="cls-1" points="1024.04 151.95 1024.04 137.52 1011.53 130.29 999.04 137.52 999.04 151.95 1011.53 159.17 1024.04 151.95"/>
    <polygon class="cls-1" points="1057.69 151.95 1057.69 137.52 1045.19 130.29 1032.69 137.52 1032.69 151.95 1045.19 159.17 1057.69 151.95"/>
    <polygon class="cls-1" points="1090.38 151.95 1090.38 137.52 1077.88 130.29 1065.38 137.52 1065.38 151.95 1077.88 159.17 1090.38 151.95"/>
    <polygon class="cls-1" points="1123.08 151.95 1123.08 137.52 1110.57 130.29 1098.08 137.52 1098.08 151.95 1110.57 159.17 1123.08 151.95"/>
    <polygon class="cls-1" points="1156.73 151.95 1156.73 137.52 1144.22 130.29 1131.73 137.52 1131.73 151.95 1144.22 159.17 1156.73 151.95"/>
    <polygon class="cls-1" points="1189.42 151.95 1189.42 137.52 1176.92 130.29 1164.42 137.52 1164.42 151.95 1176.92 159.17 1189.42 151.95"/>
    <polygon class="cls-1" points="1222.12 151.95 1222.12 137.52 1209.61 130.29 1197.12 137.52 1197.12 151.95 1209.61 159.17 1222.12 151.95"/>
    <polygon class="cls-1" points="1255.77 151.95 1255.77 137.52 1243.26 130.29 1230.77 137.52 1230.77 151.95 1243.26 159.17 1255.77 151.95"/>
    <polygon class="cls-1" points="1288.46 151.95 1288.46 137.52 1275.96 130.29 1263.46 137.52 1263.46 151.95 1275.96 159.17 1288.46 151.95"/>
    <polygon class="cls-1" points="1321.15 151.95 1321.15 137.52 1308.65 130.29 1296.15 137.52 1296.15 151.95 1308.65 159.17 1321.15 151.95"/>
    <polygon class="cls-1" points="1354.81 151.95 1354.81 137.52 1342.3 130.29 1329.81 137.52 1329.81 151.95 1342.3 159.17 1354.81 151.95"/>
    <polygon class="cls-1" points="1387.5 151.95 1387.5 137.52 1374.99 130.29 1362.5 137.52 1362.5 151.95 1374.99 159.17 1387.5 151.95"/>
    <polygon class="cls-1" points="1421.15 151.95 1421.15 137.52 1408.65 130.29 1396.15 137.52 1396.15 151.95 1408.65 159.17 1421.15 151.95"/>
    <polygon class="cls-1" points="1453.85 151.95 1453.85 137.52 1441.34 130.29 1428.85 137.52 1428.85 151.95 1441.34 159.17 1453.85 151.95"/>
    <polygon class="cls-1" points="1486.54 151.95 1486.54 137.52 1474.03 130.29 1461.54 137.52 1461.54 151.95 1474.03 159.17 1486.54 151.95"/>
    <polygon class="cls-1" points="1520.19 151.95 1520.19 137.52 1507.69 130.29 1495.19 137.52 1495.19 151.95 1507.69 159.17 1520.19 151.95"/>
    <polygon class="cls-1" points="1552.88 151.95 1552.88 137.52 1540.38 130.29 1527.88 137.52 1527.88 151.95 1540.38 159.17 1552.88 151.95"/>
    <polygon class="cls-1" points="975 124.43 975 109.99 962.49 102.77 950 109.99 950 124.43 962.49 131.65 975 124.43"/>
    <polygon class="cls-1" points="1007.69 124.43 1007.69 109.99 995.19 102.77 982.69 109.99 982.69 124.43 995.19 131.65 1007.69 124.43"/>
    <polygon class="cls-1" points="1040.38 124.43 1040.38 109.99 1027.88 102.77 1015.38 109.99 1015.38 124.43 1027.88 131.65 1040.38 124.43"/>
    <polygon class="cls-1" points="1074.04 124.43 1074.04 109.99 1061.53 102.77 1049.04 109.99 1049.04 124.43 1061.53 131.65 1074.04 124.43"/>
    <polygon class="cls-1" points="1106.73 124.43 1106.73 109.99 1094.22 102.77 1081.73 109.99 1081.73 124.43 1094.22 131.65 1106.73 124.43"/>
    <polygon class="cls-1" points="1140.38 124.43 1140.38 109.99 1127.88 102.77 1115.38 109.99 1115.38 124.43 1127.88 131.65 1140.38 124.43"/>
    <polygon class="cls-1" points="1173.08 124.43 1173.08 109.99 1160.57 102.77 1148.08 109.99 1148.08 124.43 1160.57 131.65 1173.08 124.43"/>
    <polygon class="cls-1" points="1205.77 124.43 1205.77 109.99 1193.26 102.77 1180.77 109.99 1180.77 124.43 1193.26 131.65 1205.77 124.43"/>
    <polygon class="cls-1" points="1239.42 124.43 1239.42 109.99 1226.92 102.77 1214.42 109.99 1214.42 124.43 1226.92 131.65 1239.42 124.43"/>
    <polygon class="cls-1" points="1272.12 124.43 1272.12 109.99 1259.61 102.77 1247.12 109.99 1247.12 124.43 1259.61 131.65 1272.12 124.43"/>
    <polygon class="cls-1" points="1304.81 124.43 1304.81 109.99 1292.3 102.77 1279.81 109.99 1279.81 124.43 1292.3 131.65 1304.81 124.43"/>
    <polygon class="cls-1" points="1338.46 124.43 1338.46 109.99 1325.96 102.77 1313.46 109.99 1313.46 124.43 1325.96 131.65 1338.46 124.43"/>
    <polygon class="cls-1" points="1371.15 124.43 1371.15 109.99 1358.65 102.77 1346.15 109.99 1346.15 124.43 1358.65 131.65 1371.15 124.43"/>
    <polygon class="cls-1" points="1403.85 124.43 1403.85 109.99 1391.34 102.77 1378.85 109.99 1378.85 124.43 1391.34 131.65 1403.85 124.43"/>
    <polygon class="cls-1" points="1437.5 124.43 1437.5 109.99 1424.99 102.77 1412.5 109.99 1412.5 124.43 1424.99 131.65 1437.5 124.43"/>
    <polygon class="cls-1" points="1470.19 124.43 1470.19 109.99 1457.69 102.77 1445.19 109.99 1445.19 124.43 1457.69 131.65 1470.19 124.43"/>
    <polygon class="cls-1" points="1502.88 124.43 1502.88 109.99 1490.38 102.77 1477.88 109.99 1477.88 124.43 1490.38 131.65 1502.88 124.43"/>
    <polygon class="cls-1" points="1536.54 124.43 1536.54 109.99 1524.03 102.77 1511.54 109.99 1511.54 124.43 1524.03 131.65 1536.54 124.43"/>
    <polygon class="cls-1" points="1569.23 124.43 1569.23 109.99 1556.72 102.77 1544.23 109.99 1544.23 124.43 1556.72 131.65 1569.23 124.43"/>
    <polygon class="cls-1" points="1472.12 209.25 1472.12 194.82 1459.61 187.59 1447.12 194.82 1447.12 209.25 1459.61 216.47 1472.12 209.25"/>
    <polygon class="cls-1" points="1454.81 236.12 1454.81 221.68 1442.3 214.46 1429.81 221.68 1429.81 236.12 1442.3 243.34 1454.81 236.12"/>
    <polygon class="cls-1" points="1454.81 181.73 1454.81 167.29 1442.3 160.07 1429.81 167.29 1429.81 181.73 1442.3 188.95 1454.81 181.73"/>
    <polygon class="cls-1" points="1511.54 209.25 1511.54 194.82 1524.04 187.59 1536.54 194.82 1536.54 209.25 1524.04 216.47 1511.54 209.25"/>
    <polygon class="cls-1" points="1527.88 236.12 1527.88 221.68 1540.39 214.46 1552.88 221.68 1552.88 236.12 1540.39 243.34 1527.88 236.12"/>
    <polygon class="cls-1" points="1527.88 181.73 1527.88 167.29 1540.39 160.07 1552.88 167.29 1552.88 181.73 1540.39 188.95 1527.88 181.73"/>
  </g>
  <g id="ports">
    <polygon class="cls-5" points="1127.88 249.04 1127.88 263.46 1156.73 263.46 1156.73 249.04 1164.42 249.04 1164.42 219.23 1120.19 219.23 1120.19 249.04 1127.88 249.04"/>
    <path class="cls-5" d="M698.44,242.35c-3.83,0-6.92-3.1-6.92-6.92s3.1-6.94,6.92-6.94,6.92,3.1,6.92,6.94-3.1,6.92-6.92,6.92"/>
    <path class="cls-5" d="M698.44,263.14c-3.83,0-6.92-3.1-6.92-6.92s3.1-6.94,6.92-6.94,6.92,3.1,6.92,6.94-3.1,6.92-6.92,6.92"/>
    <path class="cls-5" d="M698.44,180.91c-3.83,0-6.92-3.1-6.92-6.92s3.1-6.94,6.92-6.94,6.92,3.1,6.92,6.94-3.1,6.92-6.92,6.92"/>
    <path class="cls-5" d="M698.44,201.71c-3.83,0-6.92-3.1-6.92-6.92s3.1-6.94,6.92-6.94,6.92,3.1,6.92,6.94-3.1,6.92-6.92,6.92"/>
    <path class="cls-5" d="M796.17,242.35c-3.83,0-6.92-3.1-6.92-6.92s3.1-6.94,6.92-6.94,6.92,3.1,6.92,6.94-3.1,6.92-6.92,6.92"/>
    <path class="cls-5" d="M796.17,263.14c-3.83,0-6.92-3.1-6.92-6.92s3.1-6.94,6.92-6.94,6.92,3.1,6.92,6.94-3.1,6.92-6.92,6.92"/>
    <path class="cls-5" d="M796.17,180.91c-3.83,0-6.92-3.1-6.92-6.92s3.1-6.94,6.92-6.94,6.92,3.1,6.92,6.94-3.1,6.92-6.92,6.92"/>
    <path class="cls-5" d="M796.17,201.71c-3.83,0-6.92-3.1-6.92-6.92s3.1-6.94,6.92-6.94,6.92,3.1,6.92,6.94-3.1,6.92-6.92,6.92"/>
    <polygon class="cls-5" points="133.65 181.73 133.65 167.31 104.81 167.31 104.81 181.73 97.12 181.73 97.12 210.58 141.35 210.58 141.35 181.73 133.65 181.73"/>
    <polygon class="cls-5" points="104.81 249.04 104.81 263.46 133.65 263.46 133.65 249.04 141.35 249.04 141.35 219.23 97.12 219.23 97.12 249.04 104.81 249.04"/>
    <polygon class="cls-5" points="80.77 181.73 80.77 167.31 51.92 167.31 51.92 181.73 44.23 181.73 44.23 210.58 88.46 210.58 88.46 181.73 80.77 181.73"/>
    <polygon class="cls-5" points="51.92 249.04 51.92 263.46 80.77 263.46 80.77 249.04 88.46 249.04 88.46 219.23 44.23 219.23 44.23 249.04 51.92 249.04"/>
    <polygon class="cls-5" points="240.38 181.73 240.38 167.31 211.54 167.31 211.54 181.73 203.85 181.73 203.85 210.58 248.08 210.58 248.08 181.73 240.38 181.73"/>
    <polygon class="cls-5" points="211.54 249.04 211.54 263.46 240.38 263.46 240.38 249.04 248.08 249.04 248.08 219.23 203.85 219.23 203.85 249.04 211.54 249.04"/>
    <polygon class="cls-5" points="187.5 181.73 187.5 167.31 158.65 167.31 158.65 181.73 150.96 181.73 150.96 210.58 195.19 210.58 195.19 181.73 187.5 181.73"/>
    <polygon class="cls-5" points="158.65 249.04 158.65 263.46 187.5 263.46 187.5 249.04 195.19 249.04 195.19 219.23 150.96 219.23 150.96 249.04 158.65 249.04"/>
    <rect class="cls-5" x="292.31" y="167.31" width="44.23" height="44.23"/>
    <rect class="cls-5" x="292.31" y="219.23" width="44.23" height="44.23"/>
    <rect class="cls-5" x="343.27" y="167.31" width="44.23" height="44.23"/>
    <rect class="cls-5" x="343.27" y="219.23" width="44.23" height="44.23"/>
    <rect class="cls-5" x="395.19" y="167.31" width="44.23" height="44.23"/>
    <rect class="cls-5" x="395.19" y="219.23" width="44.23" height="44.23"/>
    <rect class="cls-5" x="446.15" y="167.31" width="44.23" height="44.23"/>
    <rect class="cls-5" x="446.15" y="219.23" width="44.23" height="44.23"/>
    <rect class="cls-5" x="497.12" y="167.31" width="44.23" height="44.23"/>
    <rect class="cls-5" x="497.12" y="219.23" width="44.23" height="44.23"/>
    <rect class="cls-5" x="567.31" y="167.31" width="44.23" height="44.23"/>
    <rect class="cls-5" x="567.31" y="219.23" width="44.23" height="44.23"/>
    <rect class="cls-5" x="618.27" y="166.35" width="44.23" height="44.23"/>
    <rect class="cls-5" x="618.27" y="219.23" width="44.23" height="44.23"/>
    <rect class="cls-5" x="717.31" y="220.19" width="57.69" height="42.31"/>
    <rect class="cls-5" x="717.31" y="166.35" width="57.69" height="42.31"/>
    <path class="cls-5" d="M893.3,242.35c-3.83,0-6.92-3.1-6.92-6.92s3.1-6.94,6.92-6.94,6.92,3.1,6.92,6.94-3.1,6.92-6.92,6.92"/>
    <path class="cls-5" d="M893.3,263.14c-3.83,0-6.92-3.1-6.92-6.92s3.1-6.94,6.92-6.94,6.92,3.1,6.92,6.94-3.1,6.92-6.92,6.92"/>
    <path class="cls-5" d="M893.3,180.91c-3.83,0-6.92-3.1-6.92-6.92s3.1-6.94,6.92-6.94,6.92,3.1,6.92,6.94-3.1,6.92-6.92,6.92"/>
    <path class="cls-5" d="M893.3,201.71c-3.83,0-6.92-3.1-6.92-6.92s3.1-6.94,6.92-6.94,6.92,3.1,6.92,6.94-3.1,6.92-6.92,6.92"/>
    <path class="cls-5" d="M1350.17,242.59c-3.83,0-6.92-3.1-6.92-6.92s3.1-6.94,6.92-6.94,6.92,3.1,6.92,6.94-3.1,6.92-6.92,6.92"/>
    <path class="cls-5" d="M1350.17,263.14c-3.83,0-6.92-3.1-6.92-6.92s3.1-6.94,6.92-6.94,6.92,3.1,6.92,6.94-3.1,6.92-6.92,6.92"/>
    <path class="cls-5" d="M1350.17,180.91c-3.83,0-6.92-3.1-6.92-6.92s3.1-6.94,6.92-6.94,6.92,3.1,6.92,6.94-3.1,6.92-6.92,6.92"/>
    <path class="cls-5" d="M1350.17,201.47c-3.83,0-6.92-3.1-6.92-6.92s3.1-6.94,6.92-6.94,6.92,3.1,6.92,6.94-3.1,6.92-6.92,6.92"/>
    <path class="cls-5" d="M1350.17,222.03c-3.83,0-6.92-3.1-6.92-6.92s3.1-6.94,6.92-6.94,6.92,3.1,6.92,6.94-3.1,6.92-6.92,6.92"/>
    <path class="cls-5" d="M1371.48,242.59c-3.83,0-6.92-3.1-6.92-6.92s3.1-6.94,6.92-6.94,6.92,3.1,6.92,6.94-3.1,6.92-6.92,6.92"/>
    <path class="cls-5" d="M1371.48,263.14c-3.83,0-6.92-3.1-6.92-6.92s3.1-6.94,6.92-6.94,6.92,3.1,6.92,6.94-3.1,6.92-6.92,6.92"/>
    <path class="cls-5" d="M1371.48,201.47c-3.83,0-6.92-3.1-6.92-6.92s3.1-6.94,6.92-6.94,6.92,3.1,6.92,6.94-3.1,6.92-6.92,6.92"/>
    <path class="cls-5" d="M1371.48,222.03c-3.83,0-6.92-3.1-6.92-6.92s3.1-6.94,6.92-6.94,6.92,3.1,6.92,6.94-3.1,6.92-6.92,6.92"/>
    <path class="cls-5" d="M1080.53,194.78c0-3.83,3.1-6.92,6.92-6.92s6.94,3.1,6.94,6.92-3.1,6.92-6.94,6.92-6.92-3.1-6.92-6.92"/>
    <path class="cls-5" d="M1059.74,194.78c0-3.83,3.1-6.92,6.92-6.92s6.94,3.1,6.94,6.92-3.1,6.92-6.94,6.92-6.92-3.1-6.92-6.92"/>
    <rect class="cls-5" x="814.42" y="220.19" width="57.69" height="42.31"/>
    <rect class="cls-5" x="914.42" y="220.19" width="57.69" height="42.31"/>
    <rect class="cls-5" x="991.35" y="220.19" width="44.23" height="42.31"/>
    <rect class="cls-5" x="1054.81" y="220.19" width="44.23" height="42.31"/>
    <rect class="cls-5" x="991.35" y="166.35" width="44.23" height="42.31"/>
    <rect class="cls-5" x="814.42" y="166.35" width="57.69" height="42.31"/>
    <rect class="cls-3" x="1187.02" y="196.63" width="50.96" height="63.46"/>
    <path class="cls-3" d="M1277.9,237.98h32.15c6.11,0,11.36,4.78,11.45,10.88s-4.89,11.23-11.06,11.23h-32.15c-6.11,0-11.36-4.78-11.45-10.88-.1-6.19,4.89-11.23,11.06-11.23Z"/>
    <polygon class="cls-5" points="1225 207.69 1218.75 207.69 1212.5 207.69 1212.5 249.04 1218.75 249.04 1225 249.04 1225 207.69"/>
  </g>
  <g id="logo">
    <rect class="cls-2" x="35.1" y="40.87" width="191.35" height="50.96"/>
    <polygon class="cls-6" points="148.28 54.09 140.69 46.5 133.09 54.09 136.88 57.86 117.84 76.9 125.43 84.49 133.02 76.9 129.24 73.13 148.28 54.09"/>
    <rect class="cls-6" x="106.32" y="54.44" width="26.93" height="10.73" transform="translate(-7.21 102.22) rotate(-45)"/>
    <rect class="cls-6" x="132.87" y="65.81" width="26.93" height="10.73" transform="translate(-7.47 124.32) rotate(-45)"/>
  </g>
</svg>