<?xml version="1.0" encoding="UTF-8"?>
<svg id="laptop" xmlns="http://www.w3.org/2000/svg" viewBox="0 0 2380 1086">
  <defs>
    <style>
      .cls-1 {
        fill: #333;
      }

      .cls-1, .cls-2, .cls-3, .cls-4, .cls-5, .cls-6, .cls-7, .cls-8 {
        stroke-width: 0px;
      }

      .cls-2 {
        fill: #badff1;
      }

      .cls-3 {
        fill: #aaa;
      }

      .cls-4 {
        fill: #fff;
        opacity: .11;
      }

      .cls-5 {
        fill: #97d1e9;
      }

      .cls-6 {
        fill: #010101;
      }

      .cls-7 {
        fill: #353535;
      }

      .cls-9 {
        opacity: .5;
      }

      .cls-8 {
        fill: #303030;
      }
    </style>
  </defs>
  <path class="cls-7" d="M864.72,1029.56h365.44v21.42c0,3.86-3.14,7-7,7h-351.44c-3.86,0-7-3.14-7-7v-21.42h0Z"/>
  <g>
    <path class="cls-2" d="M2302.94,776.36v-92.99h-253.15v402.97h198.9c29.96,0,54.25-24.28,54.25-54.25v-43.91h77.49v-211.82h-77.49ZM2344.27,952.01h-41.33v-139.49h41.33v139.49Z"/>
    <rect class="cls-5" x="2050.1" y="683.67" width="122.66" height="402.74"/>
  </g>
  <path class="cls-6" d="M215.39-.01h1681.62c6.62,0,12,5.38,12,12v1019.35H203.64V11.74C203.64,5.25,208.9-.01,215.39-.01Z"/>
  <polyline class="cls-8" points="1600.63 978.55 272.66 978.55 272.66 85.26 398.33 85.26"/>
  <polyline class="cls-1" points="398.33 85.26 1839.98 85.26 1839.98 978.55 1600.63 978.55"/>
  <path class="cls-3" d="M-.14,1029.56h2111.42v42.85c0,7.73-6.27,14-14,14H13.86c-7.73,0-14-6.27-14-14v-42.85H-.14Z"/>
  <g class="cls-9">
    <path class="cls-4" d="M2202.06,713.97c2.32-.15,4.64-.37,6.95-.65,5.03-1.16,9.72-3.13,14.08-5.91,7.04-4.42,13.13-10.89,16.95-18.28,5.23-10.1,6.05-20.39,3.48-31.33-2.69-11.46-8.38-20.8-16.36-29.41-5.68-6.13-12.24-11.27-19.65-15.12-7.13-3.7-15.72-4.91-23.65-5.06-8.2-.15-16.51,1.11-24.52-1.12-11.1-3.1-19.76-11.44-24.09-22.49.5,2.24,1,4.48,1.5,6.72-.75-4.25-1.51-8.5-2.26-12.75.27,2.86.55,5.73.82,8.59-.03-4.22-.05-8.44-.08-12.66-.12,2.27-.23,4.55-.35,6.82.6-4.15,1.19-8.29,1.79-12.44-.43,2.24-.85,4.49-1.28,6.73,3.48-9.78,7.08-19.52,10.8-29.22,1.58-4.8,4.03-9.15,7.34-13.04-1.73,1.89-3.46,3.78-5.19,5.66,2.53-2.35,5.05-4.7,7.58-7.05-1.99,1.64-3.99,3.27-5.98,4.91,4.41-1.83,8.81-3.65,13.22-5.48,3.62-.3,7.09.14,10.41,1.33,2.4.76,4.52,1.73,6.7,3.01,2.43,1.42,5.41,2.66,8.13,3.38.2.05,3.28.94,2.27-.31-8.59-10.7-25.37-16.67-36.91-7.17-4.32,3.56-8.18,7.71-10.58,12.84-2.91,6.23-4.11,13.39-6.21,19.89.87-2.15,1.75-4.31,2.62-6.46-3.74,8.19-7.09,15.97-6.22,25.1.43,4.55,1.52,9.01,3.76,13,6.42,11.43,19.7,18.57,32.57,19.88,9.06.93,18.01.46,26.92,2.81,4.62.83,8.63,3.01,12.04,6.54,5.66,2.57,10.21,6.4,13.65,11.5,3.2,4.32,6.12,8.98,8.25,13.93,4.72,10.99,4.05,26.08-3.17,35.88-2.77,3.76-6.12,7.09-9.8,9.95-7.06,5.47-15.53,7.66-24.36,7.92-1.91.06,2.12,3.89,2.47,4.27,1.3,1.36,4.2,5.47,6.37,5.27Z"/>
    <path class="cls-4" d="M2202.54,723.25c5.68-.65,9.59-1.22,14.84-3.33,7.93-3.17,14.98-9.28,20.29-15.89,2.8-3.8,4.88-7.94,6.27-12.41,1.93-4.38,3.02-8.99,3.26-13.83.06-6.93-1.45-14.41-3.82-20.84-5.66-15.34-17.85-28.14-31.59-36.64-7.03-4.35-14.83-6.91-23.12-7.48-10.38-.72-21.84,2.03-31.89-1.34-5.47-1.83-11.44-4.95-15.19-9.47-2.64-6.52-5.29-13.04-7.93-19.56.43-3.97,1.49-7.77,3.19-11.38,2.42-5.39,5.97-10.29,8.31-15.67.72-1.77,1.44-3.54,2.16-5.31,1.3-5.57,5.02-9,11.17-10.31,4.01-5.15,8.67-6.63,13.96-4.44,2.37.51,4.53,1.45,6.48,2.82,3.6,2.21,6.47,4.86,8.98,8.24.63.85,5.82,2.74,4.38.57-8.05-12.11-25.3-20.17-38.24-10.58-4.57,3.38-6.45,8.54-8.64,13.58-5.39,12.47-17.34,26.78-12.25,41.41,2.43,6.96,6.7,12.22,12.62,16.67,2.63,1.97,4.6,3.21,7.67,4.29,5.74,2.01,11.29,2.51,17.33,2.18,5.91-.37,11.82-.46,17.75-.29,16.98,2.89,30.22,10.45,39.7,22.69,3.23,3.54,5.99,7.43,8.28,11.67,4.01,6.92,5.3,14.4,3.88,22.42,2.04,7.71.97,14.8-3.2,21.27-1.73,4.07-4.31,7.42-7.74,10.05-8.96,8.15-18.67,12.7-30.81,14.34-1.88.26,2.63,6.72,3.89,6.58Z"/>
    <path class="cls-4" d="M2196.57,707.85c4.88.18,9.59-.61,14.13-2.39,3.63-1.36,6.94-3.26,9.92-5.69,6.76-4.92,11.25-10.69,14.45-18.41,1.84-3.78,2.94-7.79,3.31-12.02.03-5.84-.91-11.52-2.82-17.04-3.01-8.44-7.73-15.37-13.81-21.98-4.95-5.38-11.38-11.13-18.07-14.35-6.28-3.02-13.24-3.84-20.09-4.2-6.04-.32-12.07.39-18.08-.43-6.94-.95-12.77-4.58-18.45-8.36.26.19.52.37.77.56-6.59-5.29-9.56-8.98-13.33-17.38,1.55,5.11,3.1,10.22,4.65,15.33-1.7-6.22-3.41-12.43-5.11-18.65,1.41,8.65,2.82,17.29,4.23,25.94-1.12-13.32-2.24-26.64-3.36-39.97-.52,9.64-1.03,19.28-1.55,28.92,1.1-10.51,2.2-21.01,3.29-31.52-1.49,8.49-2.99,16.98-4.48,25.47,2.34-18.74,7.18-36.7,14.52-53.85-1.34,2.3-2.67,4.61-4.01,6.91,1.78-2.8,3.55-5.6,5.33-8.4-5.26,6.81-10.52,13.62-15.78,20.44,8.47-9.27,16.95-18.53,25.42-27.8-7.02,6.22-14.03,12.43-21.05,18.65,7.92-5.9,15.84-11.81,23.76-17.71-7.61,4.88-15.22,9.76-22.83,14.65,10.6-4.64,21.21-9.28,31.81-13.92-8.53,2.65-17.07,5.29-25.6,7.94,13.95,2.73,27.34,2.12,40.17-1.82-.49-.51-1.1-.8-1.81-.88-1.9-.63-3.85-1.08-5.85-1.36-4.51-.89-9.03-1.72-13.57-2.5-1.59-.25-3.18-.49-4.78-.74-13.44-1.44-22.8,7.51-28.09,26.87-.45,2.11-.79,4.29-1.02,6.43-1.74,15.84-.08,33.84,9.1,47.35,6.19,9.11,15.27,15.67,25.36,19.86,4.37,1.82,9.16,3.64,13.58,5.27,4.33,1.6,8.71,2.36,13.19,3.28,3.93.81,6.99,2.3,9.77,5.22,1.24,1.05,2.18,2.33,2.81,3.83.31,2.25,1.35,4.1,3.1,5.53.5,1.06,1,2.12,1.5,3.17.02,2.47.75,4.7,2.17,6.7.6,1.8.45,3.48-.45,5.05-.75,1.72-1.33,3.5-1.76,5.34-1.88,3.83-6.37,6.46-9.94,8.6-6.46,3.88-14.74,3.69-21.92,3.13.25,1.07.83,1.96,1.75,2.68,2.7,2.86,5.46,5.65,8.27,8.39,2.78,2.77,5.63,5.48,8.53,8.13.73.91,1.63,1.47,2.7,1.71Z"/>
    <path class="cls-4" d="M2197.02,712.55c4.85.17,9.52-.68,14-2.53,4.85-2.02,9.24-4.78,13.16-8.28,5.98-5.65,10.42-12.42,12.75-20.4,2.49-8.5,1.66-17.36-1.05-25.71-3.23-9.96-9.46-18.16-16.72-25.53-6.24-6.34-13.59-12.07-22.3-14.51-6.63-1.86-13.48-2.52-20.36-2.5-4.01.35-8.01.31-12.01-.1-3.81-1.15-7.62-2.3-11.43-3.45-7.28-3.41-12.77-8.79-17.38-15.34.84,1.59,1.68,3.18,2.53,4.77-1.38-2.9-2.75-5.8-4.13-8.71,1.48,4.41,2.97,8.82,4.45,13.23-1.92-6.36-3.83-12.72-5.75-19.08,1.13,5.58,2.26,11.17,3.4,16.75-1.11-7.5-2.21-15-3.32-22.5.41,5.59.82,11.18,1.24,16.77-.05-7.46-.1-14.92-.16-22.38-.33,5.58-.65,11.17-.98,16.75l2.74-22.02c-1,5.37-2,10.74-3,16.11,2.97-14.97,7.39-29.48,13.24-43.54-.87,1.46-1.75,2.93-2.62,4.39,1.5-2.23,3-4.47,4.49-6.7-2.83,3.36-5.65,6.72-8.48,10.08,4-4.39,8-8.79,12.01-13.18-4.02,3.79-8.04,7.57-12.06,11.36,5.55-4.56,11.09-9.12,16.64-13.68-4.48,3.27-8.96,6.55-13.44,9.82,6.03-3.61,12.07-7.21,18.1-10.82-4.8,2.49-9.6,4.98-14.4,7.46,6.38-2.48,12.76-4.95,19.14-7.43-5.12,1.71-10.25,3.41-15.37,5.12,6.65-1.42,13.31-2.85,19.96-4.27-5.99.92-11.98,1.84-17.97,2.77,8.45.12,16.9.24,25.35.36-5.38-.68-10.76-1.35-16.14-2.03,7.4,2.64,14.94,4.7,22.61,6.19.81.02.9-.23.28-.75-1.5-.94-3.09-1.69-4.78-2.24-7.18-2.56-6.28-2.53,2.71.1-1.53-.76-3.15-1.32-4.83-1.67-2.36-.66-4.74-1.28-7.12-1.85-2.25-.56-5.81-2.24-8.05-1.2-13.66,6.32-14.16,3.94-19.96,11.62-2.56,3.39-5.55,7.12-7.59,10.87-1.96,3.62-2.07,8.63-2.39,12.62-.5,6.15-1.28,12.99-.27,19.12.73,4.46,1.63,8.91,2.7,13.3.83,3.41,2.62,6.37,4.61,9.25,6.18,8.93,16.61,13.92,26.61,17.22,4.2,1.39,8.39,2.73,12.79,3.37,3.9.57,7.87.56,11.72,1.41,3.76.83,7.29,2.08,10.64,3.97,4.65,4.45,8.78,9.32,12.4,14.6.78,1.59,1.56,3.17,2.34,4.76.65,2.55,1.38,5.08,2.18,7.59.93,2.27,1.2,4.65.79,7.13-.56,4.15-3.02,10.63-5.96,13.66-3.72,3.82-8.59,7.54-13.64,9.25-5.82,1.97-11.33,2.29-17.43,1.9.02.92.39,1.72,1.11,2.4,1.94,2.56,3.94,5.06,6,7.52,2.03,2.48,4.12,4.91,6.28,7.29.53.83,1.25,1.34,2.15,1.53Z"/>
    <path class="cls-4" d="M2203,712.99c4.72-.02,9.24-1.01,13.53-2.98,2.44-1.24,4.86-2.51,7.26-3.81,4.78-3.14,9.43-7,12.93-11.53,6.65-8.62,10.18-19.37,9.53-30.18-.71-12.01-4.99-22.77-12.3-32.31-5.67-7.41-12.48-13.69-20.23-18.82-9.13-6.05-19.6-8.48-30.46-8.5-8.13-.02-16.4,1.31-24.35-.98-10.95-3.16-19.62-11.58-23.76-22.52.48,2.22.96,4.44,1.43,6.66-.6-3.66-1.21-7.32-1.81-10.98.17,2.25.34,4.51.51,6.76.01-4.2.03-8.41.04-12.61-.1,2.25-.2,4.49-.3,6.74,1.71-11.16,9.77-32.4,16.28-44.19-1.38,1.95-2.75,3.91-4.13,5.86,2.02-2.64,4.03-5.29,6.05-7.93-1.6,1.78-3.19,3.57-4.79,5.35,3.05-2.41,6.1-4.81,9.15-7.22-.81.41-1.61.83-2.42,1.24,12.98-3.97,20.35-1.63,29.63,5.1,1.37.99,4.2,1.56,5.85,1.72.3.03,2.43.29,1.64-.73-7.8-9.99-22.75-17.56-34.96-10.68-3.82,2.15-6.75,5.47-9.36,8.94-5.32,7.08-6.75,15.79-9.78,23.92.87-2.08,1.75-4.15,2.62-6.23-3.91,7.56-8.04,15.33-7.64,24.13.19,4.23.84,8.86,2.31,12.84,4.47,12.14,18.29,19.6,30.26,21.85,6.36,1.2,12.85.72,19.29,1.14,3.44.14,6.82.65,10.14,1.52,3.64.54,7.01,1.86,10.11,3.95,4.67,1.61,8.74,4.18,12.2,7.71,1.89,1.92,3.78,3.84,5.67,5.76,4.69,5.29,8.62,11.13,11.04,17.79,2.31,6.36,4.33,14.28,3.16,21.07-.89,5.2-2.83,10.17-5.28,14.83-7.8,14.86-20.42,20.08-34.45,21.34-1.51.14.51,2.09.69,2.28.81.85,3.3,3.88,4.7,3.73Z"/>
    <path class="cls-4" d="M2196.25,706.42c4.87.22,9.58-.55,14.13-2.29,2.28-1.13,4.55-2.25,6.83-3.38,6.71-3.79,12.63-10.15,16.23-16.91,4.07-7.64,5.78-15.93,4.57-24.51-1.25-8.81-4.93-17.53-10.29-24.59-9.49-12.51-21.8-23.89-38.05-25.67-5.39-.59-10.84-.59-16.25-.43-7.77.24-13.86-1.38-20.96-4.45.26.16.51.31.76.47-1.25-.77-2.49-1.54-3.74-2.31.25.17.5.33.76.5-1.45-.98-2.9-1.95-4.35-2.93.25.18.5.35.74.53-6.57-5.35-9.36-8.95-13.04-17.45,1.45,4.86,2.89,9.72,4.34,14.58-1.56-6.02-3.12-12.04-4.68-18.06,1.33,8.21,2.65,16.41,3.98,24.61-.93-12.81-1.87-25.62-2.8-38.43-.41,9.06-.82,18.12-1.23,27.18,1.06-9.96,2.12-19.92,3.18-29.88-1.3,7.96-2.59,15.92-3.89,23.88,1.97-9.67,3.94-19.35,5.91-29.02-1.6,6.14-3.19,12.28-4.79,18.42,3.38-14.05,7.77-27.77,13.16-41.17-4.44,7.54-8.88,15.09-13.32,22.63,6.14-9.06,12.28-18.12,18.42-27.18-5.6,6.36-11.2,12.72-16.8,19.07,8.61-7.35,17.21-14.71,25.82-22.06-6.52,4.55-13.04,9.1-19.56,13.64,9.51-4.22,19.02-8.43,28.53-12.65-7.2,2.51-14.4,5.01-21.6,7.52,9.52-1.46,19.03-2.92,28.54-4.38.98.05,1.81-.23,2.48-.85,3.15,2.41,3.6,2.75,1.35,1.03-1.44-1.18-3-2.19-4.67-3.04-.24-.09-.48-.17-.72-.26-8.55.51-17.09,1.19-25.61,2.03-1.02.41-1.81,1.12-2.36,2.14-1.7,2.18-3.34,4.4-4.95,6.65-2.04,2.79-4.04,5.6-6,8.44-1.46,1.91-2.74,3.94-3.83,6.07-.88,3.88-1.74,7.69-1.87,11.67.43,4.71.86,9.43,1.28,14.14.23,1.7.46,3.39.69,5.09.9,6.4,1.73,13.23,3.29,19.52.85,3.42,2.59,5.69,5.02,8.61,4.8,5.77,10.81,10.09,17.58,13.26,8.18,3.84,17.24,7.11,26.22,8.32,6.83.92,13.62,1.9,18.6,7.27,2.16,2.33,3.14,5.33,5.15,7.77,2.6,3.16,3.41,6.34,4.61,10.08,1.25,1.82,1.83,3.8,1.76,5.94.4,2.21.03,4.33-1.13,6.37-1.19,3.99-2.52,6.97-5.81,9.78-3.37,2.86-6.79,5.69-11.09,7.09-5.88,1.92-11.54,2.15-17.68,1.78.12.88.56,1.6,1.34,2.16,2.16,2.19,4.38,4.31,6.65,6.38,2.24,2.1,4.54,4.14,6.9,6.11.62.72,1.37,1.11,2.26,1.16Z"/>
    <path class="cls-4" d="M2198.44,716.22c4.89.15,9.59-.73,14.1-2.64,4.86-2.11,9.23-4.95,13.13-8.54,5.97-5.81,10.41-12.75,12.62-20.87,5.18-19.04-5.31-37.98-18.32-51.2-6.17-6.26-13.41-11.91-22-14.39-6.57-1.9-13.35-2.61-20.18-2.64-8.19-.04-16.16-.27-23.7-3.79-7.28-3.4-12.62-8.49-17.37-15.01.72,1.28,1.43,2.56,2.15,3.84-1.3-2.68-2.6-5.35-3.89-8.03,1.2,3.6,2.4,7.19,3.6,10.79-1.65-5.55-3.3-11.11-4.95-16.66.85,4.57,1.7,9.13,2.55,13.7-.84-6.49-1.68-12.99-2.52-19.48.2,4.58.4,9.17.6,13.75.15-6.46.3-12.92.44-19.38-.47,4.58-.94,9.17-1.42,13.75,1.05-6.36,2.09-12.72,3.14-19.07-.82,3.52-1.64,7.04-2.45,10.56,3.42-12.16,7.93-30.5,15.45-41.58-2.02,2.18-4.04,4.36-6.06,6.54,2.91-2.81,5.81-5.62,8.72-8.42-3.97,3.09-7.94,6.18-11.91,9.27,5.51-3.86,11.02-7.73,16.52-11.59-4.45,2.62-8.89,5.24-13.34,7.86,6.01-2.98,12.02-5.95,18.03-8.93-4.8,1.89-9.59,3.79-14.39,5.68,6.4-1.88,12.8-3.76,19.2-5.65-5.16,1.14-10.32,2.29-15.47,3.43,6.72-.84,13.44-1.68,20.16-2.53-5.52.37-11.04.74-16.56,1.11,6.85.09,13.71.19,20.56.28-5.53-.44-11.05-.89-16.58-1.33,6.7,1.04,13.41,2.08,20.11,3.12-5.57-1.21-11.13-2.43-16.7-3.64,7.66,3.21,15.47,5.96,23.44,8.25.86.11.97-.14.34-.72-1.56-1.11-3.23-2.04-5.01-2.78-3.3-1.6-6.63-3.14-9.98-4.62-1.18-.5-2.37-1-3.55-1.5,5.46,2.2,10.92,4.39,16.38,6.59-1.58-.92-3.25-1.65-5.01-2.17-4.75-1.78-10.1-4.27-15.2-4.82-5.33-.58-9.59,2.4-13.88,4.95-2.63,1.56-5.52,3.01-7.76,5.11-6.49,6.06-7.7,15.86-8.63,24.11-1.03,9.12-1.16,18.22.52,27.24,1.04,5.58,1.95,9.23,5.36,14.07,4.66,6.62,11.25,11.13,18.55,14.38,4.45,1.98,9.6,3.81,14.26,5.01,8.22,2.12,17.07,1.54,24.97,4.82,6.3,2.47,11.08,6.91,14.34,13.32,2.19,2.71,3.87,5.71,5.05,8.99.77,3.36,1.67,6.68,2.69,9.97.5,3.42-.03,6.67-1.58,9.77-.72,3.3-2.23,6.19-4.55,8.66-2.67,2.42-5.5,4.65-8.48,6.68-7,4.2-14.63,4.77-22.53,4.24.06,1.04.47,1.95,1.24,2.73,2.12,3,4.31,5.95,6.56,8.84,2.22,2.93,4.5,5.8,6.85,8.62.56.94,1.33,1.58,2.32,1.9Z"/>
    <path class="cls-4" d="M2200.52,709.84c4.7-.09,9.18-1.13,13.44-3.13,5.11-2.25,9.75-5.25,13.9-8.99,2.22-2,4.34-4.16,6.14-6.55,5.28-6.99,8.81-16.05,9.35-24.77.71-11.46-3.42-22.98-9.68-32.36-11.13-16.68-27.66-29.95-48.26-31.12-11.35-.65-23.99,2.35-34.64-3.45-8.52-4.64-14.21-10.49-18-20.07.93,3.62,1.87,7.23,2.8,10.85-1.21-5.63-2.42-11.27-3.64-16.9.68,4.55,1.36,9.1,2.04,13.64-.4-5.58-.8-11.15-1.2-16.73.1,3.57.21,7.14.31,10.72.33-5.46.66-10.91.99-16.37-.31,3.49-.61,6.99-.92,10.48,3.16-15.2,8.07-29.8,14.71-43.8-1.56,2.77-3.13,5.54-4.69,8.31,2.15-3.3,4.31-6.6,6.46-9.9-1.79,2.51-3.57,5.03-5.36,7.54,13.14-14.94,26.45-11.24,38.38-3.87,1.15.71,3.88,1.26,5.2,1.12.29-.03,2.2.04,1.4-.89-8.06-9.38-23.74-17.5-35.53-9.65-2.32,1.55-5.3,4.41-7.05,6.65-1.22,1.56-2.19,3.4-3.18,5.1-4.55,7.8-6.41,16.23-8.7,24.93.95-3.17,1.9-6.35,2.84-9.52-1.59,3.16-3.88,6.63-4.68,10.01-.41,1.73-.54,3.52-.69,5.3-.38,4.41-1.36,8.89-.84,13.3.28,2.31.96,4.64,1.51,6.89,1.66,6.86,4.11,12.83,9.8,17.59,4.59,3.83,10.35,7.1,16.05,8.94,5.88,1.9,12.19,2.76,18.34,2.82,3.66.04,7.29-.03,10.94.35l5.88.83c5.33.74,10,2.96,14.02,6.69,4.03,1.86,7.53,4.41,10.48,7.63,1.91,1.65,3.59,3.51,5.06,5.56,4.07,5.03,7.49,10.66,9.45,16.87.57,2.55,1.14,5.11,1.71,7.66-6.5,12.49-13.01,24.99-19.51,37.48-5.42,4.01-12.12,5.48-18.58,6.34-1.66.22,2.61,4.63,3.91,4.47Z"/>
    <path class="cls-4" d="M2197.68,711.49c4.91.16,9.64-.68,14.19-2.53,2.26-1.18,4.51-2.37,6.77-3.55,6.76-4.02,12.38-10.39,15.77-17.42,3.82-7.94,5.22-15.89,3.53-24.56-1.68-8.6-5.44-16.76-10.99-23.51-9.41-11.46-21.13-21.89-36.42-23.7-5.1-.6-10.26-.66-15.39-.58-7.59.11-13.52-1.54-20.43-4.6.25.13.51.26.76.39-2.97-1.71-5.88-3.45-8.59-5.56-5.59-4.35-8.37-8.74-11.66-15.57,1.46,4.47,2.92,8.95,4.38,13.43-1.68-5.68-3.35-11.36-5.03-17.04,1.3,7.6,2.59,15.2,3.89,22.8-1.1-12.18-2.21-24.35-3.31-36.53-.56,8.53-1.12,17.06-1.68,25.59,1.82-12.04,3.63-24.07,5.45-36.11-.59,2.27-1.18,4.54-1.77,6.82,2.88-9.29,5.28-18.84,9.24-27.74-4.12,5.8-8.23,11.59-12.35,17.39,6.2-8.11,12.4-16.22,18.6-24.33-6.32,6.02-12.65,12.04-18.97,18.06,7.32-6.25,14.63-12.5,21.95-18.75-6.45,4.78-12.91,9.56-19.36,14.34,7.96-5.17,15.91-10.34,23.87-15.51-6.91,3.75-13.82,7.5-20.73,11.25,8.47-3.8,16.93-7.6,25.4-11.4-7.38,2.74-14.77,5.48-22.15,8.22,8.91-2.52,17.82-5.04,26.73-7.56-7.86,1.74-15.71,3.49-23.57,5.23,9.12-1.35,18.24-2.7,27.37-4.05-7.82.6-15.64,1.19-23.47,1.79l26.86-.28c-7.84-.44-15.68-.88-23.53-1.31,8.77,1.01,17.55,2.02,26.33,3.03-7.89-1.37-15.78-2.75-23.67-4.12,9.24,2.74,18.61,4.84,28.1,6.28,1.12.03,1.19-.22.21-.77-2.31-1.01-4.69-1.82-7.15-2.41-9.87-3.89-19.99-3.22-30.36,2.03-3.46,3.14-6.87,6.32-10.25,9.55-1.56,1.33-2.98,2.78-4.27,4.35-1.43,2.04-2.04,4.31-2.6,6.82-2.49,11.21-1.09,23.98,1.32,35.16,2.39,11.05,7.88,20.51,16.56,27.79,4.82,4.05,10.39,7.21,16.19,9.65,2.01.84,4.05,1.6,6.13,2.27,2.56.79,5.02,1.85,7.37,3.18,8.57,3.43,20.51,2.69,24.83,12.62.18,2.2,1.18,3.93,3,5.17.51.99,1.03,1.99,1.54,2.98.05,2.43.83,4.58,2.36,6.47.76,2.33.48,4.54-.84,6.62-.3,2.71-1.42,5.02-3.36,6.95-2.42,1.85-4.89,3.63-7.4,5.36-6.64,3.72-14.37,3.71-21.69,3.12.27,1.19.88,2.21,1.83,3.05,2.83,3.36,5.72,6.67,8.68,9.92,2.92,3.28,5.9,6.51,8.95,9.67.74,1.04,1.69,1.75,2.84,2.14Z"/>
    <path class="cls-4" d="M2197.69,709.74c4.76.1,9.34-.78,13.73-2.63,4.96-2.02,9.45-4.78,13.48-8.3,6.18-5.7,10.92-12.52,13.44-20.65,6.17-19.91-4.46-39.79-18.29-53.63-6.58-6.58-14.44-12.49-23.6-14.9-6.93-1.82-14.03-2.3-21.18-2.16-4.08.39-8.15.39-12.23,0-3.84-1.12-7.67-2.24-11.51-3.37-8.45-4.05-14.7-10.89-18.47-19.62,1.3,4.35,2.6,8.71,3.91,13.06-1.66-6.34-3.31-12.67-4.97-19.01.99,5.49,1.98,10.98,2.98,16.47-.88-7.42-1.76-14.85-2.64-22.27.35,5.46.71,10.92,1.06,16.39.1-7.33.19-14.65.29-21.98-.3,5.4-.61,10.81-.91,16.21.85-6.08,1.7-12.15,2.54-18.23-.74,4.1-1.49,8.21-2.23,12.31,2.69-14.3,7.05-28.02,13.09-41.14-2.09,3.46-4.19,6.93-6.28,10.39,3.02-4.7,6.05-9.39,9.07-14.09-2.97,4.02-5.95,8.03-8.92,12.05,3.55-4.22,7.1-8.44,10.66-12.65-2.65,2.84-5.29,5.68-7.94,8.53,4.13-3.65,8.26-7.3,12.39-10.95-2.9,2.44-5.8,4.89-8.7,7.33,10.34-6.71,20.97-7.52,31.89-2.43,1.43.47,4.89,2.09,6.27,1.64.33-.11,1.66.16.84-.72-3.52-3.79-7.88-6.82-12.81-8.57-3.59-1.27-11.29-2.71-14.98-1.02-3.99,1.83-7.99,3.77-10.77,7.19-2.75,3.4-5.85,6.99-7.95,10.85-1.06,1.95-1.8,4.09-2.55,6.18-1.09,3.56-1.9,7.19-2.43,10.88-2.4,5.83-3.5,11.79-3.31,17.88.71,9.39,2.71,19.15,8.57,26.69,6.1,7.84,14.65,12.33,23.92,15.44,4.08,1.32,8.24,2.22,12.49,2.7,3.39.33,6.79.49,10.2.5,5.11.5,10.3,1.45,14.98,3.64,7.93,3.72,15.58,12.89,20.02,20.74,4.26,7.55,6.17,15.9,4.23,24.4-1.44,6.3-4.39,11.22-9.07,15.68-7.98,7.59-17.24,10.57-28.24,10.44-1.95-.02,2.48,4.29,2.87,4.7,1.38,1.45,4.72,6.22,7.06,6.03Z"/>
    <path class="cls-4" d="M2202.51,709.62c4.81-.16,9.39-1.28,13.73-3.35,5.11-2.34,9.72-5.42,13.85-9.23,2.22-2.04,4.33-4.24,6.12-6.67,7.33-9.9,10.48-22.59,8.53-34.73-1.87-11.69-7.55-21.77-15.16-30.61-6.63-7.72-14.46-14.74-23.8-19.06-8.42-3.9-17.31-4.75-26.45-4.59-9.23.16-18.73,1.21-27.26-3.3-8.54-4.51-14.32-10.58-18.02-20.08.75,3.33,1.5,6.66,2.24,9.99-1.02-5.35-2.03-10.71-3.05-16.06.49,4.21.98,8.43,1.47,12.64-.22-5.31-.45-10.62-.67-15.93-.02,3.33-.04,6.65-.06,9.98.48-5.21.96-10.41,1.44-15.62-.4,3.26-.8,6.53-1.21,9.79,3.63-14.82,8.76-29.09,15.38-42.81-1.58,2.68-3.16,5.36-4.74,8.04,2.18-3.22,4.35-6.44,6.53-9.67-1.8,2.44-3.6,4.88-5.4,7.32,11.32-9.75,22.15-11.81,32.5-6.18,2.39,1.13,4.65,2.47,6.78,4.03.63.42,7.19.98,6.12-.32-4.28-5.16-9.87-9.92-16.38-11.83-6.35-1.86-13.66-2.48-19.45,1.29-2.33,1.52-5.33,4.4-7.11,6.6-1.22,1.5-2.21,3.28-3.21,4.93-4.64,7.62-6.61,15.93-9.02,24.47,1-3,2.01-6,3.01-9-3.66,7.28-7.15,13.87-7.31,22.41-.12,6.14,1.16,13.16,3.48,18.81,5.61,13.64,22.03,20.67,35.79,22.15,9.7,1.04,19.45-.02,28.87,3.25,10.1,3.51,18.18,10.46,24.92,18.66,8.32,10.14,13.81,23.1,11.53,36.34-.42,3.81-1.52,7.44-3.33,10.87-4.98,5.49-9.96,10.99-14.94,16.48-2.27,1.27-4.55,2.54-6.82,3.8-3.9,1.94-8.02,3.08-12.37,3.4-1.67.29,2.27,3.92,3.45,3.76Z"/>
    <path class="cls-4" d="M2196.76,713.46c4.91.18,9.63-.66,14.18-2.53,4.79-2.08,9.11-4.89,12.98-8.4,5.92-5.71,10.16-12.5,12.37-20.5,5.16-18.66-5.52-37.02-18.51-49.68-6.1-5.95-13.02-11.47-21.4-13.75-6.31-1.71-12.72-2.18-19.24-2.23-3.95.24-7.89.1-11.82-.43-3.76-1.26-7.52-2.52-11.28-3.78-8.56-4.09-14.91-10.36-19.25-19.1,1.68,4.82,3.37,9.63,5.05,14.45-2.17-6.74-4.35-13.49-6.52-20.23,1.3,6.12,2.6,12.24,3.91,18.37-1.33-8.03-2.67-16.06-4-24.09.5,6.17,1.01,12.33,1.51,18.5-.2-8.03-.4-16.06-.6-24.09-.31,6.2-.63,12.4-.94,18.6.83-7.97,1.66-15.93,2.49-23.9-.82,4.76-1.64,9.52-2.46,14.28,2.97-13.57,6.61-33.41,14.69-45.97-3.65,4.24-7.29,8.49-10.94,12.73,4.44-4.79,8.89-9.58,13.33-14.38-4.69,4.19-9.38,8.39-14.06,12.58,6.19-5.01,12.39-10.03,18.58-15.04-5.24,3.64-10.48,7.28-15.71,10.91,6.76-4.03,13.52-8.07,20.29-12.1-5.64,2.76-11.27,5.52-16.9,8.27,7.2-2.8,14.41-5.61,21.61-8.41-6.04,1.88-12.09,3.76-18.13,5.65,7.57-1.65,15.15-3.3,22.73-4.94-6.45,1-12.9,2-19.36,3.01,7.76-.6,15.51-1.21,23.27-1.81-6.43.03-12.86.06-19.29.08,7.59.49,15.17.99,22.76,1.48-6.45-.87-12.9-1.74-19.35-2.61,7.4,1.47,14.8,2.93,22.2,4.4-6.49-1.7-12.98-3.39-19.48-5.09,7.65,3.17,15.5,5.64,23.53,7.41.96.07,1.05-.18.28-.75-1.85-1.07-3.79-1.95-5.83-2.62-6.83-3.05-14.05-4.67-21.66-4.86-4.32,1.82-8.18,5.1-11.98,7.79-2.61,1.84-5.18,3.56-7.15,5.99-5.65,6.95-6.48,17.39-6.36,25.96.13,9.55,2.42,20.16,4.69,29.55,1.15,4.75,2.15,7.09,5.62,11.3,4.24,5.15,9.56,9.04,15.44,12.11,5.91,3.08,12.46,5.41,18.75,7.58,10.27,3.53,23.43,2.03,29.49,13.09.67,2.53,1.98,4.66,3.94,6.39.63,1.23,1.27,2.45,1.9,3.68.38,2.81,1.29,5.44,2.72,7.88.76,2.77.48,5.44-.84,8-.43,3.02-1.68,5.65-3.76,7.88-2.49,2.18-5.09,4.21-7.8,6.1-6.8,4.05-14.48,4.35-22.12,3.83.11,1.1.58,2.06,1.4,2.88,2.32,3.18,4.71,6.31,7.16,9.38,2.42,3.11,4.9,6.16,7.44,9.16.61.99,1.43,1.67,2.47,2.04Z"/>
  </g>
</svg>