<?xml version="1.0" encoding="UTF-8"?>
<svg id="Layer_14" data-name="Layer 14" xmlns="http://www.w3.org/2000/svg" viewBox="0 0 926 112">
  <defs>
    <style>
      .cls-1 {
        stroke: #fff;
        stroke-miterlimit: 10;
      }

      .cls-1, .cls-2 {
        fill: #97ca55;
      }

      .cls-3 {
        fill: #000;
        font-family: AvenirNext-Bold, 'Avenir Next';
        font-size: 64px;
        font-weight: 700;
      }

      .cls-4 {
        letter-spacing: -.02em;
      }

      .cls-5 {
        letter-spacing: -.05em;
      }

      .cls-2 {
        stroke-width: 0px;
      }
    </style>
  </defs>
  <g>
    <path class="cls-1" d="M49.27,57.95s16.11-29.13,46.92-42.11c1.77-.75,3.82-.36,5.23.94h0c2.25,2.08,2.09,5.68-.33,7.55-9.45,7.26-30.66,26.1-43.47,57.11-1.49,3.6-5.01,5.94-8.9,5.94h0c-3.78,0-7.21-2.2-8.78-5.64l-14.22-31.11c-1.32-2.89-.15-6.31,2.67-7.78h0c2.32-1.21,5.17-.77,7.01,1.1l13.86,14.01h0Z"/>
    <path class="cls-2" d="M95.71,39.31c2.56,5.48,4,11.59,4,18.02,0,23.51-19.13,42.63-42.63,42.63S14.44,80.84,14.44,57.34,33.57,14.7,57.08,14.7c6.45,0,12.57,1.44,18.05,4.02,2.25-1.59,4.62-3.12,7.1-4.58-7.39-4.32-15.99-6.81-25.16-6.81C29.51,7.34,7.08,29.77,7.08,57.34s22.43,50,50,50,50-22.43,50-50c0-8.36-2.07-16.25-5.71-23.18-1.71,1.46-3.62,3.18-5.66,5.16h0Z"/>
  </g>
  <text class="cls-3" transform="translate(140.04 70.59)"><tspan class="cls-5" x="0" y="0">P</tspan><tspan x="37.76" y="0">ost-Upg</tspan><tspan class="cls-4" x="284.48" y="0">r</tspan><tspan x="308.8" y="0">ade Snapshot</tspan></text>
</svg>