<?xml version="1.0" encoding="UTF-8"?>
<svg id="Thumbnail" xmlns="http://www.w3.org/2000/svg" xmlns:xlink="http://www.w3.org/1999/xlink" viewBox="0 0 1920 1080">
  <defs>
    <style>
      .cls-1 {
        fill: #333;
      }

      .cls-1, .cls-2, .cls-3, .cls-4, .cls-5, .cls-6, .cls-7, .cls-8, .cls-9, .cls-10, .cls-11, .cls-12 {
        stroke-width: 0px;
      }

      .cls-13 {
        stroke-width: 2.5px;
      }

      .cls-13, .cls-14, .cls-15, .cls-16, .cls-17 {
        stroke-miterlimit: 10;
      }

      .cls-13, .cls-14, .cls-15, .cls-17 {
        stroke: #000;
      }

      .cls-13, .cls-15, .cls-16, .cls-4, .cls-17 {
        fill: none;
      }

      .cls-2 {
        fill: #badff1;
      }

      .cls-14 {
        stroke-width: 10px;
      }

      .cls-14, .cls-6, .cls-18 {
        fill: #fff;
      }

      .cls-15 {
        stroke-width: 5px;
      }

      .cls-3 {
        fill: #aaa;
      }

      .cls-16 {
        stroke: #fff;
        stroke-width: 20px;
      }

      .cls-19 {
        clip-path: url(#clippath);
      }

      .cls-5 {
        fill: url(#linear-gradient);
      }

      .cls-17 {
        stroke-width: 7.5px;
      }

      .cls-6 {
        opacity: .11;
      }

      .cls-20 {
        clip-path: url(#clippath-1);
      }

      .cls-21 {
        clip-path: url(#clippath-4);
      }

      .cls-22 {
        clip-path: url(#clippath-3);
      }

      .cls-23 {
        clip-path: url(#clippath-2);
      }

      .cls-24 {
        clip-path: url(#clippath-5);
      }

      .cls-7 {
        fill: #97d1e9;
      }

      .cls-8 {
        fill: #000;
      }

      .cls-9 {
        fill: #010101;
      }

      .cls-18 {
        font-family: MonaspaceArgonVar-SemiBold, 'Monaspace Argon Var';
        font-size: 210px;
        font-variation-settings: 'wght' 600, 'wdth' 100, 'slnt' 0;
        font-weight: 600;
      }

      .cls-10 {
        fill: #353535;
      }

      .cls-25 {
        opacity: .5;
      }

      .cls-11 {
        fill: #303030;
      }

      .cls-12 {
        fill: url(#linear-gradient-2);
      }
    </style>
    <clipPath id="clippath">
      <rect class="cls-4" x="70.68" y="872.29" width="781.42" height="139.47"/>
    </clipPath>
    <clipPath id="clippath-1">
      <rect class="cls-4" x="70.68" y="872.29" width="781.42" height="139.47"/>
    </clipPath>
    <clipPath id="clippath-2">
      <rect class="cls-4" x="70.68" y="872.29" width="781.42" height="139.47"/>
    </clipPath>
    <linearGradient id="linear-gradient" x1="1769.98" y1="-7587.78" x2="1770.04" y2="-7587.85" gradientTransform="translate(-3272309.9 -14062714.24) scale(1849.27 -1853.39)" gradientUnits="userSpaceOnUse">
      <stop offset="0" stop-color="#387eb8"/>
      <stop offset="1" stop-color="#366994"/>
    </linearGradient>
    <linearGradient id="linear-gradient-2" x1="1769.67" y1="-7587.49" x2="1769.74" y2="-7587.56" gradientTransform="translate(-3271664.91 -14062084.61) scale(1849.27 -1853.39)" gradientUnits="userSpaceOnUse">
      <stop offset="0" stop-color="#ffe052"/>
      <stop offset="1" stop-color="#ffc331"/>
    </linearGradient>
    <clipPath id="clippath-3">
      <rect class="cls-4" x="1075.92" y="872.29" width="781.42" height="139.47"/>
    </clipPath>
    <clipPath id="clippath-4">
      <rect class="cls-4" x="1075.92" y="872.29" width="781.42" height="139.47"/>
    </clipPath>
    <clipPath id="clippath-5">
      <rect class="cls-4" x="1075.92" y="872.29" width="781.42" height="139.47"/>
    </clipPath>
  </defs>
  <image width="1920" height="1080" xlink:href="../../../../Creative Cloud Files/Illustrations/Work/YouTube/PowerPoint/Panel.png"/>
  <line class="cls-16" x1="987.49" y1="530.53" x2="443.52" y2="918.41"/>
  <line class="cls-16" x1="987.62" y1="530.74" x2="1466.52" y2="918.61"/>
  <g class="cls-19">
    <g class="cls-20">
      <rect class="cls-14" x="75.14" y="876.28" width="772.49" height="131.02"/>
    </g>
    <polygon class="cls-8" points="621.52 990.16 621.52 997.21 635.61 997.21 635.61 990.16 639.37 990.16 639.37 975.6 617.76 975.6 617.76 990.16 621.52 990.16"/>
    <g class="cls-23">
      <path class="cls-8" d="M411.79,986.9c-1.87,0-3.38-1.51-3.38-3.38s1.51-3.39,3.38-3.39,3.38,1.51,3.38,3.39-1.51,3.38-3.38,3.38"/>
      <path class="cls-8" d="M411.79,997.05c-1.87,0-3.38-1.51-3.38-3.38s1.51-3.39,3.38-3.39,3.38,1.51,3.38,3.39-1.51,3.38-3.38,3.38"/>
      <path class="cls-8" d="M411.79,956.89c-1.87,0-3.38-1.51-3.38-3.38s1.51-3.39,3.38-3.39,3.38,1.51,3.38,3.39-1.51,3.38-3.38,3.38"/>
      <path class="cls-8" d="M411.79,967.05c-1.87,0-3.38-1.51-3.38-3.38s1.51-3.39,3.38-3.39,3.38,1.51,3.38,3.39-1.51,3.38-3.38,3.38"/>
      <path class="cls-8" d="M459.52,986.9c-1.87,0-3.38-1.51-3.38-3.38s1.51-3.39,3.38-3.39,3.38,1.51,3.38,3.39-1.51,3.38-3.38,3.38"/>
      <path class="cls-8" d="M459.52,997.05c-1.87,0-3.38-1.51-3.38-3.38s1.51-3.39,3.38-3.39,3.38,1.51,3.38,3.39-1.51,3.38-3.38,3.38"/>
      <path class="cls-8" d="M459.52,956.89c-1.87,0-3.38-1.51-3.38-3.38s1.51-3.39,3.38-3.39,3.38,1.51,3.38,3.39-1.51,3.38-3.38,3.38"/>
      <path class="cls-8" d="M459.52,967.05c-1.87,0-3.38-1.51-3.38-3.38s1.51-3.39,3.38-3.39,3.38,1.51,3.38,3.39-1.51,3.38-3.38,3.38"/>
      <polygon class="cls-8" points="135.95 957.29 135.95 950.25 121.87 950.25 121.87 957.29 118.11 957.29 118.11 971.38 139.71 971.38 139.71 957.29 135.95 957.29"/>
      <polygon class="cls-8" points="121.87 990.16 121.87 997.21 135.95 997.21 135.95 990.16 139.71 990.16 139.71 975.6 118.11 975.6 118.11 990.16 121.87 990.16"/>
      <polygon class="cls-8" points="110.13 957.29 110.13 950.25 96.04 950.25 96.04 957.29 92.28 957.29 92.28 971.38 113.88 971.38 113.88 957.29 110.13 957.29"/>
      <polygon class="cls-8" points="96.04 990.16 96.04 997.21 110.13 997.21 110.13 990.16 113.88 990.16 113.88 975.6 92.28 975.6 92.28 990.16 96.04 990.16"/>
      <polygon class="cls-8" points="188.08 957.29 188.08 950.25 173.99 950.25 173.99 957.29 170.23 957.29 170.23 971.38 191.84 971.38 191.84 957.29 188.08 957.29"/>
      <polygon class="cls-8" points="173.99 990.16 173.99 997.21 188.08 997.21 188.08 990.16 191.84 990.16 191.84 975.6 170.23 975.6 170.23 990.16 173.99 990.16"/>
      <polygon class="cls-8" points="162.25 957.29 162.25 950.25 148.16 950.25 148.16 957.29 144.41 957.29 144.41 971.38 166.01 971.38 166.01 957.29 162.25 957.29"/>
      <polygon class="cls-8" points="148.16 990.16 148.16 997.21 162.25 997.21 162.25 990.16 166.01 990.16 166.01 975.6 144.41 975.6 144.41 990.16 148.16 990.16"/>
      <rect class="cls-8" x="213.44" y="950.25" width="21.6" height="21.6"/>
      <rect class="cls-8" x="213.44" y="975.6" width="21.6" height="21.6"/>
      <rect class="cls-8" x="238.33" y="950.25" width="21.6" height="21.6"/>
      <rect class="cls-8" x="238.33" y="975.6" width="21.6" height="21.6"/>
      <rect class="cls-8" x="263.68" y="950.25" width="21.6" height="21.6"/>
      <rect class="cls-8" x="263.68" y="975.6" width="21.6" height="21.6"/>
      <rect class="cls-8" x="288.57" y="950.25" width="21.6" height="21.6"/>
      <rect class="cls-8" x="288.57" y="975.6" width="21.6" height="21.6"/>
      <rect class="cls-8" x="313.46" y="950.25" width="21.6" height="21.6"/>
      <rect class="cls-8" x="313.46" y="975.6" width="21.6" height="21.6"/>
      <rect class="cls-8" x="347.74" y="950.25" width="21.6" height="21.6"/>
      <rect class="cls-8" x="347.74" y="975.6" width="21.6" height="21.6"/>
      <rect class="cls-8" x="372.63" y="949.78" width="21.6" height="21.6"/>
      <rect class="cls-8" x="372.63" y="975.6" width="21.6" height="21.6"/>
      <rect class="cls-8" x="421" y="976.07" width="28.18" height="20.66"/>
      <rect class="cls-8" x="421" y="949.78" width="28.18" height="20.66"/>
      <path class="cls-8" d="M506.95,986.9c-1.87,0-3.38-1.51-3.38-3.38s1.51-3.39,3.38-3.39,3.38,1.51,3.38,3.39-1.51,3.38-3.38,3.38"/>
      <path class="cls-8" d="M506.95,997.05c-1.87,0-3.38-1.51-3.38-3.38s1.51-3.39,3.38-3.39,3.38,1.51,3.38,3.39-1.51,3.38-3.38,3.38"/>
      <path class="cls-8" d="M506.95,956.89c-1.87,0-3.38-1.51-3.38-3.38s1.51-3.39,3.38-3.39,3.38,1.51,3.38,3.39-1.51,3.38-3.38,3.38"/>
      <path class="cls-8" d="M506.95,967.05c-1.87,0-3.38-1.51-3.38-3.38s1.51-3.39,3.38-3.39,3.38,1.51,3.38,3.39-1.51,3.38-3.38,3.38"/>
      <path class="cls-8" d="M730.08,987.01c-1.87,0-3.38-1.51-3.38-3.38s1.51-3.39,3.38-3.39,3.38,1.51,3.38,3.39-1.51,3.38-3.38,3.38"/>
      <path class="cls-8" d="M730.08,997.05c-1.87,0-3.38-1.51-3.38-3.38s1.51-3.39,3.38-3.39,3.38,1.51,3.38,3.39-1.51,3.38-3.38,3.38"/>
      <path class="cls-8" d="M730.08,956.89c-1.87,0-3.38-1.51-3.38-3.38s1.51-3.39,3.38-3.39,3.38,1.51,3.38,3.39-1.51,3.38-3.38,3.38"/>
      <path class="cls-8" d="M730.08,966.93c-1.87,0-3.38-1.51-3.38-3.38s1.51-3.39,3.38-3.39,3.38,1.51,3.38,3.39-1.51,3.38-3.38,3.38"/>
      <path class="cls-8" d="M730.08,976.97c-1.87,0-3.38-1.51-3.38-3.38s1.51-3.39,3.38-3.39,3.38,1.51,3.38,3.39-1.51,3.38-3.38,3.38"/>
      <path class="cls-8" d="M740.49,987.01c-1.87,0-3.38-1.51-3.38-3.38s1.51-3.39,3.38-3.39,3.38,1.51,3.38,3.39-1.51,3.38-3.38,3.38"/>
      <path class="cls-8" d="M740.49,997.05c-1.87,0-3.38-1.51-3.38-3.38s1.51-3.39,3.38-3.39,3.38,1.51,3.38,3.39-1.51,3.38-3.38,3.38"/>
      <path class="cls-8" d="M740.49,966.93c-1.87,0-3.38-1.51-3.38-3.38s1.51-3.39,3.38-3.39,3.38,1.51,3.38,3.39-1.51,3.38-3.38,3.38"/>
      <path class="cls-8" d="M740.49,976.97c-1.87,0-3.38-1.51-3.38-3.38s1.51-3.39,3.38-3.39,3.38,1.51,3.38,3.39-1.51,3.38-3.38,3.38"/>
      <path class="cls-8" d="M598.39,963.66c0-1.87,1.51-3.38,3.38-3.38s3.39,1.51,3.39,3.38-1.51,3.38-3.39,3.38-3.38-1.51-3.38-3.38"/>
      <path class="cls-8" d="M588.24,963.66c0-1.87,1.51-3.38,3.38-3.38s3.39,1.51,3.39,3.38-1.51,3.38-3.39,3.38-3.38-1.51-3.38-3.38"/>
      <rect class="cls-8" x="468.43" y="976.07" width="28.18" height="20.66"/>
      <rect class="cls-8" x="517.27" y="976.07" width="28.18" height="20.66"/>
      <rect class="cls-8" x="554.84" y="976.07" width="21.6" height="20.66"/>
      <rect class="cls-8" x="585.83" y="976.07" width="21.6" height="20.66"/>
      <rect class="cls-8" x="554.84" y="949.78" width="21.6" height="20.66"/>
      <rect class="cls-8" x="468.43" y="949.78" width="28.18" height="20.66"/>
      <rect class="cls-17" x="650.4" y="964.57" width="24.89" height="30.99"/>
      <path class="cls-17" d="M694.79,984.76h15.7c2.98,0,5.55,2.33,5.59,5.31.05,3.02-2.39,5.49-5.4,5.49h-15.7c-2.98,0-5.55-2.33-5.59-5.31-.05-3.02,2.39-5.49,5.4-5.49Z"/>
      <polygon class="cls-8" points="668.95 969.97 665.9 969.97 662.85 969.97 662.85 990.16 665.9 990.16 668.95 990.16 668.95 969.97"/>
      <polygon class="cls-13" points="103.08 942.75 103.08 935.7 96.97 932.17 90.87 935.7 90.87 942.75 96.97 946.27 103.08 942.75"/>
      <polygon class="cls-13" points="119.52 942.75 119.52 935.7 113.41 932.17 107.31 935.7 107.31 942.75 113.41 946.27 119.52 942.75"/>
      <polygon class="cls-13" points="135.48 942.75 135.48 935.7 129.38 932.17 123.27 935.7 123.27 942.75 129.38 946.27 135.48 942.75"/>
      <polygon class="cls-13" points="151.45 942.75 151.45 935.7 145.34 932.17 139.24 935.7 139.24 942.75 145.34 946.27 151.45 942.75"/>
      <polygon class="cls-13" points="167.89 942.75 167.89 935.7 161.78 932.17 155.68 935.7 155.68 942.75 161.78 946.27 167.89 942.75"/>
      <polygon class="cls-13" points="183.85 942.75 183.85 935.7 177.74 932.17 171.64 935.7 171.64 942.75 177.74 946.27 183.85 942.75"/>
      <polygon class="cls-13" points="200.29 942.75 200.29 935.7 194.18 932.17 188.08 935.7 188.08 942.75 194.18 946.27 200.29 942.75"/>
      <polygon class="cls-13" points="216.26 942.75 216.26 935.7 210.15 932.17 204.05 935.7 204.05 942.75 210.15 946.27 216.26 942.75"/>
      <polygon class="cls-13" points="232.22 942.75 232.22 935.7 226.11 932.17 220.01 935.7 220.01 942.75 226.11 946.27 232.22 942.75"/>
      <polygon class="cls-13" points="248.66 942.75 248.66 935.7 242.55 932.17 236.45 935.7 236.45 942.75 242.55 946.27 248.66 942.75"/>
      <polygon class="cls-13" points="264.62 942.75 264.62 935.7 258.52 932.17 252.41 935.7 252.41 942.75 258.52 946.27 264.62 942.75"/>
      <polygon class="cls-13" points="280.59 942.75 280.59 935.7 274.48 932.17 268.38 935.7 268.38 942.75 274.48 946.27 280.59 942.75"/>
      <polygon class="cls-13" points="297.03 942.75 297.03 935.7 290.92 932.17 284.82 935.7 284.82 942.75 290.92 946.27 297.03 942.75"/>
      <polygon class="cls-13" points="312.99 942.75 312.99 935.7 306.89 932.17 300.78 935.7 300.78 942.75 306.89 946.27 312.99 942.75"/>
      <polygon class="cls-13" points="328.96 942.75 328.96 935.7 322.85 932.17 316.75 935.7 316.75 942.75 322.85 946.27 328.96 942.75"/>
      <polygon class="cls-13" points="345.4 942.75 345.4 935.7 339.29 932.17 333.19 935.7 333.19 942.75 339.29 946.27 345.4 942.75"/>
      <polygon class="cls-13" points="361.36 942.75 361.36 935.7 355.25 932.17 349.15 935.7 349.15 942.75 355.25 946.27 361.36 942.75"/>
      <polygon class="cls-13" points="377.33 942.75 377.33 935.7 371.22 932.17 365.12 935.7 365.12 942.75 371.22 946.27 377.33 942.75"/>
      <polygon class="cls-13" points="393.76 942.75 393.76 935.7 387.66 932.17 381.55 935.7 381.55 942.75 387.66 946.27 393.76 942.75"/>
      <polygon class="cls-13" points="409.73 942.75 409.73 935.7 403.62 932.17 397.52 935.7 397.52 942.75 403.62 946.27 409.73 942.75"/>
      <polygon class="cls-13" points="425.7 942.75 425.7 935.7 419.59 932.17 413.49 935.7 413.49 942.75 419.59 946.27 425.7 942.75"/>
      <polygon class="cls-13" points="442.13 942.75 442.13 935.7 436.03 932.17 429.92 935.7 429.92 942.75 436.03 946.27 442.13 942.75"/>
      <polygon class="cls-13" points="458.1 942.75 458.1 935.7 451.99 932.17 445.89 935.7 445.89 942.75 451.99 946.27 458.1 942.75"/>
      <polygon class="cls-13" points="474.54 942.75 474.54 935.7 468.43 932.17 462.33 935.7 462.33 942.75 468.43 946.27 474.54 942.75"/>
      <polygon class="cls-13" points="490.5 942.75 490.5 935.7 484.39 932.17 478.29 935.7 478.29 942.75 484.39 946.27 490.5 942.75"/>
      <polygon class="cls-13" points="506.47 942.75 506.47 935.7 500.36 932.17 494.26 935.7 494.26 942.75 500.36 946.27 506.47 942.75"/>
      <polygon class="cls-13" points="522.9 942.75 522.9 935.7 516.8 932.17 510.7 935.7 510.7 942.75 516.8 946.27 522.9 942.75"/>
      <polygon class="cls-13" points="538.87 942.75 538.87 935.7 532.76 932.17 526.66 935.7 526.66 942.75 532.76 946.27 538.87 942.75"/>
      <polygon class="cls-13" points="95.1 929.3 95.1 922.25 88.99 918.73 82.89 922.25 82.89 929.3 88.99 932.83 95.1 929.3"/>
      <polygon class="cls-13" points="111.53 929.3 111.53 922.25 105.43 918.73 99.32 922.25 99.32 929.3 105.43 932.83 111.53 929.3"/>
      <polygon class="cls-13" points="127.5 929.3 127.5 922.25 121.39 918.73 115.29 922.25 115.29 929.3 121.39 932.83 127.5 929.3"/>
      <polygon class="cls-13" points="143.47 929.3 143.47 922.25 137.36 918.73 131.26 922.25 131.26 929.3 137.36 932.83 143.47 929.3"/>
      <polygon class="cls-13" points="159.9 929.3 159.9 922.25 153.79 918.73 147.69 922.25 147.69 929.3 153.79 932.83 159.9 929.3"/>
      <polygon class="cls-13" points="175.87 929.3 175.87 922.25 169.76 918.73 163.66 922.25 163.66 929.3 169.76 932.83 175.87 929.3"/>
      <polygon class="cls-13" points="191.84 929.3 191.84 922.25 185.73 918.73 179.63 922.25 179.63 929.3 185.73 932.83 191.84 929.3"/>
      <polygon class="cls-13" points="208.27 929.3 208.27 922.25 202.16 918.73 196.06 922.25 196.06 929.3 202.16 932.83 208.27 929.3"/>
      <polygon class="cls-13" points="224.24 929.3 224.24 922.25 218.13 918.73 212.03 922.25 212.03 929.3 218.13 932.83 224.24 929.3"/>
      <polygon class="cls-13" points="240.2 929.3 240.2 922.25 234.1 918.73 228 922.25 228 929.3 234.1 932.83 240.2 929.3"/>
      <polygon class="cls-13" points="256.64 929.3 256.64 922.25 250.53 918.73 244.43 922.25 244.43 929.3 250.53 932.83 256.64 929.3"/>
      <polygon class="cls-13" points="272.61 929.3 272.61 922.25 266.5 918.73 260.4 922.25 260.4 929.3 266.5 932.83 272.61 929.3"/>
      <polygon class="cls-13" points="288.57 929.3 288.57 922.25 282.47 918.73 276.36 922.25 276.36 929.3 282.47 932.83 288.57 929.3"/>
      <polygon class="cls-13" points="305.01 929.3 305.01 922.25 298.9 918.73 292.8 922.25 292.8 929.3 298.9 932.83 305.01 929.3"/>
      <polygon class="cls-13" points="320.98 929.3 320.98 922.25 314.87 918.73 308.77 922.25 308.77 929.3 314.87 932.83 320.98 929.3"/>
      <polygon class="cls-13" points="337.41 929.3 337.41 922.25 331.3 918.73 325.2 922.25 325.2 929.3 331.3 932.83 337.41 929.3"/>
      <polygon class="cls-13" points="353.38 929.3 353.38 922.25 347.27 918.73 341.17 922.25 341.17 929.3 347.27 932.83 353.38 929.3"/>
      <polygon class="cls-13" points="369.35 929.3 369.35 922.25 363.24 918.73 357.14 922.25 357.14 929.3 363.24 932.83 369.35 929.3"/>
      <polygon class="cls-13" points="385.78 929.3 385.78 922.25 379.67 918.73 373.57 922.25 373.57 929.3 379.67 932.83 385.78 929.3"/>
      <polygon class="cls-13" points="401.75 929.3 401.75 922.25 395.64 918.73 389.54 922.25 389.54 929.3 395.64 932.83 401.75 929.3"/>
      <polygon class="cls-13" points="417.71 929.3 417.71 922.25 411.61 918.73 405.5 922.25 405.5 929.3 411.61 932.83 417.71 929.3"/>
      <polygon class="cls-13" points="434.15 929.3 434.15 922.25 428.04 918.73 421.94 922.25 421.94 929.3 428.04 932.83 434.15 929.3"/>
      <polygon class="cls-13" points="450.12 929.3 450.12 922.25 444.01 918.73 437.91 922.25 437.91 929.3 444.01 932.83 450.12 929.3"/>
      <polygon class="cls-13" points="466.08 929.3 466.08 922.25 459.98 918.73 453.87 922.25 453.87 929.3 459.98 932.83 466.08 929.3"/>
      <polygon class="cls-13" points="482.52 929.3 482.52 922.25 476.41 918.73 470.31 922.25 470.31 929.3 476.41 932.83 482.52 929.3"/>
      <polygon class="cls-13" points="498.49 929.3 498.49 922.25 492.38 918.73 486.28 922.25 486.28 929.3 492.38 932.83 498.49 929.3"/>
      <polygon class="cls-13" points="514.45 929.3 514.45 922.25 508.34 918.73 502.24 922.25 502.24 929.3 508.34 932.83 514.45 929.3"/>
      <polygon class="cls-13" points="530.89 929.3 530.89 922.25 524.78 918.73 518.68 922.25 518.68 929.3 524.78 932.83 530.89 929.3"/>
      <polygon class="cls-13" points="554.84 942.75 554.84 935.7 548.73 932.17 542.63 935.7 542.63 942.75 548.73 946.27 554.84 942.75"/>
      <polygon class="cls-13" points="570.8 942.75 570.8 935.7 564.7 932.17 558.59 935.7 558.59 942.75 564.7 946.27 570.8 942.75"/>
      <polygon class="cls-13" points="587.24 942.75 587.24 935.7 581.13 932.17 575.03 935.7 575.03 942.75 581.13 946.27 587.24 942.75"/>
      <polygon class="cls-13" points="603.21 942.75 603.21 935.7 597.1 932.17 591 935.7 591 942.75 597.1 946.27 603.21 942.75"/>
      <polygon class="cls-13" points="619.17 942.75 619.17 935.7 613.07 932.17 606.96 935.7 606.96 942.75 613.07 946.27 619.17 942.75"/>
      <polygon class="cls-13" points="635.61 942.75 635.61 935.7 629.5 932.17 623.4 935.7 623.4 942.75 629.5 946.27 635.61 942.75"/>
      <polygon class="cls-13" points="651.58 942.75 651.58 935.7 645.47 932.17 639.37 935.7 639.37 942.75 645.47 946.27 651.58 942.75"/>
      <polygon class="cls-13" points="667.54 942.75 667.54 935.7 661.43 932.17 655.33 935.7 655.33 942.75 661.43 946.27 667.54 942.75"/>
      <polygon class="cls-13" points="683.98 942.75 683.98 935.7 677.87 932.17 671.77 935.7 671.77 942.75 677.87 946.27 683.98 942.75"/>
      <polygon class="cls-13" points="699.94 942.75 699.94 935.7 693.84 932.17 687.74 935.7 687.74 942.75 693.84 946.27 699.94 942.75"/>
      <polygon class="cls-13" points="715.91 942.75 715.91 935.7 709.8 932.17 703.7 935.7 703.7 942.75 709.8 946.27 715.91 942.75"/>
      <polygon class="cls-13" points="732.35 942.75 732.35 935.7 726.24 932.17 720.14 935.7 720.14 942.75 726.24 946.27 732.35 942.75"/>
      <polygon class="cls-13" points="748.31 942.75 748.31 935.7 742.21 932.17 736.1 935.7 736.1 942.75 742.21 946.27 748.31 942.75"/>
      <polygon class="cls-13" points="764.75 942.75 764.75 935.7 758.64 932.17 752.54 935.7 752.54 942.75 758.64 946.27 764.75 942.75"/>
      <polygon class="cls-13" points="780.72 942.75 780.72 935.7 774.61 932.17 768.51 935.7 768.51 942.75 774.61 946.27 780.72 942.75"/>
      <polygon class="cls-13" points="796.68 942.75 796.68 935.7 790.57 932.17 784.47 935.7 784.47 942.75 790.57 946.27 796.68 942.75"/>
      <polygon class="cls-13" points="813.12 942.75 813.12 935.7 807.01 932.17 800.91 935.7 800.91 942.75 807.01 946.27 813.12 942.75"/>
      <polygon class="cls-13" points="829.09 942.75 829.09 935.7 822.98 932.17 816.88 935.7 816.88 942.75 822.98 946.27 829.09 942.75"/>
      <polygon class="cls-13" points="546.85 929.3 546.85 922.25 540.75 918.73 534.65 922.25 534.65 929.3 540.75 932.83 546.85 929.3"/>
      <polygon class="cls-13" points="562.82 929.3 562.82 922.25 556.71 918.73 550.61 922.25 550.61 929.3 556.71 932.83 562.82 929.3"/>
      <polygon class="cls-13" points="578.79 929.3 578.79 922.25 572.68 918.73 566.58 922.25 566.58 929.3 572.68 932.83 578.79 929.3"/>
      <polygon class="cls-13" points="595.22 929.3 595.22 922.25 589.12 918.73 583.01 922.25 583.01 929.3 589.12 932.83 595.22 929.3"/>
      <polygon class="cls-13" points="611.19 929.3 611.19 922.25 605.08 918.73 598.98 922.25 598.98 929.3 605.08 932.83 611.19 929.3"/>
      <polygon class="cls-13" points="627.63 929.3 627.63 922.25 621.52 918.73 615.42 922.25 615.42 929.3 621.52 932.83 627.63 929.3"/>
      <polygon class="cls-13" points="643.59 929.3 643.59 922.25 637.48 918.73 631.38 922.25 631.38 929.3 637.48 932.83 643.59 929.3"/>
      <polygon class="cls-13" points="659.56 929.3 659.56 922.25 653.45 918.73 647.35 922.25 647.35 929.3 653.45 932.83 659.56 929.3"/>
      <polygon class="cls-13" points="676 929.3 676 922.25 669.89 918.73 663.79 922.25 663.79 929.3 669.89 932.83 676 929.3"/>
      <polygon class="cls-13" points="691.96 929.3 691.96 922.25 685.85 918.73 679.75 922.25 679.75 929.3 685.85 932.83 691.96 929.3"/>
      <polygon class="cls-13" points="707.93 929.3 707.93 922.25 701.82 918.73 695.72 922.25 695.72 929.3 701.82 932.83 707.93 929.3"/>
      <polygon class="cls-13" points="724.36 929.3 724.36 922.25 718.26 918.73 712.15 922.25 712.15 929.3 718.26 932.83 724.36 929.3"/>
      <polygon class="cls-13" points="740.33 929.3 740.33 922.25 734.22 918.73 728.12 922.25 728.12 929.3 734.22 932.83 740.33 929.3"/>
      <polygon class="cls-13" points="756.3 929.3 756.3 922.25 750.19 918.73 744.09 922.25 744.09 929.3 750.19 932.83 756.3 929.3"/>
      <polygon class="cls-13" points="772.73 929.3 772.73 922.25 766.63 918.73 760.52 922.25 760.52 929.3 766.63 932.83 772.73 929.3"/>
      <polygon class="cls-13" points="788.7 929.3 788.7 922.25 782.59 918.73 776.49 922.25 776.49 929.3 782.59 932.83 788.7 929.3"/>
      <polygon class="cls-13" points="804.67 929.3 804.67 922.25 798.56 918.73 792.46 922.25 792.46 929.3 798.56 932.83 804.67 929.3"/>
      <polygon class="cls-13" points="821.1 929.3 821.1 922.25 814.99 918.73 808.89 922.25 808.89 929.3 814.99 932.83 821.1 929.3"/>
      <polygon class="cls-13" points="837.07 929.3 837.07 922.25 830.96 918.73 824.86 922.25 824.86 929.3 830.96 932.83 837.07 929.3"/>
      <polygon class="cls-13" points="789.64 970.73 789.64 963.68 783.53 960.15 777.43 963.68 777.43 970.73 783.53 974.26 789.64 970.73"/>
      <polygon class="cls-13" points="781.19 983.85 781.19 976.8 775.08 973.27 768.98 976.8 768.98 983.85 775.08 987.38 781.19 983.85"/>
      <polygon class="cls-13" points="781.19 957.29 781.19 950.24 775.08 946.71 768.98 950.24 768.98 957.29 775.08 960.82 781.19 957.29"/>
      <polygon class="cls-13" points="808.89 970.73 808.89 963.68 815 960.15 821.1 963.68 821.1 970.73 815 974.26 808.89 970.73"/>
      <polygon class="cls-13" points="816.88 983.85 816.88 976.8 822.98 973.27 829.09 976.8 829.09 983.85 822.98 987.38 816.88 983.85"/>
      <polygon class="cls-13" points="816.88 957.29 816.88 950.24 822.98 946.71 829.09 950.24 829.09 957.29 822.98 960.82 816.88 957.29"/>
      <rect class="cls-15" x="87.82" y="888.49" width="93.45" height="24.89"/>
      <polygon class="cls-8" points="143.1 894.95 139.39 891.25 135.68 894.95 137.53 896.8 128.23 906.09 131.94 909.8 135.64 906.09 133.8 904.25 143.1 894.95"/>
      <rect class="cls-8" x="122.6" y="895.12" width="13.15" height="5.24" transform="translate(-596.97 354.29) rotate(-45)"/>
      <rect class="cls-8" x="135.57" y="900.68" width="13.15" height="5.24" transform="translate(-597.09 365.08) rotate(-45)"/>
    </g>
  </g>
  <g>
    <path class="cls-10" d="M891.84,692.86h119.22v2.27c0,3.86-3.14,7-7,7h-105.22c-3.86,0-7-3.14-7-7v-2.27h0Z"/>
    <g>
      <path class="cls-2" d="M1361.03,610.26v-30.34h-82.59v131.46h64.89c9.78,0,17.7-7.92,17.7-17.7v-14.33h25.28v-69.1h-25.28ZM1374.51,667.56h-13.48v-45.51h13.48v45.51Z"/>
      <rect class="cls-7" x="1278.54" y="580.02" width="40.01" height="131.39"/>
    </g>
    <path class="cls-9" d="M687.92,356.98h532.6c6.62,0,12,5.38,12,12v324.46h-556.35v-324.71c0-6.49,5.26-11.75,11.75-11.75Z"/>
    <polyline class="cls-11" points="1131.92 676.22 698.69 676.22 698.69 384.8 739.69 384.8"/>
    <polyline class="cls-1" points="739.69 384.8 1210 384.8 1210 676.22 1131.92 676.22"/>
    <path class="cls-3" d="M609.69,692.86h688.81v4.54c0,7.73-6.27,14-14,14h-660.81c-7.73,0-14-6.27-14-14v-4.54h0Z"/>
    <g class="cls-25">
      <path class="cls-6" d="M1328.12,589.91c.76-.05,1.51-.12,2.27-.21,1.64-.38,3.17-1.02,4.59-1.93,2.3-1.44,4.28-3.55,5.53-5.96,1.71-3.3,1.97-6.65,1.13-10.22-.88-3.74-2.73-6.79-5.34-9.59-1.85-2-3.99-3.68-6.41-4.93-2.33-1.21-5.13-1.6-7.72-1.65-2.67-.05-5.39.36-8-.37-3.62-1.01-6.45-3.73-7.86-7.34.16.73.33,1.46.49,2.19-.25-1.39-.49-2.77-.74-4.16.09.93.18,1.87.27,2.8,0-1.38-.02-2.75-.03-4.13-.04.74-.08,1.48-.11,2.22.19-1.35.39-2.7.58-4.06-.14.73-.28,1.46-.42,2.2,1.14-3.19,2.31-6.37,3.52-9.53.52-1.57,1.31-2.98,2.39-4.25-.56.62-1.13,1.23-1.69,1.85.82-.77,1.65-1.53,2.47-2.3-.65.53-1.3,1.07-1.95,1.6,1.44-.6,2.88-1.19,4.31-1.79,1.18-.1,2.31.05,3.4.43.78.25,1.48.57,2.19.98.79.46,1.77.87,2.65,1.1.07.02,1.07.31.74-.1-2.8-3.49-8.28-5.44-12.04-2.34-1.41,1.16-2.67,2.52-3.45,4.19-.95,2.03-1.34,4.37-2.03,6.49.28-.7.57-1.4.85-2.11-1.22,2.67-2.31,5.21-2.03,8.19.14,1.49.5,2.94,1.23,4.24,2.09,3.73,6.43,6.06,10.63,6.49,2.96.3,5.87.15,8.78.92,1.51.27,2.82.98,3.93,2.13,1.85.84,3.33,2.09,4.45,3.75,1.04,1.41,2,2.93,2.69,4.55,1.54,3.58,1.32,8.51-1.04,11.7-.9,1.23-2,2.31-3.2,3.25-2.3,1.78-5.07,2.5-7.95,2.58-.62.02.69,1.27.81,1.39.43.44,1.37,1.78,2.08,1.72Z"/>
      <path class="cls-6" d="M1328.28,592.93c1.85-.21,3.13-.4,4.84-1.08,2.59-1.03,4.89-3.03,6.62-5.19.91-1.24,1.59-2.59,2.04-4.05.63-1.43.99-2.93,1.06-4.51.02-2.26-.47-4.7-1.25-6.8-1.85-5.01-5.82-9.18-10.3-11.95-2.29-1.42-4.84-2.25-7.54-2.44-3.39-.23-7.13.66-10.4-.44-1.78-.6-3.73-1.62-4.95-3.09-.86-2.13-1.73-4.25-2.59-6.38.14-1.3.49-2.53,1.04-3.71.79-1.76,1.95-3.36,2.71-5.11.23-.58.47-1.15.7-1.73.42-1.82,1.64-2.94,3.64-3.36,1.31-1.68,2.83-2.16,4.55-1.45.77.17,1.48.47,2.11.92,1.17.72,2.11,1.58,2.93,2.69.21.28,1.9.9,1.43.18-2.63-3.95-8.25-6.58-12.47-3.45-1.49,1.1-2.11,2.79-2.82,4.43-1.76,4.07-5.66,8.74-4,13.51.79,2.27,2.18,3.99,4.12,5.44.86.64,1.5,1.05,2.5,1.4,1.87.65,3.68.82,5.65.71,1.93-.12,3.86-.15,5.79-.09,5.54.94,9.86,3.41,12.95,7.4,1.05,1.16,1.95,2.42,2.7,3.81,1.31,2.26,1.73,4.7,1.27,7.32.67,2.52.32,4.83-1.05,6.94-.56,1.33-1.41,2.42-2.52,3.28-2.92,2.66-6.09,4.14-10.05,4.68-.61.08.86,2.19,1.27,2.15Z"/>
      <path class="cls-6" d="M1326.33,587.91c1.59.06,3.13-.2,4.61-.78,1.18-.44,2.26-1.06,3.24-1.86,2.21-1.6,3.67-3.49,4.71-6,.6-1.23.96-2.54,1.08-3.92,0-1.9-.3-3.76-.92-5.56-.98-2.75-2.52-5.01-4.5-7.17-1.61-1.76-3.71-3.63-5.9-4.68-2.05-.99-4.32-1.25-6.55-1.37-1.97-.1-3.94.13-5.9-.14-2.26-.31-4.16-1.49-6.02-2.73.08.06.17.12.25.18-2.15-1.72-3.12-2.93-4.35-5.67.51,1.67,1.01,3.33,1.52,5-.56-2.03-1.11-4.06-1.67-6.08.46,2.82.92,5.64,1.38,8.46-.37-4.35-.73-8.69-1.1-13.04l-.51,9.43c.36-3.43.72-6.85,1.07-10.28-.49,2.77-.97,5.54-1.46,8.31.76-6.12,2.34-11.97,4.74-17.57-.44.75-.87,1.5-1.31,2.25.58-.91,1.16-1.83,1.74-2.74-1.72,2.22-3.43,4.44-5.15,6.67,2.76-3.02,5.53-6.05,8.29-9.07-2.29,2.03-4.58,4.06-6.87,6.08,2.58-1.93,5.17-3.85,7.75-5.78-2.48,1.59-4.97,3.19-7.45,4.78,3.46-1.51,6.92-3.03,10.38-4.54l-8.35,2.59c4.55.89,8.92.69,13.1-.59-.16-.17-.36-.26-.59-.29-.62-.21-1.26-.35-1.91-.44-1.47-.29-2.95-.56-4.43-.81-.52-.08-1.04-.16-1.56-.24-4.38-.47-7.44,2.45-9.16,8.77-.15.69-.26,1.4-.33,2.1-.57,5.17-.03,11.04,2.97,15.45,2.02,2.97,4.98,5.11,8.27,6.48,1.43.59,2.99,1.19,4.43,1.72,1.41.52,2.84.77,4.3,1.07,1.28.26,2.28.75,3.19,1.7.4.34.71.76.92,1.25.1.73.44,1.34,1.01,1.8.16.35.33.69.49,1.04,0,.81.24,1.53.71,2.19.2.59.15,1.14-.15,1.65-.24.56-.43,1.14-.57,1.74-.61,1.25-2.08,2.11-3.24,2.81-2.11,1.26-4.81,1.2-7.15,1.02.08.35.27.64.57.87.88.93,1.78,1.84,2.7,2.74.91.9,1.84,1.79,2.78,2.65.24.3.53.48.88.56Z"/>
      <path class="cls-6" d="M1326.48,589.45c1.58.05,3.1-.22,4.57-.82,1.58-.66,3.01-1.56,4.29-2.7,1.95-1.84,3.4-4.05,4.16-6.66.81-2.77.54-5.66-.34-8.39-1.05-3.25-3.09-5.92-5.45-8.33-2.03-2.07-4.43-3.94-7.27-4.73-2.16-.61-4.4-.82-6.64-.82-1.31.11-2.61.1-3.92-.03-1.24-.38-2.49-.75-3.73-1.13-2.37-1.11-4.17-2.87-5.67-5,.27.52.55,1.04.82,1.56-.45-.95-.9-1.89-1.35-2.84.48,1.44.97,2.88,1.45,4.32-.63-2.07-1.25-4.15-1.88-6.22.37,1.82.74,3.64,1.11,5.46-.36-2.45-.72-4.89-1.08-7.34.13,1.82.27,3.65.4,5.47-.02-2.43-.03-4.87-.05-7.3-.11,1.82-.21,3.64-.32,5.46.3-2.39.6-4.79.89-7.18-.33,1.75-.65,3.5-.98,5.26.97-4.88,2.41-9.62,4.32-14.2-.29.48-.57.96-.86,1.43.49-.73.98-1.46,1.47-2.19-.92,1.1-1.84,2.19-2.77,3.29,1.31-1.43,2.61-2.87,3.92-4.3-1.31,1.23-2.62,2.47-3.94,3.7,1.81-1.49,3.62-2.97,5.43-4.46-1.46,1.07-2.92,2.14-4.39,3.21,1.97-1.18,3.94-2.35,5.9-3.53-1.57.81-3.13,1.62-4.7,2.43,2.08-.81,4.16-1.62,6.25-2.42-1.67.56-3.34,1.11-5.01,1.67,2.17-.46,4.34-.93,6.51-1.39-1.95.3-3.91.6-5.86.9,2.76.04,5.51.08,8.27.12-1.75-.22-3.51-.44-5.26-.66,2.41.86,4.87,1.53,7.38,2.02.26,0,.29-.08.09-.24-.49-.31-1.01-.55-1.56-.73-2.34-.84-2.05-.83.88.03-.5-.25-1.03-.43-1.58-.54-.77-.22-1.55-.42-2.32-.6-.74-.18-1.9-.73-2.63-.39-4.46,2.06-4.62,1.29-6.51,3.79-.83,1.1-1.81,2.32-2.48,3.55-.64,1.18-.67,2.82-.78,4.12-.16,2-.42,4.24-.09,6.24.24,1.46.53,2.91.88,4.34.27,1.11.85,2.08,1.5,3.02,2.01,2.91,5.42,4.54,8.68,5.62,1.37.45,2.74.89,4.17,1.1,1.27.19,2.57.18,3.82.46,1.23.27,2.38.68,3.47,1.3,1.52,1.45,2.87,3.04,4.05,4.76.25.52.51,1.03.76,1.55.21.83.45,1.66.71,2.48.3.74.39,1.52.26,2.33-.18,1.35-.98,3.47-1.95,4.46-1.21,1.25-2.8,2.46-4.45,3.02-1.9.64-3.7.75-5.69.62,0,.3.13.56.36.78.63.83,1.28,1.65,1.96,2.45.66.81,1.35,1.6,2.05,2.38.17.27.41.44.7.5Z"/>
      <path class="cls-6" d="M1328.43,589.59c1.54,0,3.01-.33,4.42-.97.8-.4,1.58-.82,2.37-1.24,1.56-1.03,3.08-2.28,4.22-3.76,2.17-2.81,3.32-6.32,3.11-9.85-.23-3.92-1.63-7.43-4.01-10.54-1.85-2.42-4.07-4.47-6.6-6.14-2.98-1.97-6.39-2.77-9.94-2.77-2.65,0-5.35.43-7.94-.32-3.57-1.03-6.4-3.78-7.75-7.35.16.72.31,1.45.47,2.17-.2-1.19-.39-2.39-.59-3.58.06.74.11,1.47.17,2.21,0-1.37,0-2.74.01-4.11-.03.73-.06,1.47-.1,2.2.56-3.64,3.19-10.57,5.31-14.42-.45.64-.9,1.28-1.35,1.91.66-.86,1.32-1.73,1.97-2.59-.52.58-1.04,1.16-1.56,1.74.99-.79,1.99-1.57,2.98-2.36-.26.13-.53.27-.79.4,4.24-1.29,6.64-.53,9.66,1.66.45.32,1.37.51,1.91.56.1,0,.79.09.53-.24-2.54-3.26-7.42-5.73-11.41-3.49-1.25.7-2.2,1.78-3.05,2.92-1.74,2.31-2.2,5.15-3.19,7.8.29-.68.57-1.35.86-2.03-1.27,2.47-2.62,5-2.49,7.87.06,1.38.27,2.89.75,4.19,1.46,3.96,5.97,6.39,9.87,7.13,2.08.39,4.19.23,6.29.37,1.12.05,2.23.21,3.31.5,1.19.18,2.29.61,3.3,1.29,1.52.53,2.85,1.36,3.98,2.52.62.63,1.23,1.25,1.85,1.88,1.53,1.73,2.81,3.63,3.6,5.8.75,2.07,1.41,4.66,1.03,6.87-.29,1.7-.92,3.32-1.72,4.84-2.55,4.85-6.66,6.55-11.24,6.96-.49.04.17.68.23.74.26.28,1.08,1.27,1.53,1.22Z"/>
      <path class="cls-6" d="M1326.23,587.44c1.59.07,3.12-.18,4.61-.75.74-.37,1.48-.74,2.23-1.1,2.19-1.24,4.12-3.31,5.29-5.52,1.33-2.49,1.89-5.2,1.49-8-.41-2.87-1.61-5.72-3.36-8.02-3.1-4.08-7.11-7.79-12.41-8.37-1.76-.19-3.54-.19-5.3-.14-2.54.08-4.52-.45-6.84-1.45.08.05.17.1.25.15-.41-.25-.81-.5-1.22-.75.08.05.16.11.25.16-.47-.32-.95-.64-1.42-.96.08.06.16.11.24.17-2.14-1.74-3.05-2.92-4.25-5.69.47,1.59.94,3.17,1.42,4.76-.51-1.96-1.02-3.93-1.53-5.89.43,2.68.87,5.35,1.3,8.03-.3-4.18-.61-8.36-.91-12.54-.13,2.96-.27,5.91-.4,8.87l1.04-9.75c-.42,2.6-.85,5.19-1.27,7.79.64-3.16,1.29-6.31,1.93-9.47-.52,2-1.04,4.01-1.56,6.01,1.1-4.58,2.53-9.06,4.29-13.43-1.45,2.46-2.9,4.92-4.34,7.38l6.01-8.87c-1.83,2.07-3.65,4.15-5.48,6.22,2.81-2.4,5.61-4.8,8.42-7.2-2.13,1.48-4.25,2.97-6.38,4.45,3.1-1.38,6.21-2.75,9.31-4.13-2.35.82-4.7,1.64-7.05,2.45,3.1-.48,6.21-.95,9.31-1.43.32.02.59-.08.81-.28,1.03.78,1.18.9.44.34-.47-.38-.98-.71-1.52-.99-.08-.03-.16-.06-.23-.08-2.79.17-5.57.39-8.36.66-.33.13-.59.37-.77.7-.55.71-1.09,1.43-1.61,2.17-.66.91-1.32,1.83-1.96,2.75-.48.62-.89,1.28-1.25,1.98-.29,1.27-.57,2.51-.61,3.81.14,1.54.28,3.07.42,4.61l.22,1.66c.29,2.09.57,4.31,1.07,6.37.28,1.12.85,1.86,1.64,2.81,1.57,1.88,3.53,3.29,5.74,4.33,2.67,1.25,5.62,2.32,8.55,2.71,2.23.3,4.44.62,6.07,2.37.71.76,1.03,1.74,1.68,2.53.85,1.03,1.11,2.07,1.51,3.29.41.59.6,1.24.57,1.94.13.72,0,1.41-.37,2.08-.39,1.3-.82,2.28-1.9,3.19-1.1.93-2.22,1.86-3.62,2.31-1.92.63-3.77.7-5.77.58.04.29.18.52.44.7.7.71,1.43,1.41,2.17,2.08.73.69,1.48,1.35,2.25,1.99.2.24.45.36.74.38Z"/>
      <path class="cls-6" d="M1326.94,590.64c1.6.05,3.13-.24,4.6-.86,1.58-.69,3.01-1.62,4.28-2.78,1.95-1.89,3.39-4.16,4.12-6.81,1.69-6.21-1.73-12.39-5.98-16.7-2.01-2.04-4.37-3.89-7.18-4.7-2.14-.62-4.36-.85-6.58-.86-2.67-.01-5.27-.09-7.73-1.24-2.38-1.11-4.12-2.77-5.67-4.9.23.42.47.84.7,1.25-.42-.87-.85-1.75-1.27-2.62.39,1.17.78,2.35,1.17,3.52-.54-1.81-1.08-3.62-1.61-5.44.28,1.49.55,2.98.83,4.47-.27-2.12-.55-4.24-.82-6.35.07,1.5.13,2.99.2,4.49.05-2.11.1-4.21.14-6.32-.15,1.5-.31,2.99-.46,4.49.34-2.07.68-4.15,1.02-6.22-.27,1.15-.53,2.3-.8,3.45,1.12-3.97,2.59-9.95,5.04-13.57-.66.71-1.32,1.42-1.98,2.13.95-.92,1.9-1.83,2.85-2.75-1.3,1.01-2.59,2.02-3.89,3.02,1.8-1.26,3.59-2.52,5.39-3.78-1.45.86-2.9,1.71-4.35,2.57,1.96-.97,3.92-1.94,5.88-2.91-1.56.62-3.13,1.24-4.69,1.85,2.09-.61,4.18-1.23,6.26-1.84-1.68.37-3.37.75-5.05,1.12,2.19-.27,4.39-.55,6.58-.82-1.8.12-3.6.24-5.4.36,2.24.03,4.47.06,6.71.09-1.8-.14-3.61-.29-5.41-.43,2.19.34,4.37.68,6.56,1.02-1.82-.4-3.63-.79-5.45-1.19,2.5,1.05,5.05,1.95,7.65,2.69.28.03.32-.04.11-.24-.51-.36-1.05-.67-1.63-.91-1.08-.52-2.16-1.02-3.26-1.51-.39-.16-.77-.33-1.16-.49,1.78.72,3.56,1.43,5.34,2.15-.52-.3-1.06-.54-1.64-.71-1.55-.58-3.29-1.39-4.96-1.57-1.74-.19-3.13.78-4.53,1.62-.86.51-1.8.98-2.53,1.67-2.12,1.98-2.51,5.18-2.82,7.87-.34,2.98-.38,5.94.17,8.89.34,1.82.64,3.01,1.75,4.59,1.52,2.16,3.67,3.63,6.05,4.69,1.45.65,3.13,1.24,4.65,1.64,2.68.69,5.57.5,8.15,1.57,2.05.81,3.61,2.26,4.68,4.35.71.88,1.26,1.86,1.65,2.93.25,1.1.54,2.18.88,3.25.16,1.11,0,2.18-.52,3.19-.23,1.08-.73,2.02-1.49,2.82-.87.79-1.79,1.52-2.77,2.18-2.28,1.37-4.77,1.56-7.35,1.38.02.34.15.63.4.89.69.98,1.41,1.94,2.14,2.89.72.95,1.47,1.89,2.23,2.81.18.31.43.51.76.62Z"/>
      <path class="cls-6" d="M1327.62,588.56c1.53-.03,3-.37,4.39-1.02,1.67-.74,3.18-1.71,4.53-2.93.72-.65,1.42-1.36,2-2.14,1.72-2.28,2.87-5.24,3.05-8.08.23-3.74-1.12-7.5-3.16-10.56-3.63-5.44-9.02-9.77-15.74-10.15-3.7-.21-7.83.77-11.3-1.12-2.78-1.51-4.63-3.42-5.87-6.55.3,1.18.61,2.36.91,3.54-.4-1.84-.79-3.68-1.19-5.51.22,1.48.44,2.97.67,4.45-.13-1.82-.26-3.64-.39-5.46.03,1.17.07,2.33.1,3.5.11-1.78.21-3.56.32-5.34-.1,1.14-.2,2.28-.3,3.42,1.03-4.96,2.63-9.72,4.8-14.29-.51.9-1.02,1.81-1.53,2.71.7-1.08,1.41-2.15,2.11-3.23-.58.82-1.17,1.64-1.75,2.46,4.29-4.87,8.63-3.67,12.52-1.26.37.23,1.27.41,1.7.37.09,0,.72.01.46-.29-2.63-3.06-7.75-5.71-11.59-3.15-.76.5-1.73,1.44-2.3,2.17-.4.51-.71,1.11-1.04,1.66-1.48,2.55-2.09,5.3-2.84,8.13.31-1.04.62-2.07.93-3.11-.52,1.03-1.27,2.16-1.53,3.27-.13.57-.18,1.15-.23,1.73-.12,1.44-.44,2.9-.27,4.34.09.75.31,1.51.49,2.25.54,2.24,1.34,4.19,3.2,5.74,1.5,1.25,3.38,2.31,5.24,2.92,1.92.62,3.98.9,5.98.92,1.19.01,2.38,0,3.57.11.64.09,1.28.18,1.92.27,1.74.24,3.26.97,4.57,2.18,1.32.61,2.46,1.44,3.42,2.49.62.54,1.17,1.14,1.65,1.81,1.33,1.64,2.44,3.48,3.08,5.5.19.83.37,1.67.56,2.5-2.12,4.08-4.24,8.15-6.37,12.23-1.77,1.31-3.95,1.79-6.06,2.07-.54.07.85,1.51,1.27,1.46Z"/>
      <path class="cls-6" d="M1326.69,589.1c1.6.05,3.14-.22,4.63-.82.74-.39,1.47-.77,2.21-1.16,2.2-1.31,4.04-3.39,5.14-5.68,1.25-2.59,1.7-5.18,1.15-8.01-.55-2.8-1.78-5.47-3.58-7.67-3.07-3.74-6.89-7.14-11.88-7.73-1.66-.2-3.35-.22-5.02-.19-2.48.04-4.41-.5-6.67-1.5.08.04.17.09.25.13-.97-.56-1.92-1.12-2.8-1.81-1.82-1.42-2.73-2.85-3.8-5.08.48,1.46.95,2.92,1.43,4.38-.55-1.85-1.09-3.7-1.64-5.56.42,2.48.85,4.96,1.27,7.44-.36-3.97-.72-7.95-1.08-11.92-.18,2.78-.37,5.56-.55,8.35.59-3.93,1.19-7.85,1.78-11.78-.19.74-.39,1.48-.58,2.22.94-3.03,1.72-6.15,3.02-9.05-1.34,1.89-2.69,3.78-4.03,5.67,2.02-2.65,4.05-5.29,6.07-7.94-2.06,1.96-4.13,3.93-6.19,5.89,2.39-2.04,4.77-4.08,7.16-6.12-2.11,1.56-4.21,3.12-6.32,4.68,2.6-1.69,5.19-3.37,7.79-5.06-2.25,1.22-4.51,2.45-6.76,3.67,2.76-1.24,5.52-2.48,8.29-3.72-2.41.89-4.82,1.79-7.23,2.68l8.72-2.47c-2.56.57-5.13,1.14-7.69,1.71,2.98-.44,5.95-.88,8.93-1.32-2.55.19-5.1.39-7.66.58,2.92-.03,5.84-.06,8.76-.09-2.56-.14-5.12-.29-7.68-.43,2.86.33,5.73.66,8.59.99-2.57-.45-5.15-.9-7.72-1.34,3.01.89,6.07,1.58,9.17,2.05.37.01.39-.07.07-.25-.75-.33-1.53-.59-2.33-.79-3.22-1.27-6.52-1.05-9.9.66-1.13,1.02-2.24,2.06-3.34,3.12-.51.43-.97.91-1.39,1.42-.47.66-.67,1.41-.85,2.23-.81,3.66-.36,7.82.43,11.47.78,3.6,2.57,6.69,5.4,9.07,1.57,1.32,3.39,2.35,5.28,3.15.66.28,1.32.52,2,.74.84.26,1.64.6,2.4,1.04,2.8,1.12,6.69.88,8.1,4.12.06.72.38,1.28.98,1.69l.5.97c.02.79.27,1.5.77,2.11.25.76.16,1.48-.27,2.16-.1.88-.46,1.64-1.1,2.27-.79.6-1.6,1.19-2.41,1.75-2.17,1.22-4.69,1.21-7.08,1.02.09.39.29.72.6,1,.92,1.1,1.87,2.17,2.83,3.23.95,1.07,1.93,2.12,2.92,3.16.24.34.55.57.93.7Z"/>
      <path class="cls-6" d="M1326.7,588.53c1.55.03,3.05-.25,4.48-.86,1.62-.66,3.08-1.56,4.4-2.71,2.02-1.86,3.56-4.09,4.38-6.74,2.01-6.49-1.45-12.98-5.97-17.5-2.15-2.15-4.71-4.08-7.7-4.86-2.26-.59-4.58-.75-6.91-.7-1.33.13-2.66.13-3.99,0-1.25-.37-2.5-.73-3.75-1.1-2.76-1.32-4.8-3.55-6.03-6.4.42,1.42.85,2.84,1.27,4.26-.54-2.07-1.08-4.13-1.62-6.2.32,1.79.65,3.58.97,5.37-.29-2.42-.57-4.84-.86-7.27.12,1.78.23,3.56.35,5.35.03-2.39.06-4.78.09-7.17-.1,1.76-.2,3.53-.3,5.29.28-1.98.55-3.97.83-5.95-.24,1.34-.49,2.68-.73,4.02.88-4.67,2.3-9.14,4.27-13.42-.68,1.13-1.37,2.26-2.05,3.39.99-1.53,1.97-3.06,2.96-4.6-.97,1.31-1.94,2.62-2.91,3.93,1.16-1.38,2.32-2.75,3.48-4.13-.86.93-1.73,1.85-2.59,2.78,1.35-1.19,2.69-2.38,4.04-3.57-.95.8-1.89,1.59-2.84,2.39,3.37-2.19,6.84-2.45,10.4-.79.47.15,1.59.68,2.05.54.11-.04.54.05.27-.23-1.15-1.24-2.57-2.23-4.18-2.8-1.17-.42-3.68-.88-4.89-.33-1.3.6-2.61,1.23-3.51,2.35-.9,1.11-1.91,2.28-2.59,3.54-.35.64-.59,1.34-.83,2.02-.36,1.16-.62,2.35-.79,3.55-.78,1.9-1.14,3.85-1.08,5.83.23,3.06.88,6.25,2.8,8.71,1.99,2.56,4.78,4.02,7.8,5.04,1.33.43,2.69.73,4.08.88,1.11.11,2.22.16,3.33.16,1.67.16,3.36.47,4.89,1.19,2.59,1.21,5.08,4.21,6.53,6.77,1.39,2.46,2.01,5.19,1.38,7.96-.47,2.06-1.43,3.66-2.96,5.11-2.6,2.48-5.62,3.45-9.21,3.41-.64,0,.81,1.4.93,1.53.45.47,1.54,2.03,2.3,1.97Z"/>
      <path class="cls-6" d="M1328.27,588.49c1.57-.05,3.06-.42,4.48-1.09,1.67-.76,3.17-1.77,4.52-3.01.72-.67,1.41-1.38,2-2.17,2.39-3.23,3.42-7.37,2.78-11.33-.61-3.81-2.46-7.1-4.95-9.99-2.16-2.52-4.72-4.81-7.76-6.22-2.75-1.27-5.65-1.55-8.63-1.5-3.01.05-6.11.39-8.89-1.08-2.79-1.47-4.67-3.45-5.88-6.55.24,1.09.49,2.17.73,3.26-.33-1.75-.66-3.49-.99-5.24.16,1.37.32,2.75.48,4.12-.07-1.73-.15-3.46-.22-5.2,0,1.08-.01,2.17-.02,3.25.16-1.7.31-3.4.47-5.1-.13,1.07-.26,2.13-.39,3.2,1.18-4.84,2.86-9.49,5.02-13.97-.52.87-1.03,1.75-1.55,2.62.71-1.05,1.42-2.1,2.13-3.15-.59.8-1.17,1.59-1.76,2.39,3.69-3.18,7.23-3.85,10.6-2.02.78.37,1.52.81,2.21,1.32.21.14,2.35.32,2-.1-1.4-1.68-3.22-3.24-5.34-3.86-2.07-.61-4.46-.81-6.35.42-.76.49-1.74,1.43-2.32,2.15-.4.49-.72,1.07-1.05,1.61-1.51,2.48-2.16,5.2-2.94,7.98.33-.98.65-1.96.98-2.94-1.2,2.38-2.33,4.53-2.39,7.31-.04,2,.38,4.29,1.14,6.14,1.83,4.45,7.19,6.74,11.68,7.23,3.16.34,6.35,0,9.42,1.06,3.3,1.14,5.93,3.41,8.13,6.09,2.71,3.31,4.51,7.53,3.76,11.86-.14,1.24-.5,2.43-1.08,3.55-1.62,1.79-3.25,3.58-4.87,5.38-.74.41-1.48.83-2.23,1.24-1.27.63-2.62,1-4.04,1.11-.54.09.74,1.28,1.13,1.23Z"/>
      <path class="cls-6" d="M1326.39,589.74c1.6.06,3.14-.22,4.62-.82,1.56-.68,2.97-1.59,4.23-2.74,1.93-1.86,3.31-4.08,4.04-6.69,1.68-6.09-1.8-12.08-6.04-16.21-1.99-1.94-4.25-3.74-6.98-4.49-2.06-.56-4.15-.71-6.28-.73-1.29.08-2.57.03-3.86-.14-1.23-.41-2.45-.82-3.68-1.23-2.79-1.33-4.87-3.38-6.28-6.23l1.65,4.71c-.71-2.2-1.42-4.4-2.13-6.6.42,2,.85,3.99,1.27,5.99-.44-2.62-.87-5.24-1.31-7.86.16,2.01.33,4.02.49,6.03-.07-2.62-.13-5.24-.2-7.86-.1,2.02-.2,4.04-.31,6.07.27-2.6.54-5.2.81-7.8-.27,1.55-.54,3.11-.8,4.66.97-4.43,2.16-10.9,4.79-15-1.19,1.38-2.38,2.77-3.57,4.15,1.45-1.56,2.9-3.13,4.35-4.69-1.53,1.37-3.06,2.74-4.59,4.1,2.02-1.64,4.04-3.27,6.06-4.91-1.71,1.19-3.42,2.37-5.13,3.56,2.21-1.32,4.41-2.63,6.62-3.95-1.84.9-3.68,1.8-5.51,2.7,2.35-.91,4.7-1.83,7.05-2.74-1.97.61-3.94,1.23-5.92,1.84,2.47-.54,4.94-1.07,7.41-1.61-2.1.33-4.21.65-6.31.98,2.53-.2,5.06-.39,7.59-.59-2.1,0-4.2.02-6.29.03,2.48.16,4.95.32,7.43.48-2.1-.28-4.21-.57-6.31-.85,2.41.48,4.83.96,7.24,1.44-2.12-.55-4.24-1.11-6.35-1.66,2.5,1.03,5.06,1.84,7.68,2.42.31.02.34-.06.09-.24-.6-.35-1.24-.64-1.9-.86-2.23-.99-4.58-1.52-7.07-1.58-1.41.59-2.67,1.66-3.91,2.54-.85.6-1.69,1.16-2.33,1.95-1.84,2.27-2.11,5.67-2.08,8.47.04,3.11.79,6.58,1.53,9.64.38,1.55.7,2.31,1.83,3.69,1.38,1.68,3.12,2.95,5.04,3.95,1.93,1,4.07,1.77,6.12,2.47,3.35,1.15,7.64.66,9.62,4.27.22.82.65,1.52,1.28,2.09.21.4.41.8.62,1.2.12.92.42,1.77.89,2.57.25.9.16,1.77-.27,2.61-.14.99-.55,1.84-1.23,2.57-.81.71-1.66,1.37-2.55,1.99-2.22,1.32-4.73,1.42-7.22,1.25.04.36.19.67.46.94.76,1.04,1.54,2.06,2.34,3.06.79,1.01,1.6,2.01,2.43,2.99.2.32.47.54.81.66Z"/>
    </g>
  </g>
  <g>
    <path class="cls-5" d="M953.07,402.41c-63.45,0-59.49,27.52-59.49,27.52l.07,28.54h60.57v8.52h-84.61s-40.61-4.61-40.61,59.42,35.44,61.76,35.44,61.76h21.21v-29.71s-1.14-35.44,34.87-35.44h59.98s33.74.55,33.74-32.61v-54.82s5.12-33.18-61.19-33.18ZM930.56,432.54v.04c0,6-4.86,10.86-10.86,10.86h-.02c-6.01,0-10.88-4.87-10.88-10.88h0c0-6.01,4.87-10.88,10.88-10.88h.02c6,0,10.86,4.86,10.86,10.86Z"/>
    <path class="cls-12" d="M954.85,651.12c63.47,0,59.51-27.52,59.51-27.52l-.07-28.51h-60.57v-8.52h84.66s40.63,4.61,40.63-59.42-35.46-61.76-35.46-61.76h-21.16v29.72s1.14,35.43-34.88,35.43h-60.07s-33.75-.55-33.75,32.6v54.81s-5.12,33.17,61.2,33.17h-.03ZM988.29,631.87c-6.03,0-10.92-4.86-10.93-10.87,0,0,0,0,0,0,0-6.01,4.87-10.88,10.88-10.88h0c6.01,0,10.88,4.87,10.88,10.88v.02c0,6-4.86,10.86-10.86,10.86,0,0,.04,0,.03,0h0Z"/>
  </g>
  <text class="cls-18" transform="translate(48.72 196.09)"><tspan x="0" y="0">pan-os-upgrade</tspan></text>
  <g class="cls-22">
    <g class="cls-21">
      <rect class="cls-14" x="1080.38" y="876.28" width="772.49" height="131.02"/>
    </g>
    <polygon class="cls-8" points="1626.77 990.16 1626.77 997.21 1640.85 997.21 1640.85 990.16 1644.61 990.16 1644.61 975.6 1623.01 975.6 1623.01 990.16 1626.77 990.16"/>
    <g class="cls-24">
      <path class="cls-8" d="M1417.03,986.9c-1.87,0-3.38-1.51-3.38-3.38s1.51-3.39,3.38-3.39,3.38,1.51,3.38,3.39-1.51,3.38-3.38,3.38"/>
      <path class="cls-8" d="M1417.03,997.05c-1.87,0-3.38-1.51-3.38-3.38s1.51-3.39,3.38-3.39,3.38,1.51,3.38,3.39-1.51,3.38-3.38,3.38"/>
      <path class="cls-8" d="M1417.03,956.89c-1.87,0-3.38-1.51-3.38-3.38s1.51-3.39,3.38-3.39,3.38,1.51,3.38,3.39-1.51,3.38-3.38,3.38"/>
      <path class="cls-8" d="M1417.03,967.05c-1.87,0-3.38-1.51-3.38-3.38s1.51-3.39,3.38-3.39,3.38,1.51,3.38,3.39-1.51,3.38-3.38,3.38"/>
      <path class="cls-8" d="M1464.76,986.9c-1.87,0-3.38-1.51-3.38-3.38s1.51-3.39,3.38-3.39,3.38,1.51,3.38,3.39-1.51,3.38-3.38,3.38"/>
      <path class="cls-8" d="M1464.76,997.05c-1.87,0-3.38-1.51-3.38-3.38s1.51-3.39,3.38-3.39,3.38,1.51,3.38,3.39-1.51,3.38-3.38,3.38"/>
      <path class="cls-8" d="M1464.76,956.89c-1.87,0-3.38-1.51-3.38-3.38s1.51-3.39,3.38-3.39,3.38,1.51,3.38,3.39-1.51,3.38-3.38,3.38"/>
      <path class="cls-8" d="M1464.76,967.05c-1.87,0-3.38-1.51-3.38-3.38s1.51-3.39,3.38-3.39,3.38,1.51,3.38,3.39-1.51,3.38-3.38,3.38"/>
      <polygon class="cls-8" points="1141.2 957.29 1141.2 950.25 1127.11 950.25 1127.11 957.29 1123.35 957.29 1123.35 971.38 1144.95 971.38 1144.95 957.29 1141.2 957.29"/>
      <polygon class="cls-8" points="1127.11 990.16 1127.11 997.21 1141.2 997.21 1141.2 990.16 1144.95 990.16 1144.95 975.6 1123.35 975.6 1123.35 990.16 1127.11 990.16"/>
      <polygon class="cls-8" points="1115.37 957.29 1115.37 950.25 1101.28 950.25 1101.28 957.29 1097.53 957.29 1097.53 971.38 1119.13 971.38 1119.13 957.29 1115.37 957.29"/>
      <polygon class="cls-8" points="1101.28 990.16 1101.28 997.21 1115.37 997.21 1115.37 990.16 1119.13 990.16 1119.13 975.6 1097.53 975.6 1097.53 990.16 1101.28 990.16"/>
      <polygon class="cls-8" points="1193.32 957.29 1193.32 950.25 1179.24 950.25 1179.24 957.29 1175.48 957.29 1175.48 971.38 1197.08 971.38 1197.08 957.29 1193.32 957.29"/>
      <polygon class="cls-8" points="1179.24 990.16 1179.24 997.21 1193.32 997.21 1193.32 990.16 1197.08 990.16 1197.08 975.6 1175.48 975.6 1175.48 990.16 1179.24 990.16"/>
      <polygon class="cls-8" points="1167.5 957.29 1167.5 950.25 1153.41 950.25 1153.41 957.29 1149.65 957.29 1149.65 971.38 1171.25 971.38 1171.25 957.29 1167.5 957.29"/>
      <polygon class="cls-8" points="1153.41 990.16 1153.41 997.21 1167.5 997.21 1167.5 990.16 1171.25 990.16 1171.25 975.6 1149.65 975.6 1149.65 990.16 1153.41 990.16"/>
      <rect class="cls-8" x="1218.68" y="950.25" width="21.6" height="21.6"/>
      <rect class="cls-8" x="1218.68" y="975.6" width="21.6" height="21.6"/>
      <rect class="cls-8" x="1243.57" y="950.25" width="21.6" height="21.6"/>
      <rect class="cls-8" x="1243.57" y="975.6" width="21.6" height="21.6"/>
      <rect class="cls-8" x="1268.93" y="950.25" width="21.6" height="21.6"/>
      <rect class="cls-8" x="1268.93" y="975.6" width="21.6" height="21.6"/>
      <rect class="cls-8" x="1293.82" y="950.25" width="21.6" height="21.6"/>
      <rect class="cls-8" x="1293.82" y="975.6" width="21.6" height="21.6"/>
      <rect class="cls-8" x="1318.71" y="950.25" width="21.6" height="21.6"/>
      <rect class="cls-8" x="1318.71" y="975.6" width="21.6" height="21.6"/>
      <rect class="cls-8" x="1352.99" y="950.25" width="21.6" height="21.6"/>
      <rect class="cls-8" x="1352.99" y="975.6" width="21.6" height="21.6"/>
      <rect class="cls-8" x="1377.88" y="949.78" width="21.6" height="21.6"/>
      <rect class="cls-8" x="1377.88" y="975.6" width="21.6" height="21.6"/>
      <rect class="cls-8" x="1426.25" y="976.07" width="28.18" height="20.66"/>
      <rect class="cls-8" x="1426.25" y="949.78" width="28.18" height="20.66"/>
      <path class="cls-8" d="M1512.2,986.9c-1.87,0-3.38-1.51-3.38-3.38s1.51-3.39,3.38-3.39,3.38,1.51,3.38,3.39-1.51,3.38-3.38,3.38"/>
      <path class="cls-8" d="M1512.2,997.05c-1.87,0-3.38-1.51-3.38-3.38s1.51-3.39,3.38-3.39,3.38,1.51,3.38,3.39-1.51,3.38-3.38,3.38"/>
      <path class="cls-8" d="M1512.2,956.89c-1.87,0-3.38-1.51-3.38-3.38s1.51-3.39,3.38-3.39,3.38,1.51,3.38,3.39-1.51,3.38-3.38,3.38"/>
      <path class="cls-8" d="M1512.2,967.05c-1.87,0-3.38-1.51-3.38-3.38s1.51-3.39,3.38-3.39,3.38,1.51,3.38,3.39-1.51,3.38-3.38,3.38"/>
      <path class="cls-8" d="M1735.33,987.01c-1.87,0-3.38-1.51-3.38-3.38s1.51-3.39,3.38-3.39,3.38,1.51,3.38,3.39-1.51,3.38-3.38,3.38"/>
      <path class="cls-8" d="M1735.33,997.05c-1.87,0-3.38-1.51-3.38-3.38s1.51-3.39,3.38-3.39,3.38,1.51,3.38,3.39-1.51,3.38-3.38,3.38"/>
      <path class="cls-8" d="M1735.33,956.89c-1.87,0-3.38-1.51-3.38-3.38s1.51-3.39,3.38-3.39,3.38,1.51,3.38,3.39-1.51,3.38-3.38,3.38"/>
      <path class="cls-8" d="M1735.33,966.93c-1.87,0-3.38-1.51-3.38-3.38s1.51-3.39,3.38-3.39,3.38,1.51,3.38,3.39-1.51,3.38-3.38,3.38"/>
      <path class="cls-8" d="M1735.33,976.97c-1.87,0-3.38-1.51-3.38-3.38s1.51-3.39,3.38-3.39,3.38,1.51,3.38,3.39-1.51,3.38-3.38,3.38"/>
      <path class="cls-8" d="M1745.74,987.01c-1.87,0-3.38-1.51-3.38-3.38s1.51-3.39,3.38-3.39,3.38,1.51,3.38,3.39-1.51,3.38-3.38,3.38"/>
      <path class="cls-8" d="M1745.74,997.05c-1.87,0-3.38-1.51-3.38-3.38s1.51-3.39,3.38-3.39,3.38,1.51,3.38,3.39-1.51,3.38-3.38,3.38"/>
      <path class="cls-8" d="M1745.74,966.93c-1.87,0-3.38-1.51-3.38-3.38s1.51-3.39,3.38-3.39,3.38,1.51,3.38,3.39-1.51,3.38-3.38,3.38"/>
      <path class="cls-8" d="M1745.74,976.97c-1.87,0-3.38-1.51-3.38-3.38s1.51-3.39,3.38-3.39,3.38,1.51,3.38,3.39-1.51,3.38-3.38,3.38"/>
      <path class="cls-8" d="M1603.64,963.66c0-1.87,1.51-3.38,3.38-3.38s3.39,1.51,3.39,3.38-1.51,3.38-3.39,3.38-3.38-1.51-3.38-3.38"/>
      <path class="cls-8" d="M1593.48,963.66c0-1.87,1.51-3.38,3.38-3.38s3.39,1.51,3.39,3.38-1.51,3.38-3.39,3.38-3.38-1.51-3.38-3.38"/>
      <rect class="cls-8" x="1473.68" y="976.07" width="28.18" height="20.66"/>
      <rect class="cls-8" x="1522.51" y="976.07" width="28.18" height="20.66"/>
      <rect class="cls-8" x="1560.08" y="976.07" width="21.6" height="20.66"/>
      <rect class="cls-8" x="1591.08" y="976.07" width="21.6" height="20.66"/>
      <rect class="cls-8" x="1560.08" y="949.78" width="21.6" height="20.66"/>
      <rect class="cls-8" x="1473.68" y="949.78" width="28.18" height="20.66"/>
      <rect class="cls-17" x="1655.65" y="964.57" width="24.89" height="30.99"/>
      <path class="cls-17" d="M1700.03,984.76h15.7c2.98,0,5.55,2.33,5.59,5.31.05,3.02-2.39,5.49-5.4,5.49h-15.7c-2.98,0-5.55-2.33-5.59-5.31-.05-3.02,2.39-5.49,5.4-5.49Z"/>
      <polygon class="cls-8" points="1674.2 969.97 1671.14 969.97 1668.09 969.97 1668.09 990.16 1671.14 990.16 1674.2 990.16 1674.2 969.97"/>
      <polygon class="cls-13" points="1108.33 942.75 1108.33 935.7 1102.22 932.17 1096.12 935.7 1096.12 942.75 1102.22 946.27 1108.33 942.75"/>
      <polygon class="cls-13" points="1124.76 942.75 1124.76 935.7 1118.65 932.17 1112.55 935.7 1112.55 942.75 1118.65 946.27 1124.76 942.75"/>
      <polygon class="cls-13" points="1140.73 942.75 1140.73 935.7 1134.62 932.17 1128.52 935.7 1128.52 942.75 1134.62 946.27 1140.73 942.75"/>
      <polygon class="cls-13" points="1156.7 942.75 1156.7 935.7 1150.59 932.17 1144.49 935.7 1144.49 942.75 1150.59 946.27 1156.7 942.75"/>
      <polygon class="cls-13" points="1173.13 942.75 1173.13 935.7 1167.02 932.17 1160.92 935.7 1160.92 942.75 1167.02 946.27 1173.13 942.75"/>
      <polygon class="cls-13" points="1189.1 942.75 1189.1 935.7 1182.99 932.17 1176.89 935.7 1176.89 942.75 1182.99 946.27 1189.1 942.75"/>
      <polygon class="cls-13" points="1205.53 942.75 1205.53 935.7 1199.43 932.17 1193.32 935.7 1193.32 942.75 1199.43 946.27 1205.53 942.75"/>
      <polygon class="cls-13" points="1221.5 942.75 1221.5 935.7 1215.39 932.17 1209.29 935.7 1209.29 942.75 1215.39 946.27 1221.5 942.75"/>
      <polygon class="cls-13" points="1237.47 942.75 1237.47 935.7 1231.36 932.17 1225.26 935.7 1225.26 942.75 1231.36 946.27 1237.47 942.75"/>
      <polygon class="cls-13" points="1253.9 942.75 1253.9 935.7 1247.79 932.17 1241.69 935.7 1241.69 942.75 1247.79 946.27 1253.9 942.75"/>
      <polygon class="cls-13" points="1269.87 942.75 1269.87 935.7 1263.76 932.17 1257.66 935.7 1257.66 942.75 1263.76 946.27 1269.87 942.75"/>
      <polygon class="cls-13" points="1285.84 942.75 1285.84 935.7 1279.73 932.17 1273.63 935.7 1273.63 942.75 1279.73 946.27 1285.84 942.75"/>
      <polygon class="cls-13" points="1302.27 942.75 1302.27 935.7 1296.16 932.17 1290.06 935.7 1290.06 942.75 1296.16 946.27 1302.27 942.75"/>
      <polygon class="cls-13" points="1318.24 942.75 1318.24 935.7 1312.13 932.17 1306.03 935.7 1306.03 942.75 1312.13 946.27 1318.24 942.75"/>
      <polygon class="cls-13" points="1334.2 942.75 1334.2 935.7 1328.1 932.17 1321.99 935.7 1321.99 942.75 1328.1 946.27 1334.2 942.75"/>
      <polygon class="cls-13" points="1350.64 942.75 1350.64 935.7 1344.53 932.17 1338.43 935.7 1338.43 942.75 1344.53 946.27 1350.64 942.75"/>
      <polygon class="cls-13" points="1366.61 942.75 1366.61 935.7 1360.5 932.17 1354.4 935.7 1354.4 942.75 1360.5 946.27 1366.61 942.75"/>
      <polygon class="cls-13" points="1382.57 942.75 1382.57 935.7 1376.47 932.17 1370.36 935.7 1370.36 942.75 1376.47 946.27 1382.57 942.75"/>
      <polygon class="cls-13" points="1399.01 942.75 1399.01 935.7 1392.9 932.17 1386.8 935.7 1386.8 942.75 1392.9 946.27 1399.01 942.75"/>
      <polygon class="cls-13" points="1414.98 942.75 1414.98 935.7 1408.87 932.17 1402.77 935.7 1402.77 942.75 1408.87 946.27 1414.98 942.75"/>
      <polygon class="cls-13" points="1430.94 942.75 1430.94 935.7 1424.83 932.17 1418.73 935.7 1418.73 942.75 1424.83 946.27 1430.94 942.75"/>
      <polygon class="cls-13" points="1447.38 942.75 1447.38 935.7 1441.27 932.17 1435.17 935.7 1435.17 942.75 1441.27 946.27 1447.38 942.75"/>
      <polygon class="cls-13" points="1463.34 942.75 1463.34 935.7 1457.24 932.17 1451.14 935.7 1451.14 942.75 1457.24 946.27 1463.34 942.75"/>
      <polygon class="cls-13" points="1479.78 942.75 1479.78 935.7 1473.67 932.17 1467.57 935.7 1467.57 942.75 1473.67 946.27 1479.78 942.75"/>
      <polygon class="cls-13" points="1495.75 942.75 1495.75 935.7 1489.64 932.17 1483.54 935.7 1483.54 942.75 1489.64 946.27 1495.75 942.75"/>
      <polygon class="cls-13" points="1511.71 942.75 1511.71 935.7 1505.61 932.17 1499.5 935.7 1499.5 942.75 1505.61 946.27 1511.71 942.75"/>
      <polygon class="cls-13" points="1528.15 942.75 1528.15 935.7 1522.04 932.17 1515.94 935.7 1515.94 942.75 1522.04 946.27 1528.15 942.75"/>
      <polygon class="cls-13" points="1544.12 942.75 1544.12 935.7 1538.01 932.17 1531.91 935.7 1531.91 942.75 1538.01 946.27 1544.12 942.75"/>
      <polygon class="cls-13" points="1100.34 929.3 1100.34 922.25 1094.23 918.73 1088.13 922.25 1088.13 929.3 1094.23 932.83 1100.34 929.3"/>
      <polygon class="cls-13" points="1116.78 929.3 1116.78 922.25 1110.67 918.73 1104.57 922.25 1104.57 929.3 1110.67 932.83 1116.78 929.3"/>
      <polygon class="cls-13" points="1132.75 929.3 1132.75 922.25 1126.64 918.73 1120.54 922.25 1120.54 929.3 1126.64 932.83 1132.75 929.3"/>
      <polygon class="cls-13" points="1148.71 929.3 1148.71 922.25 1142.6 918.73 1136.5 922.25 1136.5 929.3 1142.6 932.83 1148.71 929.3"/>
      <polygon class="cls-13" points="1165.15 929.3 1165.15 922.25 1159.04 918.73 1152.94 922.25 1152.94 929.3 1159.04 932.83 1165.15 929.3"/>
      <polygon class="cls-13" points="1181.11 929.3 1181.11 922.25 1175.01 918.73 1168.9 922.25 1168.9 929.3 1175.01 932.83 1181.11 929.3"/>
      <polygon class="cls-13" points="1197.08 929.3 1197.08 922.25 1190.97 918.73 1184.87 922.25 1184.87 929.3 1190.97 932.83 1197.08 929.3"/>
      <polygon class="cls-13" points="1213.52 929.3 1213.52 922.25 1207.41 918.73 1201.31 922.25 1201.31 929.3 1207.41 932.83 1213.52 929.3"/>
      <polygon class="cls-13" points="1229.48 929.3 1229.48 922.25 1223.38 918.73 1217.27 922.25 1217.27 929.3 1223.38 932.83 1229.48 929.3"/>
      <polygon class="cls-13" points="1245.45 929.3 1245.45 922.25 1239.34 918.73 1233.24 922.25 1233.24 929.3 1239.34 932.83 1245.45 929.3"/>
      <polygon class="cls-13" points="1261.89 929.3 1261.89 922.25 1255.78 918.73 1249.68 922.25 1249.68 929.3 1255.78 932.83 1261.89 929.3"/>
      <polygon class="cls-13" points="1277.85 929.3 1277.85 922.25 1271.74 918.73 1265.64 922.25 1265.64 929.3 1271.74 932.83 1277.85 929.3"/>
      <polygon class="cls-13" points="1293.82 929.3 1293.82 922.25 1287.71 918.73 1281.61 922.25 1281.61 929.3 1287.71 932.83 1293.82 929.3"/>
      <polygon class="cls-13" points="1310.25 929.3 1310.25 922.25 1304.15 918.73 1298.05 922.25 1298.05 929.3 1304.15 932.83 1310.25 929.3"/>
      <polygon class="cls-13" points="1326.22 929.3 1326.22 922.25 1320.11 918.73 1314.01 922.25 1314.01 929.3 1320.11 932.83 1326.22 929.3"/>
      <polygon class="cls-13" points="1342.66 929.3 1342.66 922.25 1336.55 918.73 1330.45 922.25 1330.45 929.3 1336.55 932.83 1342.66 929.3"/>
      <polygon class="cls-13" points="1358.62 929.3 1358.62 922.25 1352.52 918.73 1346.41 922.25 1346.41 929.3 1352.52 932.83 1358.62 929.3"/>
      <polygon class="cls-13" points="1374.59 929.3 1374.59 922.25 1368.48 918.73 1362.38 922.25 1362.38 929.3 1368.48 932.83 1374.59 929.3"/>
      <polygon class="cls-13" points="1391.03 929.3 1391.03 922.25 1384.92 918.73 1378.82 922.25 1378.82 929.3 1384.92 932.83 1391.03 929.3"/>
      <polygon class="cls-13" points="1406.99 929.3 1406.99 922.25 1400.88 918.73 1394.78 922.25 1394.78 929.3 1400.88 932.83 1406.99 929.3"/>
      <polygon class="cls-13" points="1422.96 929.3 1422.96 922.25 1416.85 918.73 1410.75 922.25 1410.75 929.3 1416.85 932.83 1422.96 929.3"/>
      <polygon class="cls-13" points="1439.4 929.3 1439.4 922.25 1433.29 918.73 1427.19 922.25 1427.19 929.3 1433.29 932.83 1439.4 929.3"/>
      <polygon class="cls-13" points="1455.36 929.3 1455.36 922.25 1449.25 918.73 1443.15 922.25 1443.15 929.3 1449.25 932.83 1455.36 929.3"/>
      <polygon class="cls-13" points="1471.33 929.3 1471.33 922.25 1465.22 918.73 1459.12 922.25 1459.12 929.3 1465.22 932.83 1471.33 929.3"/>
      <polygon class="cls-13" points="1487.76 929.3 1487.76 922.25 1481.66 918.73 1475.55 922.25 1475.55 929.3 1481.66 932.83 1487.76 929.3"/>
      <polygon class="cls-13" points="1503.73 929.3 1503.73 922.25 1497.62 918.73 1491.52 922.25 1491.52 929.3 1497.62 932.83 1503.73 929.3"/>
      <polygon class="cls-13" points="1519.7 929.3 1519.7 922.25 1513.59 918.73 1507.49 922.25 1507.49 929.3 1513.59 932.83 1519.7 929.3"/>
      <polygon class="cls-13" points="1536.13 929.3 1536.13 922.25 1530.03 918.73 1523.92 922.25 1523.92 929.3 1530.03 932.83 1536.13 929.3"/>
      <polygon class="cls-13" points="1560.08 942.75 1560.08 935.7 1553.98 932.17 1547.87 935.7 1547.87 942.75 1553.98 946.27 1560.08 942.75"/>
      <polygon class="cls-13" points="1576.05 942.75 1576.05 935.7 1569.94 932.17 1563.84 935.7 1563.84 942.75 1569.94 946.27 1576.05 942.75"/>
      <polygon class="cls-13" points="1592.49 942.75 1592.49 935.7 1586.38 932.17 1580.28 935.7 1580.28 942.75 1586.38 946.27 1592.49 942.75"/>
      <polygon class="cls-13" points="1608.45 942.75 1608.45 935.7 1602.34 932.17 1596.24 935.7 1596.24 942.75 1602.34 946.27 1608.45 942.75"/>
      <polygon class="cls-13" points="1624.42 942.75 1624.42 935.7 1618.31 932.17 1612.21 935.7 1612.21 942.75 1618.31 946.27 1624.42 942.75"/>
      <polygon class="cls-13" points="1640.85 942.75 1640.85 935.7 1634.75 932.17 1628.64 935.7 1628.64 942.75 1634.75 946.27 1640.85 942.75"/>
      <polygon class="cls-13" points="1656.82 942.75 1656.82 935.7 1650.71 932.17 1644.61 935.7 1644.61 942.75 1650.71 946.27 1656.82 942.75"/>
      <polygon class="cls-13" points="1672.79 942.75 1672.79 935.7 1666.68 932.17 1660.58 935.7 1660.58 942.75 1666.68 946.27 1672.79 942.75"/>
      <polygon class="cls-13" points="1689.22 942.75 1689.22 935.7 1683.12 932.17 1677.01 935.7 1677.01 942.75 1683.12 946.27 1689.22 942.75"/>
      <polygon class="cls-13" points="1705.19 942.75 1705.19 935.7 1699.08 932.17 1692.98 935.7 1692.98 942.75 1699.08 946.27 1705.19 942.75"/>
      <polygon class="cls-13" points="1721.16 942.75 1721.16 935.7 1715.05 932.17 1708.95 935.7 1708.95 942.75 1715.05 946.27 1721.16 942.75"/>
      <polygon class="cls-13" points="1737.59 942.75 1737.59 935.7 1731.48 932.17 1725.38 935.7 1725.38 942.75 1731.48 946.27 1737.59 942.75"/>
      <polygon class="cls-13" points="1753.56 942.75 1753.56 935.7 1747.45 932.17 1741.35 935.7 1741.35 942.75 1747.45 946.27 1753.56 942.75"/>
      <polygon class="cls-13" points="1769.99 942.75 1769.99 935.7 1763.89 932.17 1757.79 935.7 1757.79 942.75 1763.89 946.27 1769.99 942.75"/>
      <polygon class="cls-13" points="1785.96 942.75 1785.96 935.7 1779.85 932.17 1773.75 935.7 1773.75 942.75 1779.85 946.27 1785.96 942.75"/>
      <polygon class="cls-13" points="1801.93 942.75 1801.93 935.7 1795.82 932.17 1789.72 935.7 1789.72 942.75 1795.82 946.27 1801.93 942.75"/>
      <polygon class="cls-13" points="1818.36 942.75 1818.36 935.7 1812.26 932.17 1806.15 935.7 1806.15 942.75 1812.26 946.27 1818.36 942.75"/>
      <polygon class="cls-13" points="1834.33 942.75 1834.33 935.7 1828.22 932.17 1822.12 935.7 1822.12 942.75 1828.22 946.27 1834.33 942.75"/>
      <polygon class="cls-13" points="1552.1 929.3 1552.1 922.25 1545.99 918.73 1539.89 922.25 1539.89 929.3 1545.99 932.83 1552.1 929.3"/>
      <polygon class="cls-13" points="1568.07 929.3 1568.07 922.25 1561.96 918.73 1555.86 922.25 1555.86 929.3 1561.96 932.83 1568.07 929.3"/>
      <polygon class="cls-13" points="1584.03 929.3 1584.03 922.25 1577.92 918.73 1571.82 922.25 1571.82 929.3 1577.92 932.83 1584.03 929.3"/>
      <polygon class="cls-13" points="1600.47 929.3 1600.47 922.25 1594.36 918.73 1588.26 922.25 1588.26 929.3 1594.36 932.83 1600.47 929.3"/>
      <polygon class="cls-13" points="1616.44 929.3 1616.44 922.25 1610.33 918.73 1604.23 922.25 1604.23 929.3 1610.33 932.83 1616.44 929.3"/>
      <polygon class="cls-13" points="1632.87 929.3 1632.87 922.25 1626.76 918.73 1620.66 922.25 1620.66 929.3 1626.76 932.83 1632.87 929.3"/>
      <polygon class="cls-13" points="1648.84 929.3 1648.84 922.25 1642.73 918.73 1636.63 922.25 1636.63 929.3 1642.73 932.83 1648.84 929.3"/>
      <polygon class="cls-13" points="1664.8 929.3 1664.8 922.25 1658.7 918.73 1652.59 922.25 1652.59 929.3 1658.7 932.83 1664.8 929.3"/>
      <polygon class="cls-13" points="1681.24 929.3 1681.24 922.25 1675.13 918.73 1669.03 922.25 1669.03 929.3 1675.13 932.83 1681.24 929.3"/>
      <polygon class="cls-13" points="1697.21 929.3 1697.21 922.25 1691.1 918.73 1685 922.25 1685 929.3 1691.1 932.83 1697.21 929.3"/>
      <polygon class="cls-13" points="1713.17 929.3 1713.17 922.25 1707.07 918.73 1700.96 922.25 1700.96 929.3 1707.07 932.83 1713.17 929.3"/>
      <polygon class="cls-13" points="1729.61 929.3 1729.61 922.25 1723.5 918.73 1717.4 922.25 1717.4 929.3 1723.5 932.83 1729.61 929.3"/>
      <polygon class="cls-13" points="1745.58 929.3 1745.58 922.25 1739.47 918.73 1733.37 922.25 1733.37 929.3 1739.47 932.83 1745.58 929.3"/>
      <polygon class="cls-13" points="1761.54 929.3 1761.54 922.25 1755.43 918.73 1749.33 922.25 1749.33 929.3 1755.43 932.83 1761.54 929.3"/>
      <polygon class="cls-13" points="1777.98 929.3 1777.98 922.25 1771.87 918.73 1765.77 922.25 1765.77 929.3 1771.87 932.83 1777.98 929.3"/>
      <polygon class="cls-13" points="1793.94 929.3 1793.94 922.25 1787.84 918.73 1781.73 922.25 1781.73 929.3 1787.84 932.83 1793.94 929.3"/>
      <polygon class="cls-13" points="1809.91 929.3 1809.91 922.25 1803.8 918.73 1797.7 922.25 1797.7 929.3 1803.8 932.83 1809.91 929.3"/>
      <polygon class="cls-13" points="1826.35 929.3 1826.35 922.25 1820.24 918.73 1814.14 922.25 1814.14 929.3 1820.24 932.83 1826.35 929.3"/>
      <polygon class="cls-13" points="1842.31 929.3 1842.31 922.25 1836.21 918.73 1830.1 922.25 1830.1 929.3 1836.21 932.83 1842.31 929.3"/>
      <polygon class="cls-13" points="1794.88 970.73 1794.88 963.68 1788.78 960.15 1782.67 963.68 1782.67 970.73 1788.78 974.26 1794.88 970.73"/>
      <polygon class="cls-13" points="1786.43 983.85 1786.43 976.8 1780.32 973.27 1774.22 976.8 1774.22 983.85 1780.32 987.38 1786.43 983.85"/>
      <polygon class="cls-13" points="1786.43 957.29 1786.43 950.24 1780.32 946.71 1774.22 950.24 1774.22 957.29 1780.32 960.82 1786.43 957.29"/>
      <polygon class="cls-13" points="1814.14 970.73 1814.14 963.68 1820.25 960.15 1826.35 963.68 1826.35 970.73 1820.25 974.26 1814.14 970.73"/>
      <polygon class="cls-13" points="1822.12 983.85 1822.12 976.8 1828.23 973.27 1834.33 976.8 1834.33 983.85 1828.23 987.38 1822.12 983.85"/>
      <polygon class="cls-13" points="1822.12 957.29 1822.12 950.24 1828.23 946.71 1834.33 950.24 1834.33 957.29 1828.23 960.82 1822.12 957.29"/>
      <rect class="cls-15" x="1093.06" y="888.49" width="93.45" height="24.89"/>
      <polygon class="cls-8" points="1148.34 894.95 1144.64 891.25 1140.92 894.95 1142.77 896.8 1133.48 906.09 1137.18 909.8 1140.89 906.09 1139.04 904.25 1148.34 894.95"/>
      <rect class="cls-8" x="1127.85" y="895.12" width="13.15" height="5.24" transform="translate(-302.54 1065.1) rotate(-45)"/>
      <rect class="cls-8" x="1140.82" y="900.68" width="13.15" height="5.24" transform="translate(-302.66 1075.9) rotate(-45)"/>
    </g>
  </g>
</svg>