<?xml version="1.0" encoding="UTF-8"?>
<svg id="upgrade-diagram" xmlns="http://www.w3.org/2000/svg" xmlns:xlink="http://www.w3.org/1999/xlink" viewBox="0 0 1600 400">
  <defs>
    <style>
      .cls-1 {
        stroke-width: 2.5px;
      }

      .cls-1, .cls-2, .cls-3, .cls-4, .cls-5 {
        fill: none;
      }

      .cls-1, .cls-2, .cls-4, .cls-6 {
        stroke: #000;
        stroke-miterlimit: 10;
      }

      .cls-2 {
        stroke-width: 5px;
      }

      .cls-7 {
        clip-path: url(#clippath);
      }

      .cls-3, .cls-8 {
        stroke-width: 0px;
      }

      .cls-4 {
        stroke-width: 7.5px;
      }

      .cls-9 {
        letter-spacing: -.01em;
      }

      .cls-10 {
        clip-path: url(#clippath-1);
      }

      .cls-11 {
        clip-path: url(#clippath-2);
      }

      .cls-8 {
        fill: #000;
      }

      .cls-12 {
        letter-spacing: -.02em;
      }

      .cls-6 {
        fill: #fff;
        stroke-width: 6px;
      }

      .cls-5 {
        font-family: AvenirNext-Bold, 'Avenir Next';
        font-size: 64px;
        font-weight: 700;
      }
    </style>
    <clipPath id="clippath">
      <rect class="cls-3" width="1600" height="285.58"/>
    </clipPath>
    <clipPath id="clippath-1">
      <rect class="cls-3" width="1600" height="285.58"/>
    </clipPath>
    <clipPath id="clippath-2">
      <rect class="cls-3" width="1600" height="285.58"/>
    </clipPath>
  </defs>
  <g id="firewall-2" data-name="firewall">
    <g class="cls-7">
      <g class="cls-10">
        <rect class="cls-6" x="9.13" y="8.17" width="1581.73" height="268.27"/>
      </g>
      <polygon class="cls-8" points="1127.88 241.35 1127.88 255.77 1156.73 255.77 1156.73 241.35 1164.42 241.35 1164.42 211.54 1120.19 211.54 1120.19 241.35 1127.88 241.35"/>
      <g class="cls-11">
        <path class="cls-8" d="M698.44,234.66c-3.83,0-6.92-3.1-6.92-6.92s3.1-6.94,6.92-6.94,6.92,3.1,6.92,6.94-3.1,6.92-6.92,6.92"/>
        <path class="cls-8" d="M698.44,255.45c-3.83,0-6.92-3.1-6.92-6.92s3.1-6.94,6.92-6.94,6.92,3.1,6.92,6.94-3.1,6.92-6.92,6.92"/>
        <path class="cls-8" d="M698.44,173.22c-3.83,0-6.92-3.1-6.92-6.92s3.1-6.94,6.92-6.94,6.92,3.1,6.92,6.94-3.1,6.92-6.92,6.92"/>
        <path class="cls-8" d="M698.44,194.01c-3.83,0-6.92-3.1-6.92-6.92s3.1-6.94,6.92-6.94,6.92,3.1,6.92,6.94-3.1,6.92-6.92,6.92"/>
        <path class="cls-8" d="M796.17,234.66c-3.83,0-6.92-3.1-6.92-6.92s3.1-6.94,6.92-6.94,6.92,3.1,6.92,6.94-3.1,6.92-6.92,6.92"/>
        <path class="cls-8" d="M796.17,255.45c-3.83,0-6.92-3.1-6.92-6.92s3.1-6.94,6.92-6.94,6.92,3.1,6.92,6.94-3.1,6.92-6.92,6.92"/>
        <path class="cls-8" d="M796.17,173.22c-3.83,0-6.92-3.1-6.92-6.92s3.1-6.94,6.92-6.94,6.92,3.1,6.92,6.94-3.1,6.92-6.92,6.92"/>
        <path class="cls-8" d="M796.17,194.01c-3.83,0-6.92-3.1-6.92-6.92s3.1-6.94,6.92-6.94,6.92,3.1,6.92,6.94-3.1,6.92-6.92,6.92"/>
        <polygon class="cls-8" points="133.65 174.04 133.65 159.62 104.81 159.62 104.81 174.04 97.12 174.04 97.12 202.88 141.35 202.88 141.35 174.04 133.65 174.04"/>
        <polygon class="cls-8" points="104.81 241.35 104.81 255.77 133.65 255.77 133.65 241.35 141.35 241.35 141.35 211.54 97.12 211.54 97.12 241.35 104.81 241.35"/>
        <polygon class="cls-8" points="80.77 174.04 80.77 159.62 51.92 159.62 51.92 174.04 44.23 174.04 44.23 202.88 88.46 202.88 88.46 174.04 80.77 174.04"/>
        <polygon class="cls-8" points="51.92 241.35 51.92 255.77 80.77 255.77 80.77 241.35 88.46 241.35 88.46 211.54 44.23 211.54 44.23 241.35 51.92 241.35"/>
        <polygon class="cls-8" points="240.38 174.04 240.38 159.62 211.54 159.62 211.54 174.04 203.85 174.04 203.85 202.88 248.08 202.88 248.08 174.04 240.38 174.04"/>
        <polygon class="cls-8" points="211.54 241.35 211.54 255.77 240.38 255.77 240.38 241.35 248.08 241.35 248.08 211.54 203.85 211.54 203.85 241.35 211.54 241.35"/>
        <polygon class="cls-8" points="187.5 174.04 187.5 159.62 158.65 159.62 158.65 174.04 150.96 174.04 150.96 202.88 195.19 202.88 195.19 174.04 187.5 174.04"/>
        <polygon class="cls-8" points="158.65 241.35 158.65 255.77 187.5 255.77 187.5 241.35 195.19 241.35 195.19 211.54 150.96 211.54 150.96 241.35 158.65 241.35"/>
        <rect class="cls-8" x="292.31" y="159.62" width="44.23" height="44.23"/>
        <rect class="cls-8" x="292.31" y="211.54" width="44.23" height="44.23"/>
        <rect class="cls-8" x="343.27" y="159.62" width="44.23" height="44.23"/>
        <rect class="cls-8" x="343.27" y="211.54" width="44.23" height="44.23"/>
        <rect class="cls-8" x="395.19" y="159.62" width="44.23" height="44.23"/>
        <rect class="cls-8" x="395.19" y="211.54" width="44.23" height="44.23"/>
        <rect class="cls-8" x="446.15" y="159.62" width="44.23" height="44.23"/>
        <rect class="cls-8" x="446.15" y="211.54" width="44.23" height="44.23"/>
        <rect class="cls-8" x="497.12" y="159.62" width="44.23" height="44.23"/>
        <rect class="cls-8" x="497.12" y="211.54" width="44.23" height="44.23"/>
        <rect class="cls-8" x="567.31" y="159.62" width="44.23" height="44.23"/>
        <rect class="cls-8" x="567.31" y="211.54" width="44.23" height="44.23"/>
        <rect class="cls-8" x="618.27" y="158.65" width="44.23" height="44.23"/>
        <rect class="cls-8" x="618.27" y="211.54" width="44.23" height="44.23"/>
        <rect class="cls-8" x="717.31" y="212.5" width="57.69" height="42.31"/>
        <rect class="cls-8" x="717.31" y="158.65" width="57.69" height="42.31"/>
        <path class="cls-8" d="M893.3,234.66c-3.83,0-6.92-3.1-6.92-6.92s3.1-6.94,6.92-6.94,6.92,3.1,6.92,6.94-3.1,6.92-6.92,6.92"/>
        <path class="cls-8" d="M893.3,255.45c-3.83,0-6.92-3.1-6.92-6.92s3.1-6.94,6.92-6.94,6.92,3.1,6.92,6.94-3.1,6.92-6.92,6.92"/>
        <path class="cls-8" d="M893.3,173.22c-3.83,0-6.92-3.1-6.92-6.92s3.1-6.94,6.92-6.94,6.92,3.1,6.92,6.94-3.1,6.92-6.92,6.92"/>
        <path class="cls-8" d="M893.3,194.01c-3.83,0-6.92-3.1-6.92-6.92s3.1-6.94,6.92-6.94,6.92,3.1,6.92,6.94-3.1,6.92-6.92,6.92"/>
        <path class="cls-8" d="M1350.17,234.89c-3.83,0-6.92-3.1-6.92-6.92s3.1-6.94,6.92-6.94,6.92,3.1,6.92,6.94-3.1,6.92-6.92,6.92"/>
        <path class="cls-8" d="M1350.17,255.45c-3.83,0-6.92-3.1-6.92-6.92s3.1-6.94,6.92-6.94,6.92,3.1,6.92,6.94-3.1,6.92-6.92,6.92"/>
        <path class="cls-8" d="M1350.17,173.22c-3.83,0-6.92-3.1-6.92-6.92s3.1-6.94,6.92-6.94,6.92,3.1,6.92,6.94-3.1,6.92-6.92,6.92"/>
        <path class="cls-8" d="M1350.17,193.78c-3.83,0-6.92-3.1-6.92-6.92s3.1-6.94,6.92-6.94,6.92,3.1,6.92,6.94-3.1,6.92-6.92,6.92"/>
        <path class="cls-8" d="M1350.17,214.34c-3.83,0-6.92-3.1-6.92-6.92s3.1-6.94,6.92-6.94,6.92,3.1,6.92,6.94-3.1,6.92-6.92,6.92"/>
        <path class="cls-8" d="M1371.48,234.89c-3.83,0-6.92-3.1-6.92-6.92s3.1-6.94,6.92-6.94,6.92,3.1,6.92,6.94-3.1,6.92-6.92,6.92"/>
        <path class="cls-8" d="M1371.48,255.45c-3.83,0-6.92-3.1-6.92-6.92s3.1-6.94,6.92-6.94,6.92,3.1,6.92,6.94-3.1,6.92-6.92,6.92"/>
        <path class="cls-8" d="M1371.48,193.78c-3.83,0-6.92-3.1-6.92-6.92s3.1-6.94,6.92-6.94,6.92,3.1,6.92,6.94-3.1,6.92-6.92,6.92"/>
        <path class="cls-8" d="M1371.48,214.34c-3.83,0-6.92-3.1-6.92-6.92s3.1-6.94,6.92-6.94,6.92,3.1,6.92,6.94-3.1,6.92-6.92,6.92"/>
        <path class="cls-8" d="M1080.53,187.08c0-3.83,3.1-6.92,6.92-6.92s6.94,3.1,6.94,6.92-3.1,6.92-6.94,6.92-6.92-3.1-6.92-6.92"/>
        <path class="cls-8" d="M1059.74,187.08c0-3.83,3.1-6.92,6.92-6.92s6.94,3.1,6.94,6.92-3.1,6.92-6.94,6.92-6.92-3.1-6.92-6.92"/>
        <rect class="cls-8" x="814.42" y="212.5" width="57.69" height="42.31"/>
        <rect class="cls-8" x="914.42" y="212.5" width="57.69" height="42.31"/>
        <rect class="cls-8" x="991.35" y="212.5" width="44.23" height="42.31"/>
        <rect class="cls-8" x="1054.81" y="212.5" width="44.23" height="42.31"/>
        <rect class="cls-8" x="991.35" y="158.65" width="44.23" height="42.31"/>
        <rect class="cls-8" x="814.42" y="158.65" width="57.69" height="42.31"/>
        <rect class="cls-4" x="1187.02" y="188.94" width="50.96" height="63.46"/>
        <path class="cls-4" d="M1277.9,230.29h32.15c6.11,0,11.36,4.78,11.45,10.88.1,6.19-4.89,11.23-11.06,11.23h-32.15c-6.11,0-11.36-4.78-11.45-10.88-.1-6.19,4.89-11.23,11.06-11.23Z"/>
        <polygon class="cls-8" points="1225 200 1218.75 200 1212.5 200 1212.5 241.35 1218.75 241.35 1225 241.35 1225 200"/>
        <polygon class="cls-1" points="66.35 144.26 66.35 129.82 53.84 122.6 41.35 129.82 41.35 144.26 53.84 151.48 66.35 144.26"/>
        <polygon class="cls-1" points="100 144.26 100 129.82 87.49 122.6 75 129.82 75 144.26 87.49 151.48 100 144.26"/>
        <polygon class="cls-1" points="132.69 144.26 132.69 129.82 120.19 122.6 107.69 129.82 107.69 144.26 120.19 151.48 132.69 144.26"/>
        <polygon class="cls-1" points="165.38 144.26 165.38 129.82 152.88 122.6 140.38 129.82 140.38 144.26 152.88 151.48 165.38 144.26"/>
        <polygon class="cls-1" points="199.04 144.26 199.04 129.82 186.53 122.6 174.04 129.82 174.04 144.26 186.53 151.48 199.04 144.26"/>
        <polygon class="cls-1" points="231.73 144.26 231.73 129.82 219.22 122.6 206.73 129.82 206.73 144.26 219.22 151.48 231.73 144.26"/>
        <polygon class="cls-1" points="265.38 144.26 265.38 129.82 252.88 122.6 240.38 129.82 240.38 144.26 252.88 151.48 265.38 144.26"/>
        <polygon class="cls-1" points="298.08 144.26 298.08 129.82 285.57 122.6 273.08 129.82 273.08 144.26 285.57 151.48 298.08 144.26"/>
        <polygon class="cls-1" points="330.77 144.26 330.77 129.82 318.26 122.6 305.77 129.82 305.77 144.26 318.26 151.48 330.77 144.26"/>
        <polygon class="cls-1" points="364.42 144.26 364.42 129.82 351.92 122.6 339.42 129.82 339.42 144.26 351.92 151.48 364.42 144.26"/>
        <polygon class="cls-1" points="397.12 144.26 397.12 129.82 384.61 122.6 372.12 129.82 372.12 144.26 384.61 151.48 397.12 144.26"/>
        <polygon class="cls-1" points="429.81 144.26 429.81 129.82 417.3 122.6 404.81 129.82 404.81 144.26 417.3 151.48 429.81 144.26"/>
        <polygon class="cls-1" points="463.46 144.26 463.46 129.82 450.96 122.6 438.46 129.82 438.46 144.26 450.96 151.48 463.46 144.26"/>
        <polygon class="cls-1" points="496.15 144.26 496.15 129.82 483.65 122.6 471.15 129.82 471.15 144.26 483.65 151.48 496.15 144.26"/>
        <polygon class="cls-1" points="528.85 144.26 528.85 129.82 516.34 122.6 503.85 129.82 503.85 144.26 516.34 151.48 528.85 144.26"/>
        <polygon class="cls-1" points="562.5 144.26 562.5 129.82 549.99 122.6 537.5 129.82 537.5 144.26 549.99 151.48 562.5 144.26"/>
        <polygon class="cls-1" points="595.19 144.26 595.19 129.82 582.69 122.6 570.19 129.82 570.19 144.26 582.69 151.48 595.19 144.26"/>
        <polygon class="cls-1" points="627.88 144.26 627.88 129.82 615.38 122.6 602.88 129.82 602.88 144.26 615.38 151.48 627.88 144.26"/>
        <polygon class="cls-1" points="661.54 144.26 661.54 129.82 649.03 122.6 636.54 129.82 636.54 144.26 649.03 151.48 661.54 144.26"/>
        <polygon class="cls-1" points="694.23 144.26 694.23 129.82 681.72 122.6 669.23 129.82 669.23 144.26 681.72 151.48 694.23 144.26"/>
        <polygon class="cls-1" points="726.92 144.26 726.92 129.82 714.42 122.6 701.92 129.82 701.92 144.26 714.42 151.48 726.92 144.26"/>
        <polygon class="cls-1" points="760.58 144.26 760.58 129.82 748.07 122.6 735.58 129.82 735.58 144.26 748.07 151.48 760.58 144.26"/>
        <polygon class="cls-1" points="793.27 144.26 793.27 129.82 780.76 122.6 768.27 129.82 768.27 144.26 780.76 151.48 793.27 144.26"/>
        <polygon class="cls-1" points="826.92 144.26 826.92 129.82 814.42 122.6 801.92 129.82 801.92 144.26 814.42 151.48 826.92 144.26"/>
        <polygon class="cls-1" points="859.62 144.26 859.62 129.82 847.11 122.6 834.62 129.82 834.62 144.26 847.11 151.48 859.62 144.26"/>
        <polygon class="cls-1" points="892.31 144.26 892.31 129.82 879.8 122.6 867.31 129.82 867.31 144.26 879.8 151.48 892.31 144.26"/>
        <polygon class="cls-1" points="925.96 144.26 925.96 129.82 913.46 122.6 900.96 129.82 900.96 144.26 913.46 151.48 925.96 144.26"/>
        <polygon class="cls-1" points="958.65 144.26 958.65 129.82 946.15 122.6 933.65 129.82 933.65 144.26 946.15 151.48 958.65 144.26"/>
        <polygon class="cls-1" points="50 116.74 50 102.3 37.49 95.08 25 102.3 25 116.74 37.49 123.96 50 116.74"/>
        <polygon class="cls-1" points="83.65 116.74 83.65 102.3 71.15 95.08 58.65 102.3 58.65 116.74 71.15 123.96 83.65 116.74"/>
        <polygon class="cls-1" points="116.35 116.74 116.35 102.3 103.84 95.08 91.35 102.3 91.35 116.74 103.84 123.96 116.35 116.74"/>
        <polygon class="cls-1" points="149.04 116.74 149.04 102.3 136.53 95.08 124.04 102.3 124.04 116.74 136.53 123.96 149.04 116.74"/>
        <polygon class="cls-1" points="182.69 116.74 182.69 102.3 170.19 95.08 157.69 102.3 157.69 116.74 170.19 123.96 182.69 116.74"/>
        <polygon class="cls-1" points="215.38 116.74 215.38 102.3 202.88 95.08 190.38 102.3 190.38 116.74 202.88 123.96 215.38 116.74"/>
        <polygon class="cls-1" points="248.08 116.74 248.08 102.3 235.57 95.08 223.08 102.3 223.08 116.74 235.57 123.96 248.08 116.74"/>
        <polygon class="cls-1" points="281.73 116.74 281.73 102.3 269.22 95.08 256.73 102.3 256.73 116.74 269.22 123.96 281.73 116.74"/>
        <polygon class="cls-1" points="314.42 116.74 314.42 102.3 301.92 95.08 289.42 102.3 289.42 116.74 301.92 123.96 314.42 116.74"/>
        <polygon class="cls-1" points="347.12 116.74 347.12 102.3 334.61 95.08 322.12 102.3 322.12 116.74 334.61 123.96 347.12 116.74"/>
        <polygon class="cls-1" points="380.77 116.74 380.77 102.3 368.26 95.08 355.77 102.3 355.77 116.74 368.26 123.96 380.77 116.74"/>
        <polygon class="cls-1" points="413.46 116.74 413.46 102.3 400.96 95.08 388.46 102.3 388.46 116.74 400.96 123.96 413.46 116.74"/>
        <polygon class="cls-1" points="446.15 116.74 446.15 102.3 433.65 95.08 421.15 102.3 421.15 116.74 433.65 123.96 446.15 116.74"/>
        <polygon class="cls-1" points="479.81 116.74 479.81 102.3 467.3 95.08 454.81 102.3 454.81 116.74 467.3 123.96 479.81 116.74"/>
        <polygon class="cls-1" points="512.5 116.74 512.5 102.3 499.99 95.08 487.5 102.3 487.5 116.74 499.99 123.96 512.5 116.74"/>
        <polygon class="cls-1" points="546.15 116.74 546.15 102.3 533.65 95.08 521.15 102.3 521.15 116.74 533.65 123.96 546.15 116.74"/>
        <polygon class="cls-1" points="578.85 116.74 578.85 102.3 566.34 95.08 553.85 102.3 553.85 116.74 566.34 123.96 578.85 116.74"/>
        <polygon class="cls-1" points="611.54 116.74 611.54 102.3 599.03 95.08 586.54 102.3 586.54 116.74 599.03 123.96 611.54 116.74"/>
        <polygon class="cls-1" points="645.19 116.74 645.19 102.3 632.69 95.08 620.19 102.3 620.19 116.74 632.69 123.96 645.19 116.74"/>
        <polygon class="cls-1" points="677.88 116.74 677.88 102.3 665.38 95.08 652.88 102.3 652.88 116.74 665.38 123.96 677.88 116.74"/>
        <polygon class="cls-1" points="710.58 116.74 710.58 102.3 698.07 95.08 685.58 102.3 685.58 116.74 698.07 123.96 710.58 116.74"/>
        <polygon class="cls-1" points="744.23 116.74 744.23 102.3 731.72 95.08 719.23 102.3 719.23 116.74 731.72 123.96 744.23 116.74"/>
        <polygon class="cls-1" points="776.92 116.74 776.92 102.3 764.42 95.08 751.92 102.3 751.92 116.74 764.42 123.96 776.92 116.74"/>
        <polygon class="cls-1" points="809.62 116.74 809.62 102.3 797.11 95.08 784.62 102.3 784.62 116.74 797.11 123.96 809.62 116.74"/>
        <polygon class="cls-1" points="843.27 116.74 843.27 102.3 830.76 95.08 818.27 102.3 818.27 116.74 830.76 123.96 843.27 116.74"/>
        <polygon class="cls-1" points="875.96 116.74 875.96 102.3 863.46 95.08 850.96 102.3 850.96 116.74 863.46 123.96 875.96 116.74"/>
        <polygon class="cls-1" points="908.65 116.74 908.65 102.3 896.15 95.08 883.65 102.3 883.65 116.74 896.15 123.96 908.65 116.74"/>
        <polygon class="cls-1" points="942.31 116.74 942.31 102.3 929.8 95.08 917.31 102.3 917.31 116.74 929.8 123.96 942.31 116.74"/>
        <polygon class="cls-1" points="991.35 144.26 991.35 129.82 978.84 122.6 966.35 129.82 966.35 144.26 978.84 151.48 991.35 144.26"/>
        <polygon class="cls-1" points="1024.04 144.26 1024.04 129.82 1011.53 122.6 999.04 129.82 999.04 144.26 1011.53 151.48 1024.04 144.26"/>
        <polygon class="cls-1" points="1057.69 144.26 1057.69 129.82 1045.19 122.6 1032.69 129.82 1032.69 144.26 1045.19 151.48 1057.69 144.26"/>
        <polygon class="cls-1" points="1090.38 144.26 1090.38 129.82 1077.88 122.6 1065.38 129.82 1065.38 144.26 1077.88 151.48 1090.38 144.26"/>
        <polygon class="cls-1" points="1123.08 144.26 1123.08 129.82 1110.57 122.6 1098.08 129.82 1098.08 144.26 1110.57 151.48 1123.08 144.26"/>
        <polygon class="cls-1" points="1156.73 144.26 1156.73 129.82 1144.22 122.6 1131.73 129.82 1131.73 144.26 1144.22 151.48 1156.73 144.26"/>
        <polygon class="cls-1" points="1189.42 144.26 1189.42 129.82 1176.92 122.6 1164.42 129.82 1164.42 144.26 1176.92 151.48 1189.42 144.26"/>
        <polygon class="cls-1" points="1222.12 144.26 1222.12 129.82 1209.61 122.6 1197.12 129.82 1197.12 144.26 1209.61 151.48 1222.12 144.26"/>
        <polygon class="cls-1" points="1255.77 144.26 1255.77 129.82 1243.26 122.6 1230.77 129.82 1230.77 144.26 1243.26 151.48 1255.77 144.26"/>
        <polygon class="cls-1" points="1288.46 144.26 1288.46 129.82 1275.96 122.6 1263.46 129.82 1263.46 144.26 1275.96 151.48 1288.46 144.26"/>
        <polygon class="cls-1" points="1321.15 144.26 1321.15 129.82 1308.65 122.6 1296.15 129.82 1296.15 144.26 1308.65 151.48 1321.15 144.26"/>
        <polygon class="cls-1" points="1354.81 144.26 1354.81 129.82 1342.3 122.6 1329.81 129.82 1329.81 144.26 1342.3 151.48 1354.81 144.26"/>
        <polygon class="cls-1" points="1387.5 144.26 1387.5 129.82 1374.99 122.6 1362.5 129.82 1362.5 144.26 1374.99 151.48 1387.5 144.26"/>
        <polygon class="cls-1" points="1421.15 144.26 1421.15 129.82 1408.65 122.6 1396.15 129.82 1396.15 144.26 1408.65 151.48 1421.15 144.26"/>
        <polygon class="cls-1" points="1453.85 144.26 1453.85 129.82 1441.34 122.6 1428.85 129.82 1428.85 144.26 1441.34 151.48 1453.85 144.26"/>
        <polygon class="cls-1" points="1486.54 144.26 1486.54 129.82 1474.03 122.6 1461.54 129.82 1461.54 144.26 1474.03 151.48 1486.54 144.26"/>
        <polygon class="cls-1" points="1520.19 144.26 1520.19 129.82 1507.69 122.6 1495.19 129.82 1495.19 144.26 1507.69 151.48 1520.19 144.26"/>
        <polygon class="cls-1" points="1552.88 144.26 1552.88 129.82 1540.38 122.6 1527.88 129.82 1527.88 144.26 1540.38 151.48 1552.88 144.26"/>
        <polygon class="cls-1" points="975 116.74 975 102.3 962.49 95.08 950 102.3 950 116.74 962.49 123.96 975 116.74"/>
        <polygon class="cls-1" points="1007.69 116.74 1007.69 102.3 995.19 95.08 982.69 102.3 982.69 116.74 995.19 123.96 1007.69 116.74"/>
        <polygon class="cls-1" points="1040.38 116.74 1040.38 102.3 1027.88 95.08 1015.38 102.3 1015.38 116.74 1027.88 123.96 1040.38 116.74"/>
        <polygon class="cls-1" points="1074.04 116.74 1074.04 102.3 1061.53 95.08 1049.04 102.3 1049.04 116.74 1061.53 123.96 1074.04 116.74"/>
        <polygon class="cls-1" points="1106.73 116.74 1106.73 102.3 1094.22 95.08 1081.73 102.3 1081.73 116.74 1094.22 123.96 1106.73 116.74"/>
        <polygon class="cls-1" points="1140.38 116.74 1140.38 102.3 1127.88 95.08 1115.38 102.3 1115.38 116.74 1127.88 123.96 1140.38 116.74"/>
        <polygon class="cls-1" points="1173.08 116.74 1173.08 102.3 1160.57 95.08 1148.08 102.3 1148.08 116.74 1160.57 123.96 1173.08 116.74"/>
        <polygon class="cls-1" points="1205.77 116.74 1205.77 102.3 1193.26 95.08 1180.77 102.3 1180.77 116.74 1193.26 123.96 1205.77 116.74"/>
        <polygon class="cls-1" points="1239.42 116.74 1239.42 102.3 1226.92 95.08 1214.42 102.3 1214.42 116.74 1226.92 123.96 1239.42 116.74"/>
        <polygon class="cls-1" points="1272.12 116.74 1272.12 102.3 1259.61 95.08 1247.12 102.3 1247.12 116.74 1259.61 123.96 1272.12 116.74"/>
        <polygon class="cls-1" points="1304.81 116.74 1304.81 102.3 1292.3 95.08 1279.81 102.3 1279.81 116.74 1292.3 123.96 1304.81 116.74"/>
        <polygon class="cls-1" points="1338.46 116.74 1338.46 102.3 1325.96 95.08 1313.46 102.3 1313.46 116.74 1325.96 123.96 1338.46 116.74"/>
        <polygon class="cls-1" points="1371.15 116.74 1371.15 102.3 1358.65 95.08 1346.15 102.3 1346.15 116.74 1358.65 123.96 1371.15 116.74"/>
        <polygon class="cls-1" points="1403.85 116.74 1403.85 102.3 1391.34 95.08 1378.85 102.3 1378.85 116.74 1391.34 123.96 1403.85 116.74"/>
        <polygon class="cls-1" points="1437.5 116.74 1437.5 102.3 1424.99 95.08 1412.5 102.3 1412.5 116.74 1424.99 123.96 1437.5 116.74"/>
        <polygon class="cls-1" points="1470.19 116.74 1470.19 102.3 1457.69 95.08 1445.19 102.3 1445.19 116.74 1457.69 123.96 1470.19 116.74"/>
        <polygon class="cls-1" points="1502.88 116.74 1502.88 102.3 1490.38 95.08 1477.88 102.3 1477.88 116.74 1490.38 123.96 1502.88 116.74"/>
        <polygon class="cls-1" points="1536.54 116.74 1536.54 102.3 1524.03 95.08 1511.54 102.3 1511.54 116.74 1524.03 123.96 1536.54 116.74"/>
        <polygon class="cls-1" points="1569.23 116.74 1569.23 102.3 1556.72 95.08 1544.23 102.3 1544.23 116.74 1556.72 123.96 1569.23 116.74"/>
        <polygon class="cls-1" points="1472.12 201.56 1472.12 187.12 1459.61 179.9 1447.12 187.12 1447.12 201.56 1459.61 208.78 1472.12 201.56"/>
        <polygon class="cls-1" points="1454.81 228.43 1454.81 213.99 1442.3 206.77 1429.81 213.99 1429.81 228.43 1442.3 235.65 1454.81 228.43"/>
        <polygon class="cls-1" points="1454.81 174.04 1454.81 159.6 1442.3 152.38 1429.81 159.6 1429.81 174.04 1442.3 181.26 1454.81 174.04"/>
        <polygon class="cls-1" points="1511.54 201.56 1511.54 187.12 1524.04 179.9 1536.54 187.12 1536.54 201.56 1524.04 208.78 1511.54 201.56"/>
        <polygon class="cls-1" points="1527.88 228.43 1527.88 213.99 1540.39 206.77 1552.88 213.99 1552.88 228.43 1540.39 235.65 1527.88 228.43"/>
        <polygon class="cls-1" points="1527.88 174.04 1527.88 159.6 1540.39 152.38 1552.88 159.6 1552.88 174.04 1540.39 181.26 1527.88 174.04"/>
        <rect class="cls-2" x="35.1" y="33.17" width="191.35" height="50.96"/>
        <polygon class="cls-8" points="148.28 46.4 140.69 38.81 133.09 46.4 136.88 50.17 117.84 69.21 125.43 76.8 133.02 69.21 129.24 65.44 148.28 46.4"/>
        <rect class="cls-8" x="106.32" y="46.75" width="26.93" height="10.73" transform="translate(-1.77 99.96) rotate(-45)"/>
        <rect class="cls-8" x="132.87" y="58.12" width="26.93" height="10.73" transform="translate(-2.03 122.07) rotate(-45)"/>
      </g>
    </g>
  </g>
  <g id="Layer_13" data-name="Layer 13">
    <g>
      <g>
        <path class="cls-3" d="M479.33,350.61s16.11-29.13,46.92-42.11c1.77-.75,3.82-.36,5.23.94h0c2.25,2.08,2.09,5.68-.33,7.55-9.45,7.26-30.66,26.1-43.47,57.11-1.49,3.6-5.01,5.94-8.9,5.94h0c-3.78,0-7.21-2.2-8.78-5.64l-14.22-31.11c-1.32-2.89-.15-6.31,2.67-7.78h0c2.32-1.21,5.17-.77,7.01,1.1l13.86,14.01h0Z"/>
        <path class="cls-3" d="M525.77,331.98c2.56,5.48,4,11.59,4,18.02,0,23.51-19.13,42.63-42.63,42.63s-42.63-19.13-42.63-42.63,19.13-42.63,42.63-42.63c6.45,0,12.57,1.44,18.05,4.02,2.25-1.59,4.62-3.12,7.1-4.58-7.39-4.32-15.99-6.81-25.16-6.81-27.57,0-50,22.43-50,50s22.43,50,50,50,50-22.43,50-50c0-8.36-2.07-16.25-5.71-23.18-1.71,1.46-3.62,3.18-5.66,5.16h0Z"/>
      </g>
      <text class="cls-5" transform="translate(570.1 363.25)"><tspan x="0" y="0">Upg</tspan><tspan class="cls-12" x="131.39" y="0">r</tspan><tspan x="155.71" y="0">ade </tspan><tspan class="cls-9" x="288.19" y="0">C</tspan><tspan x="331.97" y="0">omplete</tspan></text>
    </g>
  </g>
</svg>