<?xml version="1.0" encoding="utf-8"?>
<!-- Generator: Adobe Illustrator 27.9.0, SVG Export Plug-In . SVG Version: 6.00 Build 0)  -->
<svg version="1.1" xmlns="http://www.w3.org/2000/svg" xmlns:xlink="http://www.w3.org/1999/xlink" x="0px" y="0px"
	 viewBox="0 0 608 134" style="enable-background:new 0 0 608 134;" xml:space="preserve">
<style type="text/css">
	.st0{fill:#252F3E;}
	.st1{fill:#FF9900;}
	.st2{fill-rule:evenodd;clip-rule:evenodd;fill:#6B469C;}
	.st3{fill:#F04E23;}
</style>
<g id="Layer_4">
	<g>
		<path class="st0" d="M503.8,54.9c0,1.6,0.2,2.9,0.5,3.9c0.4,1,0.8,2,1.4,3.2c0.2,0.4,0.3,0.7,0.3,1c0,0.4-0.3,0.9-0.8,1.3
			l-2.8,1.8c-0.4,0.3-0.8,0.4-1.1,0.4c-0.4,0-0.9-0.2-1.3-0.6c-0.6-0.7-1.1-1.4-1.6-2.1c-0.4-0.7-0.9-1.6-1.4-2.6
			c-3.4,4-7.7,6.1-12.9,6.1c-3.7,0-6.6-1.1-8.8-3.2s-3.2-4.9-3.2-8.4c0-3.7,1.3-6.8,4-9c2.7-2.3,6.2-3.4,10.8-3.4
			c1.5,0,3,0.1,4.7,0.4s3.3,0.6,5,1v-3.2c0-3.3-0.7-5.7-2.1-7c-1.4-1.4-3.8-2-7.2-2c-1.5,0-3.1,0.2-4.7,0.6s-3.2,0.9-4.7,1.5
			c-0.7,0.3-1.2,0.5-1.5,0.6c-0.3,0.1-0.5,0.1-0.7,0.1c-0.6,0-0.9-0.4-0.9-1.4v-2.2c0-0.7,0.1-1.2,0.3-1.5c0.2-0.3,0.6-0.6,1.2-0.9
			c1.5-0.8,3.4-1.4,5.5-2c2.2-0.6,4.4-0.8,6.8-0.8c5.2,0,9,1.2,11.5,3.6c2.4,2.4,3.6,6,3.6,10.8L503.8,54.9L503.8,54.9z M486,61.5
			c1.4,0,2.9-0.3,4.5-0.8c1.6-0.5,3-1.5,4.2-2.8c0.7-0.8,1.2-1.8,1.5-2.8s0.4-2.3,0.4-3.8v-1.8c-1.3-0.3-2.6-0.6-4-0.7
			c-1.4-0.2-2.8-0.3-4.1-0.3c-2.9,0-5.1,0.6-6.5,1.8c-1.4,1.2-2.2,2.9-2.2,5c0,2.1,0.5,3.6,1.6,4.7C482.4,61,484,61.5,486,61.5
			L486,61.5z M521.2,66.3c-0.8,0-1.3-0.1-1.7-0.4c-0.4-0.3-0.7-0.9-0.9-1.7l-10.3-33.9c-0.3-0.9-0.4-1.4-0.4-1.8
			c0-0.7,0.4-1.1,1.1-1.1h4.3c0.8,0,1.4,0.1,1.7,0.4c0.4,0.3,0.6,0.9,0.9,1.7l7.4,29.1l6.8-29.1c0.2-0.9,0.5-1.4,0.8-1.7
			c0.4-0.3,1-0.4,1.8-0.4h3.5c0.8,0,1.4,0.1,1.8,0.4c0.4,0.3,0.7,0.9,0.8,1.7l6.9,29.4l7.6-29.4c0.3-0.9,0.6-1.4,0.9-1.7
			c0.4-0.3,0.9-0.4,1.7-0.4h4.1c0.7,0,1.1,0.4,1.1,1.1c0,0.2,0,0.4-0.1,0.7s-0.1,0.6-0.3,1.1l-10.6,33.9c-0.3,0.9-0.6,1.4-0.9,1.7
			c-0.4,0.3-0.9,0.4-1.7,0.4h-3.8c-0.8,0-1.4-0.1-1.8-0.4c-0.4-0.3-0.7-0.9-0.8-1.8l-6.8-28.3l-6.8,28.3c-0.2,0.9-0.5,1.4-0.8,1.8
			c-0.4,0.3-1,0.4-1.8,0.4H521.2z M577.6,67.5c-2.3,0-4.6-0.3-6.8-0.8c-2.2-0.5-3.9-1.1-5-1.8c-0.7-0.4-1.2-0.8-1.4-1.2
			c-0.2-0.4-0.3-0.8-0.3-1.2v-2.2c0-0.9,0.4-1.4,1-1.4c0.3,0,0.5,0,0.8,0.1c0.3,0.1,0.7,0.3,1.1,0.4c1.5,0.7,3.1,1.2,4.8,1.5
			c1.8,0.4,3.5,0.5,5.2,0.5c2.8,0,4.9-0.5,6.4-1.4c1.5-1,2.3-2.4,2.3-4.2c0-1.2-0.4-2.2-1.2-3.1c-0.8-0.8-2.3-1.6-4.4-2.3l-6.4-2
			c-3.2-1-5.6-2.5-7-4.5c-1.4-1.9-2.2-4.1-2.2-6.4c0-1.8,0.4-3.5,1.2-4.9c0.8-1.4,1.8-2.6,3.2-3.6c1.3-1,2.8-1.8,4.6-2.3
			c1.8-0.5,3.6-0.7,5.5-0.7c1,0,2,0,2.9,0.2c1,0.1,1.9,0.3,2.9,0.5c0.9,0.2,1.7,0.4,2.5,0.7c0.8,0.3,1.4,0.5,1.8,0.8
			c0.6,0.4,1.1,0.7,1.3,1.1c0.3,0.4,0.4,0.8,0.4,1.4V33c0,0.9-0.4,1.4-1,1.4c-0.4,0-0.9-0.2-1.7-0.5c-2.5-1.1-5.3-1.7-8.4-1.7
			c-2.5,0-4.5,0.4-5.8,1.2s-2.1,2.1-2.1,3.9c0,1.2,0.4,2.3,1.3,3.1c0.9,0.8,2.5,1.7,4.8,2.4l6.2,2c3.2,1,5.4,2.4,6.8,4.2
			s2,3.9,2,6.1c0,1.9-0.4,3.6-1.1,5.1c-0.8,1.5-1.8,2.8-3.2,3.9c-1.4,1.1-3,1.9-4.9,2.5C581.9,67.2,579.9,67.5,577.6,67.5
			L577.6,67.5z"/>
		<path class="st1" d="M585.9,88.8c-14.4,10.7-35.4,16.3-53.5,16.3c-25.3,0-48.1-9.3-65.3-24.9c-1.4-1.2-0.1-2.9,1.5-1.9
			c18.6,10.8,41.6,17.3,65.3,17.3c16,0,33.6-3.3,49.8-10.2C586.2,84.4,588.3,87,585.9,88.8L585.9,88.8z"/>
		<path class="st1" d="M591.9,81.9c-1.8-2.4-12.2-1.1-16.9-0.6c-1.4,0.2-1.6-1.1-0.4-2c8.3-5.8,21.8-4.1,23.4-2.2
			c1.6,2-0.4,15.5-8.2,22c-1.2,1-2.3,0.5-1.8-0.8C589.9,94.1,593.8,84.3,591.9,81.9z"/>
	</g>
</g>
<g id="Layer_2">
	<g>
		<polygon class="st2" points="38.5,34 65.3,49.4 65.3,80.3 38.5,64.9 		"/>
		<polygon class="st2" points="68.2,49.4 68.2,80.3 94.9,64.9 94.9,34 		"/>
		<polygon class="st2" points="8.8,16.8 8.8,47.6 35.6,63.1 35.6,32.2 		"/>
		<polygon class="st2" points="38.5,99.1 65.3,114.6 65.3,83.9 65.3,83.7 38.5,68.3 		"/>
	</g>
</g>
<g id="Layer_5">
	<g>
		<polygon class="st3" points="282.4,85.3 331.3,36.2 311.8,16.6 292.3,36.2 302,46 253.1,95.1 272.6,114.7 292.1,95.1 		"/>
		<polygon class="st3" points="223.9,65.8 272.8,16.6 292.3,36.2 243.4,85.3 		"/>
		<polygon class="st3" points="292.1,95.1 341,46 360.6,65.6 311.6,114.7 		"/>
	</g>
</g>
</svg>
