<?xml version="1.0" encoding="UTF-8"?>
<svg id="python-panos" xmlns="http://www.w3.org/2000/svg" xmlns:xlink="http://www.w3.org/1999/xlink" viewBox="0 0 450 125">
  <defs>
    <style>
      .cls-1 {
        fill: url(#linear-gradient);
      }

      .cls-1, .cls-2, .cls-3 {
        stroke-width: 0px;
      }

      .cls-2 {
        fill: url(#linear-gradient-2);
      }

      .cls-3 {
        fill: #f04e23;
      }
    </style>
    <linearGradient id="linear-gradient" x1="-2.08" y1="125.02" x2="-2.05" y2="124.99" gradientTransform="translate(3927 231728.75) scale(1849.27 -1853.39)" gradientUnits="userSpaceOnUse">
      <stop offset="0" stop-color="#387eb8"/>
      <stop offset="1" stop-color="#366994"/>
    </linearGradient>
    <linearGradient id="linear-gradient-2" x1="-2.41" y1="125.34" x2="-2.38" y2="125.31" gradientTransform="translate(4571.46 232356.08) scale(1849.27 -1853.39)" gradientUnits="userSpaceOnUse">
      <stop offset="0" stop-color="#ffe052"/>
      <stop offset="1" stop-color="#ffc331"/>
    </linearGradient>
  </defs>
  <g>
    <polygon class="cls-3" points="314.92 82.16 363.83 33.06 344.32 13.48 324.8 33.06 334.52 42.81 285.62 91.91 305.11 111.51 324.63 91.91 314.92 82.16"/>
    <polygon class="cls-3" points="256.41 62.59 305.32 13.47 324.83 33.06 275.91 82.17 256.41 62.59"/>
    <polygon class="cls-3" points="324.62 91.94 373.53 42.83 393.03 62.41 344.12 111.53 324.62 91.94"/>
  </g>
  <g>
    <path class="cls-1" d="m118.08,12.5c-25.52,0-23.93,11.07-23.93,11.07l.03,11.47h24.35v3.44h-34.02s-16.33-1.85-16.33,23.9,14.25,24.84,14.25,24.84h8.51v-11.95s-.46-14.25,14.03-14.25h24.15s13.57.22,13.57-13.11v-22.05s2.06-13.34-24.61-13.34Zm-13.43,7.71c2.42,0,4.38,1.96,4.38,4.37,0,0,0,0,0,0,0,2.42-1.96,4.38-4.37,4.38,0,0,0,0,0,0-2.42,0-4.38-1.96-4.38-4.37,0,0,0,0,0,0,0-2.42,1.96-4.38,4.37-4.38,0,0,0,0,0,0Z"/>
    <path class="cls-2" d="m118.8,112.5c25.52,0,23.93-11.07,23.93-11.07l-.03-11.46h-24.35v-3.44h34.02s16.33,1.85,16.33-23.9-14.25-24.84-14.25-24.84h-8.51v11.95s.46,14.25-14.03,14.25h-24.15s-13.57-.22-13.57,13.12v22.05s-2.06,13.34,24.61,13.34h0Zm13.43-7.71c-2.42,0-4.38-1.96-4.38-4.37h0c0-2.43,1.96-4.39,4.37-4.39h0c2.42,0,4.38,1.96,4.38,4.37h0c0,2.43-1.96,4.39-4.37,4.39h0Z"/>
  </g>
</svg>