<?xml version="1.0" encoding="UTF-8"?>
<svg id="python-panos-prisma" xmlns="http://www.w3.org/2000/svg" xmlns:xlink="http://www.w3.org/1999/xlink" viewBox="0 0 450 125">
  <defs>
    <style>
      .cls-1 {
        clip-path: url(#clippath);
      }

      .cls-2 {
        fill: none;
      }

      .cls-2, .cls-3, .cls-4, .cls-5, .cls-6 {
        stroke-width: 0px;
      }

      .cls-3 {
        fill: url(#linear-gradient);
      }

      .cls-4 {
        fill: url(#linear-gradient-2);
      }

      .cls-5 {
        fill: #2ac3e9;
      }

      .cls-6 {
        fill: #f04e23;
      }
    </style>
    <clipPath id="clippath">
      <rect class="cls-2" x="333.82" y="12.49" width="100" height="100"/>
    </clipPath>
    <linearGradient id="linear-gradient" x1="470.63" y1="-169.98" x2="470.66" y2="-170" gradientTransform="translate(-870300.23 -315013.06) scale(1849.27 -1853.39)" gradientUnits="userSpaceOnUse">
      <stop offset="0" stop-color="#387eb8"/>
      <stop offset="1" stop-color="#366994"/>
    </linearGradient>
    <linearGradient id="linear-gradient-2" x1="470.3" y1="-169.66" x2="470.33" y2="-169.68" gradientTransform="translate(-869655.63 -314385.64) scale(1849.27 -1853.39)" gradientUnits="userSpaceOnUse">
      <stop offset="0" stop-color="#ffe052"/>
      <stop offset="1" stop-color="#ffc331"/>
    </linearGradient>
  </defs>
  <g class="cls-1">
    <polygon class="cls-5" points="396.72 79.16 396.72 32.87 420.91 79.16 396.72 79.16"/>
    <polygon class="cls-5" points="396.72 12.49 376.35 32.87 372.29 36.92 346.73 62.49 396.72 112.49 396.72 79.16 372.53 79.16 396.72 32.87 396.72 12.49"/>
  </g>
  <g>
    <polygon class="cls-6" points="215.32 82.16 264.24 33.06 244.73 13.48 225.21 33.06 234.93 42.81 186.03 91.91 205.52 111.51 225.04 91.91 215.32 82.16"/>
    <polygon class="cls-6" points="156.82 62.59 205.73 13.47 225.24 33.06 176.32 82.17 156.82 62.59"/>
    <polygon class="cls-6" points="225.03 91.94 273.94 42.83 293.44 62.41 244.53 111.53 225.03 91.94"/>
  </g>
  <g>
    <path class="cls-3" d="m59.31,12.5c-25.52,0-23.93,11.07-23.93,11.07l.03,11.47h24.35v3.44H25.74s-16.33-1.85-16.33,23.9,14.25,24.84,14.25,24.84h8.51v-11.95s-.46-14.25,14.03-14.25h24.15s13.57.22,13.57-13.11v-22.05s2.06-13.34-24.61-13.34Zm-13.43,7.71c2.42,0,4.38,1.96,4.38,4.37,0,0,0,0,0,0,0,2.42-1.96,4.38-4.37,4.38,0,0,0,0,0,0-2.42,0-4.38-1.96-4.38-4.37,0,0,0,0,0,0,0-2.42,1.96-4.38,4.37-4.38,0,0,0,0,0,0Z"/>
    <path class="cls-4" d="m60.03,112.5c25.52,0,23.93-11.07,23.93-11.07l-.03-11.46h-24.35v-3.44h34.02s16.33,1.85,16.33-23.9-14.25-24.84-14.25-24.84h-8.51v11.95s.46,14.25-14.03,14.25h-24.15s-13.57-.22-13.57,13.12v22.05s-2.06,13.34,24.61,13.34h0Zm13.43-7.71c-2.42,0-4.38-1.96-4.38-4.37h0c0-2.43,1.96-4.39,4.37-4.39h0c2.42,0,4.38,1.96,4.38,4.37h0c0,2.43-1.96,4.39-4.37,4.39h0Z"/>
  </g>
</svg>