<?xml version="1.0" encoding="UTF-8"?>
<svg id="terraform-aws" xmlns="http://www.w3.org/2000/svg" viewBox="0 0 450 125">
  <defs>
    <style>
      .cls-1 {
        fill: #6b469c;
        fill-rule: evenodd;
      }

      .cls-1, .cls-2, .cls-3 {
        stroke-width: 0px;
      }

      .cls-2 {
        fill: #252f3e;
      }

      .cls-3 {
        fill: #f90;
      }
    </style>
  </defs>
  <g>
    <polygon class="cls-1" points="104.94 30.53 131.93 46.12 131.93 77.28 104.94 61.7 104.94 30.53"/>
    <polygon class="cls-1" points="134.89 46.12 134.89 77.28 161.88 61.7 161.88 30.53 134.89 46.12"/>
    <polygon class="cls-1" points="75 13.14 75 44.3 101.99 59.88 101.99 28.72 75 13.14"/>
    <polygon class="cls-1" points="104.95 96.28 131.93 111.86 131.93 80.9 131.93 80.7 104.95 65.11 104.95 96.28"/>
  </g>
  <g id="aws">
    <g>
      <path class="cls-2" d="m280.21,51.7c0,1.62.18,2.94.48,3.91.35.97.79,2.02,1.4,3.16.22.35.31.7.31,1.01,0,.44-.26.88-.83,1.32l-2.77,1.84c-.4.26-.79.4-1.14.4-.44,0-.88-.22-1.32-.61-.61-.66-1.14-1.36-1.58-2.06-.44-.75-.88-1.58-1.36-2.59-3.42,4.04-7.73,6.06-12.91,6.06-3.69,0-6.63-1.05-8.78-3.16-2.15-2.11-3.25-4.92-3.25-8.43,0-3.73,1.32-6.76,3.99-9.04,2.68-2.28,6.23-3.42,10.75-3.42,1.49,0,3.03.13,4.65.35s3.29.57,5.05.97v-3.2c0-3.34-.7-5.66-2.06-7.02-1.4-1.36-3.78-2.02-7.16-2.02-1.54,0-3.12.18-4.74.57-1.62.4-3.2.88-4.74,1.49-.7.31-1.23.48-1.54.57-.31.09-.53.13-.7.13-.61,0-.92-.44-.92-1.36v-2.15c0-.7.09-1.23.31-1.54s.61-.61,1.23-.92c1.54-.79,3.38-1.45,5.53-1.98,2.15-.57,4.43-.83,6.85-.83,5.22,0,9.04,1.19,11.5,3.56,2.41,2.37,3.64,5.97,3.64,10.8v14.22h.09Zm-17.82,6.67c1.45,0,2.94-.26,4.52-.79,1.58-.53,2.98-1.49,4.17-2.81.7-.83,1.23-1.76,1.49-2.81s.44-2.33.44-3.82v-1.84c-1.27-.31-2.63-.57-4.04-.75s-2.77-.26-4.13-.26c-2.94,0-5.09.57-6.54,1.76-1.45,1.19-2.15,2.85-2.15,5.05,0,2.06.53,3.6,1.62,4.65,1.05,1.1,2.59,1.62,4.61,1.62h0Zm35.25,4.74c-.79,0-1.32-.13-1.67-.44-.35-.26-.66-.88-.92-1.71l-10.32-33.93c-.26-.88-.4-1.45-.4-1.76,0-.7.35-1.1,1.05-1.1h4.3c.83,0,1.4.13,1.71.44.35.26.61.88.88,1.71l7.37,29.06,6.85-29.06c.22-.88.48-1.45.83-1.71.35-.26.97-.44,1.76-.44h3.51c.83,0,1.4.13,1.76.44.35.26.66.88.83,1.71l6.94,29.41,7.59-29.41c.26-.88.57-1.45.88-1.71.35-.26.92-.44,1.71-.44h4.08c.7,0,1.1.35,1.1,1.1,0,.22-.04.44-.09.7-.04.26-.13.61-.31,1.1l-10.58,33.93c-.26.88-.57,1.45-.92,1.71s-.92.44-1.67.44h-3.78c-.83,0-1.4-.13-1.76-.44s-.66-.88-.83-1.76l-6.8-28.31-6.76,28.27c-.22.88-.48,1.45-.83,1.76-.35.31-.97.44-1.76.44h-3.78Zm56.41,1.19c-2.28,0-4.57-.26-6.76-.79-2.19-.53-3.91-1.1-5.05-1.76-.7-.4-1.19-.83-1.36-1.23-.18-.4-.26-.83-.26-1.23v-2.24c0-.92.35-1.36,1.01-1.36.26,0,.53.04.79.13.26.09.66.26,1.1.44,1.49.66,3.12,1.19,4.83,1.54,1.76.35,3.47.53,5.22.53,2.77,0,4.92-.48,6.41-1.45,1.49-.97,2.28-2.37,2.28-4.17,0-1.23-.4-2.24-1.19-3.07-.79-.83-2.28-1.58-4.43-2.28l-6.36-1.98c-3.2-1.01-5.57-2.5-7.02-4.48-1.45-1.93-2.19-4.08-2.19-6.36,0-1.84.4-3.47,1.19-4.87s1.84-2.63,3.16-3.6c1.32-1.01,2.81-1.76,4.57-2.28s3.6-.75,5.53-.75c.97,0,1.98.04,2.94.18,1.01.13,1.93.31,2.85.48.88.22,1.71.44,2.5.7.79.26,1.4.53,1.84.79.61.35,1.05.7,1.32,1.1.26.35.4.83.4,1.45v2.06c0,.92-.35,1.4-1.01,1.4-.35,0-.92-.18-1.67-.53-2.5-1.14-5.31-1.71-8.43-1.71-2.5,0-4.48.4-5.84,1.23s-2.06,2.11-2.06,3.91c0,1.23.44,2.28,1.32,3.12s2.5,1.67,4.83,2.41l6.23,1.98c3.16,1.01,5.44,2.41,6.8,4.21,1.36,1.8,2.02,3.86,2.02,6.15,0,1.89-.4,3.6-1.14,5.09-.79,1.49-1.84,2.81-3.2,3.86-1.36,1.1-2.98,1.89-4.87,2.46-1.98.61-4.04.92-6.28.92h0Z"/>
      <path class="cls-3" d="m362.34,85.63c-14.44,10.67-35.42,16.33-53.46,16.33-25.28,0-48.07-9.35-65.27-24.89-1.36-1.23-.13-2.9,1.49-1.93,18.61,10.8,41.57,17.34,65.32,17.34,16.02,0,33.62-3.34,49.82-10.18,2.41-1.1,4.48,1.58,2.11,3.34h0Z"/>
      <path class="cls-3" d="m368.35,78.79c-1.84-2.37-12.2-1.14-16.9-.57-1.4.18-1.62-1.05-.35-1.98,8.25-5.79,21.82-4.13,23.4-2.19,1.58,1.98-.44,15.54-8.16,22.04-1.19,1.01-2.33.48-1.8-.83,1.76-4.35,5.66-14.13,3.82-16.46Z"/>
    </g>
  </g>
</svg>