<?xml version="1.0" encoding="UTF-8"?>
<svg id="terraform-vsphere" xmlns="http://www.w3.org/2000/svg" viewBox="0 0 450 125">
  <defs>
    <style>
      .cls-1 {
        fill: #6b469c;
        fill-rule: evenodd;
      }

      .cls-1, .cls-2, .cls-3, .cls-4 {
        stroke-width: 0px;
      }

      .cls-2 {
        fill: #78bd20;
      }

      .cls-3 {
        fill: #7abe24;
      }

      .cls-4 {
        fill: #edb308;
      }
    </style>
  </defs>
  <g>
    <polygon class="cls-1" points="104.94 30.53 131.93 46.12 131.93 77.28 104.94 61.7 104.94 30.53"/>
    <polygon class="cls-1" points="134.89 46.12 134.89 77.28 161.88 61.7 161.88 30.53 134.89 46.12"/>
    <polygon class="cls-1" points="75 13.14 75 44.3 101.99 59.88 101.99 28.72 75 13.14"/>
    <polygon class="cls-1" points="104.95 96.28 131.93 111.86 131.93 80.9 131.93 80.7 104.95 65.11 104.95 96.28"/>
  </g>
  <g>
    <path class="cls-2" d="m278.21,107.18c0-20.63,0-41.26.09-62.05,1.36-3.45,3.82-4.79,7.28-4.74,5.45.07,10.9.02,16.36.02.48,0,.96-.05,1.52-.07,0-.65,0-1.15,0-1.64,0-6.28,0-12.55,0-18.83,0-4.21,2.55-6.71,6.79-6.72,19.33,0,38.67,0,58,0,4.2,0,6.75,2.56,6.75,6.77,0,19.29,0,38.58,0,57.86,0,4.28-2.54,6.84-6.82,6.85-5.64,0-11.27,0-16.91,0-.49,0-.98,0-1.57,0,0,.65,0,1.14,0,1.63,0,6.41.02,12.83,0,19.24-.02,3.51-2.68,6.32-6.09,6.33-19.75.03-39.49.03-59.24,0-2.5,0-4.32-1.3-5.51-3.49-.21-.39-.43-.78-.64-1.16m92.63-88.16c-.54-1.3-1.5-1.77-2.91-1.77-19.2.03-38.4.02-57.6.02-2,0-2.69.7-2.69,2.7,0,7.7,0,15.4,0,23.1,0,.49,0,.98,0,1.62-.63,0-1.12,0-1.62,0-7.01,0-14.02,0-21.03,0-1.9,0-2.64.76-2.65,2.63,0,19.2,0,38.4,0,57.6,0,1.92.91,2.81,2.86,2.81,19.15,0,38.31,0,57.46,0,2.04,0,2.91-.87,2.92-2.89,0-7.61,0-15.21,0-22.82v-1.51c7.62,0,15.04,0,22.46,0,1.95,0,2.84-.88,2.84-2.83,0-19.48,0-38.95-.04-58.66Z"/>
    <path class="cls-4" d="m349.68,58.97c.02-6.9.02-13.67.02-20.51h-21.01v1.76c0,15.67-.04,31.34.04,47.01.01,2.85-1.37,3.74-3.66,3.71-7.47-.09-14.94-.08-22.4,0-2.11.02-3.51-1.06-3.48-3.51.09-7.51.03-15.03.04-22.54,0-2.76.61-3.35,3.41-3.35,5.82,0,11.63,0,17.55,0v4.09h-16.61v20.9h20.87c0-.54,0-1.08,0-1.61,0-15.76,0-31.52,0-47.28,0-2.75.76-3.52,3.47-3.52,7.56,0,15.12,0,22.68,0,2.56,0,3.24.7,3.24,3.27,0,7.74,0,15.49,0,23.23,0,2.14-.71,2.85-2.86,2.85-5.95,0-11.9,0-17.95,0v-4.13h2.43c4.26,0,8.52,0,12.78-.01.48,0,.95-.14,1.45-.35Z"/>
    <path class="cls-3" d="m288.69,73.36c0-6.46,0-12.78,0-19.11,0-2.53.81-3.34,3.38-3.34,6.69,0,13.38,0,20.07,0,.55,0,1.09,0,1.81,0v-1.56c0-7.51,0-15.03,0-22.54,0-2.37.83-3.2,3.22-3.2,14.07,0,28.13,0,42.2,0,.37,0,.74-.03,1.1.03,1.13.21,1.83.89,1.86,2.04.03,1.17-.73,1.84-1.8,2.09-.48.11-1,.07-1.5.07-13.01,0-26.02,0-39.04,0-.58,0-1.17,0-1.89,0v27.3h-25.14c0,.66,0,1.19,0,1.72,0,13.01,0,26.02,0,39.04,0,.5,0,1.01-.08,1.5-.19,1.15-.88,1.79-2.06,1.78-1.17,0-1.85-.68-2.08-1.79-.09-.44-.05-.91-.05-1.37,0-7.51,0-15.03,0-22.68Z"/>
  </g>
</svg>