<?xml version="1.0" encoding="UTF-8"?>
<svg id="terraform-proxmox" xmlns="http://www.w3.org/2000/svg" viewBox="0 0 450 125">
  <defs>
    <style>
      .cls-1 {
        fill: #6b469c;
        fill-rule: evenodd;
      }

      .cls-1, .cls-2, .cls-3 {
        stroke-width: 0px;
      }

      .cls-2 {
        fill: #fff;
      }

      .cls-3 {
        fill: #e57000;
      }
    </style>
  </defs>
  <g>
    <circle class="cls-3" cx="326.08" cy="62.5" r="48.92"/>
    <path class="cls-2" d="m326.07,61.14l-16.08-17.68c.63-.63,1.35-1.11,2.18-1.47s1.72-.54,2.68-.54c1.01,0,1.94.21,2.78.6s1.57.94,2.2,1.62l6.25,6.82,6.21-6.82c.64-.68,1.39-1.23,2.24-1.62s1.78-.59,2.77-.6c.95,0,1.85.19,2.68.54s1.55.85,2.18,1.47l-16.08,17.68Zm0,2.71l16.07,17.68c-.63.63-1.35,1.11-2.18,1.47s-1.72.54-2.68.54c-1.01,0-1.94-.21-2.78-.6s-1.57-.94-2.2-1.62l-6.25-6.82-6.21,6.82c-.64.68-1.39,1.23-2.24,1.62s-1.78.59-2.77.6c-.95,0-1.85-.19-2.68-.54s-1.55-.85-2.18-1.47l16.09-17.68Zm-1.36-1.36l-12.11-13.28c-.7-.75-1.52-1.34-2.46-1.78s-1.95-.65-3.03-.66c-1.04,0-2.02.2-2.93.59s-1.7.93-2.39,1.61l12.29,13.5-12.29,13.5c.68.7,1.48,1.26,2.39,1.65.9.39,1.88.59,2.93.6,1.09,0,2.1-.23,3.05-.66s1.76-1.02,2.44-1.78l12.11-13.3Zm2.71,0l12.11-13.28c.7-.75,1.52-1.34,2.46-1.78s1.95-.65,3.03-.66c1.04,0,2.02.2,2.93.59s1.7.93,2.39,1.61l-12.29,13.5,12.29,13.5c-.68.7-1.48,1.26-2.39,1.65s-1.88.59-2.93.6c-1.09,0-2.1-.23-3.05-.66s-1.76-1.02-2.44-1.78l-12.11-13.3Z"/>
  </g>
  <g>
    <polygon class="cls-1" points="104.94 30.53 131.93 46.12 131.93 77.28 104.94 61.7 104.94 30.53"/>
    <polygon class="cls-1" points="134.89 46.12 134.89 77.28 161.88 61.7 161.88 30.53 134.89 46.12"/>
    <polygon class="cls-1" points="75 13.14 75 44.3 101.99 59.88 101.99 28.72 75 13.14"/>
    <polygon class="cls-1" points="104.95 96.28 131.93 111.86 131.93 80.9 131.93 80.7 104.95 65.11 104.95 96.28"/>
  </g>
</svg>